<?xml version="1.0" encoding="utf-8"?>
<!-- Generator: Adobe Illustrator 17.1.0, SVG Export Plug-In . SVG Version: 6.00 Build 0)  -->
<!DOCTYPE svg PUBLIC "-//W3C//DTD SVG 1.1//EN" "http://www.w3.org/Graphics/SVG/1.1/DTD/svg11.dtd">
<svg version="1.1" id="Слой_1" xmlns="http://www.w3.org/2000/svg" xmlns:xlink="http://www.w3.org/1999/xlink" x="0px" y="0px"
	 viewBox="0 0 1920 1080" enable-background="new 0 0 1920 1080" xml:space="preserve">
<path d="M1505.4,548.1c0,172.8-0.3,345.6,0.5,518.4c0.1,16.1-3.3,19.4-19.4,19.3c-347.4-0.6-694.8-0.6-1042.2,0
	c-16.1,0-19.4-3.2-19.3-19.3c0.6-347.4,0.6-694.8,0-1042.2c0-16.1,3.2-19.4,19.3-19.3c347.4,0.6,694.8,0.6,1042.2,0
	c16.1,0,19.4,3.2,19.4,19.3C1505.1,198.9,1505.4,373.5,1505.4,548.1z"/>
<path d="M789.1,674.1c-4.3,0.8-8.7,6.5-13,0c-13.8-24.4-19.1-52.1-30.6-77.4c-4.1-8.9-7.3-19.4-19.3-19.9
	c-13.6-0.6-17.3,10.6-21.7,20.5c-5.1,11.5-9,23.4-13.4,35.2c-6.7,18-19.7,24.7-38.1,21.4c-17.8-3.2-17.9-17.3-19-31
	c-1.1-13.8,2.6-28.2-5.7-45.7c-14.3,33.9,1.8,67.3-11.7,96.9c-7.5-1-9.9-4.4-9.4-12.7c1.4-21.4,1.2-42.9,1.7-64.4
	c0.4-17.1-4.4-36,16.2-45.9c6.6-7.9,16.1-6.7,24.9-7.9c39.2-5.5,50.4-19.5,48-59.8c-0.5-7.9-3.4-16,1.2-23.7
	c28.4,2.4,3.1-15.1,8.5-22.2c16.2,0,33.1-0.1,49.9,0c7.8,0,16.6-1.5,18.8,9.7c-4.4,5.9-10.8,4.8-16.9,4.8
	c-34.5,0.1-34.7,0.1-34.6,35.4c0,15.8-1.5,31.8,1.6,47.4c7.4,9.1,9,3,10.5-3.9c2.2-9.8,1.9-22,17.5-20.4c5.3,1.8,9,5.6,12.6,9.6
	c27,29.4,27.3,29.1,61,8.8c15.5-9.4,34.2-11.3,47.2,1.8c12.4,12.4,21.2,7.5,32,1.1c22,5.1,43.2,15.3,66.9,10.9
	c4.4-0.8,8.2,2.6,8.4,8c-12.4,2.7-12.3,9.5-8.5,20.2c7.1,19.8-4.1,26.4-21.7,24.8c-11.8-1-23.3-4.1-30.2,9.4
	c-9.9-12.1-9.9-14.4,0-20.1c7.1-4,15.8-2.1,24-6.7c-6.8-4.6-13.8-2.6-20.3-3.2c-20.4-1.8-28.7,7-28.9,28
	c-0.2,23.8,5.6,48.3-5.4,71.3c-3.2,0-6.3-0.1-9.5-0.1c-9.7-8.3-16.1-19.3-23.2-29.6c-23.5-34.2-23.6-34.2-0.3-67.7
	c-8.2-0.5-12.9,5.3-18.4,9.5c-23.5,18.4-23.5,18.5-38.8-7.8c-10,7.1-6.3,17.6-7.2,26.5C792,628,799.2,651.7,789.1,674.1z"/>
<path fill="#FAFAFA" d="M718.1,545.3c-0.6-30.1-0.8-60.2-2-90.3c-0.4-11,4.2-13.5,14.1-13.1c15.6,0.6,31.2-0.9,46.2,5.1
	c26,11.3,32.2,28.5,14.9,48.6c-14.2,16.4,0.3,22.8,8.9,37c10-27.3,19.4-50.7,27-74.7c4-12.6,10.6-16.2,23.2-16.1
	c12.1,0.1,18.9,2.6,23.8,15.3c8.8,22.8,11.7,48.4,28.7,67.8c5.5,0.7,5.3,3.8,3.1,7.6c-10.8,1.4,7.9,19.2-10,17.5
	c-9-0.9-16.5-0.1-21.8-10.5c-6-11.8-36.6-14.4-45.6-5.4c-24.6,24.5-43.9,22.8-63.7-5.7c-3.5-5.1-6.7-10.4-10-15.6
	c-16.8-5.1-13.9,7.5-13.4,16C742.5,547.4,734.8,552.3,718.1,545.3z"/>
<path fill="#FBFBFB" d="M616.7,673.9c-5.4-32.1-0.9-64.4-2.5-96.6c-0.7-12.8,7.8-10.9,15.9-11.6c10.3-0.8,11.8,4.5,11.6,13
	c-0.4,15.2-1.3,30.6,0.4,45.7c0.9,8.4-9.1,23,10.6,24.2c15.2,0.9,27.7,0.5,32.1-18.6c3.6-15.6,11.1-30.2,15.8-45.6
	c3.8-12.1,8.6-19,23.7-19.3c16.4-0.3,21.9,7.3,25.4,20.6c7.9,29.7,26.1,56.4,26.5,88.4c-11-3-22.3,0.8-30.3-15.6
	c-6.2-12.7-36.6-10.2-40.3-2.2c-12,25.6-31.9,14.2-48.5,16.3C643.7,674.3,630.1,673.6,616.7,673.9z"/>
<path fill="#F7F7F7" d="M1217.4,549.9c-19.5,3.3-31.8-4.7-39.9-22.7c-5.3-11.8-13.4-22.3-25.3-32.2c0,13.8-0.4,27.7,0.1,41.5
	c0.4,11.1-5.4,13.2-15,13.4c-10.2,0.1-11.9-5.3-11.8-13.5c0.1-25.1-0.3-50.2,0.3-75.2c0.1-6.9-4.9-18,8.1-18.7
	c9.1-0.5,19.8-4.1,26.4,7.4c8.8,15.3,18.3,30.1,32.4,44.7c0-9.2,1.2-18.6-0.2-27.5c-3.5-22.3,6.1-28.8,26.5-24.2
	c7.3,19,8.6,38.9,8.4,59C1226.4,518.4,1226.7,535.2,1217.4,549.9z"/>
<path fill="#F9F9F9" d="M906,532.5c-1-2.5-2.1-5.1-3.1-7.6c-9.8-50.4,3-77.5,39.9-84.1c28.2-5.1,46.7,5.5,59.2,35.6
	c-11.3,3-21.4,6.4-31.3-3.5c-12.4-12.6-26.6-13.1-36.8,0.8c-11,14.9-11.3,33.2,1.6,47.1c12.7,13.7,26.8,9.9,39.2-4.2
	c-4.7-7.5-11.4-4.7-16.8-5.3c-7.1-0.8-7.9-5.7-8.2-11.4c-0.3-7.3,4-9.2,10-9c14.3,0.3,28.6,0.6,42.9,1c16,17.6,0.6,35.8,1,53.7
	c-5.6,7.6-14.2,2.5-21,5c-1.9-3.3-4.8-6.2-8.5-4.5C948,558,926.2,549.4,906,532.5z"/>
<path fill="#FBFBFB" d="M1007.8,491.3c4.2-24.7,14.9-43.7,41.6-49.6c28.8-6.4,55,5,65,29c10.6,25.5,2.1,58.2-18.9,72.2
	c-21.7,14.5-54.8,10.9-73.8-8.3c-3.1-3.1-5.5-7-8.2-10.5C1005.3,514.2,1004.1,503.1,1007.8,491.3z"/>
<path fill="#FBFBFB" d="M699.3,459.6c25.2,61.1-7,95.1-58.1,90.2c-5.2-0.5-10.6,0.8-16,1.2c-11.2-1.1-11.2-9-11.1-17.5
	c0.2-25.2,0.1-50.3,0.1-75.5c0-8.3-1.1-16.2,11.7-16C651.7,442.5,678.3,439,699.3,459.6z"/>
<path fill="#FAFAFA" d="M1229.2,458.8c7.3-12.5,18.2-18.6,32.7-18.3c5.7,0.1,13.3,2.5,11.2-8.2c-4.3-18.3,6.4-14.1,16.5-11.1
	c11.2,10.7,10.1,26.3,16,39.2c2.8,18.8-11.3,13.8-21.1,15.1c-5.2-0.4-10.2-3.5-15.6-2.2c-3.5,0.8-3.4,4.6-0.7,2.2
	c2.7-2.4,0.7,5.4,1.9,1.9c8.3,3,18.1,0.9,24.9,8.2c18.2,7.7,26.9,21.1,21.5,40.6c-5.1,18.4-20.7,23.3-37.5,24.9
	c-18.6,1.7-35.8-1.6-49-16.4c-12.9-21.4-10.3-25.5,16.7-26.4c9.7,1.7,15,15.4,27.8,10.5c-4.2-7.5-12.6-4.1-17.9-7.6
	c-4.6-3.3-10.4-3.6-15.5-5.6C1221.7,493.8,1221.3,477.4,1229.2,458.8z"/>
<path fill="#FAFAFA" d="M789.1,674.1c-6.7-31.1-1.2-62.5-3.1-93.7c-0.6-9.4,1.3-14.9,12.8-14.9c11.8,0,16.4,3.9,14.9,15.6
	c-0.7,5.2-0.1,10.5,6.3,21.3c7.4-9.5,14.9-19,22.3-28.5c9.6-12.4,22.5-7.5,34.7-7.2c0.4,2.1,1.5,4.4,0.8,5.2
	c-33.5,38.5-33.4,38.4-4.7,81.1c4.3,6.3,11.8,11.6,9.2,21.1c-25.3,3.7-38.2-11.6-49.1-30.9c-2.7-4.8-5.2-12.9-13.1-10.3
	c-7,2.3-7.4,10-6.2,15.9C818,669.6,807,675,789.1,674.1z"/>
<path fill="#F9F9F9" d="M891.7,674.1c-0.6-31.3-1.3-62.5-1.7-93.8c-0.1-5.7-2.3-13.9,7.4-14.1c20.6-0.4,41.2-0.3,61.7,0
	c7.8,0.1,6.6,6.8,6.8,11.9c0.2,5.8-0.6,10.7-8.2,10.7c-9.8,0-19.7-0.2-29.5,0.1c-14.1,0.5-13.1,7-6,15.7c1.7,0.6,3.3,1.3,5,1.9
	c10,4.1,28.7-9,29.7,11.8c1.1,22.6-18.2,9.4-28.1,12.5c-5,1.5-10.9,0.2-11.4,7.9c-0.6,9.5,5.8,9.5,12.4,9.5c9,0,18,0.3,27,0
	c7.9-0.3,11.4,3.1,11.6,11c0.3,8.6-2.2,13.6-11.9,13.7C934.8,673.1,913.3,673.7,891.7,674.1z"/>
<path d="M1229.2,458.8c-2.2,17.6-2,34.3,16.8,43.9c-8.8,10.8-13.9,10.7-25.9-0.6c-0.4-19.8-0.8-39.5-1.2-59.3
	C1226.5,445.5,1223.2,455.2,1229.2,458.8z"/>
<path d="M1220.1,502.2c8.5,4.9,17.1,10.2,25.9,0.6c4.1,1.4,8.1,2.7,12.2,4.1c-0.8,4-3.3,6.4-7.2,7.3c-15.2-1.5-34.5-7.3-21.1,20.6
	c-7.3,2.5-3.3,14.2-12.5,15.2C1218.3,534,1219.2,518.1,1220.1,502.2z"/>
<path d="M1007.8,491.3c1.9,10.9,3.9,21.8,5.8,32.7c-8.4,4.8-1.7,16.6-10,21.5c-0.3-17.9-0.6-35.8-1-53.7
	C1004.3,491.3,1006,491.2,1007.8,491.3z"/>
<path d="M1294.9,485.5c-11.4-0.9-23.3,2.2-34.1-4c7.2-10.7,19.4-4.2,28.5-8.1c5.6-0.4,11.6-2.8,16.4,2.6
	C1302.1,479.1,1298.5,482.3,1294.9,485.5z"/>
<path fill="#F3F3F3" d="M1305.7,475.9c-5.5-0.1-11-0.1-16.5-0.2c-6.1,2.6-11.2,3.7-9.5-6c8.9-2.3,21.7,6,25.7-9.4
	C1312.1,465.5,1314.9,470.6,1305.7,475.9z"/>
<path fill="#F3F3F3" d="M1289.6,421.2c-7.9,0.1-15.8,0.3-16.5,11.1c-4.3-3.7-7.3-10.8-3.5-13.2
	C1275.2,415.6,1283.8,412.8,1289.6,421.2z"/>
<path fill="#F2F2F2" d="M718.1,545.3c14.1,1.3,21.6-3.2,20.7-19.2c-0.6-9.4-3.2-25.8,16.1-13.4c-18.8-2.6-10.5,11.9-11.3,19.3
	C741.5,552.4,742,552.5,718.1,545.3z"/>
<path d="M744.4,464.5c2.6,0,5.3-0.1,7.9-0.1c9.5,0,21.8-2,22.7,11.2c0.9,13.3-11.8,12.6-21.1,14c-2.6,0.4-5.2,0.7-7.8,1.1
	C737.7,482.5,741,473.5,744.4,464.5z"/>
<path d="M848.9,471.5c8.7,11.9,11.4,22.9,13.4,34.2c-7.4,3.8-14.4,2.7-22.4,1.1C838,494.7,845.4,485.2,848.9,471.5z"/>
<path fill="#F2F2F2" d="M744.4,464.5c-2.3,8.9-2.5,17.7,1.8,26.2C734.2,482.8,736.2,473.8,744.4,464.5z"/>
<path d="M725.6,595.4c4.2,11.8,7.9,22.2,11.9,33.1c-8.8,5.1-16.9,4.1-25.6,0.9C715.2,618.1,717.1,606.7,725.6,595.4z"/>
<path d="M1090.2,499.8c-1.2,16.6-9.6,28.7-28.1,27.5c-20.3-1.3-26.3-16.9-25.2-34.5c1.1-16.8,9.2-29.9,28.4-28.6
	C1086.4,465.6,1090.4,481,1090.2,499.8z"/>
<path d="M680.6,488c-0.4,20.7-3,32.8-18.3,36.2c-12.5,2.8-23.8,3.1-20.9-15.6c0.8-5.2-1.2-11.1,0.4-15.9
	c3.1-9.5-10.8-27.9,12.4-27.1C672.5,466,681.3,477.1,680.6,488z"/>
<path d="M1251,514.1c2.4-2.4,4.8-4.9,7.2-7.3c0.9-0.1,1.8-0.4,2.7-0.2c9.9,1.7,22.6-5.1,28.6,7.8c3.3,7-2,12.6-8.7,13.7
	C1268.2,530.2,1255.2,530.9,1251,514.1z"/>
<path d="M1279.8,469.7c0.1,6.8,6.4,3.9,9.5,6c-8.3,7.8-19.3,1.9-28.4,5.7c-7.8-0.3-12.6-4.7-7.4-11.2
	C1261,460.8,1270.8,461.5,1279.8,469.7z"/>
</svg>
