<?xml version="1.0" standalone="no"?>
<!DOCTYPE svg PUBLIC "-//W3C//DTD SVG 20010904//EN"
 "http://www.w3.org/TR/2001/REC-SVG-20010904/DTD/svg10.dtd">
<svg version="1.0" xmlns="http://www.w3.org/2000/svg"
 width="523.000000pt" height="370.000000pt" viewBox="0 0 523.000000 370.000000"
 preserveAspectRatio="xMidYMid meet">

<g transform="translate(0.000000,370.000000) scale(0.100000,-0.100000)"
fill="#000000" stroke="none">
<path d="M193 3692 c-8 -5 -9 -13 -3 -22 11 -17 23 -8 18 14 -2 9 -8 12 -15 8z"/>
<path d="M849 3686 c8 -9 8 -28 1 -64 -9 -48 -8 -53 15 -76 29 -29 31 -23 10
27 -20 49 -19 58 8 52 18 -5 23 -2 23 14 0 12 -4 21 -8 21 -4 0 -8 5 -8 11 0
5 5 7 10 4 6 -3 10 1 10 9 0 12 -10 16 -36 16 -30 0 -34 -3 -25 -14z"/>
<path d="M1625 3682 c-205 -94 -459 -237 -449 -253 3 -5 0 -8 -8 -7 -7 2 -12
-3 -10 -10 1 -8 -2 -11 -8 -7 -11 7 -124 -71 -157 -109 -26 -30 -28 -44 -8
-70 13 -17 14 -16 9 16 -5 31 -3 36 17 41 13 4 26 2 30 -4 4 -7 17 -7 40 -1
l34 10 -31 1 c-16 1 -38 7 -48 14 -17 12 -17 14 -2 20 9 4 16 2 16 -3 0 -6 15
-10 34 -10 19 0 36 -3 39 -7 2 -5 2 -2 0 5 -6 24 8 34 22 15 8 -10 17 -14 22
-9 4 5 3 11 -4 13 -7 2 -9 11 -6 19 4 12 7 12 18 -3 11 -15 13 -15 23 4 9 15
7 25 -5 43 -9 13 -11 20 -4 16 13 -8 76 17 86 34 4 6 11 8 16 5 5 -4 19 1 31
11 13 9 16 14 8 11 -8 -2 -20 1 -26 7 -12 13 -7 36 7 36 4 0 6 -7 3 -15 -4 -8
-1 -15 5 -15 6 0 11 5 11 11 0 8 5 7 16 -2 13 -11 15 -11 14 2 -5 38 27 78 51
63 14 -8 11 -19 -18 -56 -31 -39 -40 -53 -80 -115 -15 -23 -30 -40 -34 -38 -4
3 -6 -3 -5 -13 0 -9 -5 -16 -12 -14 -8 1 -11 -2 -8 -7 6 -9 -28 -87 -66 -151
-97 -164 -215 -373 -264 -467 -22 -42 -28 -64 -21 -67 9 -5 9 -8 0 -12 -14 -6
-18 -34 -5 -34 4 0 12 11 18 25 9 18 9 25 0 28 -21 8 49 29 109 32 52 3 64 0
89 -22 23 -20 26 -27 15 -34 -19 -12 -72 -11 -64 1 3 6 15 10 25 10 14 0 18 5
13 16 -4 12 -15 15 -42 11 -46 -6 -63 -11 -78 -20 -7 -5 -18 -5 -24 -2 -5 4
-15 -7 -21 -23 -11 -28 -43 -52 -70 -52 -9 0 -9 3 0 12 7 7 12 19 11 28 0 13
-1 13 -6 0 -3 -8 -13 -24 -22 -34 -9 -11 -10 -16 -3 -12 6 4 12 3 12 -2 0 -13
50 -7 92 12 50 21 68 20 40 -4 -12 -10 -28 -20 -34 -22 -7 -3 -9 -12 -5 -22 7
-17 10 -16 41 8 19 14 40 26 47 26 8 0 5 9 -8 23 -37 41 -37 52 -1 22 42 -34
45 -41 21 -49 -10 -4 -29 -16 -43 -27 -19 -16 -20 -19 -6 -15 12 4 4 -9 -23
-39 -34 -37 -61 -81 -61 -100 0 -2 12 3 28 11 15 7 38 14 52 15 23 0 23 1 5 9
-16 6 -17 9 -5 13 35 12 60 15 66 6 3 -5 -5 -9 -18 -10 -20 0 -21 -1 -5 -8 17
-6 17 -8 3 -20 -9 -7 -16 -18 -16 -24 0 -5 10 -2 23 9 l22 19 -19 -22 c-10
-12 -23 -21 -28 -20 -6 1 -12 -5 -13 -14 -4 -24 -36 -69 -48 -69 -6 0 0 11 13
25 18 20 20 25 8 25 -26 0 -98 -42 -91 -53 4 -6 -4 -3 -17 6 -29 20 -51 7 -42
-26 3 -12 1 -19 -3 -15 -4 4 -23 1 -41 -7 -31 -13 -37 -12 -70 7 -30 18 -35
25 -30 47 4 14 11 65 16 114 5 48 14 95 19 105 5 9 9 28 9 42 0 14 3 44 7 67
4 24 3 55 -4 75 -10 31 -10 32 5 13 15 -19 16 -18 10 17 -4 20 -2 39 3 42 5 3
12 25 16 49 4 23 11 49 15 57 5 8 2 33 -6 55 -17 51 -17 69 1 30 15 -32 15
-32 22 5 8 46 2 113 -12 141 -21 39 -18 48 5 20 14 -16 20 -19 20 -8 0 8 -7
20 -15 27 -8 7 -15 17 -15 22 0 6 7 5 15 -2 22 -18 31 -4 18 28 -6 15 -14 36
-18 47 -7 20 -6 20 9 1 15 -18 21 -15 16 9 -1 5 4 28 10 52 16 56 -4 133 -34
133 -16 0 -17 -3 -8 -12 7 -7 12 -21 12 -31 0 -16 -3 -17 -15 -7 -20 16 -20
-7 -1 -33 8 -10 12 -27 9 -37 -6 -23 -19 -26 -26 -7 -4 7 -6 6 -6 -4 -1 -9 6
-19 14 -23 9 -3 12 -12 9 -21 -4 -9 -13 -14 -20 -11 -20 8 -26 -10 -9 -24 20
-16 20 -44 0 -36 -16 6 -20 -5 -7 -18 9 -10 10 -56 1 -56 -4 0 -9 8 -11 18 -2
11 -6 13 -11 5 -4 -6 6 -24 24 -42 22 -23 32 -43 35 -74 3 -32 2 -37 -5 -22
-5 11 -13 34 -17 50 l-7 30 -8 -25 -7 -25 -7 22 c-4 13 -11 20 -16 17 -5 -3 0
-17 11 -31 27 -35 27 -67 0 -58 -11 4 -20 2 -20 -4 0 -6 4 -11 8 -11 4 0 18
-20 30 -45 12 -25 17 -45 12 -45 -5 0 -12 11 -16 25 -6 24 -7 24 -20 8 -8 -11
-13 -13 -14 -5 0 6 -5 12 -12 12 -6 0 -4 -7 5 -18 10 -10 17 -27 17 -37 0 -14
-3 -15 -15 -5 -9 7 -18 10 -22 7 -3 -4 5 -15 17 -25 24 -20 20 -45 -5 -35 -19
7 -19 -6 0 -27 20 -22 9 -56 -11 -39 -20 16 -19 -5 2 -36 17 -26 10 -50 -12
-41 -16 6 -19 -10 -4 -19 16 -10 12 -45 -5 -45 -17 0 -20 -21 -5 -36 15 -15 2
-44 -17 -37 -13 5 -14 3 -2 -18 7 -13 12 -30 10 -37 -1 -8 5 -19 14 -25 8 -7
18 -30 20 -52 l5 -40 -11 35 c-21 67 -37 57 -30 -19 2 -18 -2 -22 -13 -18 -19
7 -19 6 -6 -27 6 -16 6 -27 0 -31 -6 -4 -10 -15 -10 -26 0 -25 -17 -25 -25 0
-3 11 -22 25 -41 31 -19 7 -31 16 -28 22 4 6 -1 8 -14 4 -11 -4 -23 -2 -27 4
-3 6 -11 8 -16 5 -15 -10 -159 18 -152 28 4 6 -5 7 -21 3 -14 -3 -26 -4 -26
-1 0 16 63 262 80 310 20 60 13 62 -30 11 -14 -17 -36 -42 -50 -56 -27 -28
-92 -106 -125 -150 -11 -15 -37 -50 -58 -78 -42 -56 -53 -62 -60 -34 -4 16 -5
16 -6 0 0 -10 -8 -18 -16 -18 -8 0 -15 -4 -15 -8 0 -4 42 -4 93 0 122 11 293
-6 337 -34 10 -6 8 -7 -10 -2 -22 6 -23 5 -11 -9 11 -14 11 -17 0 -21 -10 -3
-310 -15 -401 -16 -5 0 -8 -79 -8 -175 l0 -175 39 0 c21 0 60 -3 87 -6 28 -3
44 -2 37 3 -9 6 -5 30 16 98 25 81 31 90 61 103 18 7 30 15 27 18 -3 3 -15 1
-26 -6 -33 -17 -81 -21 -75 -6 3 7 -7 21 -21 30 -15 10 -25 19 -23 22 8 7 210
34 257 34 56 0 46 -11 -36 -40 -35 -13 -63 -26 -63 -31 0 -9 28 -1 46 13 18
14 164 48 206 48 25 0 41 5 44 15 6 15 57 17 80 2 17 -10 47 -133 37 -151 -7
-12 -15 -5 -42 34 -19 28 -36 48 -39 45 -3 -3 2 -13 10 -22 30 -35 50 -85 43
-111 l-6 -26 -25 30 -25 29 26 -41 c15 -24 23 -48 19 -58 -5 -14 -11 -12 -40
14 -49 43 -55 37 -10 -9 21 -22 35 -44 32 -50 -16 -25 -109 -2 -127 30 -12 24
-26 24 -33 1 -3 -9 -19 -32 -34 -49 l-29 -31 51 -6 c28 -4 58 -11 66 -16 26
-17 -21 -12 -132 14 -138 33 -212 46 -313 54 l-85 8 0 -107 c0 -77 4 -109 13
-112 9 -3 9 -7 -1 -19 -9 -11 -12 -43 -10 -105 l3 -88 23 73 23 72 58 0 58 0
8 -42 c5 -24 8 -54 8 -68 -1 -14 -1 -40 -2 -57 l-1 -33 -90 0 -90 0 0 -310 0
-310 33 -1 c17 -1 36 -1 40 0 5 1 6 -3 2 -9 -4 -6 -12 -10 -18 -9 -38 5 -57
-26 -50 -78 6 -36 20 -43 30 -15 12 32 35 39 139 39 56 1 116 4 134 8 19 4 36
2 45 -5 13 -11 14 -7 9 21 -5 32 -5 33 10 15 9 -11 16 -23 16 -28 0 -4 5 -8
10 -8 6 0 10 9 10 20 0 17 3 19 19 8 11 -7 18 -14 16 -18 -1 -3 31 -6 72 -8
73 -3 75 -3 127 36 113 85 223 132 503 212 114 33 164 43 167 34 2 -6 -1 -11
-7 -10 -21 1 -188 -54 -302 -101 -103 -42 -226 -114 -255 -148 -12 -14 -9 -15
20 -10 l34 6 -20 -22 -19 -23 30 20 c58 40 104 41 69 3 -9 -10 -12 -19 -6 -19
6 0 14 5 17 10 3 6 17 10 31 10 14 0 22 4 19 10 -3 6 1 7 9 4 9 -3 14 -10 11
-14 -3 -4 2 -10 10 -13 9 -4 12 -1 8 9 -7 18 11 18 27 -1 11 -13 14 -13 27 0
38 38 138 -5 163 -70 l15 -40 94 1 c102 1 92 -4 151 72 17 22 19 23 10 5 -9
-19 -8 -23 5 -23 8 0 15 -5 15 -11 0 -8 5 -8 15 1 12 10 15 10 15 0 0 -7 7
-10 15 -6 13 5 14 2 4 -16 -10 -19 -9 -20 17 -13 31 7 77 14 138 19 33 3 37 1
23 -9 -9 -7 -17 -14 -17 -17 0 -9 233 43 455 102 83 22 206 53 275 70 69 17
134 34 145 39 11 6 46 13 78 16 49 6 126 20 319 62 15 3 37 16 49 29 21 22 23
22 36 6 12 -15 13 -14 8 14 -4 21 -1 35 10 44 8 7 15 23 15 36 0 12 5 35 10
50 9 22 15 26 39 21 28 -6 63 10 89 41 6 9 12 42 12 74 0 66 -12 78 -57 56
-26 -13 -28 -17 -25 -63 4 -65 -13 -90 -65 -91 -21 -1 -45 -3 -53 -5 -9 -3
-15 3 -14 14 0 9 1 51 2 92 2 81 16 100 25 34 5 -41 28 -68 59 -69 20 0 44 36
28 42 -9 3 -30 99 -30 141 0 10 15 24 36 34 35 17 36 17 54 -5 20 -24 56 -31
47 -8 -4 11 -1 11 19 2 13 -6 24 -14 24 -18 0 -5 8 -8 18 -8 14 0 12 4 -8 20
-14 11 -29 20 -35 20 -5 0 -23 7 -40 16 -16 9 -52 17 -80 18 -49 1 -50 2 -53
34 -2 24 1 32 12 32 9 0 16 -6 17 -12 0 -7 9 18 19 55 10 37 30 86 44 107 25
38 97 86 110 73 14 -15 4 -61 -24 -103 -16 -25 -30 -48 -30 -51 0 -3 18 -25
41 -48 35 -38 42 -41 57 -30 64 52 92 42 51 -17 -17 -25 -28 -51 -25 -59 2 -7
25 -23 50 -34 31 -13 46 -26 46 -39 0 -26 31 -52 61 -52 15 0 37 12 54 30 37
39 51 38 28 -1 l-18 -31 38 -31 c22 -19 37 -41 37 -54 0 -35 16 -36 64 -2 41
30 47 31 67 17 20 -13 25 -12 58 19 20 18 43 33 51 33 9 0 34 -18 55 -40 33
-34 37 -42 25 -50 -8 -5 -23 -10 -33 -10 -10 0 -26 -13 -35 -30 -16 -28 -32
-39 -32 -22 0 4 -14 23 -30 42 -17 19 -28 28 -25 19 4 -11 -1 -18 -15 -22 -11
-3 -27 -21 -35 -41 -16 -38 -24 -43 -42 -25 -14 14 -46 4 -83 -28 -30 -25 -42
-59 -17 -51 26 10 255 44 422 63 28 3 67 8 88 11 l38 6 -7 41 c-3 23 -18 58
-32 79 -29 45 -41 51 -16 8 24 -39 8 -53 -19 -18 -12 15 -33 40 -45 55 l-24
28 21 -32 c26 -38 26 -52 4 -69 -29 -22 -39 -17 -101 47 -53 54 -62 59 -87 53
l-28 -7 33 41 c26 33 40 42 65 42 40 0 50 -9 27 -26 -15 -11 -12 -12 20 -10
27 2 35 0 31 -10 -3 -8 -3 -14 1 -14 5 0 114 132 146 177 9 13 31 24 58 28
l43 7 -5 -64 c-3 -34 -12 -101 -21 -148 -29 -159 -30 -175 -7 -177 26 -2 49
51 60 137 l8 65 14 -73 c14 -75 30 -104 30 -55 1 24 2 26 11 10 6 -9 14 -15
19 -12 5 3 19 1 30 -5 17 -9 20 -8 20 10 0 11 -4 20 -10 20 -5 0 -10 4 -10 10
0 9 -53 87 -84 122 -20 23 -57 168 -49 196 3 12 13 22 23 22 19 0 23 8 35 68
5 25 3 32 -9 32 -9 0 -16 8 -16 20 0 11 6 20 14 20 9 0 16 19 20 63 15 152 16
158 45 169 35 14 191 40 265 44 74 4 101 22 118 78 l13 44 85 -25 c47 -13 88
-27 92 -31 4 -4 9 -99 12 -212 3 -113 8 -280 12 -371 l6 -165 29 4 c17 3 29 0
29 -7 0 -6 -13 -11 -30 -11 -29 0 -30 -1 -30 -50 0 -29 -5 -50 -11 -50 -6 0
-8 8 -5 17 8 26 -5 41 -38 45 -44 5 -46 28 -2 28 32 0 36 3 34 25 -2 24 -18
37 -18 15 0 -6 -12 -9 -27 -7 -16 3 -27 10 -26 16 2 6 -4 11 -12 11 -9 0 -18
7 -21 15 -7 18 -50 20 -57 3 -4 -10 -6 -10 -6 -1 -1 9 -16 10 -53 6 -37 -5
-49 -3 -44 5 4 7 19 12 33 12 15 0 24 3 21 6 -3 3 -25 5 -49 6 -24 0 -56 6
-70 13 -15 8 -31 10 -39 5 -8 -5 -17 -5 -20 0 -3 5 -12 5 -20 -1 -13 -8 -11
-12 10 -28 13 -11 28 -17 33 -14 5 3 17 -4 28 -15 10 -12 27 -26 36 -31 16 -9
16 -12 3 -21 -9 -6 -10 -10 -3 -10 6 0 15 4 18 10 9 15 39 12 61 -6 18 -15 18
-15 -3 -5 -16 8 -29 8 -46 0 -17 -8 -30 -8 -43 -1 -16 9 -19 6 -21 -17 l-2
-28 75 1 c40 1 74 5 74 10 0 5 3 7 6 4 3 -4 1 -15 -5 -27 -9 -17 -8 -22 10
-31 12 -7 30 -10 40 -7 10 3 19 1 19 -3 0 -22 115 -28 305 -15 28 2 60 4 73 4
19 1 22 6 22 41 0 22 -4 41 -10 42 -5 0 -16 1 -22 2 -7 1 -16 6 -20 11 -5 6
-8 5 -8 -2 0 -7 -4 -13 -10 -13 -5 0 -10 7 -10 15 0 12 -4 11 -19 -4 -10 -10
-21 -25 -25 -32 -3 -8 -5 169 -3 393 1 223 5 409 9 413 4 4 31 10 60 14 l53 6
3 303 3 304 -53 -7 c-112 -14 -119 -18 -185 -108 -33 -46 -69 -99 -78 -118
-22 -42 -88 -127 -152 -195 -26 -27 -47 -48 -46 -46 6 11 -31 59 -57 74 -30
17 -118 130 -144 183 -18 36 -81 97 -117 112 -21 9 -31 8 -48 -3 -11 -8 -21
-11 -21 -5 0 5 -6 11 -12 14 -7 2 -2 2 10 0 34 -6 18 14 -18 22 -19 4 -36 17
-44 34 -13 25 -100 97 -143 119 -10 5 -40 15 -68 21 -27 7 -61 23 -75 36 -14
13 -49 33 -79 45 -30 11 -63 27 -75 35 -27 20 -45 19 -20 0 18 -14 17 -15 -18
-9 -40 7 -91 -17 -68 -31 7 -4 15 -3 19 3 13 21 87 19 117 -2 17 -13 15 -14
-26 -10 l-45 5 45 -25 c33 -18 39 -25 24 -26 -12 0 -37 11 -57 25 -20 13 -39
20 -42 15 -10 -17 -41 -11 -61 11 -14 15 -15 22 -6 28 7 4 10 15 6 25 -6 15
-3 17 13 12 14 -5 23 0 33 19 7 14 17 25 22 25 21 0 5 31 -24 46 -32 16 -32
17 -10 25 18 7 21 14 16 34 -5 19 -2 25 9 25 9 0 22 9 30 20 9 12 20 18 30 14
9 -3 19 2 26 14 6 11 25 25 42 32 27 11 33 11 43 -1 6 -8 29 -15 51 -17 22 -2
46 -9 53 -15 11 -9 18 -6 33 12 10 12 31 26 46 30 20 5 28 14 28 31 0 36 67
72 120 64 69 -10 78 -14 64 -30 -13 -16 2 -19 17 -4 6 6 36 12 68 14 32 2 60
7 63 10 4 3 30 6 58 6 42 0 56 -5 76 -26 13 -14 31 -23 41 -21 9 3 26 -2 37
-9 12 -9 22 -11 26 -4 3 5 16 10 28 10 12 1 35 1 51 1 27 1 28 2 23 42 -8 58
-116 272 -167 330 -23 26 -71 72 -107 102 l-64 55 -819 0 -819 0 -4 -37 -4
-38 -1 38 c-1 20 -6 37 -12 37 -5 0 -10 -5 -10 -11 0 -8 -4 -8 -13 -1 -8 7
-194 11 -567 11 -518 1 -558 0 -595 -17z m1232 -79 c-3 -10 -5 -2 -5 17 0 19
2 27 5 18 2 -10 2 -26 0 -35z m30 -40 c-3 -10 -5 -2 -5 17 0 19 2 27 5 18 2
-10 2 -26 0 -35z m-1218 14 c-15 -12 -131 -47 -156 -47 -16 0 -34 -5 -41 -12
-9 -9 -15 -9 -24 0 -7 7 -10 12 -8 13 3 0 14 2 25 4 51 8 124 25 160 38 34 12
58 14 44 4z m-229 -17 c-8 -5 -17 -7 -19 -4 -3 3 1 9 9 14 8 5 17 7 19 4 3 -3
-1 -9 -9 -14z m1477 -42 c-3 -7 -5 -2 -5 12 0 14 2 19 5 13 2 -7 2 -19 0 -25z
m-482 -82 c16 -79 24 -101 40 -107 17 -6 17 -8 3 -8 -34 -2 -20 -31 15 -32 17
0 41 -4 52 -8 19 -8 19 -9 -5 -16 l-25 -8 30 -13 30 -13 -35 -1 c-19 0 -46 -7
-60 -15 -14 -8 -49 -27 -77 -42 -61 -31 -68 -47 -19 -41 l33 4 -20 -28 c-11
-15 -26 -28 -31 -28 -6 0 -23 -16 -39 -35 -31 -38 -95 -90 -103 -83 -2 3 9 20
26 38 47 50 35 56 -20 10 -45 -38 -66 -61 -40 -45 24 15 29 -8 5 -27 -14 -10
-25 -24 -25 -29 0 -6 17 3 38 19 35 28 72 47 72 37 0 -2 -11 -15 -25 -29 -14
-14 -25 -31 -25 -38 0 -7 8 -3 18 10 18 23 18 23 20 -25 1 -36 -3 -52 -20 -70
-12 -13 -17 -23 -11 -23 5 0 18 9 28 20 18 20 23 22 24 7 0 -4 7 -20 16 -36
14 -29 14 -30 -18 -50 -17 -11 -28 -21 -24 -21 4 0 -2 -10 -13 -22 -28 -30
-51 -74 -43 -82 4 -3 1 -6 -6 -6 -8 0 -11 -7 -7 -17 4 -14 3 -14 -9 2 -60 84
-29 10 36 -87 51 -74 52 -126 6 -213 -26 -49 -36 -60 -54 -58 -22 3 -23 0 -23
-80 -1 -96 -6 -121 -57 -246 -42 -102 -53 -99 -29 9 19 81 21 154 5 144 -6 -4
-8 -20 -5 -40 4 -18 2 -41 -3 -51 -5 -10 -13 -35 -16 -57 -4 -22 -10 -35 -15
-30 -10 10 -12 94 -6 253 l4 115 66 59 c73 65 111 125 90 144 -6 7 -14 9 -18
6 -3 -3 -2 8 3 24 6 20 4 37 -4 54 -7 13 -11 27 -9 30 2 4 -5 26 -15 50 -11
24 -17 47 -15 51 3 5 -11 30 -30 57 -36 49 -45 68 -26 56 6 -4 24 -3 42 0 22
5 27 9 17 16 -8 5 -9 9 -4 9 6 0 10 11 10 24 0 13 -3 22 -7 19 -5 -2 -8 3 -8
11 0 8 5 18 10 21 6 4 7 13 1 24 -6 10 -6 23 -1 31 5 8 4 22 -1 32 -17 31 -96
23 -189 -20 -19 -9 -39 -17 -45 -18 -5 -1 -19 -5 -30 -9 -17 -7 -16 -4 5 17
14 14 28 24 32 21 4 -2 21 6 37 18 16 12 43 22 59 23 17 1 27 5 24 10 -3 5 3
6 12 3 10 -4 35 -3 55 2 20 6 49 12 65 15 31 6 48 16 25 16 -8 -1 -33 -5 -57
-9 -35 -7 -42 -6 -38 5 3 7 1 16 -4 19 -5 3 0 21 11 40 15 24 18 39 11 51 -5
9 -6 32 -2 51 6 24 5 36 -4 39 -8 3 -11 15 -8 32 6 30 56 104 65 96 3 -3 -3
-14 -14 -25 -10 -10 -19 -28 -19 -39 0 -21 15 -27 25 -10 3 6 1 10 -5 10 -6 0
-8 5 -4 12 6 9 9 9 11 1 3 -7 11 -9 19 -6 8 3 14 0 14 -6 0 -6 -5 -11 -12 -11
-6 0 -3 -7 8 -16 10 -8 13 -13 7 -9 -15 7 -17 -23 -4 -44 6 -9 11 -10 15 -2 4
6 1 11 -6 11 -10 0 -10 2 0 9 10 6 12 23 7 67 -5 53 -4 57 8 39 8 -10 12 -26
9 -34 -4 -10 -1 -12 8 -6 12 8 10 84 -6 185 l-6 36 49 -2 c26 -1 54 -3 62 -3
7 -1 11 -7 7 -16 -3 -9 0 -15 9 -15 17 0 20 -16 5 -25 -16 -10 -12 -24 13 -35
20 -10 21 -10 4 3 -10 8 -14 17 -9 18 5 2 12 17 16 32 4 19 3 26 -4 22 -5 -3
-10 -2 -10 4 0 5 8 15 18 20 37 22 46 9 67 -93z m-309 48 c-3 -8 -2 -13 3 -10
5 3 9 -5 9 -18 0 -17 -5 -23 -14 -19 -17 6 -19 63 -3 63 6 0 8 -7 5 -16z
m-851 -13 c-3 -6 -14 -10 -23 -10 -15 1 -15 2 1 6 9 2 17 9 17 15 0 6 3 9 6 5
3 -3 3 -10 -1 -16z m1688 -21 c-3 -12 -8 -19 -11 -16 -5 6 5 36 12 36 2 0 2
-9 -1 -20z m-1753 -20 c0 -5 -2 -10 -4 -10 -3 0 -8 5 -11 10 -3 6 -1 10 4 10
6 0 11 -4 11 -10z m2157 -17 c9 -12 13 -11 26 7 12 17 16 18 26 6 12 -14 5
-46 -13 -58 -6 -4 -26 -8 -43 -8 -27 0 -33 -4 -34 -22 -1 -17 -2 -19 -6 -5 -2
9 -9 17 -14 17 -14 0 -11 40 4 41 10 0 10 2 0 6 -7 2 -13 11 -13 18 0 27 44
26 67 -2z m106 -9 c-4 -10 -9 -12 -15 -6 -12 12 -1 35 12 27 5 -3 6 -13 3 -21z
m-1973 -29 c0 -5 -5 -3 -10 5 -5 8 -10 20 -10 25 0 6 5 3 10 -5 5 -8 10 -19
10 -25z m1487 13 c-3 -8 -6 -5 -6 6 -1 11 2 17 5 13 3 -3 4 -12 1 -19z m-787
-8 c0 -5 -2 -10 -4 -10 -3 0 -8 5 -11 10 -3 6 -1 10 4 10 6 0 11 -4 11 -10z
m-688 -45 c3 -13 1 -22 -3 -19 -9 5 -13 44 -5 44 2 0 6 -11 8 -25z m1515 -7
c-3 -7 -5 -2 -5 12 0 14 2 19 5 13 2 -7 2 -19 0 -25z m-1029 -3 c-3 -3 -9 2
-12 12 -6 14 -5 15 5 6 7 -7 10 -15 7 -18z m102 5 c-6 -11 -12 -20 -14 -20 -3
0 -1 23 3 38 1 1 6 2 11 2 7 0 7 -6 0 -20z m-1262 -15 c-3 -3 -9 2 -12 12 -6
14 -5 15 5 6 7 -7 10 -15 7 -18z m2209 -17 c-3 -8 -6 -5 -6 6 -1 11 2 17 5 13
3 -3 4 -12 1 -19z m153 -55 c0 -60 -3 -74 -12 -65 -7 7 -16 12 -22 12 -6 0 -5
-5 2 -12 7 -7 45 -13 90 -14 100 -2 99 -2 77 -17 -10 -8 -15 -19 -11 -25 3 -5
0 -13 -6 -15 -7 -3 -4 -6 7 -6 11 -1 36 -7 55 -14 32 -11 35 -14 24 -34 -6
-13 -13 -21 -15 -19 -2 3 -3 -44 -1 -102 3 -93 6 -109 23 -124 16 -13 26 -15
39 -8 24 13 43 13 35 0 -3 -5 2 -10 12 -10 31 0 73 -24 68 -38 -10 -27 6 -31
40 -11 19 11 42 19 52 17 12 -2 -11 -20 -66 -52 -70 -42 -91 -49 -136 -50 -51
0 -56 2 -84 38 -34 43 -39 41 -15 -7 11 -21 12 -28 3 -19 -7 6 -27 12 -44 12
-38 0 -61 31 -45 60 6 11 18 20 28 20 11 0 18 9 19 26 0 15 9 34 18 43 17 15
17 15 12 -1 -3 -10 -1 -21 6 -25 7 -5 21 -25 31 -45 11 -21 25 -38 32 -38 7 0
11 -6 9 -13 -3 -6 4 -18 15 -25 17 -10 20 -10 20 3 0 8 -4 15 -10 15 -5 0 -10
9 -10 20 0 11 -7 20 -15 20 -8 0 -15 6 -15 14 0 7 -9 25 -20 39 -11 14 -20 34
-20 45 0 11 -9 41 -20 67 -11 26 -23 64 -26 86 -5 32 -10 39 -28 38 -53 -5
-67 0 -65 24 2 12 0 27 -4 34 -4 6 -3 15 3 18 8 5 7 11 -1 21 -15 18 -5 18 32
-2 17 -8 33 -14 35 -12 2 2 -17 14 -42 26 -25 12 -43 18 -39 12 3 -5 2 -10 -4
-10 -6 0 -8 -7 -5 -15 5 -11 2 -13 -10 -9 -9 3 -16 14 -16 24 0 10 -7 23 -15
30 -8 7 -13 15 -10 19 2 4 -5 15 -16 24 -35 30 -18 55 33 49 3 -1 9 5 12 13 3
9 -1 15 -9 15 -21 0 -19 18 3 23 9 3 18 5 20 6 1 0 2 -34 2 -76z m-1540 58
c-19 -11 -107 -26 -99 -17 3 4 26 10 50 15 59 12 67 12 49 2z m47 3 c-3 -3
-12 -4 -19 -1 -8 3 -5 6 6 6 11 1 17 -2 13 -5z m297 -10 c3 -9 4 -20 1 -24 -3
-5 -1 -20 5 -34 9 -24 8 -25 -15 -14 -27 12 -32 58 -7 58 12 0 12 3 2 15 -7 9
-8 15 -2 15 5 0 13 -7 16 -16z m1065 -28 c-9 -8 -10 -7 -5 7 3 10 7 24 7 30 1
7 3 4 6 -7 3 -10 -1 -23 -8 -30z m-1540 13 c-16 -10 -23 -4 -14 10 3 6 11 8
17 5 6 -4 5 -9 -3 -15z m221 -24 c0 -13 4 -45 10 -72 11 -60 39 -218 44 -258
3 -16 11 -70 19 -120 8 -49 22 -139 31 -200 10 -60 24 -147 31 -192 8 -45 15
-99 15 -121 0 -21 4 -63 10 -93 14 -79 50 -317 54 -366 3 -35 0 -44 -20 -58
-13 -8 -30 -15 -38 -15 -8 0 -17 -4 -21 -9 -3 -6 8 -5 27 1 18 5 42 10 53 9
14 0 16 2 6 8 -9 6 -10 11 -2 15 6 4 19 24 28 44 l17 37 4 -33 c2 -24 -2 -38
-14 -46 -15 -11 -13 -12 16 -8 25 3 31 1 28 -9 -3 -8 -13 -15 -24 -17 -26 -4
-121 -79 -158 -125 -22 -27 -31 -49 -31 -76 0 -46 22 -73 47 -58 9 6 20 8 24
5 13 -13 -9 -92 -32 -115 -13 -13 -23 -27 -23 -31 3 -20 -3 -30 -22 -35 -15
-4 -19 -11 -14 -26 4 -13 0 -23 -12 -30 -13 -7 -15 -13 -7 -20 18 -19 132 47
166 97 29 43 54 54 64 28 10 -27 -102 -166 -134 -166 -23 0 -74 -35 -65 -44 5
-4 0 -13 -10 -21 -16 -11 -15 -14 16 -38 l33 -25 35 26 c19 15 28 19 20 9 -7
-9 -11 -17 -9 -17 17 0 191 67 273 104 33 16 116 50 185 78 68 27 135 55 149
63 22 11 27 11 38 -4 11 -14 12 -14 13 7 0 12 5 22 11 22 5 0 8 -4 5 -9 -3 -5
5 -16 19 -25 33 -22 32 -56 -3 -89 -15 -15 -32 -27 -36 -27 -5 0 -39 -20 -76
-45 -37 -25 -71 -45 -74 -45 -4 0 -66 -23 -138 -51 -72 -28 -155 -59 -185 -70
-69 -26 -69 -46 0 -53 154 -16 147 -16 147 4 0 10 5 22 10 25 7 4 9 -2 4 -19
l-6 -26 98 -2 c109 -1 147 1 184 9 14 3 44 6 68 8 34 2 42 0 38 -11 -3 -8 1
-14 8 -14 8 0 16 -6 19 -14 4 -9 0 -12 -13 -9 -11 3 -24 -4 -34 -19 -15 -21
-23 -23 -115 -23 -82 0 -102 -3 -119 -18 -12 -11 -26 -16 -32 -12 -6 4 -47 7
-90 7 -79 -1 -133 -18 -143 -44 -3 -10 -9 -9 -23 3 -33 28 -130 69 -162 69
-24 0 -40 11 -77 52 -26 29 -60 58 -75 64 -15 7 -42 33 -59 58 -39 56 -67 76
-105 76 -30 0 -29 0 16 -29 25 -16 63 -47 84 -69 58 -59 165 -152 199 -173 17
-11 25 -19 19 -19 -19 0 -113 75 -194 154 -74 73 -144 117 -207 130 -48 11
-119 -3 -161 -31 -32 -22 -34 -23 -18 -4 l19 21 -59 1 c-32 0 -71 2 -87 4 -15
2 -25 0 -22 -6 4 -5 1 -9 -4 -9 -6 0 -11 -7 -11 -15 0 -8 5 -15 10 -15 6 0 10
5 10 11 0 5 5 7 10 4 6 -3 10 -1 10 4 0 6 12 11 26 11 21 0 24 -3 15 -13 -8
-11 -5 -16 13 -25 18 -8 23 -16 19 -31 -3 -12 -12 -21 -20 -21 -11 0 -13 7 -8
27 5 21 4 24 -7 16 -8 -6 -21 -7 -33 -2 -11 4 -35 8 -53 8 -25 1 -35 7 -42 27
-14 37 -13 43 15 50 13 3 26 13 29 22 16 56 26 134 19 144 -4 7 -9 37 -10 66
-1 30 -7 60 -13 66 -5 7 -7 16 -4 19 4 3 -10 29 -31 56 -20 28 -34 55 -31 60
3 4 19 11 35 14 15 3 43 20 60 37 29 29 31 36 31 103 0 79 7 117 22 117 9 0
37 -24 152 -132 59 -56 60 -58 33 -58 -36 0 -85 -28 -93 -52 -7 -22 -47 -24
-64 -3 -13 16 -35 21 -26 7 3 -5 -1 -9 -9 -9 -11 0 -12 4 -3 14 15 19 4 27
-21 14 -16 -9 -19 -18 -15 -40 3 -15 1 -44 -4 -65 -10 -35 -9 -37 11 -34 14 2
21 9 19 19 -3 19 25 21 32 2 5 -11 22 -12 81 -7 53 5 75 3 75 -5 0 -6 0 -14 1
-18 0 -5 -21 -13 -48 -20 -47 -11 -47 -11 -12 -12 65 -2 78 -53 14 -53 -15 0
-23 -3 -18 -7 18 -13 9 -70 -14 -86 -22 -16 -22 -17 -6 -48 9 -18 16 -40 14
-50 -1 -10 4 -29 13 -41 11 -17 12 -26 3 -35 -15 -15 -6 -14 39 5 28 12 57 15
104 11 58 -5 62 -4 40 9 -14 7 -33 13 -43 14 -29 0 -9 19 28 26 21 4 32 10 28
17 -3 6 -1 7 6 3 6 -4 56 0 110 10 94 16 99 18 92 38 -5 12 -6 26 -4 33 2 6
-1 14 -6 18 -6 3 -11 14 -11 24 0 10 -6 24 -14 30 -20 17 -30 69 -17 85 9 11
6 19 -15 35 l-27 21 27 59 c50 113 48 144 -17 217 -24 27 -53 67 -66 89 l-23
40 25 -24 c16 -14 31 -20 39 -16 13 8 59 50 160 147 27 26 55 45 62 42 11 -4
11 5 2 53 -7 32 -17 59 -24 59 -7 1 -19 2 -28 3 -14 1 -14 4 -4 16 10 12 16
13 29 3 14 -12 14 -11 2 4 -10 14 -17 15 -33 7 -14 -8 -23 -8 -31 0 -6 6 -18
11 -26 11 -9 0 -2 -9 17 -21 17 -12 32 -27 32 -34 0 -28 -85 -61 -143 -56 -15
1 -48 -5 -72 -15 -45 -17 -63 -15 -50 5 3 6 17 11 31 11 14 0 41 7 60 15 30
12 34 18 28 37 -12 37 -10 102 3 116 10 11 10 19 -1 40 -13 25 -12 27 15 44
35 21 39 47 7 41 -13 -2 -30 1 -38 6 -13 9 -13 12 3 23 10 8 21 32 24 56 5 39
23 60 23 28 0 -8 6 -17 13 -20 8 -3 7 -8 -6 -16 -18 -11 -18 -12 0 -26 21 -16
53 -18 53 -4 0 5 -6 27 -14 47 -7 21 -23 70 -35 108 -11 39 -34 112 -51 164
-17 52 -29 99 -27 105 3 6 10 -9 16 -34 7 -25 23 -76 36 -115 13 -38 38 -117
56 -175 17 -58 39 -123 49 -145 9 -22 25 -65 35 -95 20 -62 41 -93 31 -45 -3
17 -11 66 -17 110 -25 185 -28 213 -39 275 -13 83 -39 268 -47 342 -3 32 -8
56 -12 54 -16 -10 -114 -35 -106 -28 6 5 31 15 58 22 54 14 52 8 32 140 -17
113 -19 143 -5 135 6 -3 10 -17 10 -30z m1807 3 c-3 -7 -5 -2 -5 12 0 14 2 19
5 13 2 -7 2 -19 0 -25z m-72 -16 c36 0 74 -3 85 -7 21 -7 28 -35 9 -35 -15 0
-6 -60 11 -71 11 -6 12 -11 4 -16 -6 -5 -15 -26 -19 -48 l-9 -40 -5 39 -6 39
-55 3 c-30 2 -70 6 -88 9 -28 5 -31 9 -21 21 10 12 9 13 -5 8 -9 -3 -16 -1
-16 5 0 14 27 15 35 1 4 -6 10 -8 15 -5 5 3 12 0 16 -6 5 -8 3 -9 -7 -4 -8 5
-11 4 -6 -1 10 -10 77 -12 77 -2 0 4 12 6 27 5 25 -2 28 2 34 38 7 41 3 57 -9
40 -8 -11 -19 -11 -82 1 -25 4 -49 7 -55 5 -5 -2 -17 -4 -25 -6 -8 -2 -26 -7
-40 -13 -14 -5 -31 -7 -38 -5 -7 3 -19 -3 -26 -12 -12 -17 -13 -16 -19 4 -4
17 0 24 19 31 13 5 24 13 24 18 0 5 23 7 50 4 47 -4 50 -3 51 19 2 21 2 22 6
3 3 -18 12 -21 68 -22z m-5 34 c0 -2 -7 -7 -16 -10 -8 -3 -12 -2 -9 4 6 10 25
14 25 6z m-383 -58 c-3 -7 -5 -2 -5 12 0 14 2 19 5 13 2 -7 2 -19 0 -25z m-12
-18 c3 -5 2 -10 -4 -10 -5 0 -13 5 -16 10 -3 6 -2 10 4 10 5 0 13 -4 16 -10z
m-1215 -22 c0 -18 -2 -20 -9 -8 -6 8 -7 18 -5 22 9 14 14 9 14 -14z m123 -8
c-3 -11 -7 -20 -8 -20 -1 0 -5 9 -8 20 -3 12 0 20 8 20 8 0 11 -8 8 -20z m28
-3 c-10 -9 -11 -8 -5 6 3 10 9 15 12 12 3 -3 0 -11 -7 -18z m1092 2 c4 -16 3
-18 -9 -8 -7 6 -11 15 -8 20 8 13 11 11 17 -12z m-25 -9 c7 -11 18 -20 26 -20
8 0 17 -8 22 -17 6 -15 9 -13 15 12 7 27 8 26 4 -8 -3 -31 -1 -38 10 -33 10 4
15 -1 15 -15 0 -11 7 -22 15 -25 8 -4 15 -12 15 -20 0 -8 5 -14 10 -14 6 0 10
-10 10 -22 0 -17 3 -19 9 -9 6 9 10 -1 12 -32 5 -53 -2 -51 -42 11 l-30 47 6
-40 6 -40 -28 33 c-15 18 -34 32 -41 32 -7 0 -20 7 -29 16 -14 14 -18 13 -38
-6 -20 -19 -26 -20 -71 -8 -27 7 -51 13 -53 15 -11 7 56 53 71 49 10 -2 21 0
24 5 3 6 15 9 27 7 19 -3 21 1 18 42 -1 25 -5 48 -8 52 -2 5 0 8 4 8 5 0 14
-9 21 -20z m-1469 -150 c7 -4 6 -13 -5 -26 -10 -12 -14 -14 -11 -4 2 8 -7 46
-20 84 -12 38 -23 77 -22 85 0 9 11 -17 24 -58 13 -41 28 -77 34 -81z m465
121 c-2 -3 -12 3 -22 13 -16 17 -16 18 5 5 12 -7 20 -15 17 -18z m-214 9 c0
-5 -5 -10 -11 -10 -5 0 -7 5 -4 10 3 6 8 10 11 10 2 0 4 -4 4 -10z m660 2 c0
-5 -7 -17 -15 -28 -14 -18 -14 -17 -4 9 12 27 19 34 19 19z m1115 -22 c3 -5 1
-10 -4 -10 -6 0 -11 5 -11 10 0 6 2 10 4 10 3 0 8 -4 11 -10z m-1765 -10 c0
-5 -4 -10 -10 -10 -5 0 -10 5 -10 10 0 6 5 10 10 10 6 0 10 -4 10 -10z m685
-16 c-8 -9 -15 -23 -15 -32 0 -9 -3 -28 -7 -42 l-6 -25 22 20 c33 29 54 72 38
78 -7 3 -5 6 6 6 9 1 17 -1 17 -4 0 -16 -32 -63 -59 -89 l-31 -30 0 32 c0 39
29 114 41 106 5 -3 2 -12 -6 -20z m922 -26 c-3 -8 -6 -5 -6 6 -1 11 2 17 5 13
3 -3 4 -12 1 -19z m-1027 -15 c0 -5 -10 -19 -21 -33 l-21 -25 18 33 c18 32 24
38 24 25z m980 -36 c0 -10 -4 -15 -10 -12 -5 3 -10 18 -10 33 0 21 2 24 10 12
5 -8 10 -23 10 -33z m-1555 23 c3 -5 1 -10 -4 -10 -6 0 -11 5 -11 10 0 6 2 10
4 10 3 0 8 -4 11 -10z m509 -2 c-4 -7 -20 -29 -36 -49 -32 -42 -34 -49 -13
-49 8 0 15 5 15 11 0 6 6 9 13 6 6 -2 17 3 24 12 10 13 10 9 0 -17 -6 -18 -17
-30 -23 -28 -7 3 -20 -4 -30 -15 -22 -25 -16 -24 58 7 34 14 64 22 65 18 2 -5
8 -16 13 -24 9 -13 12 -12 25 4 8 11 18 17 21 13 4 -4 1 -13 -6 -21 -13 -17
-21 -76 -9 -76 4 0 5 -8 2 -19 -3 -11 2 -21 11 -24 9 -4 16 -11 16 -17 0 -6
-4 -8 -10 -5 -5 3 -10 1 -10 -5 0 -8 -11 -9 -32 -5 -52 11 -19 -15 39 -31 26
-7 42 -13 35 -13 -13 -1 -42 -25 -42 -35 0 -2 10 -6 23 -8 l22 -3 -24 -14
c-14 -7 -21 -8 -17 -2 4 6 0 11 -10 11 -22 0 -62 44 -85 95 -10 22 -19 32 -19
22 0 -20 29 -66 77 -121 28 -31 38 -36 66 -33 18 2 46 12 62 22 l30 18 -30
-26 c-57 -49 -97 -45 -163 17 l-34 31 32 -55 c18 -30 36 -59 41 -64 17 -19 9
-33 -31 -51 -22 -10 -38 -20 -36 -22 2 -3 26 5 51 16 74 33 67 24 -19 -23
l-78 -44 51 -11 c69 -15 96 -14 131 4 61 32 28 2 -58 -51 -6 -4 20 -48 32 -56
7 -5 5 -13 -7 -25 -16 -17 -19 -16 -47 19 -17 20 -67 58 -111 84 -71 42 -79
49 -61 57 17 8 19 14 12 38 -10 33 -8 35 43 44 l38 8 -6 76 c-8 89 -32 170
-52 178 -17 7 -53 75 -53 100 0 10 23 46 50 81 47 57 72 80 54 50z m327 -41
l-23 -22 17 28 c10 15 20 25 23 22 3 -3 -5 -16 -17 -28z m-131 -16 c-6 -12
-15 -21 -21 -21 -5 0 -2 11 8 24 21 28 29 27 13 -3z m1060 -42 c0 -5 -9 -9
-19 -9 -18 0 -19 4 -12 39 2 7 31 -22 31 -30z m-1156 12 c4 -5 -3 -7 -14 -4
-23 6 -26 13 -6 13 8 0 17 -4 20 -9z m803 -48 c-3 -10 -5 -4 -5 12 0 17 2 24
5 18 2 -7 2 -21 0 -30z m-622 7 c-3 -5 -1 -11 5 -15 6 -4 7 -11 4 -17 -4 -6 0
-14 7 -19 23 -14 -5 -33 -36 -25 -20 5 -25 11 -20 25 8 26 -19 45 -52 37 -24
-5 -25 -5 -10 5 10 6 27 9 38 6 10 -3 21 -2 23 2 3 4 14 7 25 8 12 1 19 -2 16
-7z m-109 -52 c-3 -13 -6 -35 -6 -50 0 -20 -4 -26 -15 -22 -27 11 -16 94 12
94 11 0 14 -6 9 -22z m4 -108 c0 -5 -7 -10 -16 -10 -8 0 -12 5 -9 10 3 6 10
10 16 10 5 0 9 -4 9 -10z m-992 -22 c2 -10 9 -15 18 -11 10 4 14 -2 14 -21 0
-14 10 -36 23 -48 12 -13 21 -26 20 -30 -2 -5 4 -8 13 -8 12 0 14 -5 9 -17 -4
-10 -7 -30 -6 -44 0 -14 -5 -33 -12 -43 -11 -15 -12 -13 -11 16 1 18 -4 51
-11 73 l-13 40 -1 -35 -2 -35 -24 45 c-22 39 -24 41 -20 15 5 -27 5 -28 -7
-10 -28 43 -78 87 -93 81 -9 -3 -30 3 -48 14 -17 11 -27 20 -21 20 5 0 19 -7
30 -15 28 -21 43 -18 16 4 -27 23 -20 26 60 26 50 -1 64 -4 66 -17z m-518 -4
c0 -11 -6 -15 -20 -11 -11 3 -23 1 -26 -4 -3 -5 -10 -9 -16 -9 -6 0 -3 9 7 20
22 24 55 26 55 4z m330 6 c0 -5 -2 -10 -4 -10 -3 0 -8 5 -11 10 -3 6 -1 10 4
10 6 0 11 -4 11 -10z m10 -51 c0 -5 -11 -3 -25 3 -26 11 -30 19 -18 31 7 8 43
-21 43 -34z m378 24 c-10 -2 -26 -2 -35 0 -10 3 -2 5 17 5 19 0 27 -2 18 -5z
m2287 -8 c23 -10 26 -14 10 -14 -29 -1 -65 10 -65 20 0 13 20 10 55 -6z
m-2850 -25 c79 3 95 -6 135 -75 26 -45 18 -39 -29 23 -18 23 -37 42 -43 42 -7
0 -7 -4 0 -13 9 -11 -3 -13 -63 -12 -64 1 -79 5 -100 25 -36 34 -31 40 22 24
26 -8 61 -14 78 -14z m2910 12 c-3 -3 -11 0 -18 7 -9 10 -8 11 6 5 10 -3 15
-9 12 -12z m-148 -16 c-16 -7 -41 -25 -57 -39 -30 -29 -63 -109 -53 -132 3 -8
0 -15 -6 -15 -16 0 -14 51 4 93 21 51 82 107 114 106 l26 -1 -28 -12z m-543
-57 c23 -1 72 -10 111 -20 38 -11 93 -19 122 -19 29 0 53 -4 53 -10 0 -13 -67
-13 -169 1 -45 6 -85 9 -88 5 -10 -10 120 -66 154 -66 17 0 35 -4 38 -10 3 -6
-5 -10 -19 -10 -13 0 -33 -3 -43 -6 -15 -5 -16 -4 -3 6 12 9 6 10 -26 5 -35
-5 -51 -1 -100 26 -33 18 -68 39 -78 48 -18 15 -18 15 -7 -6 6 -13 25 -30 42
-38 16 -9 27 -20 24 -25 -3 -5 0 -12 6 -16 8 -4 9 -3 5 4 -10 17 2 15 38 -8
42 -25 172 -48 188 -32 7 7 30 12 53 11 l40 -1 -30 -13 c-42 -19 -129 -29
-151 -17 -11 5 -32 12 -49 15 -24 5 -22 3 12 -13 42 -19 89 -73 120 -138 19
-40 33 -50 33 -22 0 24 -19 61 -37 73 -7 4 -13 15 -13 22 0 8 -4 15 -10 15 -5
0 -10 4 -10 9 0 5 24 12 53 16 46 6 98 20 148 40 13 5 18 -3 23 -36 9 -56 84
-164 102 -146 9 8 -6 47 -17 47 -6 0 -7 -4 -4 -10 3 -5 1 -10 -4 -10 -6 0 -11
5 -11 11 0 6 -12 25 -26 44 -22 29 -24 37 -13 57 17 33 17 33 43 9 l24 -23 0
24 c-1 73 84 178 136 169 5 -1 43 -2 84 -2 81 0 89 -10 14 -19 -43 -5 -47 -7
-44 -30 2 -14 12 -31 23 -39 10 -7 19 -23 20 -35 0 -20 1 -20 10 3 5 13 12 21
15 18 8 -7 -5 -47 -15 -47 -10 0 -1 -49 10 -56 5 -3 6 8 3 24 -4 21 -2 31 10
35 19 7 21 -4 4 -21 -7 -7 -9 -12 -6 -12 4 0 14 7 23 16 20 20 26 15 19 -14
-6 -21 -37 -38 -61 -34 -7 2 -13 -7 -13 -18 0 -14 4 -19 12 -14 7 4 8 3 4 -4
-4 -7 -15 -12 -24 -12 -13 0 -13 -3 -4 -12 10 -10 17 -10 32 0 16 10 18 9 14
-3 -5 -13 6 -20 28 -16 4 0 5 -6 1 -15 -5 -13 -8 -13 -24 2 -11 10 -22 15 -25
11 -3 -3 3 -11 14 -18 20 -13 20 -14 -10 -52 -29 -36 -33 -38 -72 -31 -22 3
-63 17 -90 31 -27 14 -45 19 -40 11 4 -7 18 -30 31 -51 l23 -37 -25 -12 c-25
-11 -25 -11 -5 -30 11 -10 20 -23 20 -28 0 -4 3 -17 7 -27 6 -15 4 -16 -9 -6
-13 11 -17 7 -28 -27 -7 -22 -19 -45 -27 -51 -7 -6 -10 -15 -7 -20 3 -5 1 -9
-4 -9 -11 0 -42 78 -42 107 0 11 7 26 15 33 10 8 15 31 15 71 l0 59 -40 0
c-22 0 -58 7 -80 16 -50 20 -61 12 -32 -24 56 -70 81 -111 72 -117 -15 -9 -12
-66 6 -116 16 -45 21 -115 10 -126 -20 -20 -86 122 -86 184 0 14 -6 23 -15 23
-10 0 -15 -10 -15 -29 0 -16 -3 -37 -6 -45 -4 -12 -2 -15 9 -10 11 4 21 -9 36
-51 12 -31 28 -70 36 -86 l16 -29 -51 0 c-50 0 -50 0 -43 -27 14 -52 8 -159
-10 -186 -9 -15 -17 -31 -17 -36 0 -15 142 48 172 77 15 14 31 22 35 19 3 -4
1 -7 -5 -7 -7 0 -12 -4 -12 -10 0 -5 7 -10 15 -10 10 0 15 -11 15 -35 0 -26
-4 -35 -17 -35 -24 0 -8 -12 22 -15 14 -2 27 1 31 6 3 5 -2 9 -10 9 -12 0 -16
10 -16 35 0 19 5 35 10 35 6 0 10 -4 10 -9 0 -14 101 -75 122 -74 25 2 23 -3
-9 -24 -24 -16 -121 -32 -191 -33 -13 0 -20 -5 -17 -10 4 -6 11 -8 16 -5 21
14 6 -12 -19 -32 -20 -15 -36 -19 -56 -16 l-29 6 24 18 c20 15 21 19 7 19 -10
0 -18 6 -18 13 0 6 -12 0 -25 -15 -27 -31 -56 -36 -76 -12 -11 14 -10 20 13
39 23 20 25 25 12 36 -12 10 -13 9 -8 -5 3 -9 2 -16 -3 -16 -5 0 -14 14 -20
31 -7 17 -10 29 -6 26 10 -10 31 18 46 64 17 52 10 118 -21 194 -25 59 -29 45
-6 -21 17 -51 11 -77 -33 -144 -27 -41 -30 -58 -6 -39 15 13 15 12 4 -9 -6
-12 -9 -27 -6 -32 3 -6 2 -10 -3 -10 -21 0 -32 163 -12 175 6 3 10 16 10 29 0
12 4 26 10 32 15 15 0 53 -24 56 -16 2 -20 9 -18 29 3 24 -1 27 -38 33 -23 4
-38 11 -35 16 4 6 10 8 15 5 4 -3 11 2 14 11 10 26 7 34 -14 34 -29 0 -25 17
6 24 21 6 25 11 22 39 -2 26 -7 32 -24 30 -17 -2 -23 5 -28 27 -4 20 -12 30
-24 30 -10 0 -23 5 -29 11 -8 8 -17 8 -32 0 -18 -10 -21 -9 -21 9 0 12 -5 18
-10 15 -24 -15 -19 27 9 77 38 66 38 83 5 104 -19 13 -22 19 -12 25 10 7 10 9
-2 10 -8 1 -22 2 -30 3 -8 2 -26 3 -40 4 -47 4 -54 15 -35 55 9 20 22 35 28
34 7 -1 12 8 12 21 0 12 -4 21 -10 20 -5 -2 -9 -9 -8 -16 0 -8 -5 -11 -15 -7
-25 9 -101 69 -102 79 0 7 42 3 88 -10 9 -2 4 2 -13 10 -16 8 -40 15 -52 16
-28 0 -37 15 -23 40 13 25 25 25 75 0 l40 -21 -25 21 c-14 11 -35 23 -47 26
-13 3 -20 10 -17 15 3 6 26 -2 51 -16 27 -14 63 -26 87 -26z m-2233 -24 l34
-14 -32 -1 c-18 0 -33 5 -33 11 0 6 -8 8 -19 4 -11 -3 -22 -1 -26 5 -9 15 37
12 76 -5z m-87 -4 c9 -14 -24 -22 -45 -11 -10 6 -19 13 -19 15 0 9 59 5 64 -4z
m3106 -62 c13 -7 13 -8 0 -9 -27 0 -60 12 -60 22 0 9 33 3 60 -13z m-3126 -8
c-49 -22 -121 -84 -129 -112 -4 -10 -11 -19 -16 -19 -20 0 27 63 71 96 25 18
50 38 55 43 6 6 21 10 35 10 21 1 18 -3 -16 -18z m1066 9 c0 -5 -2 -10 -4 -10
-3 0 -8 5 -11 10 -3 6 -1 10 4 10 6 0 11 -4 11 -10z m-925 -40 c25 -22 51 -40
57 -40 6 0 9 -3 6 -6 -10 -9 -60 21 -92 55 -42 43 -26 39 29 -9z m3035 20 c0
-5 -7 -7 -15 -4 -8 4 -12 10 -9 15 6 11 24 2 24 -11z m142 3 c-8 -3 -4 -12 14
-25 18 -15 25 -28 21 -45 -3 -18 -1 -21 9 -12 10 8 17 -1 33 -37 12 -25 21
-50 21 -55 0 -4 5 -11 12 -15 7 -5 9 -2 6 8 -14 34 25 11 64 -39 23 -30 55
-64 71 -77 29 -23 37 -55 23 -88 -6 -13 0 -22 22 -36 29 -17 30 -19 11 -30
-29 -19 -53 -14 -97 18 -30 22 -44 41 -55 77 l-15 48 -1 -42 c-1 -36 5 -48 37
-83 32 -33 46 -40 77 -40 33 0 36 -2 24 -16 -21 -25 -86 -12 -123 25 -25 25
-32 42 -37 89 l-6 57 -2 -50 c-2 -72 -41 -169 -69 -173 -17 -3 -22 2 -22 21 0
13 5 38 11 56 20 56 1 46 -28 -15 -20 -43 -33 -59 -48 -59 -11 0 -26 -4 -32
-8 -14 -9 -5 22 18 65 8 15 8 19 0 14 -6 -4 -21 -25 -32 -48 -23 -46 -30 -43
-44 15 -10 37 -8 48 14 92 14 27 24 53 23 57 -1 4 6 5 16 1 14 -5 13 -2 -4 17
-20 20 -26 21 -68 12 -53 -11 -65 -3 -35 24 42 38 57 77 61 161 4 79 4 82 -19
88 -13 3 -23 10 -23 15 0 14 12 12 34 -5 26 -19 56 -19 56 0 0 8 -7 15 -15 15
-8 0 -15 4 -15 9 0 6 24 12 53 14 28 2 57 4 62 4 6 1 4 -1 -3 -4z m-3712 -32
c0 -5 3 -18 7 -28 6 -16 5 -16 -10 -4 -19 15 -23 41 -7 41 6 0 10 -4 10 -9z
m1470 -52 c0 -6 -4 -7 -10 -4 -5 3 -10 11 -10 16 0 6 5 7 10 4 6 -3 10 -11 10
-16z m796 -36 c-1 -44 2 -49 31 -64 32 -16 32 -16 10 -27 -12 -6 -41 -14 -64
-17 -41 -6 -43 -8 -45 -43 -2 -60 1 -74 29 -130 38 -75 50 -82 58 -32 9 51 16
45 27 -23 17 -105 20 -117 28 -122 4 -3 10 10 14 27 l6 32 25 -24 24 -25 -33
-99 c-31 -91 -35 -97 -46 -77 -7 14 -9 37 -5 58 3 19 2 40 -3 46 -5 7 -15 29
-22 50 -6 21 -31 56 -56 79 -44 41 -84 96 -88 121 -1 6 -8 29 -15 50 -16 47
-2 120 36 186 53 93 90 107 89 34z m-1746 22 c0 -10 -79 -25 -96 -18 -15 6
-10 9 21 14 56 9 75 10 75 4z m1223 -64 c27 -25 36 -51 17 -51 -5 0 -7 8 -4
18 3 9 -2 5 -11 -10 -16 -28 -39 -36 -50 -18 -15 24 -22 5 -28 -72 -4 -53 -3
-86 4 -94 8 -10 4 -22 -16 -46 -16 -18 -33 -33 -39 -33 -5 0 -20 15 -33 33
-34 51 -28 157 12 235 16 32 38 67 48 78 17 18 19 18 45 2 15 -9 39 -28 55
-42z m-1343 16 c0 -2 -19 -21 -41 -42 -26 -25 -37 -32 -30 -18 11 22 71 73 71
60z m419 -17 l-24 -20 33 11 c23 8 37 8 44 1 6 -6 6 -12 -1 -16 -6 -4 -11 -2
-11 5 0 7 -7 4 -16 -7 -8 -10 -12 -13 -8 -5 5 9 3 12 -4 7 -7 -4 -12 -16 -12
-28 0 -17 2 -18 15 -8 12 10 15 10 15 -4 0 -9 -4 -16 -10 -16 -5 0 -10 -6 -10
-13 0 -7 9 -13 20 -13 16 0 20 7 20 30 0 37 16 24 23 -19 4 -20 5 -16 3 12 -1
25 2 39 7 34 5 -5 6 -41 2 -79 -7 -70 -7 -71 -32 -61 -13 5 -26 9 -29 9 -10 0
-3 -69 9 -73 7 -3 -2 -19 -27 -46 -22 -22 -38 -42 -35 -44 2 -2 19 -9 37 -17
18 -7 31 -15 28 -17 -2 -3 -14 1 -26 7 -11 6 -40 13 -63 16 -23 3 -61 16 -84
29 l-43 23 18 -23 c9 -14 20 -25 25 -25 4 0 7 -4 7 -10 0 -10 -75 15 -98 33
-7 6 -11 22 -8 40 5 34 -18 77 -42 77 -17 0 -62 38 -62 51 0 5 12 4 26 -1 53
-20 75 12 71 103 -1 33 3 51 13 57 23 15 36 12 36 -9 0 -11 -3 -18 -7 -16 -3
3 -11 -7 -17 -20 -11 -24 0 -36 13 -15 11 18 25 10 25 -14 0 -13 8 -30 18 -37
16 -13 16 -13 2 5 -14 18 -13 18 8 12 19 -6 22 -4 22 20 0 15 3 25 6 21 11
-11 33 17 23 29 -17 21 21 37 100 43 l23 1 -23 -20z m-328 -39 c-5 -9 -11 -23
-14 -31 -3 -8 -6 5 -6 29 -1 37 1 42 14 31 10 -8 12 -18 6 -29z m199 13 c0 -2
-9 -4 -20 -4 -11 0 -20 4 -20 9 0 5 9 7 20 4 11 -3 20 -7 20 -9z m-705 -24 c3
-5 1 -10 -4 -10 -6 0 -11 5 -11 10 0 6 2 10 4 10 3 0 8 -4 11 -10z m1800 -34
c-10 -15 -19 -25 -22 -23 -6 7 8 37 18 37 4 0 6 8 2 18 -5 13 -3 14 6 6 10 -9
9 -17 -4 -38z m-1115 24 c0 -5 -4 -10 -10 -10 -5 0 -10 5 -10 10 0 6 5 10 10
10 6 0 10 -4 10 -10z m-440 -30 c0 -5 -2 -10 -4 -10 -3 0 -8 5 -11 10 -3 6 -1
10 4 10 6 0 11 -4 11 -10z m110 -1 c0 -7 11 -9 28 -6 38 8 61 -7 36 -22 -16
-9 -17 -12 -4 -21 9 -6 10 -10 3 -10 -6 0 -25 11 -41 25 -17 14 -34 25 -39 24
-20 -3 -34 2 -28 11 8 14 45 13 45 -1z m2194 -20 c-8 -13 -24 -1 -24 18 0 13
3 13 15 3 8 -7 12 -16 9 -21z m-2564 -19 c0 -13 -1 -13 -10 0 -5 8 -10 22 -10
30 0 13 1 13 10 0 5 -8 10 -22 10 -30z m305 12 c-3 -3 -11 0 -18 7 -9 10 -8
11 6 5 10 -3 15 -9 12 -12z m-212 -51 c7 -8 -7 -3 -30 10 -24 13 -43 28 -43
32 0 10 57 -23 73 -42z m327 2 c0 -8 -38 17 -51 33 -9 11 -2 9 19 -6 17 -13
32 -25 32 -27z m1340 33 c0 -7 -7 -19 -15 -26 -19 -16 -41 1 -32 24 8 20 47
21 47 2z m17 -18 c-3 -7 -5 -2 -5 12 0 14 2 19 5 13 2 -7 2 -19 0 -25z m-1627
-28 c8 -5 11 -10 5 -10 -5 0 -21 10 -35 21 -24 20 -5 13 30 -11z m1665 20 c3
-5 1 -10 -4 -10 -6 0 -11 5 -11 10 0 6 2 10 4 10 3 0 8 -4 11 -10z m1376 -7
c13 -16 12 -17 -3 -4 -17 13 -22 21 -14 21 2 0 10 -8 17 -17z m1293 8 c7 -11
-14 -20 -31 -13 -7 2 -10 8 -7 13 7 12 31 12 38 0z m-4085 -20 c10 -7 7 -9
-12 -8 -14 1 -23 5 -20 10 6 9 15 9 32 -2z m1450 -28 c0 -25 -1 -26 -9 -8 -7
17 -9 16 -10 -10 -2 -19 -4 -23 -7 -12 -6 23 -39 18 -37 -6 1 -9 -2 -15 -6
-12 -10 6 -41 -41 -37 -57 2 -7 2 -10 0 -5 -7 11 -23 -2 -19 -16 1 -7 1 -9 -1
-4 -7 11 -23 -2 -23 -20 0 -10 6 -13 16 -9 8 3 12 2 9 -4 -3 -5 9 -24 27 -41
40 -38 6 -17 -39 24 l-31 29 31 42 c18 23 43 58 56 78 14 19 36 40 50 46 14 5
27 10 29 11 1 1 2 -11 1 -26z m-1814 -3 c3 -5 1 -10 -4 -10 -6 0 -11 5 -11 10
0 6 2 10 4 10 3 0 8 -4 11 -10z m455 -27 l35 -14 -57 4 c-32 2 -61 7 -65 11
-11 11 20 27 37 20 8 -4 31 -13 50 -21z m-409 -10 c13 -16 12 -17 -3 -4 -10 7
-18 15 -18 17 0 8 8 3 21 -13z m322 -5 c12 -6 38 -15 57 -19 l35 -7 -33 -1
c-18 0 -43 -6 -54 -12 -15 -8 -19 -8 -13 1 4 6 -1 20 -11 31 -20 22 -13 24 19
7z m1463 -132 c-2 -6 -5 5 -6 24 l-2 35 -8 -30 c-5 -20 -6 -8 -4 35 4 92 5 94
15 16 5 -39 7 -75 5 -80z m-222 45 c49 -63 57 -85 29 -79 -23 4 -98 112 -89
127 4 6 9 11 10 11 2 0 24 -27 50 -59z m2291 -5 c25 -13 27 -16 9 -16 -51 0
-86 13 -81 30 2 9 0 26 -6 36 -7 13 -1 11 19 -8 16 -15 43 -34 59 -42z m-3372
22 c99 -35 57 -31 -78 7 -11 3 -29 0 -39 -8 -15 -11 -17 -21 -12 -50 l7 -37
57 0 c31 0 74 5 96 11 25 7 42 7 48 1 14 -14 -52 -32 -114 -32 -58 0 -97 14
-117 43 -37 51 -32 70 26 87 31 9 43 7 126 -22z m1018 -13 c22 -44 22 -46 4
-63 -18 -16 -18 -16 -5 3 11 15 8 14 -13 -4 -29 -26 -38 -53 -10 -30 9 8 4 -5
-12 -28 -32 -50 -42 -56 -20 -13 22 43 3 37 -29 -9 -15 -22 -37 -47 -47 -57
-20 -18 -20 -18 -1 31 41 104 97 215 108 215 1 0 13 -20 25 -45z m-1493 -8 c2
-16 -5 -39 -19 -58 l-22 -31 -20 21 c-20 20 -20 21 -2 61 14 31 23 40 39 38
15 -2 22 -12 24 -31z m2381 -46 c-6 -18 -13 -30 -15 -28 -2 2 1 18 7 36 6 18
13 30 15 28 2 -2 -1 -18 -7 -36z m-669 13 c0 -2 -9 -4 -21 -4 -11 0 -18 4 -14
10 5 8 35 3 35 -6z m531 -122 c14 -5 11 -22 -3 -22 -12 1 -69 114 -68 135 1 6
15 -17 32 -50 17 -33 34 -61 39 -63z m1187 106 c5 -7 13 -31 16 -53 8 -49 -5
-65 -77 -89 -49 -16 -147 -22 -147 -8 0 4 30 30 68 59 37 28 78 63 91 77 28
29 34 31 49 14z m-1638 -35 c-1 -24 -2 -26 -11 -10 -5 9 -7 22 -4 27 10 17 15
11 15 -17z m-1866 -13 c-6 -6 -10 -2 -11 12 -2 16 1 18 10 9 7 -7 8 -14 1 -21z
m1732 -139 c16 -39 17 -44 5 -37 -5 3 -12 18 -15 32 -7 25 -42 63 -59 64 -5 0
-55 -37 -110 -82 -135 -108 -127 -102 -127 -91 0 12 144 229 173 260 l20 23
49 -68 c27 -37 56 -82 64 -101z m1649 129 c-13 -14 -37 -33 -53 -42 -25 -15
-29 -15 -29 -2 0 21 59 70 85 70 22 0 22 0 -3 -26z m-490 6 c15 -14 10 -26
-11 -26 -6 0 -14 9 -17 20 -6 23 8 26 28 6z m-1082 -3 c-7 -2 -19 -2 -25 0 -7
3 -2 5 12 5 14 0 19 -2 13 -5z m-1424 -16 c-15 -7 -28 -16 -30 -22 -1 -5 -14
-19 -27 -29 l-25 -19 12 21 c6 12 16 22 22 22 6 0 8 4 4 9 -7 12 24 31 50 30
17 -1 16 -3 -6 -12z m439 -37 c21 0 24 4 19 26 -3 17 -1 22 5 16 6 -6 12 -45
14 -89 5 -76 4 -77 -12 -53 -9 14 -31 40 -48 59 -21 23 -25 32 -13 28 11 -4
16 -3 12 3 -3 6 -14 10 -23 10 -9 0 -26 12 -36 27 l-19 26 39 -27 c21 -14 49
-26 62 -26z m1027 40 c4 -6 10 -8 15 -5 4 3 10 -5 13 -16 6 -21 5 -20 -21 2
-15 13 -29 25 -31 27 -2 1 1 2 7 2 6 0 14 -5 17 -10z m960 -23 c-1 -19 3 -26
12 -23 7 3 13 1 13 -4 0 -18 -39 -10 -50 9 -16 30 -12 53 8 49 11 -2 17 -13
17 -31z m132 6 c2 -6 -4 -19 -14 -28 -13 -14 -14 -17 -3 -13 8 2 21 15 27 29
7 13 13 18 13 11 0 -26 -21 -52 -42 -52 -16 0 -19 4 -14 23 3 12 6 28 6 35 0
16 22 11 27 -5z m-2177 -43 l41 -49 -70 31 -70 31 22 18 c12 10 25 18 29 19 3
0 25 -22 48 -50z m1054 34 c12 -31 6 -56 -14 -61 -11 -3 -20 -12 -20 -20 0
-20 -34 -12 -38 10 -4 22 35 87 53 87 7 0 16 -7 19 -16z m-1540 -21 c-32 -23
-64 -27 -81 -10 -15 15 -14 16 4 11 12 -3 34 1 49 9 34 18 55 10 28 -10z
m2411 -1 c5 -12 16 -23 25 -26 8 -2 3 -4 -11 -5 -29 -1 -65 31 -54 49 10 16
28 7 40 -18z m-2248 1 c27 -18 53 -68 53 -103 0 -20 0 -20 -32 0 -40 24 -54
25 -92 5 -20 -11 -33 -12 -40 -5 -5 5 -18 10 -29 10 -17 0 -17 3 5 41 36 65
86 84 135 52z m1463 -29 c0 -3 -13 4 -30 16 -16 12 -30 24 -30 26 0 3 14 -4
30 -16 17 -12 30 -24 30 -26z m504 12 c-3 -15 -8 -25 -11 -23 -2 3 -1 17 3 31
3 15 8 25 11 23 2 -3 1 -17 -3 -31z m-1461 -29 c-2 -4 -9 -5 -14 -2 -5 4 -6
-2 -2 -11 4 -11 8 -13 11 -6 5 15 22 16 22 2 0 -12 15 -32 43 -58 18 -17 23
-33 10 -31 -5 1 -19 1 -32 0 -24 -1 -24 -1 -5 -16 22 -17 12 -20 -17 -5 -15 9
-21 7 -26 -6 -6 -16 -7 -16 -13 1 -3 10 -26 25 -50 34 -24 9 -45 22 -48 29 -3
10 3 9 22 -3 26 -17 26 -17 26 11 0 16 7 48 17 72 l16 43 22 -23 c12 -13 20
-26 18 -31z m1649 3 c4 -48 -11 -58 -41 -26 -24 26 -26 37 -9 54 25 25 46 14
50 -28z m-3147 8 c-6 -22 -5 -22 9 -5 8 10 17 14 20 9 3 -6 29 -16 57 -23 58
-15 82 -46 59 -74 -11 -14 -31 -16 -107 -13 -51 2 -93 5 -93 9 0 3 5 10 10 15
6 6 13 23 16 39 5 30 21 65 30 65 3 0 3 -10 -1 -22z m2825 13 c0 -8 -54 -32
-69 -31 -4 1 46 30 67 39 1 1 2 -3 2 -8z m-2103 -18 c8 -20 -17 -35 -34 -21
-7 6 -13 16 -13 22 0 18 40 17 47 -1z m1956 -78 c12 -17 14 -25 6 -18 -9 7
-18 11 -21 8 -9 -9 -89 85 -82 96 7 12 62 -37 97 -86z m-1440 55 c-3 -11 -9
-20 -14 -20 -16 0 -23 32 -8 40 19 12 28 3 22 -20z m-412 -13 l-24 -22 19 27
c10 14 21 24 23 22 3 -3 -6 -15 -18 -27z m1163 -7 c-29 -43 -37 -50 -27 -23 7
17 43 63 50 63 2 0 -9 -18 -23 -40z m229 25 c-3 -9 -8 -14 -10 -11 -3 3 -2 9
2 15 9 16 15 13 8 -4z m-1453 -30 c0 -5 -5 -3 -10 5 -5 8 -10 20 -10 25 0 6 5
3 10 -5 5 -8 10 -19 10 -25z m2171 4 c-5 -13 -10 -19 -10 -12 -1 15 10 45 15
40 3 -2 0 -15 -5 -28z m-2691 11 c0 -5 -11 -10 -25 -10 -14 0 -25 5 -25 10 0
6 11 10 25 10 14 0 25 -4 25 -10z m2308 -36 c-4 -3 -12 5 -18 18 -12 22 -12
22 6 6 10 -10 15 -20 12 -24z m1232 18 c0 -8 37 -46 140 -141 l45 -42 -37 21
c-75 43 -194 170 -158 170 5 0 10 -4 10 -8z m-3040 -17 c24 -13 24 -14 4 -15
-12 0 -27 7 -34 15 -16 19 -3 19 30 0z m1197 -7 c-3 -8 -6 -5 -6 6 -1 11 2 17
5 13 3 -3 4 -12 1 -19z m-1081 -9 c19 -22 19 -22 -3 -10 -18 9 -22 8 -25 -5
-3 -13 -5 -13 -23 0 -17 14 -18 17 -5 26 22 15 35 12 56 -11z m2180 4 c11 -15
13 -15 14 -3 0 13 2 13 9 1 7 -10 -2 -30 -30 -66 -38 -51 -69 -120 -69 -156 0
-11 -4 -19 -10 -19 -15 0 -12 20 11 86 11 32 28 85 37 117 9 31 18 57 21 57 2
0 10 -8 17 -17z m-142 -89 c-25 -86 -44 -131 -30 -69 14 58 48 166 52 162 2
-2 -8 -44 -22 -93z m-2408 49 c-11 -11 -17 4 -9 23 7 18 8 18 11 1 2 -10 1
-21 -2 -24z m1442 -8 c-14 -31 -21 -26 -12 9 3 14 10 23 15 21 4 -3 3 -17 -3
-30z m-1086 -17 l21 -30 -22 14 c-20 12 -24 10 -43 -12 -11 -14 -25 -24 -30
-22 -5 1 -7 -2 -4 -7 4 -5 2 -12 -3 -16 -5 -3 -14 3 -20 12 -8 14 -9 9 -4 -20
4 -30 0 -49 -21 -87 -15 -28 -25 -54 -21 -59 5 -10 -24 -31 -43 -31 -13 0
-122 109 -122 122 0 5 5 6 10 3 6 -3 10 -4 10 -1 0 3 -15 12 -34 21 -30 14
-53 41 -43 51 9 9 92 -45 95 -62 2 -10 10 -26 18 -34 13 -13 14 -13 9 1 -5 13
2 20 29 29 36 12 81 61 91 101 8 31 60 68 86 62 11 -3 29 -19 41 -35z m527 30
c0 -7 -4 -22 -9 -33 -7 -17 -9 -15 -9 13 -1 17 4 32 9 32 6 0 10 -6 9 -12z
m1183 -20 c-7 -7 -12 -8 -12 -2 0 14 12 26 19 19 2 -3 -1 -11 -7 -17z m-2346
-13 c-9 -13 -16 -27 -16 -30 0 -3 34 -5 77 -5 42 0 74 -2 72 -5 -10 -10 -213
-17 -286 -10 l-78 7 50 20 c40 16 146 42 189 47 4 1 1 -10 -8 -24z m194 -1 c0
-8 -4 -12 -10 -9 -5 3 -10 13 -10 21 0 8 5 12 10 9 6 -3 10 -13 10 -21z m1169
4 c-5 -10 -11 -18 -12 -18 -2 0 -3 8 -3 18 0 10 6 19 13 19 8 0 9 -6 2 -19z
m-1071 -37 c-3 -20 -5 -21 -22 -8 -13 10 -16 20 -11 36 6 21 9 22 22 8 8 -8
13 -24 11 -36z m-108 -31 c0 -11 -4 -20 -9 -20 -6 0 -9 9 -8 20 1 11 5 20 9
20 4 0 8 -9 8 -20z m280 -10 c-16 -31 -80 -53 -80 -28 0 6 3 9 6 5 4 -3 13 1
21 9 8 8 18 12 23 9 4 -3 13 2 20 10 18 21 23 19 10 -5z m1165 -68 c-8 -19
-15 -52 -15 -73 0 -76 -31 -38 -43 53 -6 43 -4 49 20 68 25 20 28 20 40 4 10
-13 9 -24 -2 -52z m-1695 53 c0 -8 -52 -106 -54 -103 -1 2 0 27 2 56 4 47 6
52 28 52 13 0 24 -2 24 -5z m2483 -35 c3 -11 2 -20 -3 -20 -8 0 -20 24 -20 41
0 17 17 1 23 -21z m-2112 -7 c13 -16 12 -17 -3 -4 -10 7 -18 15 -18 17 0 8 8
3 21 -13z m-211 -84 c0 -39 -4 -69 -10 -69 -6 0 -10 32 -10 76 0 47 4 73 10
69 6 -3 10 -37 10 -76z m615 59 c-11 -6 -41 -23 -67 -39 l-48 -29 0 23 c0 30
44 56 95 56 35 0 37 -1 20 -11z m3170 2 c-11 -5 -31 -9 -45 -9 -23 0 -23 1 -5
9 11 5 31 9 45 9 23 0 23 -1 5 -9z m-3525 -89 c0 -40 -3 -52 -10 -41 -5 8 -10
35 -10 61 0 25 -6 51 -12 59 -7 8 -3 6 10 -4 18 -16 22 -29 22 -75z m-192 44
c-3 -3 -9 2 -12 12 -6 14 -5 15 5 6 7 -7 10 -15 7 -18z m372 1 c0 -2 -8 -10
-17 -17 -16 -13 -17 -12 -4 4 13 16 21 21 21 13z m233 -94 c-4 -18 -13 -22
-49 -22 -42 0 -43 0 -46 38 -3 33 1 39 32 60 l35 22 17 -38 c9 -21 15 -48 11
-60z m-223 47 c0 -20 -4 -29 -12 -26 -7 2 -26 -3 -43 -11 -16 -8 -45 -18 -62
-23 l-33 -7 2 39 1 39 24 -22 c22 -21 24 -21 59 -5 24 12 33 13 28 5 -4 -8 -3
-10 2 -5 5 5 9 12 9 15 0 9 15 32 21 32 2 0 4 -14 4 -31z m2855 1 c-3 -5 1
-11 7 -13 7 -3 3 -6 -9 -6 -40 -2 -14 -29 33 -36 24 -3 42 -10 39 -16 -4 -5
-2 -9 3 -9 16 0 22 13 12 25 -13 15 4 30 43 37 19 4 27 1 27 -9 0 -15 -40 -34
-55 -25 -5 3 -7 2 -3 -3 4 -4 3 -14 -3 -22 -16 -19 1 -16 25 4 12 10 5 0 -14
-22 -19 -22 -36 -41 -37 -43 -1 -2 -7 -1 -14 3 -8 6 -5 14 12 27 17 14 19 18
6 14 -11 -4 -16 -2 -12 5 4 6 1 9 -6 8 -21 -4 -77 28 -89 52 -8 15 -8 24 0 34
12 14 44 9 35 -5z m235 16 c0 -3 -4 -8 -10 -11 -5 -3 -10 -1 -10 4 0 6 5 11
10 11 6 0 10 -2 10 -4z m-2475 -26 c3 -5 -1 -10 -9 -10 -9 0 -16 5 -16 10 0 6
4 10 9 10 6 0 13 -4 16 -10z m75 2 c0 -9 -47 -8 -57 1 -3 4 8 7 25 7 18 0 32
-4 32 -8z m78 -2 c6 0 12 -5 12 -11 0 -7 -7 -8 -17 -4 -10 4 -26 7 -35 7 -10
0 -18 4 -18 10 0 6 10 8 23 4 12 -3 28 -6 35 -6z m-691 -58 c-11 -2 -24 1 -31
8 -8 8 -5 16 14 30 l25 19 5 -27 c4 -21 1 -28 -13 -30z m2860 52 c-3 -3 -12
-4 -19 -1 -8 3 -5 6 6 6 11 1 17 -2 13 -5z m-3447 -14 c0 -5 -12 -10 -26 -10
-14 0 -23 4 -19 10 3 6 15 10 26 10 10 0 19 -4 19 -10z m295 -11 c5 -5 1 -9
-12 -9 -29 0 -53 10 -53 22 0 12 50 2 65 -13z m1960 1 c-3 -5 -13 -6 -21 -3
-12 4 -13 8 -3 14 15 9 32 2 24 -11z m40 0 c3 -5 1 -10 -4 -10 -6 0 -11 5 -11
10 0 6 2 10 4 10 3 0 8 -4 11 -10z m-1175 -14 c0 -10 -7 -12 -22 -8 -21 5 -21
6 -2 13 10 4 20 8 22 8 1 1 2 -5 2 -13z m80 -1 c0 -8 -2 -15 -4 -15 -2 0 -6 7
-10 15 -3 8 -1 15 4 15 6 0 10 -7 10 -15z m40 -6 c0 -5 -4 -9 -10 -9 -5 0 -10
7 -10 16 0 8 5 12 10 9 6 -3 10 -10 10 -16z m1090 11 c0 -5 -2 -10 -4 -10 -3
0 -8 5 -11 10 -3 6 -1 10 4 10 6 0 11 -4 11 -10z m1276 2 c-5 -8 -66 -4 -66 4
0 2 16 4 36 4 19 0 33 -4 30 -8z m-3062 -23 c41 -24 40 -22 24 -49 -11 -17
-10 -22 2 -30 8 -5 10 -10 4 -10 -22 0 -53 35 -63 73 -5 20 -8 37 -6 37 2 0
20 -9 39 -21z m1113 -31 c-3 -8 -6 -5 -6 6 -1 11 2 17 5 13 3 -3 4 -12 1 -19z
m1954 -1 c-10 -9 -11 -8 -5 6 3 10 9 15 12 12 3 -3 0 -11 -7 -18z m-2309 -89
c-2 -5 -14 -8 -28 -8 l-25 0 20 26 c12 15 22 34 22 43 1 9 5 0 8 -19 4 -19 5
-38 3 -42z m328 13 c-5 -11 -15 -23 -21 -27 -6 -3 -3 5 6 20 20 30 30 35 15 7z
m-30 3 c0 -8 -19 -13 -24 -6 -3 5 1 9 9 9 8 0 15 -2 15 -3z m-565 -44 c10 -11
16 -20 13 -20 -3 0 -13 9 -23 20 -10 11 -16 20 -13 20 3 0 13 -9 23 -20z
m-785 -140 c0 -5 -20 -10 -45 -10 -31 0 -47 -5 -51 -15 -8 -19 -34 -20 -34 0
0 7 8 19 18 24 22 13 112 14 112 1z m1647 -12 c-3 -8 -6 -5 -6 6 -1 11 2 17 5
13 3 -3 4 -12 1 -19z m-1134 -13 c-7 -21 -13 -19 -13 6 0 11 4 18 10 14 5 -3
7 -12 3 -20z m1107 5 c0 -5 -4 -10 -10 -10 -5 0 -10 5 -10 10 0 6 5 10 10 10
6 0 10 -4 10 -10z m-1130 -35 l65 -14 -77 4 -78 5 0 -28 c0 -34 -16 -52 -47
-52 -19 0 -23 5 -23 32 0 67 39 79 160 53z m1610 5 c0 -5 -5 -10 -11 -10 -5 0
-7 5 -4 10 3 6 8 10 11 10 2 0 4 -4 4 -10z m-1790 -95 c0 -8 -3 -14 -7 -13 -5
0 -15 -2 -23 -5 -8 -3 -33 -10 -55 -16 -37 -9 -38 -9 -20 5 11 8 32 18 48 21
15 3 30 10 33 14 8 14 24 10 24 -6z m1705 -25 c-3 -5 -10 -10 -16 -10 -5 0 -9
5 -9 10 0 6 7 10 16 10 8 0 12 -4 9 -10z m-1881 -55 c-39 -31 -58 -35 -25 -6
19 17 37 28 40 26 2 -3 -4 -12 -15 -20z m1288 -31 c35 -8 66 -10 80 -5 32 11
219 23 193 11 -11 -5 -45 -9 -75 -9 -30 -1 -72 -6 -92 -12 -56 -15 -208 16
-208 43 0 5 10 3 22 -3 12 -6 48 -18 80 -25z m496 14 c-7 -4 -53 -7 -103 -7
-49 1 -80 4 -67 7 34 10 184 10 170 0z m-1051 -134 c-3 -3 -12 -4 -19 -1 -8 3
-5 6 6 6 11 1 17 -2 13 -5z"/>
<path d="M2327 3380 c-12 -32 -12 -38 -1 -33 8 3 14 0 14 -6 0 -6 4 -11 10
-11 5 0 6 8 3 18 -6 15 -5 15 10 3 15 -12 17 -11 17 3 0 9 -5 16 -11 16 -5 0
-7 4 -4 10 3 6 -1 7 -9 4 -9 -3 -16 -2 -16 4 0 6 5 12 12 14 8 3 9 6 1 11 -6
4 -17 -10 -26 -33z"/>
<path d="M2390 3318 c-30 -6 -77 -10 -105 -10 -41 0 -46 -2 -30 -11 28 -15
113 -12 158 7 20 9 37 18 37 21 0 3 -1 4 -2 4 -2 -1 -28 -6 -58 -11z"/>
<path d="M2343 3242 c-59 -29 -72 -49 -18 -26 19 7 56 14 82 15 33 0 42 3 28
8 -19 8 -19 8 0 19 43 25 -40 11 -92 -16z"/>
<path d="M2321 3199 c-13 -5 -36 -18 -52 -30 -22 -15 -37 -19 -60 -14 -21 5
-29 4 -25 -3 13 -21 94 -25 132 -7 43 20 38 33 -6 15 -53 -22 -43 -4 12 23 50
24 50 36 -1 16z"/>
<path d="M2250 3088 c-11 -18 -20 -36 -20 -40 0 -17 11 -6 30 32 25 48 18 53
-10 8z"/>
<path d="M2095 3077 c-4 -10 -5 -21 -1 -24 10 -10 18 4 13 24 -4 17 -4 17 -12
0z"/>
<path d="M2188 2783 c7 -3 16 -2 19 1 4 3 -2 6 -13 5 -11 0 -14 -3 -6 -6z"/>
<path d="M2206 2425 c-11 -8 -15 -15 -9 -15 6 0 16 7 23 15 16 19 11 19 -14 0z"/>
<path d="M3151 3241 c-16 -10 -6 -31 15 -31 8 0 14 9 14 20 0 22 -7 25 -29 11z"/>
<path d="M3248 3085 c-4 -17 -1 -25 8 -25 8 0 14 11 14 25 0 14 -4 25 -9 25
-5 0 -11 -11 -13 -25z"/>
<path d="M3288 3076 c-3 -16 1 -21 19 -21 13 0 23 5 23 10 0 6 4 4 9 -4 6 -9
14 -10 24 -4 13 6 7 12 -27 24 -43 15 -44 15 -48 -5z"/>
<path d="M1811 2308 c-1 -15 4 -30 9 -33 12 -7 12 12 0 40 -8 18 -9 17 -9 -7z"/>
<path d="M1921 1884 c0 -11 3 -14 6 -6 3 7 2 16 -1 19 -3 4 -6 -2 -5 -13z"/>
<path d="M1280 1290 c-21 -7 -19 -8 15 -8 22 0 49 3 60 8 16 7 13 9 -15 8 -19
0 -46 -4 -60 -8z"/>
<path d="M2010 959 c0 -5 5 -7 10 -4 6 3 10 8 10 11 0 2 -4 4 -10 4 -5 0 -10
-5 -10 -11z"/>
<path d="M2403 2864 c-3 -7 -3 -21 0 -31 3 -12 5 -8 6 10 1 26 16 37 23 18 2
-6 13 -4 26 3 21 11 21 12 -14 12 -20 0 -38 -6 -41 -12z"/>
<path d="M4044 2501 c4 -6 16 -11 27 -11 18 0 65 -37 57 -45 -2 -2 -21 2 -43
9 -36 13 -40 12 -63 -9 -24 -23 -25 -24 -8 -49 9 -14 22 -26 28 -26 6 0 4 8
-5 18 -21 23 -21 38 -1 46 29 11 44 6 44 -14 0 -11 7 -20 15 -20 8 0 15 7 15
16 0 8 4 12 10 9 16 -10 24 45 9 60 -18 18 -95 32 -85 16z"/>
<path d="M4050 2423 c0 -5 7 -18 15 -29 13 -18 14 -18 8 4 -5 22 -23 41 -23
25z"/>
<path d="M4028 2338 c5 -5 16 -8 23 -6 8 3 3 7 -10 11 -17 4 -21 3 -13 -5z"/>
<path d="M4170 2255 c-10 -12 -10 -15 3 -15 19 0 31 16 18 24 -5 3 -14 -1 -21
-9z"/>
<path d="M3720 2236 c0 -13 23 -66 30 -66 4 0 10 -13 13 -30 5 -21 11 -28 22
-24 8 3 15 10 15 16 0 5 -4 6 -10 3 -6 -4 -10 5 -10 19 0 14 -4 26 -9 26 -5 0
-14 14 -20 30 -5 17 -15 30 -20 30 -6 0 -11 -2 -11 -4z"/>
<path d="M3760 2077 c0 -18 5 -27 15 -27 13 0 14 4 4 23 -17 33 -19 33 -19 4z"/>
<path d="M3746 1998 c-3 -13 -6 -34 -6 -48 1 -32 15 -9 23 38 7 36 -7 44 -17
10z"/>
<path d="M3730 1884 c0 -8 5 -12 10 -9 6 3 10 10 10 16 0 5 -4 9 -10 9 -5 0
-10 -7 -10 -16z"/>
<path d="M4352 2482 c-9 -6 -6 -14 13 -32 30 -28 39 -23 26 14 -11 27 -18 31
-39 18z"/>
<path d="M4540 2321 c0 -5 7 -15 17 -22 15 -13 15 -12 4 9 -12 23 -21 28 -21
13z"/>
<path d="M2331 2086 c-23 -36 -27 -51 -11 -41 19 12 50 64 41 69 -5 4 -19 -9
-30 -28z"/>
<path d="M1536 2212 c-2 -4 7 -9 22 -10 21 -1 24 0 12 8 -18 12 -27 12 -34 2z"/>
<path d="M1492 2185 c2 -21 -2 -30 -12 -31 -8 -1 -19 -2 -24 -3 -5 0 1 -12 13
-25 22 -23 22 -25 4 -36 -15 -9 -13 -10 12 -5 38 8 43 14 25 25 -12 7 -12 12
-2 22 16 16 15 40 -3 64 -15 18 -15 18 -13 -11z"/>
<path d="M1450 2060 c0 -5 5 -10 10 -10 6 0 10 5 10 10 0 6 -4 10 -10 10 -5 0
-10 -4 -10 -10z"/>
<path d="M1420 1816 c0 -2 7 -7 16 -10 8 -3 12 -2 9 4 -6 10 -25 14 -25 6z"/>
<path d="M1590 1799 c0 -5 5 -7 10 -4 6 3 10 8 10 11 0 2 -4 4 -10 4 -5 0 -10
-5 -10 -11z"/>
<path d="M1613 1723 c-7 -2 -13 -12 -12 -21 0 -11 2 -12 6 -4 7 19 23 14 17
-5 -5 -14 -4 -15 4 -4 8 11 6 45 -2 40 0 0 -7 -3 -13 -6z"/>
<path d="M1650 1723 c0 -13 29 -38 35 -31 3 3 -4 13 -15 23 -11 10 -20 13 -20
8z"/>
<path d="M969 1470 c-20 -16 -21 -19 -7 -20 9 0 20 5 23 11 4 6 17 14 29 19
l21 9 -21 0 c-12 1 -32 -8 -45 -19z"/>
<path d="M760 1364 c0 -8 5 -12 10 -9 6 4 8 11 5 16 -9 14 -15 11 -15 -7z"/>
<path d="M180 3624 c13 -33 13 -34 -4 -28 -11 4 -13 0 -9 -15 3 -12 1 -21 -5
-21 -6 0 -8 -10 -4 -22 3 -14 1 -19 -6 -14 -8 5 -10 -2 -5 -25 4 -22 3 -30 -5
-26 -6 5 -8 0 -5 -13 3 -12 0 -20 -7 -20 -7 0 -9 -8 -5 -21 5 -16 4 -19 -5
-14 -9 5 -10 1 -5 -15 5 -16 4 -20 -5 -15 -8 5 -11 1 -8 -10 5 -27 28 -31 28
-6 0 12 6 24 14 27 8 3 12 13 9 25 -3 10 -1 19 4 19 9 0 13 19 15 87 2 34 5
40 16 31 11 -9 12 -7 7 15 -4 15 -3 27 3 27 14 0 2 48 -14 54 -10 4 -11 0 -4
-20z"/>
<path d="M820 3605 c0 -8 4 -15 10 -15 5 0 7 7 4 15 -4 8 -8 15 -10 15 -2 0
-4 -7 -4 -15z"/>
<path d="M840 3514 c3 -64 2 -68 -15 -54 -24 20 -19 -9 10 -55 l25 -40 -6 55
c-6 52 -5 54 10 35 15 -19 16 -19 6 8 -5 16 -10 39 -10 52 0 13 -5 27 -11 31
-7 4 -10 -7 -9 -32z"/>
<path d="M810 3530 c0 -5 5 -10 10 -10 6 0 10 5 10 10 0 6 -4 10 -10 10 -5 0
-10 -4 -10 -10z"/>
<path d="M1225 3402 c-3 -3 -5 -19 -5 -35 0 -25 2 -28 15 -17 11 9 12 16 5 25
-13 16 -3 23 28 20 12 -1 22 2 22 6 0 8 -57 9 -65 1z"/>
<path d="M110 3320 c0 -5 6 -10 14 -10 8 0 18 5 21 10 3 6 -3 10 -14 10 -12 0
-21 -4 -21 -10z"/>
<path d="M60 3306 c-6 -8 -17 -13 -24 -10 -13 5 -31 -24 -21 -34 2 -3 7 2 10
10 4 10 14 14 26 11 10 -3 19 0 19 6 0 6 5 11 10 11 6 0 10 -7 10 -15 0 -8 -4
-15 -10 -15 -5 0 -10 -4 -10 -10 0 -5 6 -10 14 -10 14 0 30 -29 21 -38 -3 -3
-5 0 -5 6 0 7 -6 12 -14 12 -10 0 -12 -7 -8 -22 4 -15 2 -19 -7 -13 -10 6 -11
3 -2 -14 10 -17 9 -21 -5 -21 -14 0 -14 -3 -4 -15 7 -9 9 -19 5 -23 -4 -4 -10
-1 -12 6 -7 18 -31 14 -43 -7 -9 -17 -7 -20 17 -18 20 1 28 -3 31 -17 3 -13 0
-17 -10 -13 -11 4 -14 -1 -10 -19 2 -14 0 -24 -7 -24 -9 0 -9 -5 -1 -20 9 -16
8 -20 -5 -20 -19 0 -19 -2 2 -48 11 -26 17 -32 20 -20 2 9 -1 27 -8 39 -10 19
-9 21 4 16 18 -7 21 1 37 93 6 36 18 85 26 110 8 24 12 55 9 68 -4 15 -2 21 5
17 19 -12 10 11 -13 33 -27 26 -31 26 -47 8z"/>
<path d="M1076 3253 c-6 -14 -5 -15 5 -6 7 7 10 15 7 18 -3 3 -9 -2 -12 -12z"/>
<path d="M1016 3247 c3 -10 9 -15 12 -12 3 3 0 11 -7 18 -10 9 -11 8 -5 -6z"/>
<path d="M900 3230 c-61 -48 -70 -56 -70 -64 0 -5 11 1 25 14 14 13 25 18 25
12 0 -7 4 -12 10 -12 5 0 6 8 3 17 -5 13 -2 15 11 10 14 -5 17 -3 12 8 -4 11
1 15 19 15 14 0 25 5 25 10 0 16 -33 11 -60 -10z"/>
<path d="M945 3200 c-3 -5 -2 -10 4 -10 5 0 13 5 16 10 3 6 2 10 -4 10 -5 0
-13 -4 -16 -10z"/>
<path d="M4831 3094 c0 -11 3 -14 6 -6 3 7 2 16 -1 19 -3 4 -6 -2 -5 -13z"/>
<path d="M695 3048 c-29 -30 -29 -30 -3 -14 14 10 29 24 32 32 7 19 5 18 -29
-18z"/>
<path d="M624 2978 l-29 -33 33 29 c17 17 32 31 32 33 0 8 -8 1 -36 -29z"/>
<path d="M554 2903 c-15 -20 -23 -33 -16 -29 13 8 56 66 49 66 -3 0 -17 -17
-33 -37z"/>
<path d="M9 2903 c-9 -155 -9 -150 5 -117 20 45 28 91 21 114 -8 25 -25 26
-26 3z"/>
<path d="M409 2733 c-13 -16 -12 -17 4 -4 16 13 21 21 13 21 -2 0 -10 -8 -17
-17z"/>
<path d="M630 2396 c0 -9 5 -16 10 -16 6 0 10 4 10 9 0 6 -4 13 -10 16 -5 3
-10 -1 -10 -9z"/>
<path d="M11 2334 c0 -11 3 -14 6 -6 3 7 2 16 -1 19 -3 4 -6 -2 -5 -13z"/>
<path d="M413 2313 c9 -2 23 -2 30 0 6 3 -1 5 -18 5 -16 0 -22 -2 -12 -5z"/>
<path d="M575 2110 c-3 -6 1 -7 9 -4 18 7 21 14 7 14 -6 0 -13 -4 -16 -10z"/>
<path d="M580 2026 c0 -2 8 -10 18 -17 15 -13 16 -12 3 4 -13 16 -21 21 -21
13z"/>
<path d="M510 1949 c0 -5 5 -7 10 -4 6 3 10 8 10 11 0 2 -4 4 -10 4 -5 0 -10
-5 -10 -11z"/>
<path d="M228 1853 c7 -3 16 -2 19 1 4 3 -2 6 -13 5 -11 0 -14 -3 -6 -6z"/>
<path d="M270 1846 c0 -2 9 -6 20 -9 11 -3 18 -1 14 4 -5 9 -34 13 -34 5z"/>
<path d="M367 1819 c7 -7 15 -10 18 -7 3 3 -2 9 -12 12 -14 6 -15 5 -6 -5z"/>
<path d="M3347 1321 c-3 -13 -1 -34 6 -48 8 -19 17 -24 42 -22 16 2 37 0 45
-5 8 -4 3 3 -11 16 -15 13 -38 36 -51 52 -25 29 -25 29 -31 7z"/>
<path d="M3960 1229 c-17 -13 -18 -17 -5 -10 33 17 51 31 40 31 -5 0 -21 -10
-35 -21z"/>
<path d="M4545 1193 l-7 -51 -67 -12 c-79 -13 -149 -44 -212 -92 -37 -29 -49
-34 -65 -25 -17 9 -17 9 -6 -5 11 -14 6 -25 -29 -72 -42 -56 -42 -56 -95 -56
-54 0 -75 -13 -55 -33 12 -12 15 -126 5 -164 -4 -13 -13 -23 -20 -23 -8 0 -14
-4 -14 -10 0 -5 18 -10 39 -10 45 0 58 -12 36 -30 -14 -11 -14 -15 -1 -29 13
-14 11 -23 -11 -76 -14 -33 -30 -65 -35 -72 -17 -21 1 -33 49 -33 32 0 50 5
59 18 12 15 13 16 14 0 0 -9 16 -37 36 -63 28 -37 33 -49 23 -61 -7 -9 -8 -14
-1 -14 6 0 13 4 17 10 3 5 29 -9 58 -30 29 -22 84 -51 122 -64 83 -29 139 -40
130 -26 -3 6 -2 10 3 10 6 0 16 -24 23 -53 l13 -52 6 40 5 40 75 16 c91 18
150 44 211 92 44 33 48 34 65 19 18 -16 18 -16 1 4 -16 19 -16 22 -2 34 9 7
28 33 42 57 18 31 29 41 36 34 13 -13 94 -15 101 -2 3 5 -8 38 -26 73 -20 41
-31 76 -30 101 1 23 -3 37 -11 38 -21 1 27 18 58 19 18 2 23 4 13 7 -22 6 -23
17 -3 33 20 17 19 59 -2 82 -15 17 -15 21 1 55 10 21 13 40 8 45 -5 5 -34 12
-65 15 -54 5 -57 7 -92 59 -31 45 -35 57 -25 69 8 9 9 15 2 15 -6 0 -14 -4
-17 -10 -3 -5 -34 10 -69 34 -66 45 -160 86 -199 86 -54 0 -65 10 -75 64 l-9
51 -8 -52z m310 -233 c-3 -5 -12 -10 -18 -10 -7 0 -6 4 3 10 19 12 23 12 15 0z
m76 -27 c13 -16 12 -17 -3 -4 -10 7 -18 15 -18 17 0 8 8 3 21 -13z m-841 -118
c0 -42 2 -45 26 -45 26 0 26 2 22 45 -5 43 -4 45 19 45 19 0 24 -4 19 -16 -3
-9 -6 -51 -6 -95 0 -71 -2 -79 -19 -79 -16 0 -19 6 -18 33 2 28 -1 32 -23 32
-23 0 -25 -3 -22 -36 3 -33 1 -37 -20 -36 -22 2 -23 5 -23 99 0 95 1 98 23 98
20 0 22 -5 22 -45z m208 29 c18 -13 22 -25 22 -71 0 -63 -18 -93 -57 -93 -36
0 -63 34 -63 81 0 83 44 121 98 83z m136 6 c20 -7 26 -17 26 -38 0 -15 -5 -33
-10 -38 -7 -7 -6 -22 5 -47 19 -46 19 -47 -3 -47 -12 0 -21 11 -27 33 -6 17
-17 32 -25 32 -11 0 -15 -10 -14 -32 2 -26 -2 -33 -17 -33 -17 0 -19 8 -19 74
0 41 -3 81 -6 90 -5 13 1 16 29 16 20 0 47 -4 61 -10z m197 -59 c-17 -33 -31
-65 -31 -71 0 -14 33 -13 48 2 9 9 12 6 12 -13 0 -24 -3 -26 -55 -28 -33 -1
-55 3 -55 9 0 6 14 38 31 71 32 64 31 82 -1 61 -17 -11 -20 -10 -20 7 0 17 8
20 48 23 26 2 48 2 50 2 2 -1 -10 -29 -27 -63z m139 49 c25 -25 27 -105 4
-138 -31 -44 -91 -21 -100 40 -15 92 43 151 96 98z m79 -6 c11 -14 23 -34 26
-45 11 -34 20 -20 17 26 -4 43 -3 45 19 42 13 -2 23 -7 22 -10 -2 -4 -3 -45
-3 -92 0 -51 -4 -85 -10 -85 -6 0 -24 21 -40 47 l-30 47 0 -42 c0 -31 -4 -42
-15 -42 -12 0 -15 15 -15 74 0 41 -3 81 -6 90 -10 25 12 19 35 -10z m209 20
c24 -7 26 -12 13 -32 -7 -12 -12 -12 -29 -1 -15 10 -25 10 -32 3 -8 -8 2 -22
35 -48 48 -40 55 -59 28 -88 -28 -31 -131 -14 -118 20 3 7 5 18 5 24 0 6 8 4
18 -5 20 -18 57 -23 66 -8 3 5 -14 25 -39 46 -49 40 -53 50 -28 77 17 19 41
22 81 12z m-530 -86 c-3 -70 -6 -83 -20 -86 -16 -3 -18 6 -18 82 0 80 1 86 20
86 20 0 21 -5 18 -82z m357 -108 c4 -6 -7 -10 -27 -9 -31 1 -32 1 -8 9 14 4
26 8 27 9 1 1 5 -3 8 -9z m-348 -26 c3 -8 1 -20 -6 -27 -14 -14 -47 15 -37 32
10 16 36 13 43 -5z m43 -4 c-6 -11 -13 -20 -15 -20 -3 0 -5 9 -5 20 0 11 7 20
15 20 13 0 14 -4 5 -20z m-409 -47 c-9 -18 15 -94 45 -140 14 -22 13 -23 -15
-23 -21 0 -30 6 -34 21 -5 17 -12 20 -44 17 -29 -2 -38 -7 -37 -20 1 -13 -6
-18 -26 -18 l-29 0 30 66 c20 43 28 75 25 90 -6 23 -4 24 44 24 45 0 50 -2 41
-17z m842 -16 c3 -18 17 -57 31 -87 14 -30 26 -55 26 -57 0 -2 -11 -3 -24 -3
-15 0 -26 7 -29 20 -4 15 -14 20 -37 20 -23 0 -33 -5 -37 -20 -3 -13 -14 -20
-28 -20 l-23 0 28 72 c21 52 26 77 19 90 -9 16 -5 18 29 18 37 0 40 -2 45 -33z
m-660 1 c12 -9 14 -17 7 -28 -7 -12 -12 -12 -22 -2 -19 19 -46 14 -64 -13 -15
-23 -15 -27 0 -50 18 -27 45 -32 64 -13 10 9 16 9 28 -4 15 -15 14 -17 -15
-32 -83 -43 -162 64 -96 129 26 27 71 33 98 13z m512 -35 c-1 -2 -15 1 -32 6
-18 5 -34 7 -37 3 -13 -12 -5 -22 19 -22 18 0 25 -5 25 -20 0 -15 -7 -20 -25
-20 -16 0 -25 -6 -25 -15 0 -19 50 -20 69 -2 11 10 13 9 7 -6 -3 -10 -6 -23
-6 -28 0 -5 -24 -9 -52 -9 l-53 0 0 72 0 73 50 5 c44 4 51 2 56 -15 3 -11 5
-21 4 -22z m-425 12 c0 -20 5 -25 25 -25 20 0 25 5 25 25 0 17 5 25 18 25 15
0 17 -10 17 -75 0 -65 -2 -75 -17 -75 -14 0 -18 8 -18 35 0 31 -3 35 -25 35
-22 0 -25 -4 -25 -35 0 -28 -4 -35 -20 -35 -18 0 -20 7 -20 75 0 68 2 75 20
75 15 0 20 -7 20 -25z m230 10 c0 -8 11 -40 25 -71 14 -31 25 -58 25 -60 0 -2
-11 -4 -25 -4 -18 0 -25 5 -25 20 0 16 -7 20 -30 20 -23 0 -30 -4 -30 -20 0
-15 -7 -20 -24 -20 l-25 0 25 61 c14 34 23 68 20 75 -4 10 4 14 29 14 24 0 35
-5 35 -15z m57 -67 c-3 -8 -6 -5 -6 6 -1 11 2 17 5 13 3 -3 4 -12 1 -19z
m-453 -133 c-15 -20 -29 -33 -32 -30 -5 5 46 65 55 65 2 0 -8 -16 -23 -35z
m-83 -2 c13 -16 12 -17 -3 -4 -17 13 -22 21 -14 21 2 0 10 -8 17 -17z m680
-10 c13 -16 12 -17 -3 -4 -10 7 -18 15 -18 17 0 8 8 3 21 -13z m-546 -106 c6
-6 -5 -1 -23 9 -18 10 -41 28 -50 38 -15 18 47 -23 73 -47z m70 -28 c22 -10
29 -16 15 -13 -28 7 -80 33 -65 33 6 0 28 -9 50 -20z m82 -25 c-3 -3 -12 -4
-19 -1 -8 3 -5 6 6 6 11 1 17 -2 13 -5z"/>
<path d="M4247 823 c-4 -3 -7 -28 -7 -55 0 -51 22 -76 41 -47 26 42 -4 132
-34 102z"/>
<path d="M4387 824 c-4 -4 -7 -16 -7 -26 0 -14 6 -19 23 -16 14 2 22 10 22 23
0 20 -25 32 -38 19z"/>
<path d="M4717 823 c-11 -10 -8 -101 3 -108 19 -12 36 14 35 52 -1 52 -18 77
-38 56z"/>
<path d="M4510 630 c0 -5 5 -10 11 -10 5 0 7 5 4 10 -3 6 -8 10 -11 10 -2 0
-4 -4 -4 -10z"/>
<path d="M4113 520 c-11 -28 -10 -30 14 -30 21 0 23 3 18 23 -12 36 -20 38
-32 7z"/>
<path d="M4967 519 c-7 -27 -4 -32 17 -27 12 2 13 7 2 27 l-13 23 -6 -23z"/>
<path d="M4630 500 c0 -13 5 -18 14 -14 8 3 12 12 9 20 -8 21 -23 17 -23 -6z"/>
<path d="M3330 1175 c0 -7 -8 -19 -17 -24 -19 -11 -19 -11 12 -15 15 -2 20 4
22 26 1 15 -2 28 -7 28 -6 0 -10 -7 -10 -15z"/>
<path d="M3532 1100 c0 -14 2 -19 5 -12 2 6 2 18 0 25 -3 6 -5 1 -5 -13z"/>
<path d="M5165 1079 c-24 -7 -123 -15 -239 -18 -17 -1 -17 -3 5 -25 39 -39 49
-54 49 -74 0 -19 65 -62 94 -62 29 0 59 -39 52 -70 -9 -49 11 -143 35 -163 28
-23 15 -38 -44 -53 -40 -9 -42 -12 -42 -48 0 -20 10 -62 23 -93 22 -52 22 -56
6 -74 -9 -10 -23 -19 -31 -19 -8 0 -11 -5 -7 -11 10 -16 -15 -29 -56 -29 -33
0 -37 -3 -51 -42 -12 -34 -24 -48 -58 -65 -24 -12 -51 -29 -61 -38 -9 -8 -30
-15 -46 -15 -17 0 -39 -6 -49 -14 -10 -7 -27 -11 -37 -8 -10 2 -30 -3 -44 -13
-14 -9 -32 -14 -41 -11 -8 3 -19 3 -25 0 -14 -9 11 -24 42 -24 22 -1 20 -4
-17 -22 -23 -12 -44 -29 -46 -40 -7 -25 -47 -24 -54 2 -4 16 -14 20 -47 20
-67 0 -153 -19 -204 -46 l-47 -24 497 2 c273 2 500 7 504 11 5 4 2 12 -6 18
-13 8 -13 10 0 20 11 8 12 12 2 16 -7 2 -19 12 -27 20 -10 9 -22 12 -33 7 -9
-4 -21 -6 -25 -5 -4 0 -16 -3 -25 -8 -13 -7 -31 -2 -67 19 l-49 28 35 7 c19 3
70 9 114 13 l80 7 3 345 c2 245 -1 351 -9 367 -7 13 -9 35 -4 55 4 18 9 63 12
101 5 74 3 76 -62 56z m45 -889 c0 -6 -26 -10 -62 -10 -35 0 -88 -2 -118 -5
-36 -2 -28 0 25 8 112 18 155 20 155 7z m-273 -26 c-3 -3 -12 -4 -19 -1 -8 3
-5 6 6 6 11 1 17 -2 13 -5z m253 -105 c0 -6 -4 -7 -10 -4 -5 3 -10 11 -10 16
0 6 5 7 10 4 6 -3 10 -11 10 -16z m-35 1 c-8 -13 -35 -13 -35 0 0 6 9 10 21
10 11 0 17 -4 14 -10z"/>
<path d="M3503 1038 c-11 -13 -24 -30 -28 -38 -8 -16 -6 -14 34 33 14 15 22
27 19 27 -2 0 -14 -10 -25 -22z"/>
<path d="M3930 970 c-91 -10 -190 -23 -220 -29 -100 -21 -239 -38 -234 -29 8
12 -30 10 -43 -3 -5 -5 -84 -21 -174 -35 -190 -28 -208 -31 -474 -89 -174 -37
-237 -51 -330 -69 -101 -21 -371 -94 -412 -113 -28 -12 -58 -23 -65 -23 -17 0
-86 -24 -94 -33 -4 -4 6 -7 22 -8 16 0 22 -3 14 -6 -8 -2 -24 -8 -35 -13 -11
-5 -53 -18 -93 -30 -71 -20 -90 -43 -34 -40 50 4 57 0 58 -25 2 -30 31 -78 44
-70 4 3 10 -1 13 -7 3 -10 7 -10 18 -2 18 15 105 2 151 -22 30 -17 31 -19 11
-22 -13 -2 -23 -9 -23 -16 0 -18 56 -47 76 -39 14 5 16 3 11 -11 -4 -10 -3
-26 3 -36 8 -15 3 -22 -28 -41 -20 -13 -43 -28 -51 -33 -9 -6 -12 -5 -7 3 4 6
-8 3 -26 -7 -18 -9 -35 -21 -36 -25 -2 -4 -10 -3 -17 3 -10 9 -21 3 -47 -22
l-33 -33 22 -24 c13 -13 26 -21 29 -18 4 4 -4 15 -17 26 -20 17 -21 20 -6 21
9 0 17 -5 17 -11 0 -7 20 -9 60 -6 39 3 60 1 63 -7 3 -8 9 -7 20 3 10 7 17 9
17 4 0 -6 15 -9 32 -7 18 2 47 -3 64 -11 26 -12 74 -14 295 -10 271 5 392 6
444 1 17 -1 38 2 49 7 13 6 16 6 12 -2 -9 -13 101 -5 142 10 18 7 27 6 33 -2
12 -19 189 -16 189 3 0 4 6 5 14 2 19 -7 31 15 17 29 -9 9 -10 7 -5 -8 7 -19
7 -19 -9 -3 -19 18 -23 33 -7 23 18 -11 11 8 -12 32 -12 13 -19 25 -16 29 3 3
18 -10 33 -30 l26 -35 32 18 c18 10 39 18 47 19 44 2 211 33 250 46 44 15 43
16 -65 10 -60 -3 -132 -8 -159 -11 -32 -3 -46 -2 -42 5 3 6 15 8 26 5 12 -3
20 0 20 6 0 8 12 10 36 5 29 -5 35 -4 29 6 -6 10 -1 12 18 8 15 -3 28 -2 29 3
2 4 30 10 64 13 34 3 72 7 85 10 13 3 96 12 184 21 189 18 201 20 208 39 8 21
-13 88 -32 103 -9 7 -32 13 -52 13 -22 0 -42 7 -53 18 -15 17 -15 22 -1 55 8
20 17 64 21 97 l5 61 -40 16 c-48 19 -50 27 -15 50 26 17 26 19 22 105 -6 97
2 118 47 118 31 0 90 53 82 74 -4 9 -12 15 -19 15 -7 -1 -87 -9 -178 -19z
m-190 -120 c0 -5 -12 -10 -27 -9 -25 0 -26 1 -8 9 27 12 35 12 35 0z m-456
-172 c-5 -7 -7 -23 -6 -35 3 -17 -2 -21 -17 -20 -26 2 -29 42 -4 69 18 20 41
9 27 -14z m-1270 -256 c-5 -32 -11 -40 -25 -39 -27 2 -25 51 3 71 12 9 23 14
25 12 2 -2 1 -22 -3 -44z m1030 -400 c3 -5 -8 -6 -25 -4 -16 2 -29 6 -29 8 0
8 49 4 54 -4z"/>
<path d="M973 643 c-7 -19 17 -35 33 -22 9 7 16 5 23 -8 10 -16 11 -15 9 6 -4
30 -55 50 -65 24z"/>
<path d="M40 616 c0 -2 7 -7 16 -10 8 -3 12 -2 9 4 -6 10 -25 14 -25 6z"/>
<path d="M1990 310 c0 -5 5 -10 11 -10 5 0 7 5 4 10 -3 6 -8 10 -11 10 -2 0
-4 -4 -4 -10z"/>
<path d="M4249 122 c-69 -37 -81 -40 -178 -45 -66 -3 -106 -9 -111 -17 -11
-18 -100 -26 -110 -9 -7 10 -14 11 -32 2 -39 -19 -66 -24 -73 -13 -3 5 -35 10
-71 10 -61 0 -79 -9 -51 -27 16 -10 207 -11 201 -1 -3 4 -1 8 5 8 5 0 11 -5
13 -12 3 -8 42 -4 139 14 73 14 135 25 137 23 2 -1 -14 -13 -35 -25 -21 -13
-32 -25 -26 -27 7 -3 25 4 40 15 28 19 110 58 168 80 17 6 59 15 94 19 74 9
97 33 33 33 -22 0 -47 2 -55 5 -7 3 -47 -12 -88 -33z"/>
<path d="M1940 9 c0 -12 61 -11 80 1 11 7 1 9 -32 8 -27 0 -48 -4 -48 -9z"/>
</g>
</svg>
