<?xml version="1.0" encoding="utf-8"?>
<!-- Generator: Adobe Illustrator 17.1.0, SVG Export Plug-In . SVG Version: 6.00 Build 0)  -->
<!DOCTYPE svg PUBLIC "-//W3C//DTD SVG 1.1//EN" "http://www.w3.org/Graphics/SVG/1.1/DTD/svg11.dtd">
<svg version="1.1" id="Слой_1" xmlns="http://www.w3.org/2000/svg" xmlns:xlink="http://www.w3.org/1999/xlink" x="0px" y="0px"
	 viewBox="0 0 24 24" enable-background="new 0 0 24 24" xml:space="preserve">
<g>
	<path fill="#CB9833" d="M13.2,3.9C14.1,4,15,4.3,15.8,4.8c0.6,0.3,1.1,0.7,1.6,1.2c0.5,0.5,1.1,1.1,1.4,1.9
		c0.4,0.7,0.7,1.5,0.9,2.3c0.2,0.9,0.3,1.8,0.2,2.7c-0.1,1-0.4,2-0.8,2.9c-0.6,1.2-1.4,2.2-2.4,3c-0.9,0.6-1.8,1.1-2.8,1.3
		c-0.8,0.2-1.7,0.2-2.5,0.1c-0.8-0.1-1.6-0.3-2.3-0.6c-0.7-0.3-1.4-0.8-2-1.3c-0.9-0.8-1.6-1.8-2.1-2.9c-0.3-0.7-0.5-1.4-0.6-2.1
		c-0.1-0.7-0.1-1.4,0-2.1c0-0.1,0-0.2,0-0.3C4.5,10.2,4.7,9.5,5,8.8c0.5-1.2,1.2-2.2,2.1-3c1-0.9,2.2-1.5,3.5-1.8
		c0.5-0.1,1-0.1,1.5-0.2c0.3,0,0.6,0,0.8,0.1C13,3.9,13.1,3.8,13.2,3.9z"/>
	<path fill="#CB9833" d="M13.9,3.4c-0.1,0-0.2,0-0.3,0c-0.2,0-0.4-0.1-0.5-0.3c-0.1-0.2-0.2-0.2-0.3,0c-0.1,0.2-0.3,0.2-0.5,0.2
		c-0.4-0.1-0.8,0-1.2,0c-0.3,0-0.4,0-0.4-0.3c0-0.4-0.1-0.7-0.1-1.1c0-0.2,0-0.3,0.2-0.3c0.3,0,0.6,0,0.9,0c0.1,0,0.2,0,0.2,0.2
		c0,0.1,0,0.2-0.2,0.2c-0.2,0-0.3,0.1-0.5,0.1c-0.1,0-0.1,0-0.1,0.1c0,0.1,0.1,0.1,0.1,0.1c0.1,0,0.2,0,0.3,0c0.3-0.1,0.4,0,0.4,0.3
		c-0.2,0-0.4,0-0.6,0.1c-0.1,0-0.1,0-0.1,0.1c0,0.1,0.1,0.1,0.2,0.1c0.1,0,0.3,0,0.4-0.1c0.1,0,0.2-0.1,0.2,0.1c0,0.1,0.1,0.1,0.1,0
		c0.1-0.2,0.3-0.3,0.4-0.5c0-0.1,0-0.1,0-0.2c0-0.1-0.1-0.2-0.1-0.3c-0.1-0.1-0.2-0.3-0.1-0.4c0-0.1,0.3,0,0.4,0
		C13,1.7,13,1.8,13,1.9c0.1,0.1,0.1,0.3,0.2,0c0.1-0.3,0.4-0.2,0.6-0.1c0.1,0,0.1,0.1,0,0.2c-0.1,0.1-0.1,0.2-0.2,0.3
		c-0.3,0.2-0.2,0.5-0.1,0.7C13.7,3.1,13.7,3.3,13.9,3.4C13.9,3.4,13.9,3.4,13.9,3.4z"/>
	<path fill="#CB9833" d="M6.1,19.5c-0.3,0.1-0.5,0.1-0.7,0.2c-0.1,0-0.1,0-0.2,0c-0.3-0.2-0.3-0.3-0.1-0.6c0.2-0.3,0.5-0.5,0.7-0.8
		C6,18,6.1,18.4,6.2,18.4c0.2,0.1,0,0.2,0,0.2C6.1,18.8,6,18.9,5.9,19c0.3,0,0.4-0.1,0.6-0.2c0.1,0,0.5,0.2,0.5,0.3
		c0,0.1,0,0.1-0.1,0.2c-0.3,0.3-0.6,0.7-0.8,1c-0.2,0.2-0.3-0.1-0.4-0.1c-0.1,0-0.1-0.2,0-0.2C5.9,19.8,6,19.7,6.1,19.5z"/>
	<path fill="#CB9833" d="M20.8,8.2c0.2,0.1,0.3,0.1,0.5,0.1c0.3,0,0.4,0.2,0.4,0.4c0,0.1,0,0.2-0.1,0.2c-0.4,0.2-0.8,0.3-1.2,0.5
		c-0.2,0.1-0.2-0.1-0.2-0.1c0-0.1-0.3-0.3,0-0.4c0.2-0.1,0.3-0.1,0.5-0.3c-0.2-0.1-0.4-0.2-0.6-0.1c-0.4,0-0.3-0.3-0.4-0.5
		c0,0,0-0.1,0.1-0.1c0.4-0.2,0.8-0.3,1.2-0.5c0.2-0.1,0.2,0,0.3,0.1c0.1,0.2,0.1,0.3-0.1,0.4C21,8,20.9,8.1,20.8,8.2z"/>
	<path fill="#CB9833" d="M19.8,6.5c0.3,0,0.5,0,0.7,0c0.1,0,0.2,0,0.3,0.1C21,6.9,21,6.9,20.7,7.1c-0.3,0.2-0.6,0.4-0.9,0.6
		c-0.2,0.1-0.2,0-0.3-0.1c-0.1-0.1-0.1-0.2,0-0.3c0.1-0.1,0.4-0.2,0.3-0.3c-0.1-0.1-0.3,0-0.5-0.1c-0.1,0-0.2,0-0.4,0
		c-0.3-0.2-0.3-0.4,0-0.6c0.3-0.2,0.6-0.4,0.8-0.6c0.2-0.1,0.3-0.1,0.4,0.1c0.1,0.2,0.1,0.3-0.1,0.4C20.1,6.3,20,6.4,19.8,6.5z"/>
	<path fill="#CB9833" d="M19.8,17.3c-0.1-0.2-0.2-0.5-0.3-0.7c-0.1-0.2,0-0.4,0.1-0.5c0.1-0.1,0.2,0,0.3,0.1c0.3,0.2,0.6,0.4,1,0.6
		c0.3,0.2-0.1,0.3-0.1,0.4c0,0.1-0.1,0.2-0.2,0.1c-0.1-0.1-0.3-0.2-0.5-0.3c0.1,0.2,0.2,0.5,0.3,0.7c0.1,0.2-0.1,0.4-0.2,0.5
		c-0.1,0.2-0.2,0-0.3-0.1c-0.3-0.2-0.6-0.4-1-0.6c-0.2-0.1-0.1-0.2,0-0.2c0.1-0.1,0.1-0.3,0.3-0.2C19.5,17.1,19.6,17.2,19.8,17.3z"
		/>
	<path fill="#CB9833" d="M3.4,11.3c-0.5,0-0.9-0.2-1.4-0.2C1.8,11,2,10.8,2,10.7c0-0.1,0.1-0.2,0.2-0.2c0.2,0.1,0.3,0.1,0.5,0.1
		c-0.1-0.2-0.3-0.4-0.4-0.5C2.1,10,2.1,9.6,2.2,9.5c0,0,0.1,0,0.1,0c0.4,0.1,0.8,0.2,1.2,0.2c0.1,0,0.3,0,0.2,0.2
		c-0.1,0.1,0,0.4-0.3,0.3c-0.1,0-0.3-0.1-0.5,0c0.2,0.2,0.3,0.3,0.4,0.4C3.6,10.8,3.6,11,3.4,11.3C3.5,11.3,3.5,11.3,3.4,11.3z"/>
	<path fill="#CB9833" d="M3.5,8.3C3.7,8.6,3.8,8.8,3.9,9c0.2,0.2,0,0.4-0.1,0.5c0,0.1-0.2,0-0.3,0C3.2,9.3,2.9,9.2,2.5,9
		C2.3,8.9,2.4,8.8,2.5,8.6c0-0.2,0.1-0.1,0.3-0.1C2.9,8.6,3,8.7,3.2,8.6C3.1,8.5,3,8.3,2.9,8.2C2.8,8.1,2.8,8,2.8,7.9
		c0-0.3,0.1-0.4,0.4-0.3c0.3,0.1,0.7,0.3,1,0.4c0.3,0.1,0.1,0.2,0.1,0.4C4.2,8.6,4.1,8.6,4,8.5C3.9,8.4,3.7,8.4,3.5,8.3z"/>
	<path fill="#CB9833" d="M3.3,17.2c0-0.2,0.1-0.3,0.3-0.4c0.1,0,0.3,0,0.3-0.2c0-0.2,0.4-0.4,0.6-0.2c0.3,0.2,0.5,0.7,0.7,1
		c0.1,0.1,0,0.1-0.1,0.1c-0.4,0.2-0.7,0.5-1.1,0.7c0,0-0.1,0.1-0.2,0C3.7,17.9,3.4,17.6,3.3,17.2z"/>
	<path fill="#CB9833" d="M19.4,4.8c0.4,0.4,0.4,0.4,0.1,0.8c-0.3,0.3-0.5,0.5-0.8,0.8c0,0-0.1-0.1-0.1-0.1c-0.3-0.3-0.3-0.3,0-0.6
		c0.2-0.1,0.1-0.2,0-0.3c-0.1-0.1-0.2-0.2-0.3,0c0,0-0.1,0.1-0.1,0.1c-0.1,0.1-0.2,0.3-0.4,0c-0.2-0.2-0.2-0.3,0-0.5
		c0.3-0.3,0.5-0.5,0.8-0.8c0.1-0.1,0.2-0.1,0.3,0c0.1,0.1,0.3,0.2,0.1,0.4c-0.1,0.1-0.1,0.1-0.2,0.2c-0.1,0.1,0,0.2,0.1,0.3
		c0.1,0.1,0.2,0.2,0.3,0C19.2,5,19.3,4.9,19.4,4.8z"/>
	<path fill="#CB9833" d="M13.9,3.4C13.9,3.4,13.9,3.4,13.9,3.4C14,3,14.1,2.6,14.2,2.1c0.1-0.2,0.1-0.3,0.4-0.2
		c0.2,0.1,0.3,0.2,0.2,0.4c-0.1,0.2-0.1,0.3,0.1,0.3c0.2,0,0.3,0,0.3-0.2c0-0.1,0-0.3,0.3-0.2c0.2,0.1,0.4,0.1,0.3,0.4
		c-0.1,0.4-0.2,0.7-0.3,1.1c-0.1,0.2-0.1,0.2-0.3,0.2c-0.2-0.1-0.3-0.1-0.2-0.3c0.1-0.2,0.2-0.4-0.2-0.5c-0.1,0-0.2,0-0.2,0.1
		C14.4,3.6,14.4,3.6,13.9,3.4z"/>
	<path fill="#CB9833" d="M5.8,6.1C5.7,6.2,5.6,6.4,5.5,6.4C5.4,6.6,5.3,6.4,5.2,6.3C5.1,6.2,4.9,6.1,4.7,5.9
		C4.6,5.8,4.5,5.8,4.4,5.9c-0.1,0.1-0.1,0.2,0,0.3C4.6,6.4,4.8,6.6,5,6.7c0.1,0.1,0.2,0.2,0,0.3C4.9,7.1,4.9,7.4,4.7,7.2
		c-0.3-0.3-0.6-0.6-1-0.8c-0.1-0.1-0.1-0.2,0-0.3c0.2-0.3,0.5-0.6,0.7-1c0.1-0.1,0.2-0.1,0.3,0C5,5.4,5.3,5.7,5.7,6
		C5.7,6,5.8,6,5.8,6.1z"/>
	<path fill="#CB9833" d="M7.1,4.9C7,4.8,7,4.7,6.9,4.6c0-0.1-0.1-0.1,0-0.2C7.1,4.4,7,4.3,7,4.2C6.9,4,6.7,3.7,6.6,3.5
		C6.5,3.4,6.5,3.3,6.7,3.2c0.3-0.1,0.6-0.3,0.8-0.5c0.2-0.1,0.2-0.1,0.3,0.1C8,3.2,8.2,3.6,8.4,3.9c0.2,0.3-0.1,0.3-0.2,0.4
		C8.1,4.4,8,4.3,7.9,4.2C7.8,3.9,7.6,3.7,7.5,3.5c0-0.1-0.1-0.2-0.2-0.1C7.2,3.4,7.2,3.5,7.3,3.6C7.4,3.8,7.5,4,7.6,4.2
		C7.6,4.5,7.3,4.9,7.1,4.9z"/>
	<path fill="#CB9833" d="M6,5.7c-0.5,0-0.9-0.5-0.9-0.9c0-0.4,0.5-0.9,0.8-0.9c0.4,0,0.9,0.6,0.9,1C6.8,5.2,6.3,5.7,6,5.7z"/>
	<path fill="#CB9833" d="M7.6,20.1c0.1,0,0.1,0,0.1-0.1c0.2-0.4,0.2-0.4,0.6-0.1c0.1,0.1,0.1,0.1,0,0.2c-0.2,0.4-0.4,0.8-0.6,1.1
		c-0.1,0.2-0.2,0.1-0.3,0C7.2,21.2,7,21.2,7.2,21c0.1-0.1,0.1-0.1,0.1-0.3C7,21,6.7,20.9,6.4,20.8c-0.1,0-0.2-0.1-0.1-0.2
		c0.1-0.1,0-0.3,0.2-0.2c0.2,0.1,0.3-0.1,0.5-0.2c0.1,0,0,0,0-0.1c-0.1-0.2,0-0.5,0-0.7c0-0.2,0.1-0.2,0.2-0.1
		c0.2,0.1,0.4,0.2,0.3,0.5C7.5,19.9,7.6,20,7.6,20.1z"/>
	<path fill="#CB9833" d="M21.7,12.2c0.1,0,0.2,0,0.3,0c0.2,0,0.3,0,0.3,0.3c0,0.2,0,0.3-0.3,0.3c-0.1,0-0.2,0-0.4,0
		c-0.3,0-0.6,0-1,0c0-0.5,0-0.5,0.6-0.5c0-0.2,0-0.3,0-0.5c-0.2,0-0.4,0.1-0.6-0.1c0-0.2,0-0.3,0-0.5l0,0c0.3-0.1,0.6,0,0.9,0
		c0.1,0,0.2,0,0.4,0c0.2,0,0.3,0.1,0.3,0.3c0,0.5-0.3,0.2-0.5,0.3C21.7,11.9,21.7,12,21.7,12.2z"/>
	<path fill="#CB9833" d="M14.6,20.3c0.4,0,0.6,0.3,0.5,0.6c0,0.2,0.1,0.2,0.1,0.3c0.2,0.3,0.1,0.7-0.3,0.8c-0.2,0.1-0.5,0.2-0.7,0
		C14,22,13.9,21.8,14,21.5c0.1-0.2,0.1-0.3-0.1-0.4c-0.2-0.2-0.1-0.6,0.2-0.7C14.3,20.4,14.5,20.3,14.6,20.3z"/>
	<path fill="#CB9833" d="M3.4,11.3C3.5,11.3,3.5,11.3,3.4,11.3c0.1,0.1,0.1,0.2,0.1,0.2c0,0.5,0,0.5-0.5,0.7c0,0.1,0,0.1,0.1,0.1
		c0.1,0,0.3,0,0.4,0l0,0c0,0.2,0,0.3,0,0.5c-0.2,0.1-0.4,0-0.6,0.1c-0.2,0-0.5,0-0.7,0c-0.3,0-0.4-0.2-0.3-0.5
		c0-0.1,0.1-0.1,0.1-0.1c0.1,0,0.2,0,0.4-0.1c-0.1,0-0.2-0.1-0.3-0.1C2,12,1.8,11.6,1.9,11.4c0-0.1,0.1-0.1,0.2-0.1
		c0.1,0,0.2,0,0.2,0.1c0.1,0.3,0.3,0.3,0.6,0.2c0.1-0.1,0.3-0.2,0.4-0.2C3.4,11.4,3.5,11.4,3.4,11.3z"/>
	<path fill="#CB9833" d="M11.4,20.6c0.4,0.2,0.5,0.4,0.3,0.7c-0.1,0.1,0,0.2,0,0.2c0.3,0.3,0.1,0.7-0.3,0.8c-0.3,0-0.5,0.1-0.7-0.1
		c-0.1-0.1-0.2-0.1-0.2-0.3c0-0.1-0.1-0.3,0-0.4c0.1-0.1,0.1-0.2,0.1-0.4c-0.1-0.3-0.1-0.4,0.2-0.6C11,20.5,11.2,20.5,11.4,20.6z"/>
	<path fill="#CB9833" d="M13.6,21.3c0,0.4,0,0.7-0.3,0.9c-0.2,0.1-0.7,0.1-0.9-0.1c-0.1-0.1-0.2-0.2-0.1-0.3c0.1-0.1,0.3-0.1,0.4,0
		c0.1,0.2,0.2,0.1,0.3,0.1c0.1-0.1,0.1-0.2,0.1-0.3c-0.4,0.2-0.8,0-0.9-0.2c-0.1-0.3,0-0.7,0.3-0.9c0.1-0.1,0.3,0,0.5,0
		c0.3,0.1,0.5,0.2,0.6,0.5C13.6,21.1,13.6,21.2,13.6,21.3z"/>
	<path fill="#CB9833" d="M3.8,14.4c0,0.1,0,0.1-0.1,0.1c-0.4,0.1-0.9,0.2-1.3,0.3c-0.1,0-0.2,0-0.2-0.1c0-0.1,0-0.2-0.1-0.3
		c0-0.1,0-0.2,0.1-0.2c0.1,0,0.2-0.1,0.2-0.1c0.2,0,0.2-0.1,0.2-0.3c-0.1-0.4,0-0.7,0.3-0.8c0.3-0.1,0.5,0,0.6,0.3
		C3.7,13.7,3.7,14,3.8,14.4z"/>
	<path fill="#CB9833" d="M17.1,3c0.2,0.1,0.3,0.2,0.4,0.3c0.1,0.1-0.1,0.2-0.1,0.2c0,0.1-0.1,0.2-0.1,0.2c0,0.1,0,0.2,0.1,0.2
		c0.1,0,0.2,0.1,0.3-0.1c0,0,0.1-0.1,0.1-0.1c0.2-0.3,0.3-0.3,0.6-0.1c0.1,0.1,0,0.1,0,0.2c-0.2,0.4-0.5,0.8-0.7,1.1
		c-0.1,0.2-0.2,0-0.4-0.1C17,5,17,4.9,17.1,4.7c0,0,0.1-0.1,0.1-0.1c0.1-0.2,0.2-0.3-0.1-0.3c-0.4-0.2-0.5-0.5-0.3-0.9
		C16.8,3.3,16.9,3.2,17.1,3C17,3,17.1,3,17.1,3z"/>
	<path fill="#CB9833" d="M22.1,14c0,0.3-0.1,0.5-0.4,0.6c-0.1,0-0.2,0.2-0.3,0c-0.1-0.1-0.1-0.4,0.1-0.5c0.2-0.1,0.3-0.2,0.1-0.4
		c-0.1-0.1-0.5-0.2-0.6,0c-0.1,0.1-0.1,0.3,0,0.4c0.3,0.1,0,0.3,0,0.4c-0.1,0.2-0.2,0.1-0.3,0c-0.2-0.2-0.3-0.4-0.3-0.7
		c0-0.5,0.3-0.8,0.7-0.8c0.5,0,0.8,0.2,0.9,0.6C22.1,13.8,22.1,13.9,22.1,14z"/>
	<path fill="#CB9833" d="M3.3,16.5c-0.5,0.1-1-0.7-0.7-1.2c0-0.1,0.1-0.3,0.2-0.2c0.1,0.1,0.3,0.2,0.2,0.4C3,15.7,3,15.8,3.2,15.9
		c0.1,0.1,0.5-0.2,0.6-0.3c0-0.2-0.1-0.3-0.2-0.3c-0.3,0-0.2-0.3-0.2-0.4c0-0.2,0.2-0.1,0.3,0c0.4,0.1,0.7,0.6,0.6,1
		C4.2,16.2,3.8,16.5,3.3,16.5z"/>
	<path fill="#CB9833" d="M18,19.9c0.1,0.2,0.1,0.3,0.1,0.5c0,0.1,0,0.1-0.1,0.2c-0.3,0.2-0.3,0.3-0.4-0.1c-0.1-0.4-0.2-0.7-0.3-1.1
		c-0.1-0.2,0.2-0.6,0.4-0.6c0.2,0,0.2,0.2,0.3,0.2c0.1,0.1,0,0.1-0.1,0.1c-0.2,0.1-0.1,0.2,0,0.3c0.3,0.1,0.5,0.3,0.8,0.4
		c0.1,0.1,0.2,0.1,0,0.3C18.4,20.2,18.4,20.2,18,19.9z"/>
	<path fill="#CB9833" d="M10.4,2c0,0.1-0.1,0.2-0.2,0.2c-0.2,0-0.2,0.1-0.2,0.3c0.1,0.3,0.1,0.5,0.2,0.8c0.1,0.2-0.1,0.2-0.2,0.2
		c-0.1,0-0.3,0.2-0.3-0.1c0-0.3-0.1-0.5-0.2-0.8c0-0.2-0.1-0.3-0.3-0.2C9,2.6,9,2.4,8.9,2.3c-0.1-0.2,0-0.2,0.1-0.2
		c0.3-0.1,0.7-0.2,1-0.3C10.3,1.7,10.4,1.8,10.4,2z"/>
	<path fill="#CB9833" d="M16.1,21.2c0.4-0.2,0.4-0.2,0.2-0.7c0-0.1-0.1-0.2-0.1-0.3c-0.2-0.4-0.1-0.4,0.2-0.6c0.1,0,0.1,0,0.1,0.1
		c0.1,0.3,0.3,0.5,0.4,0.8c0.1,0.2,0.1,0.2,0.3,0.1c0.2-0.1,0.4,0,0.4,0.2c0,0.1-0.1,0.1-0.1,0.2c-0.3,0.2-0.6,0.3-0.9,0.5
		c-0.2,0.1-0.3,0.1-0.4-0.1C16.1,21.3,16.1,21.2,16.1,21.2z"/>
	<path fill="#CB9833" d="M19,19.7c-0.1-0.1-0.2-0.2-0.3-0.3c0,0,0,0,0-0.1c0.3-0.3,0.3-0.3,0-0.6c-0.1-0.1-0.2-0.2-0.3-0.3
		c-0.3-0.3-0.3-0.3,0-0.5c0.1-0.1,0.1-0.1,0.2,0c0.2,0.2,0.4,0.3,0.5,0.5c0.2,0.2,0.3,0.2,0.5,0c0.1-0.2,0.2-0.1,0.2,0
		c0.1,0.1,0.2,0.2,0.1,0.3C19.7,19,19.4,19.4,19,19.7z"/>
	<path fill="#CB9833" d="M21.8,15.1c-0.1,0.3-0.2,0.5-0.3,0.8c0,0.1-0.1,0.2-0.1,0.3c0,0.2-0.2,0.3-0.4,0.2
		c-0.1-0.1-0.2-0.1-0.1-0.3c0.1-0.2,0.1-0.3-0.1-0.4c-0.2-0.1-0.4-0.2-0.7-0.3c-0.1,0-0.2-0.1-0.1-0.2c0.1-0.1,0-0.4,0.3-0.3
		c0.2,0.1,0.4,0.1,0.6,0.2c0.2,0.1,0.4,0.2,0.5-0.2c0-0.1,0-0.2,0.2-0.1C21.6,15,21.8,15,21.8,15.1z"/>
	<path fill="#CB9933" d="M9.6,22.2c-0.5-0.1-0.5-0.1-0.4-0.7c0-0.1,0-0.1,0-0.2C9.3,21,9.3,21,9,21.1c-0.1,0-0.1,0.1-0.2,0
		c0-0.1,0-0.3,0.1-0.4c0.2-0.1,0.5-0.2,0.7-0.4c0.1,0,0.3,0,0.4,0.1c0.1,0.1,0,0.2,0,0.3C9.9,21.2,9.7,21.7,9.6,22.2z"/>
	<path fill="#CB9833" d="M15.9,4.2c-0.3,0-0.4-0.2-0.3-0.5c0.2-0.3,0.3-0.7,0.4-1c0-0.1,0.1-0.3,0.2-0.1c0.1,0.1,0.4,0,0.3,0.3
		c-0.2,0.4-0.3,0.8-0.5,1.2C16.1,4.2,16,4.3,15.9,4.2z"/>
	<path fill="#CB9833" d="M4.2,18.7c0.3-0.4,0.7-0.7,1.1-1c0.2-0.1,0.2,0.2,0.3,0.2c0.1,0,0.1,0.1,0,0.2c-0.4,0.3-0.7,0.7-1.1,1
		c-0.1,0.1-0.1,0-0.2-0.1c0,0,0,0-0.1-0.1C4.3,18.8,4.2,18.8,4.2,18.7z"/>
	<path fill="#CB9833" d="M22.1,10.5c0,0.2,0,0.2-0.2,0.2c-0.4,0-0.8,0.1-1.2,0.2c-0.2,0-0.2,0-0.2-0.1c-0.1-0.4-0.1-0.4,0.3-0.5
		c0.3,0,0.7-0.1,1-0.2C22.2,10.1,22,10.4,22.1,10.5z"/>
	<path fill="#CB9833" d="M9.2,3.7C9.1,3.9,8.9,3.9,8.8,4C8.6,4,8.7,3.9,8.6,3.8C8.5,3.4,8.3,3,8.2,2.6c-0.1-0.2,0-0.3,0.1-0.3
		c0.1,0,0.3-0.3,0.4,0C8.8,2.8,9,3.2,9.1,3.6C9.1,3.6,9.1,3.7,9.2,3.7z"/>
	<path fill="#CB9933" d="M2.7,8c0,0.2-0.1,0.4-0.3,0.4c-0.1,0-0.1,0-0.1,0c0-0.1,0-0.2,0.1-0.2C2.4,8.1,2.4,8,2.4,7.9
		c0-0.1,0-0.1,0.1-0.2c0.1,0,0.1,0,0.1,0.1C2.6,7.8,2.7,7.9,2.7,8z"/>
	<path fill="#CB9934" d="M22,8.3c-0.3,0.1-0.4,0-0.5-0.2c-0.1-0.2-0.1-0.3,0-0.5c0.1-0.1,0.2-0.1,0.2,0C21.7,7.9,21.8,8.2,22,8.3z"
		/>
	<path fill="#CC9934" d="M4.2,18.7c0,0.1,0.1,0.1,0.1,0.2c-0.1,0-0.2,0.3-0.3,0.1c0,0-0.2-0.1-0.1-0.2C4,18.6,4.1,18.6,4.2,18.7z"/>
	<path fill="#CB9934" d="M4.4,18.9C4.5,19,4.5,19,4.6,19c0,0.1,0,0.3-0.2,0.3c-0.1,0-0.2-0.1-0.2-0.2C4.1,19,4.4,19,4.4,18.9z"/>
	<path fill="#D8B366" d="M20.7,12.7c0.3,0,0.6,0,1,0C21.3,12.8,21,12.8,20.7,12.7z"/>
	<path fill="#D8B266" d="M21.6,11.2c-0.3,0.1-0.6,0-0.9,0C21,11.1,21.3,11.2,21.6,11.2z"/>
	<path fill="#D8B265" d="M3.5,12.3c-0.1,0-0.3,0-0.4,0c-0.1,0-0.2,0-0.1-0.1C3.1,12.4,3.4,12.2,3.5,12.3z"/>
	<path fill="#D9B469" d="M11.4,20.6c-0.2,0-0.4,0-0.6,0C11,20.5,11.2,20.5,11.4,20.6z"/>
	<path fill="#DEBD7B" d="M21.7,12.2c-0.1-0.2-0.1-0.3,0-0.5C21.7,11.9,21.7,12,21.7,12.2z"/>
	<path fill="#DFBF80" d="M3.5,12.8c0-0.2,0-0.3,0-0.5C3.6,12.5,3.6,12.6,3.5,12.8z"/>
	<path fill="#DFBF80" d="M20.7,11.2c0,0.2,0,0.3,0,0.5C20.6,11.5,20.6,11.4,20.7,11.2z"/>
	<path fill="#D6AE5E" d="M13,20.5c-0.1,0.1-0.3,0-0.5,0C12.7,20.5,12.8,20.5,13,20.5z"/>
	<path fill="#DEBD7B" d="M21.2,11.7c0.1,0.2,0.1,0.3,0,0.5C21.2,12,21.2,11.9,21.2,11.7z"/>
	<path fill="#D3A852" d="M10.5,21.5c0,0.1,0,0.3,0,0.4C10.4,21.8,10.4,21.7,10.5,21.5z"/>
	<path fill="#D4A956" d="M4.4,10.9c0,0.1,0,0.2,0,0.3C4.4,11.1,4.3,11,4.4,10.9z"/>
	<path fill="#D4AA58" d="M13.2,3.9c-0.1,0-0.2,0-0.3,0C13,3.8,13.1,3.8,13.2,3.9z"/>
	<path fill="#DBB770" d="M22.1,14c0-0.1,0-0.2,0-0.3C22.2,13.8,22.2,13.9,22.1,14z"/>
	<path fill="#DFC286" d="M13.6,21.3c-0.1-0.1,0-0.2,0-0.3C13.7,21.1,13.6,21.2,13.6,21.3z"/>
	<path fill="#C9952B" d="M19.4,12.7C19.4,12.7,19.4,12.7,19.4,12.7c0-0.5-0.1-1,0-1.4C19.5,11.8,19.5,12.3,19.4,12.7
		C19.4,12.8,19.4,12.8,19.4,12.7z"/>
	<path fill="#C9942B" d="M12.8,19.6c-0.5,0.1-0.9,0.1-1.4,0c0,0,0,0,0,0C11.9,19.6,12.4,19.6,12.8,19.6
		C12.8,19.6,12.8,19.6,12.8,19.6z"/>
	<path fill="#D3B270" d="M19.4,11.3c0,0.4,0,0.9,0,1.3c0,0,0,0,0,0l0,0C19.3,12.2,19.3,11.8,19.4,11.3L19.4,11.3
		C19.4,11.3,19.4,11.3,19.4,11.3z"/>
	<path fill="#C9952B" d="M12.4,4.4C12.4,4.4,12.4,4.4,12.4,4.4c-0.2,0-0.4,0-0.5,0C12.1,4.3,12.3,4.3,12.4,4.4
		C12.5,4.4,12.5,4.4,12.4,4.4z"/>
	<path fill="#C89223" d="M12.4,4.4C12.4,4.4,12.4,4.4,12.4,4.4c0.1,0,0.3-0.1,0.4,0C12.7,4.4,12.6,4.4,12.4,4.4z"/>
	<path fill="#C99123" d="M4.9,11.2c0,0.2,0,0.3,0,0.5C4.8,11.6,4.8,11.4,4.9,11.2z"/>
	<path fill="#C89021" d="M4.9,12.3c0,0.2,0,0.3,0,0.5C4.8,12.6,4.8,12.5,4.9,12.3z"/>
	<path fill="#C89123" d="M11.9,4.4c-0.1,0-0.3,0-0.4,0C11.6,4.3,11.7,4.3,11.9,4.4z"/>
	<path fill="#D2AD63" d="M11.9,4.4c0.2,0,0.3,0,0.5,0c0,0,0,0-0.1,0C12.2,4.5,12.1,4.5,11.9,4.4C12,4.4,11.9,4.4,11.9,4.4
		C11.9,4.4,11.9,4.4,11.9,4.4z"/>
	<path fill="#CA9429" d="M13.4,4.5c-0.1,0-0.2,0-0.3-0.1C13.3,4.4,13.4,4.4,13.4,4.5z"/>
	<path fill="#E6EAF0" d="M4.9,11.8c0.1,0.1,0.1,0.3,0,0.4C4.9,12.1,4.9,11.9,4.9,11.8z"/>
	<path fill="#C99327" d="M5,10.6c0,0.1,0,0.2,0,0.3C4.9,10.8,4.9,10.7,5,10.6z"/>
	<path fill="#E6ECF7" d="M11.4,4.5c-0.1,0.1-0.2,0.1-0.3,0C11.2,4.5,11.3,4.5,11.4,4.5z"/>
	<path fill="#C99224" d="M12.8,19.6c0.1,0,0.2,0,0.3,0C13,19.7,12.9,19.6,12.8,19.6C12.8,19.6,12.8,19.6,12.8,19.6
		C12.8,19.6,12.8,19.6,12.8,19.6C12.8,19.6,12.8,19.6,12.8,19.6z"/>
	<path fill="#C99226" d="M14.1,19.4c0.1,0,0.1,0,0.2-0.1C14.2,19.4,14.2,19.4,14.1,19.4z"/>
	<path fill="#E6ECF8" d="M5,12.8C5,12.9,5,13,5,13.1C5,13,5,12.9,5,12.8z"/>
	<path fill="#C89021" d="M19.4,12.7C19.4,12.7,19.4,12.7,19.4,12.7c0,0.1,0.1,0.2,0,0.3C19.4,12.9,19.4,12.8,19.4,12.7z"/>
	<path fill="#C99328" d="M19.3,13.5c0-0.1,0-0.2,0-0.2C19.4,13.4,19.4,13.4,19.3,13.5z"/>
	<path fill="#C89123" d="M11.2,19.6c0.1,0,0.2,0,0.3,0c0,0,0,0,0,0.1c0,0,0,0,0,0C11.4,19.6,11.3,19.7,11.2,19.6z"/>
	<path fill="#C89122" d="M19.4,11.3c0-0.1,0-0.2,0-0.3C19.5,11.1,19.4,11.2,19.4,11.3z"/>
	<path fill="#E6ECF9" d="M13.2,4.5c-0.1,0.1-0.2,0.1-0.3,0C13,4.5,13.1,4.5,13.2,4.5z"/>
	<path d="M4.6,17.1"/>
	<path d="M4.3,16.9"/>
	<path d="M14.7,21.3"/>
	<path d="M14.5,21.6"/>
	<path d="M11.1,22"/>
	<path d="M11.2,21.5"/>
	<path fill="#CB9833" d="M6.9,9.4C7,9.4,7,9.3,7,9.3c0.2,0.1,0.2,0,0.2-0.2c0-0.1,0-0.2,0.2-0.3c0.1-0.1,0.1-0.2,0.2-0.3
		c0.1,0,0.1,0.1,0.2,0.1c0,0,0,0,0.1,0C7.9,8.7,8,8.7,8.1,8.9c0,0.1,0,0.1,0,0.2c0,0.1-0.2,0.2,0,0.3c0.1,0,0.3,0,0.4,0.1
		c0,0.1,0,0.1,0,0.2c0,0,0,0.1,0,0.1c0,0.3,0,0.5-0.1,0.7c0,0-0.1,0-0.1,0c-0.2,0-0.5-0.1-0.6,0.2c0,0.1,0,0.1,0,0.2
		c0,0,0,0.1,0.1,0.1c0,0,0.1,0,0.1,0C7.8,11,7.9,10.9,8,10.9c0.1,0,0.1,0.1,0.1,0.2c0,0.2,0.2,0.2,0.3,0.4c0,0.2,0.1,0.4,0.1,0.5
		c0,0.1,0,0.2,0,0.3c0,0,0,0.1,0,0.1c-0.2,0.2-0.4,0.4-0.2,0.8c0.1,0.1,0,0.2,0,0.4c0,0.1,0,0.2,0,0.3c0,0.1,0.1,0.3,0.1,0.4
		c0,0.1,0,0.2,0,0.3c0.1,0.1,0.1,0.2,0.1,0.3c0,0.1,0.1,0.1,0.1,0.2c0,0.1,0,0.2,0.1,0.2C9,15.4,9,15.6,9.1,15.8
		c0.2,0.4,0.5,0.6,0.9,0.8c0.4,0.2,0.8,0.3,1.1,0.4c0.3,0.1,0.6,0.2,0.9,0.5c0,0,0,0,0.1,0c0,0,0.1,0,0.1,0c0,0,0,0,0.1,0
		c0-0.1,0.1-0.1,0.2-0.2c0.6-0.3,1.2-0.6,1.9-0.7c0.1,0,0.2,0.1,0.2,0.2c0,0.1,0,0.2-0.1,0.2c-0.1,0-0.1,0.1-0.2,0.1
		c-0.1,0-0.2,0-0.3,0.1c0,0,0,0-0.1,0c0,0-0.1,0-0.1,0c0,0-0.1,0.1-0.2,0.1c-0.1,0-0.2,0.1-0.2,0.1c-0.1,0-0.2,0.1-0.3,0.1
		c-0.1,0-0.1,0.1-0.2,0.1c0,0,0,0,0,0c-0.2,0.1-0.4,0.1-0.6,0.3c-0.2,0.2-0.3,0.2-0.4,0c-0.1-0.1-0.2-0.2-0.3-0.2c0,0-0.1,0-0.1,0
		c-0.1-0.1-0.2-0.1-0.2-0.1c-0.1,0-0.1,0-0.2-0.1c-0.1,0-0.1,0-0.2-0.1c-0.1-0.1-0.3-0.1-0.4-0.1c-0.1,0-0.2,0-0.2-0.1
		c0,0-0.1,0-0.1,0c0,0,0,0,0,0c0,0,0,0.1,0,0.1c0.1,0,0.1,0,0.2,0.1c0.1,0.1,0.1,0.1,0,0.2c-0.3,0-0.5,0.2-0.8,0c0,0,0,0-0.1,0
		c0-0.1-0.1-0.1-0.2-0.1c-0.1,0-0.3,0-0.2-0.2C9,17,8.9,17,8.8,17c-0.1-0.1-0.1-0.2-0.1-0.3c0,0,0-0.1,0-0.1c0-0.1,0.1,0,0.1-0.1
		c0,0,0-0.1,0-0.2c0-0.2-0.2-0.3-0.3-0.5c-0.1-0.1-0.3-0.1-0.4-0.1c0,0-0.1,0-0.1,0c-0.1,0-0.2-0.1-0.3,0c-0.1,0-0.1-0.1-0.2-0.1
		c-0.2-0.1-0.2-0.2-0.3-0.4c0-0.1,0-0.2,0-0.4c0-0.1,0-0.2,0.1-0.3c0-0.1,0.1-0.1,0.2-0.1c0.1,0,0,0.2,0.1,0.1c0.1-0.1,0-0.2,0-0.2
		C7.3,14.1,7.2,14,7,13.9c-0.1,0-0.2-0.1-0.1-0.2c0.1-0.2,0-0.4-0.1-0.6c-0.1-0.1-0.1-0.2-0.2-0.3c-0.1-0.1-0.2-0.3-0.1-0.4
		c0.1-0.1,0.2,0,0.3-0.1c0.1-0.2,0-0.1-0.1-0.2c-0.2,0-0.4-0.1-0.4-0.3c0-0.1,0-0.3,0-0.4c0-0.1-0.1-0.3,0-0.4
		c0.2-0.1,0.5-0.2,0.8,0c0,0,0.1,0,0.1,0.1c0.1-0.1,0-0.2,0.1-0.3c0-0.1,0.1-0.2,0.1-0.3c-0.4,0-0.7-0.3-0.6-0.7
		C6.9,9.7,6.9,9.5,6.9,9.4z"/>
	<path fill="#CB9833" d="M18,11.5C18,11.5,18,11.5,18,11.5c-0.1,0.1-0.1,0.3-0.1,0.4c-0.1,0.3-0.3,0.2-0.5,0.3c0,0,0,0.1,0.1,0.1
		l0,0c0.1,0.1,0.2,0,0.4,0.1c0,0.1,0,0.2,0,0.3c-0.1,0.1-0.1,0.1-0.2,0.2c-0.1,0.1,0,0.3-0.1,0.3c-0.2,0.1-0.1,0.2,0,0.4
		c0.1,0.1,0.1,0.1,0,0.2c-0.2,0.2-0.4,0.2-0.6,0.3c-0.1,0.1-0.2,0.2-0.2,0.4c0.1,0.1,0.1-0.2,0.3-0.1c0.1,0.1,0.1,0.2,0.1,0.3
		c0.1,0.1,0.1,0.2,0,0.3c0,0.3-0.3,0.3-0.3,0.5c-0.1,0-0.1,0.1-0.2,0c-0.1,0-0.1-0.1-0.2-0.1c-0.1-0.1-0.2,0.1-0.3,0.1
		c-0.2,0.1-0.4,0.1-0.5-0.1c-0.1-0.1-0.1-0.3-0.2-0.4c-0.1-0.1-0.1-0.2-0.1-0.3c0-0.7,0-1.4,0-2c0,0,0-0.1,0-0.1c0,0,0-0.1,0-0.1
		c0,0,0-0.1,0-0.1c0.1-0.2,0.1-0.3,0-0.5c0,0,0-0.1,0-0.1c0,0,0-0.1,0-0.1c0,0,0-0.1,0-0.1c0-0.4,0-0.8,0-1.1c0-0.7,0-1.4,0-2.1
		c0-0.2,0.1-0.4-0.1-0.6c-0.1-0.1-0.2-0.1-0.3-0.1c-0.4,0-0.8-0.1-1.1,0.1c0,0,0,0-0.1,0.1c-0.1,0-0.2,0-0.2,0c0-0.1,0-0.1,0-0.2
		c0-0.1,0-0.1,0.1-0.2c0.1-0.1,0.2,0,0.3-0.2c0,0,0-0.1,0.1-0.1c0.1,0,0.1-0.1,0.2-0.1c0.1,0,0.3,0,0.3-0.1c0,0,0.1-0.1,0.1-0.1
		c0.1,0,0.1,0,0.2,0c0.2-0.1,0.4,0,0.5,0.2C15.7,7.5,16,7.7,16.3,8c0.1,0.1,0.2,0.1,0.2,0.2c0.1,0.1,0,0.3,0.2,0.3
		c0.1,0,0.1,0.1,0.1,0.1c0,0.1,0,0.2,0.1,0.3C17.2,9,17,9.2,17.1,9.4c0,0,0,0,0,0c0.1,0,0.2,0,0.2,0.2c0,0,0,0.1,0,0.1
		c0.1,0.2,0.1,0.6-0.1,0.7c0,0-0.1,0-0.1,0c-0.1,0-0.2-0.2-0.2,0c0,0.2,0,0.5,0.2,0.5c0.3,0,0.6,0,0.9,0.1
		C18.1,11.2,18.1,11.4,18,11.5z"/>
	<path fill="#CB9833" d="M13.8,7.8c0,0,0,0.1-0.1,0.1c-0.1,0.2-0.2,0.2-0.4,0c0-0.1-0.1-0.1-0.2-0.1c-0.2-0.1-0.4-0.3-0.6-0.5
		c-0.1,0-0.1-0.1-0.2-0.1c-0.1,0.1-0.1,0.3-0.1,0.4c0,1,0,2,0,3c0,0.1,0,0.3-0.1,0.4c-0.1,0.1-0.2,0-0.2-0.1c0,0,0-0.1,0-0.1
		c0-0.7,0-1.3,0-2c0-0.5,0-0.9,0-1.4c0-0.1,0-0.3-0.1-0.4c-0.2,0-0.2,0.1-0.3,0.2c-0.2,0.1-0.3,0.3-0.5,0.3c-0.1,0-0.2,0-0.2,0
		c-0.1,0,0,0,0,0.1c0,0.1-0.1,0.2-0.2,0.1c0,0-0.1-0.1-0.1-0.1c0,0-0.1,0-0.1,0c0,0,0,0-0.1,0c0,0-0.1,0-0.1,0c-0.4,0-0.9-0.1-1.3,0
		c0,0,0,0,0,0.1c-0.1,0.2,0,0.4,0,0.7c0,0.1,0,0.1-0.1,0.2c-0.1,0.5,0,1,0,1.6c0,0.2,0,0.3,0,0.5c0,0.3,0,0.6,0,0.9c0,0,0,0.1,0,0.1
		c0,0,0,0.1,0,0.1c0,0.2,0,0.4,0,0.6c0,0,0,0.1,0,0.1c0,0,0,0.1,0,0.1c0,0.1,0,0.2,0,0.2c0,0.1,0,0.1,0,0.2c-0.1,0.4,0,0.7,0,1.1
		c0,0.1,0,0.3,0,0.4c0,0.1,0,0.2-0.1,0.2c-0.1,0-0.1-0.1-0.1-0.2c0-0.1-0.1-0.2-0.1-0.3c0,0,0-0.1,0-0.1c0-0.4,0.1-0.7,0-1.1
		c0-0.1-0.1-0.1-0.1-0.2c0,0,0-0.1,0-0.1c0,0,0-0.1,0-0.1c0.1-0.5,0.1-1.1,0-1.6c0,0,0-0.1,0-0.1c0.1-0.1,0.1-0.3,0.1-0.5
		c0-0.5,0-1,0-1.5c0-0.1,0-0.2,0-0.3c0-0.3,0-0.5,0-0.8c0,0,0,0-0.1,0C8.3,8.2,8.2,8.2,8.2,8.3C8.1,8.5,8.1,8.6,8.1,8.8
		c0,0,0,0-0.1,0C7.9,8.8,7.8,8.8,7.8,8.7c0.1-0.2,0-0.4,0-0.5C8,7.9,8.3,7.8,8.5,7.6c0,0,0,0,0.1,0c0.1-0.1,0.2-0.1,0.2-0.2
		C8.9,7.1,9.1,7,9.4,7c0.1,0,0.2,0,0.3,0c0.1,0.2,0.4,0.1,0.6,0.3c0.1,0,0.2,0,0.3,0.1c0,0,0,0,0,0c0,0,0,0,0,0c0,0,0,0,0.1,0
		c0.1,0.1,0.2,0.1,0.3,0c0,0,0,0,0.1-0.1c0,0,0-0.1,0.1-0.1C11.2,7.2,11.4,7,11.6,7c0.1,0,0.2-0.2,0.3-0.3c0.2-0.2,0.3-0.3,0.5,0
		c0.1,0.1,0.2,0.2,0.3,0.3c0.2,0,0.4,0.2,0.6,0.4c0,0,0,0,0,0.1c0,0,0,0,0.1,0.1C13.5,7.5,13.7,7.5,13.8,7.8z"/>
	<path fill="#CB9832" d="M14.7,7c0,0,0,0.1-0.1,0.1c-0.1,0.1-0.2,0.1-0.3,0.1c0,0-0.1,0-0.1,0c-0.1,0-0.1,0-0.2-0.1
		c0,0-0.1,0-0.1,0.1c0,0-0.1,0-0.1,0c0,0,0.1,0,0.1,0c0,0,0,0.1,0,0.1c0,0-0.1,0-0.1,0c-0.2,0-0.5,0.1-0.6-0.2
		c0-0.1-0.2-0.2-0.3-0.2c-0.1,0-0.1,0-0.1-0.1c0.1-0.1,0.2-0.1,0.1-0.2c-0.1-0.2,0.1-0.2,0.2-0.3c0-0.1,0-0.1,0.1-0.2
		c0.1,0,0.2,0,0.3,0c0.1,0.1,0.1,0.1,0.2,0.2c0-0.2,0-0.3,0-0.4c0.2,0,0.3,0.1,0.5,0.1c0.1,0,0.3,0.2,0.2,0.4
		c-0.2,0.3,0,0.3,0.2,0.4C14.6,7,14.6,7,14.7,7z"/>
	<path fill="#CB9833" d="M10.1,6.8c0-0.1-0.1-0.1-0.1-0.2c0-0.1,0-0.2,0.1-0.3c0.2-0.1,0.4-0.2,0.6-0.2c0.1,0.1,0,0.1,0.1,0.2
		c0,0,0,0,0,0c0.1,0,0.1-0.1,0.2-0.1c0,0,0,0,0.1,0c0.1,0,0.2,0.1,0.3,0.1c0.2,0.1,0.3,0.1,0.1,0.3c-0.1,0.1,0,0.1,0.1,0.2
		c0,0.1,0,0.1-0.1,0.1c-0.1,0-0.2,0-0.3,0.1c0,0,0,0,0,0.1c0,0.1-0.1,0.2-0.2,0.2c-0.1-0.1-0.3-0.1-0.5-0.1c-0.2,0-0.2-0.2-0.3-0.3
		C10.1,7,10.1,6.9,10.1,6.8z"/>
	<path fill="#CB9833" d="M14.4,17c0-0.1,0.1-0.1,0.1-0.2c0.1-0.2,0.3-0.3,0.4-0.4c0.1-0.1,0.2-0.1,0.4-0.1c0,0,0.1,0,0.1,0.1
		c0,0.1,0.2,0,0.2,0.1c0,0,0,0.1,0,0.1c0,0.3-0.3,0.4-0.3,0.7c-0.3,0-0.5,0.5-0.9,0.2c0-0.1,0-0.1,0-0.2c0-0.1,0-0.1-0.1-0.2
		C14.4,17.1,14.4,17,14.4,17z"/>
	<path fill="#CB9833" d="M14.5,17.3c0.1,0.1,0.1,0.2,0,0.2c-0.2,0-0.4,0.1-0.5,0.2c-0.2,0.2-0.4,0-0.6,0.1c0,0,0-0.1,0-0.1
		c0-0.1,0-0.3,0.1-0.4c0.1,0,0.1-0.2,0.2-0.1c0,0,0.1,0,0.1,0.1c0,0,0,0,0.1,0c0,0,0.1-0.1,0.1-0.1c0.1,0,0.2-0.1,0.3-0.2
		c0.1,0,0.1,0,0.2-0.1c0,0,0,0,0.1,0.1C14.5,17.1,14.4,17.2,14.5,17.3z"/>
	<path fill="#CD9A32" d="M16.2,15.6c0.1-0.1,0.1-0.4,0.3-0.1c0,0.1,0,0.2,0.1,0.2c0.1,0,0.1,0,0.2,0c-0.1,0.3-0.3,0.4-0.6,0.5
		c-0.1,0-0.3,0.1-0.4,0.2c0,0,0,0-0.1,0c-0.1-0.1-0.1-0.1,0-0.2c0-0.1,0.1-0.2,0.2-0.3C16,15.7,16.1,15.7,16.2,15.6z"/>
	<path fill="#CD9931" d="M8.7,16.6c0,0,0,0.1,0,0.1c-0.2-0.4-0.5-0.5-0.9-0.7c-0.2-0.1-0.3-0.3-0.4-0.5c0.1,0,0.2,0,0.2,0.1
		c0.1,0,0.2,0.1,0.3,0c0,0,0.1,0,0.1,0c0.3,0.1,0.5,0.3,0.7,0.6c0,0.1,0,0.1,0,0.2C8.8,16.5,8.7,16.5,8.7,16.6z"/>
	<path fill="#CA9732" d="M10.1,17c0.1,0.1,0.1,0.1,0.2,0.1c0,0,0.1,0.1,0.2,0.1c0,0,0.1,0,0.1,0c0.1,0,0.1,0,0.2,0
		c0.1,0,0.1,0,0.2,0.1c0.1,0.1,0,0.2,0,0.3c0,0-0.1,0.1-0.1,0.1c-0.3,0.1-0.5,0-0.7-0.3c0-0.1,0-0.1-0.1-0.2c0,0-0.1-0.1-0.1-0.1
		C10,17.1,10.1,17.1,10.1,17z"/>
	<path fill="#E3E5E9" d="M13.3,7.1c0,0.2,0,0.3,0.2,0.2c0.1,0,0.2,0,0.3,0c0,0.1,0,0.1,0,0.2c0,0,0,0-0.1,0c0,0-0.1,0-0.1,0
		c-0.2,0-0.3,0.1-0.5-0.1C13,7.3,12.8,7.2,12.6,7c0-0.1,0.1-0.1,0.2-0.1C12.9,7,12.9,7,13,7C13.1,7,13.3,6.9,13.3,7.1z"/>
	<path fill="#E2E1E0" d="M10.8,7.3c0.2,0,0.1-0.1,0.2-0.2C11,7,11.1,7,11.2,7c0,0,0,0,0.1,0c0.1,0,0.1,0,0.1-0.1
		c0.1,0,0.1,0,0.2,0.1c-0.2,0.2-0.3,0.3-0.5,0.5c-0.2,0.1-0.3,0.1-0.5,0c0,0,0,0-0.1,0C10.4,7.3,10.6,7.3,10.8,7.3
		C10.7,7.3,10.8,7.3,10.8,7.3z"/>
	<path fill="#C4A15A" d="M11.2,17.4c0.1,0,0.2,0,0.2,0.1c0,0.1,0,0.1-0.1,0.2c-0.2-0.1-0.2,0.2-0.3,0.1c0,0-0.1-0.1-0.1-0.1
		C11,17.5,11,17.4,11.2,17.4z"/>
	<path fill="#D2AE67" d="M11.5,19.6C11.5,19.6,11.5,19.6,11.5,19.6C11.5,19.6,11.5,19.6,11.5,19.6c0.5-0.1,0.9-0.1,1.3-0.1l0,0
		c0,0,0,0,0,0.1C12.4,19.6,11.9,19.6,11.5,19.6z"/>
	<path fill="#E6EAF2" d="M12.8,19.6c-0.4,0-0.9,0-1.3,0C12,19.5,12.4,19.5,12.8,19.6z"/>
	<path fill="#E6E9F1" d="M19.4,11.3c0,0.5,0,0.9,0,1.4C19.3,12.2,19.3,11.8,19.4,11.3z"/>
	<path fill="#CE982E" d="M10.1,6.8c0,0.1,0,0.1,0.1,0.2c-0.1,0.3-0.3,0.2-0.5,0.1C9.7,7,9.7,7,9.8,7C9.9,6.9,10,6.9,10.1,6.8z"/>
	<path fill="#BF923A" d="M11.3,17.7c0-0.1,0-0.1,0.1-0.2c0,0,0.1,0,0.1,0.1c0,0.1,0,0.2,0,0.3C11.5,17.8,11.4,17.8,11.3,17.7z"/>
	<path fill="#D4A037" d="M7.6,8.5C7.5,8.6,7.7,8.9,7.4,8.8C7.5,8.7,7.4,8.5,7.6,8.5z"/>
	<path fill="#C49944" d="M15.8,16.3C15.8,16.3,15.8,16.3,15.8,16.3c0,0.1,0,0.2-0.1,0.3c0,0,0-0.1-0.1-0.1c-0.1-0.1-0.1-0.1-0.1-0.2
		c0-0.1,0.1-0.1,0.1-0.1C15.7,16.3,15.7,16.3,15.8,16.3z"/>
	<path fill="#E7E9EC" d="M7.2,14.7c0,0.1,0,0.2,0,0.4C7,15,7,14.9,7.2,14.7z"/>
	<path fill="#D09A2D" d="M13.2,17.8c-0.1-0.1-0.2-0.1-0.2-0.2c0,0,0-0.1,0-0.1c0-0.1,0.1-0.1,0.2-0.1c0.1,0,0.1,0.1,0.2,0.2
		C13.3,17.7,13.3,17.8,13.2,17.8z"/>
	<path fill="#927D54" d="M6.3,11.4c0.1,0.1,0.1,0.3,0,0.4C6.2,11.7,6.3,11.6,6.3,11.4z"/>
	<path fill="#B28224" d="M13.1,6.4c0,0.1-0.2,0.1-0.2,0.3c-0.1-0.1-0.1-0.2-0.2-0.2C12.9,6.4,13,6.4,13.1,6.4z"/>
	<path fill="#E9EAEB" d="M17.1,15.1c0-0.1,0.1-0.2,0-0.3c0,0,0,0,0,0c0,0,0,0,0,0C17.3,14.9,17.2,15,17.1,15.1
		C17.2,15.1,17.1,15.1,17.1,15.1z"/>
	<path fill="#E9EBF0" d="M16.9,8.9c-0.1-0.1-0.1-0.2-0.1-0.3C16.9,8.7,17,8.7,16.9,8.9z"/>
	<path fill="#C99631" d="M13,17.6C13,17.6,13,17.6,13,17.6c-0.1,0.1,0,0.2-0.2,0.2c0-0.1,0-0.2,0.1-0.3c0,0,0,0,0,0
		C12.9,17.5,13,17.5,13,17.6z"/>
	<path fill="#E8EBF2" d="M16.7,8.5c-0.1,0-0.2,0.2-0.2-0.1c0-0.1,0-0.1,0-0.2C16.7,8.3,16.6,8.4,16.7,8.5z"/>
	<path fill="#CA9121" d="M7.8,8.1c0.1,0.2,0.1,0.4,0,0.5c0,0,0,0,0-0.1C7.8,8.4,7.8,8.3,7.8,8.1z"/>
	<path fill="#E9EDF5" d="M18,11.5c0-0.1,0-0.3,0-0.4C18.1,11.2,18.1,11.4,18,11.5z"/>
	<path fill="#C59A43" d="M11.1,17.7c0,0,0,0.1,0,0.1c-0.1,0.1-0.1,0-0.2,0c0,0,0-0.1,0-0.1C11,17.6,11,17.6,11.1,17.7z"/>
	<path fill="#C78F1E" d="M9.8,7c0,0,0,0.1-0.1,0.1c0,0,0,0-0.1,0C9.6,7,9.5,7,9.4,7C9.5,6.9,9.6,7,9.8,7z"/>
	<path fill="#C99225" d="M18,11.9c-0.1-0.1-0.1-0.3,0-0.4C18,11.6,18,11.8,18,11.9z"/>
	<path fill="#D8C49A" d="M10.7,6.4C10.7,6.5,10.6,6.5,10.7,6.4c-0.1-0.1-0.1-0.2-0.1-0.3c0,0,0,0,0,0C10.7,6.2,10.7,6.3,10.7,6.4z"
		/>
	<path fill="#C48C1D" d="M14.7,7c-0.1,0-0.1,0-0.2-0.1c0.1,0,0.3-0.1,0.4,0.1C14.8,7,14.8,7,14.7,7z"/>
	<path fill="#E7EAF1" d="M6.9,9.4C7,9.6,7,9.7,6.8,9.7C6.9,9.6,6.9,9.5,6.9,9.4z"/>
	<path fill="#E9EFF8" d="M17.5,13.2c0.1-0.1,0-0.2,0.1-0.3C17.6,13,17.7,13.1,17.5,13.2z"/>
	<path fill="#E5EBF5" d="M17.8,12.7c0-0.1,0-0.2,0-0.3c0,0,0,0,0,0c0,0,0,0,0,0C17.9,12.4,17.9,12.6,17.8,12.7z"/>
	<path fill="#C89020" d="M17.8,12.3C17.8,12.3,17.8,12.4,17.8,12.3c-0.1,0-0.2,0.1-0.3,0C17.6,12.3,17.7,12.3,17.8,12.3z"/>
	<path fill="#C88F1E" d="M6.8,12.3c-0.1,0.1-0.2,0.1-0.3,0.1C6.6,12.3,6.7,12.4,6.8,12.3z"/>
	<path fill="#EAECE9" d="M17.5,12.3c-0.1,0-0.1,0-0.1-0.1c0,0,0,0,0.1,0C17.5,12.2,17.6,12.2,17.5,12.3z"/>
	<path fill="#C99428" d="M9.3,17.5c0,0,0-0.1,0-0.1C9.3,17.4,9.3,17.4,9.3,17.5C9.4,17.4,9.3,17.5,9.3,17.5
		C9.3,17.5,9.3,17.5,9.3,17.5z"/>
	<path fill="#E6EAF1" d="M12,4.4c0.1,0,0.2,0,0.3,0C12.2,4.5,12.1,4.5,12,4.4z"/>
	<path fill="#C18E28" d="M10,6.3c0,0.1,0,0.2-0.1,0.3C10,6.5,9.9,6.4,10,6.3z"/>
	<path fill="#CA901C" d="M11.2,6.4c-0.1,0-0.2,0-0.3-0.1c0.1-0.1,0.1,0,0.2,0C11.2,6.3,11.2,6.3,11.2,6.4z"/>
	<path fill="#E7ECF7" d="M13.4,6.3c-0.1,0-0.2-0.1-0.3,0C13.3,6.2,13.4,6.2,13.4,6.3z"/>
	<path fill="#C3963D" d="M10.9,17.7c0,0,0,0.1,0,0.1c0,0-0.1,0-0.1-0.1C10.8,17.7,10.8,17.6,10.9,17.7
		C10.9,17.6,10.9,17.7,10.9,17.7z"/>
	<path fill="#C59432" d="M13.2,17.8c0,0,0-0.1,0.1-0.1c0-0.1,0.1-0.1,0.2,0c0,0,0,0.1,0,0.1C13.3,17.8,13.3,17.8,13.2,17.8z"/>
	<path fill="#E4E7EE" d="M10.7,6.4c-0.1-0.1,0-0.2-0.1-0.3C10.8,6.2,10.7,6.3,10.7,6.4C10.7,6.4,10.7,6.4,10.7,6.4z"/>
	<path fill="#E8EBF1" d="M17.5,13.8c0-0.1,0-0.1,0-0.2C17.6,13.6,17.6,13.7,17.5,13.8z"/>
	<path fill="#E9EDF3" d="M7.3,10.8c0,0.1,0,0.2-0.1,0.3C7.2,11,7.2,10.9,7.3,10.8z"/>
	<path fill="#E7EDF9" d="M11.2,6.2c-0.1,0-0.1,0-0.2,0c0,0,0,0-0.1,0C11,6.2,11.1,6.2,11.2,6.2z"/>
	<path fill="#E3A022" d="M8.6,7.5C8.6,7.5,8.5,7.6,8.6,7.5C8.5,7.6,8.6,7.5,8.6,7.5z"/>
	<path fill="#EBF3FE" d="M17.1,9.4C17.1,9.4,17.1,9.4,17.1,9.4C17.1,9.4,17.1,9.4,17.1,9.4C17.1,9.4,17.1,9.4,17.1,9.4z"/>
	<path fill="#FE0000" d="M8.8,13c0-0.1,0-0.2,0-0.2c0.1-0.1,0.2-0.1,0.3-0.1c0.8,0,1.6,0,2.5,0c0,0,0.1,0,0.1,0.1
		c0,0.2,0.1,0.4,0.1,0.6c-0.1,0.1-0.2,0-0.2,0c-0.1-0.1-0.2,0-0.2,0.1c-0.2,0.1-0.4,0.1-0.6,0c-0.2-0.1-0.3,0-0.4,0.1
		c-0.2,0.4-0.4,0.7-0.7,1c0.2-0.2,0.4-0.4,0.6-0.7c0.1-0.2,0.2-0.3,0.5-0.2c0.1,0.1,0.1,0.3-0.1,0.5c-0.2,0.3-0.4,0.6-0.7,0.9
		c0,0,0,0,0,0c0,0,0,0,0,0c0,0,0,0,0,0c0.3-0.3,0.6-0.6,0.9-0.9c0.1-0.1,0.3-0.2,0.4,0c0.1,0.2,0,0.3-0.1,0.4
		c-0.2,0.2-0.5,0.4-0.7,0.7c0.3-0.3,0.6-0.5,0.9-0.7c0.2-0.1,0.3-0.2,0.1-0.5c-0.1-0.2-0.1-0.4,0-0.6c0.1-0.1,0.2-0.2,0.3-0.3
		c0.1-0.1,0.1-0.3,0.3-0.2c0,0,0,0.1,0.1,0.1c0,1.1,0,2.2,0,3.3c0,0.3,0,0.5,0,0.8c0,0.1,0,0.2-0.1,0.3c-0.5-0.4-1.2-0.5-1.8-0.8
		c-0.7-0.3-1.3-0.7-1.5-1.5c-0.1-0.1-0.1-0.1,0-0.2c0,0,0-0.1,0-0.1C8.8,14.3,8.7,13.6,8.8,13z"/>
	<path fill="#FE0000" d="M15.5,12.7c0,0.7,0,1.4,0,2.1c0,0.1,0,0.2,0,0.3c0,0.6-0.2,1-0.7,1.3c-0.2,0.1-0.3,0.2-0.6,0.2
		c-0.6,0.2-1.3,0.4-1.9,0.7c-0.1,0-0.2,0.1-0.2,0.2c-0.1-0.1-0.1-0.2-0.1-0.4c0-1,0-1.9,0-2.9c0,0,0-0.1,0-0.1c0,0,0-0.1,0-0.1
		c0-0.1,0.1-0.1,0.1-0.2c0.2-0.1,0.3,0,0.4,0.1c0.2,0.2,0.4,0.4,0.4,0.7c0,0.1,0.1,0.1,0.2,0.2c0.2,0.1,0.4,0.3,0.5,0.5
		c0.1,0.2,0.2,0.4,0,0.5c-0.2,0.1-0.3,0-0.4-0.1c0,0,0,0,0,0c0.1,0.1,0.2,0.2,0.3,0.2c0.1,0.1,0.2,0,0.3,0c0.1-0.1,0.2-0.2,0.1-0.3
		c-0.1-0.3-0.3-0.6-0.6-0.7c-0.1,0-0.2-0.1-0.2-0.2c0-0.2,0.1-0.4,0.2-0.5c0.1-0.1,0.2,0,0.3,0.1c0.3,0.3,0.6,0.6,0.8,1
		c0.1,0.1,0.1,0.2,0.3,0.1c0.1-0.1,0.1-0.2,0-0.3c-0.2-0.2-0.4-0.4-0.5-0.6c0-0.1,0-0.2-0.1-0.3C14,14.1,14,13.9,14,13.7
		c0-0.3,0-0.5-0.2-0.7c-0.1-0.1-0.2-0.2,0-0.3C14.4,12.6,14.9,12.6,15.5,12.7C15.5,12.7,15.5,12.7,15.5,12.7z"/>
	<path fill="#E3E3E3" d="M8,8.8C8,8.8,8,8.8,8,8.8c0.1-0.3,0-0.5,0.1-0.7C8.2,8.1,8.3,8,8.4,8c0.1,0,0.1,0.1,0.1,0.2
		c0,0.2,0,0.3,0,0.5c0,0,0,0.1,0,0.1c0,0,0,0.1,0,0.1c0,0,0,0.1,0,0.1C8.5,9.1,8.6,9.4,8.4,9.4c-0.1-0.1-0.1-0.1-0.2,0
		C8.1,9.5,8,9.5,8,9.4C7.9,9.3,8,9.2,8,9C8,9,8,8.9,8,8.8z"/>
	<path fill="#E3E3E3" d="M7.9,13.6c0,0.3-0.2,0.3-0.4,0.3c-0.3-0.1-0.5-0.3-0.4-0.5c0-0.1,0-0.1,0.1-0.1c0.4-0.2,0.4-0.2,0.6-0.4
		c0.1,0.1,0.1,0.3,0.1,0.4C7.9,13.4,7.9,13.5,7.9,13.6z"/>
	<path fill="#C8A035" d="M12.3,14.1C12.2,14.1,12.2,14.1,12.3,14.1c0,1,0,1.9,0,2.8c0,0.2,0,0.4,0,0.6c0,0-0.1,0-0.1,0
		c0-0.1,0-0.1,0-0.2c0-1.4,0-2.8,0-4.2c0.2-0.1,0.2,0,0.2,0.1C12.2,13.5,12.2,13.7,12.3,14.1C12.2,14,12.2,14.1,12.3,14.1z"/>
	<path fill="#E3E3E3" d="M7.6,11.2C7.6,11.1,7.6,11.1,7.6,11.2c-0.1-0.2-0.1-0.3,0-0.4c0.1-0.4,0.4-0.5,0.6-0.3
		c0.2,0.2,0.1,0.3-0.2,0.4c-0.1,0-0.1,0.2-0.2,0.2C7.8,11.2,7.7,11.3,7.6,11.2z"/>
	<path fill="#E3E2E2" d="M8.4,13C8.4,13.1,8.4,13.1,8.4,13c0,0.3,0,0.5,0,0.7c0,0.1,0,0.2-0.2,0.2c-0.1-0.1,0.1-0.3-0.1-0.4
		c0-0.3,0-0.5-0.2-0.7C8,12.7,8,12.6,8.2,12.5c0.1,0,0.2-0.1,0.3-0.2C8.5,12.6,8.5,12.8,8.4,13z"/>
	<path fill="#EA4818" d="M12.1,13.1c0,1.5,0,2.9,0,4.4c0,0,0,0-0.1,0C12,16,12,14.6,12.1,13.1C12,13.1,12.1,13.1,12.1,13.1z"/>
	<path fill="#E1E2E2" d="M8.6,16.2C8.4,16,8.2,15.9,8,15.6c0.1-0.1,0.3,0.1,0.5-0.1c0,0,0.1,0,0.1,0c0,0.3,0.2,0.4,0.2,0.7
		C8.7,16.3,8.7,16.3,8.6,16.2z"/>
	<path fill="#9A250D" d="M12.2,17.5c0-1,0-2,0-3c0-0.1,0-0.2,0-0.3C12.3,15.3,12.3,16.4,12.2,17.5C12.2,17.5,12.2,17.5,12.2,17.5z"
		/>
	<path fill="#CC9934" d="M8,10.9c0.2-0.1,0.2-0.2,0.2-0.4c0,0,0.1,0,0.1,0c0,0,0.1,0,0.1,0c0,0,0.1,0.1,0.1,0.2c0,0.1,0,0.2-0.1,0.3
		c-0.1,0.1-0.2,0.2-0.3,0.1C8.1,11,8,11,8,10.9z"/>
	<path fill="#E0E0E0" d="M8.1,11.1c0.1,0,0.2-0.1,0.3-0.1c0.2,0.1,0.2,0.3,0,0.5c-0.1,0-0.1-0.1-0.2-0.1C8,11.3,8,11.2,8.1,11.1z"/>
	<path fill="#7E5D1E" d="M8.5,14.7c0.1,0,0.1,0.1,0.2,0.2c0-0.5,0-0.9,0-1.3c0-0.1,0-0.3,0-0.4c0.1,0.4,0,0.9,0,1.3
		c0,0.2,0,0.4,0,0.6c0,0,0,0,0,0c0,0,0,0-0.1,0c-0.1,0-0.1-0.1-0.2-0.1C8.5,14.8,8.5,14.8,8.5,14.7z"/>
	<path fill="#CD9933" d="M14.3,16.6c0.2-0.1,0.3-0.2,0.5-0.3c0.1,0,0.1,0.1,0.1,0.2c-0.1,0.1-0.3,0.2-0.5,0.3
		C14.5,16.8,14.4,16.7,14.3,16.6z"/>
	<path fill="#D5B472" d="M8.5,11.3c0.1,0.6,0.1,1.2,0,1.8c-0.1-0.2,0-0.5,0-0.7c0-0.1,0-0.2,0-0.3C8.5,11.8,8.3,11.5,8.5,11.3z"/>
	<path fill="#DCDCDD" d="M13.4,17.7c-0.1,0-0.1,0-0.2,0c-0.1,0-0.1-0.1-0.1-0.2c0,0-0.1-0.1-0.1-0.1c0.1-0.1,0.2-0.1,0.3-0.1
		C13.4,17.4,13.4,17.5,13.4,17.7z"/>
	<path fill="#EBEBEB" d="M8.5,11.3c0,0.3,0.1,0.5-0.1,0.8c0-0.2-0.1-0.4-0.1-0.6c0.1-0.2,0.1-0.3,0-0.5c0-0.1,0-0.2,0.1-0.3
		c0,0,0.1,0,0.1,0c0,0.1,0,0.2,0,0.2C8.5,11,8.5,11.1,8.5,11.3C8.5,11.2,8.5,11.2,8.5,11.3z"/>
	<path fill="#E1E2E6" d="M8.3,13.9C8.3,13.9,8.3,13.9,8.3,13.9C8.3,13.9,8.4,13.9,8.3,13.9c0.1-0.2,0-0.5,0.1-0.8
		c0,0.1,0,0.1,0.1,0.2c0,0,0,0,0,0c0,0.3,0.1,0.6,0,0.9c0,0-0.1,0-0.1,0c0-0.1,0-0.2-0.1-0.2C8.1,14,8.2,13.9,8.3,13.9
		C8.3,13.8,8.3,13.8,8.3,13.9z"/>
	<path fill="#D9DBDE" d="M7.9,15.6C7.9,15.7,8,15.8,8,15.9c-0.2,0-0.2-0.2-0.3-0.3C7.8,15.3,7.9,15.6,7.9,15.6z"/>
	<path fill="#DEE0E3" d="M10.9,17.7C10.9,17.7,10.9,17.6,10.9,17.7c0-0.2,0-0.2,0-0.3c0.1,0,0.2,0,0.3,0.1c-0.1,0.1-0.1,0.2-0.1,0.3
		C11,17.7,11,17.7,10.9,17.7z"/>
	<path fill="#FDFDFE" d="M8.5,10.7C8.4,10.7,8.4,10.7,8.5,10.7c-0.1,0-0.1-0.1-0.1-0.1c0-0.3,0-0.5,0-0.8c0,0,0-0.1,0-0.1
		c0-0.1,0.1-0.1,0.1,0C8.5,10,8.6,10.3,8.5,10.7z"/>
	<path fill="#EBEBEB" d="M8.4,9.8c0.1,0.3,0.1,0.5,0,0.8c0,0,0,0-0.1-0.1C8.2,10.3,8.4,10,8.4,9.8z"/>
	<path fill="#F1F3F5" d="M8.5,9.6C8.4,9.6,8.4,9.7,8.5,9.6c-0.1,0-0.1-0.1-0.1-0.2c0.1-0.2,0-0.4,0.1-0.5c0.1,0.1,0,0.2,0,0.3
		C8.5,9.3,8.6,9.5,8.5,9.6z"/>
	<path fill="#FEFEFE" d="M8.7,16.6c0-0.1,0-0.1,0-0.2c0.1,0,0.1,0,0.1,0c0.1,0,0.1,0,0.2,0.1c0,0,0.1,0.1,0,0.2
		c-0.1,0.1-0.1,0-0.1,0C8.8,16.6,8.8,16.6,8.7,16.6z"/>
	<path fill="#CC9426" d="M10.8,17.3c-0.1,0-0.2,0-0.2,0.1c-0.1,0-0.1,0-0.2-0.1c0-0.1-0.1-0.1-0.1-0.2
		C10.5,17.3,10.7,17.1,10.8,17.3z"/>
	<path fill="#D3D6DC" d="M10,17.2c0,0,0,0.1,0,0.1c-0.1,0-0.1,0-0.2,0c0-0.1-0.1-0.2,0-0.4c0,0,0.1,0,0.1,0.1
		C10,17.1,10,17.1,10,17.2z"/>
	<path fill="#C9952A" d="M8,9c0,0.1,0,0.3,0,0.4C7.8,9.3,7.9,9.2,8,9z"/>
	<path fill="#D49F34" d="M8.5,14.7c0,0.1,0,0.1,0,0.2c-0.1-0.1,0-0.3-0.2-0.3c0,0,0-0.1,0-0.1c0,0,0,0,0.1,0c0,0,0,0,0.1,0
		C8.6,14.6,8.5,14.6,8.5,14.7z"/>
	<path fill="#E7EBF3" d="M8.4,12.3c0.1,0.2,0,0.5,0,0.7c0,0,0,0,0,0C8.4,12.8,8.4,12.6,8.4,12.3C8.4,12.4,8.4,12.3,8.4,12.3z"/>
	<path fill="#C89123" d="M14,17.2c0,0,0,0.1-0.1,0.1c-0.1,0-0.1,0.1-0.2,0c0,0,0-0.1-0.1-0.1c0.1,0,0.1,0,0.2-0.1
		C13.9,17.1,13.9,17.1,14,17.2C13.9,17.2,13.9,17.2,14,17.2C14,17.2,14,17.2,14,17.2C14,17.2,14,17.2,14,17.2z"/>
	<path fill="#C39027" d="M10,17.2c-0.1,0-0.1-0.1-0.1-0.2c0.1-0.2,0.1,0,0.2,0C10.1,17.1,10.1,17.2,10,17.2z"/>
	<path fill="#D29E34" d="M8,14.6c0,0.1,0,0.2-0.1,0.2c0,0,0,0,0-0.1C7.8,14.6,7.9,14.6,8,14.6z"/>
	<path fill="#E6E9EE" d="M14,17.2C13.9,17.2,13.9,17.2,14,17.2c0.1-0.2,0.2-0.2,0.3-0.2C14.2,17.2,14.1,17.2,14,17.2z"/>
	<path fill="#CBA135" d="M8.7,15C8.7,15,8.7,15,8.7,15c0.1,0.1,0.1,0.2,0.1,0.2C8.5,15.2,8.7,15.1,8.7,15z"/>
	<path fill="#AC822B" d="M8.8,16.4c0,0-0.1,0-0.1,0c0-0.1,0-0.1-0.1-0.2c0.1,0,0.1,0,0.2,0.1C8.8,16.3,8.8,16.4,8.8,16.4z"/>
	<path fill="#CB9529" d="M7.6,11.2c0.1,0,0.2,0,0.3,0C7.8,11.3,7.7,11.3,7.6,11.2z"/>
	<path fill="#BFB6A3" d="M13.1,17.4c0,0,0,0.1,0.1,0.1c-0.1,0-0.1,0-0.2,0.1c0,0-0.1,0-0.1-0.1C12.9,17.4,13,17.4,13.1,17.4z"/>
	<path fill="#8B857A" d="M7.5,10.8c0.1,0.1,0,0.2,0,0.3C7.5,11,7.4,10.9,7.5,10.8z"/>
	<path fill="#F0F3FA" d="M8.3,13.9C8.3,13.9,8.3,13.9,8.3,13.9c0-0.1-0.1-0.2-0.1-0.3C8.4,13.6,8.3,13.8,8.3,13.9z"/>
	<path fill="#E4E5E5" d="M8.4,14.5C8.4,14.5,8.4,14.5,8.4,14.5c-0.1,0,0-0.1-0.1-0.2c0,0,0,0,0,0C8.5,14.3,8.5,14.4,8.4,14.5z"/>
	<path fill="#997326" d="M7.6,9.1C7.7,9.1,7.7,9.1,7.6,9.1c0.1,0.1,0.1,0.1,0,0.1C7.7,9.2,7.6,9.2,7.6,9.1C7.6,9.1,7.6,9.1,7.6,9.1z
		"/>
	<path fill="#BF891F" d="M9.8,17c0,0.1,0,0.2,0,0.4C9.7,17.2,9.7,17.1,9.8,17z"/>
	<path fill="#E7EBF3" d="M7.9,13.6c-0.1-0.1-0.1-0.2,0-0.3C7.9,13.4,7.9,13.5,7.9,13.6z"/>
	<path fill="#9EA1A8" d="M13.9,17.2L13.9,17.2C13.9,17.2,13.8,17.2,13.9,17.2C13.9,17.1,13.9,17.1,13.9,17.2z"/>
	<path fill="#FE0000" d="M13.5,7.9c0,0.3,0.2,0,0.3,0c0.1,0.1,0.1,0,0.2,0c0.2-0.1,0.5,0,0.7,0c0.3,0,0.5,0,0.8,0
		c0.2,0,0.1,0.2,0.1,0.3c0,0.1,0,0.2,0,0.3c0,0.1,0,0.2,0,0.4c0,0.6,0,1.2,0,1.8c0,0.1,0,0.1,0,0.2c0,0.2,0,0.5,0,0.7
		c0,0.1,0,0.2-0.1,0.3c-0.1,0-0.1,0.1-0.2,0.1c-0.9,0-1.7,0-2.6,0c0,0-0.1,0-0.1,0c0-0.1,0-0.1,0-0.2c0.2-0.3,0.4-0.6,0.7-0.8
		c0.2,0,0.2-0.2,0.3-0.2c0.3,0,0.4,0.2,0.5,0.3c0.1,0.2,0.2,0.2,0.4,0c0.2-0.3,0.4-0.5,0.6-0.9c0.1-0.2,0-0.2-0.1-0.2
		c-0.2,0-0.4,0-0.6,0c-0.2,0-0.3,0-0.4-0.2c0-0.1,0.2-0.3-0.1-0.2c0,0-0.1,0-0.1,0.1c-0.3,0-0.5,0.3-0.5,0.6
		c-0.3,0.2-0.4,0.5-0.6,0.8c-0.1,0.2-0.1,0.4-0.4,0.5c-0.1,0-0.1-0.1-0.1-0.1c0-0.1,0-0.3,0-0.4c0-1.2,0-2.4,0-3.6
		c0-0.1,0-0.2,0-0.3c0.3,0.3,0.6,0.5,0.9,0.8c0,0,0,0,0,0C13.3,7.8,13.3,7.8,13.5,7.9C13.4,7.9,13.4,7.9,13.5,7.9z"/>
	<path fill="#E3E3E4" d="M15.8,7.9C16,8,16.1,8.1,16.3,8.3c0.1,0.1,0,0.2,0.1,0.4c0,0,0,0.1,0,0.1c0,0.2,0,0.3,0,0.5
		c0,0.1,0,0.3-0.2,0.2C16,9.3,16,9.5,16,9.6c-0.2,0-0.2-0.1-0.2-0.3c0-0.3,0-0.6,0-0.9c0,0,0-0.1,0-0.1c0-0.1,0-0.1,0-0.2
		C15.8,8.1,15.7,8,15.8,7.9z"/>
	<path fill="#E4E7EC" d="M15.9,11.5c0,0.2,0,0.4-0.1,0.6c0,0.2,0,0.4,0.3,0.4c0.2,0,0.1,0.1,0.1,0.2c-0.1,0.2-0.1,0.4-0.2,0.5
		c0,0.2,0,0.5-0.1,0.7c0,0-0.1,0-0.1,0c0,0-0.1,0-0.1,0c-0.1-0.2-0.1-0.4,0-0.6c0-0.2,0-0.3,0-0.4c0-0.6,0-1.2,0-1.8
		c0,0,0-0.1,0-0.1c0,0,0.1,0,0.1,0C16,11.2,15.9,11.4,15.9,11.5z"/>
	<path fill="#E3E3E3" d="M16.6,13c0.1,0.2,0.2,0.3,0.4,0.3c0.1,0,0.2,0.1,0.2,0.2c0,0.1-0.1,0.2-0.2,0.2c-0.4,0.2-0.4,0.2-0.7-0.1
		c0-0.1,0-0.3,0-0.4c0-0.1,0.1-0.1,0.1-0.2C16.5,13,16.5,12.9,16.6,13z"/>
	<path fill="#CB9933" d="M15,16.5c0-0.1-0.1-0.1-0.1-0.2c0.4-0.3,0.5-0.8,0.7-1.2c0.1,0.1,0.1,0.2,0.2,0.3c0,0.1,0.1,0.2,0,0.3
		c0,0.2-0.2,0.3-0.3,0.5c0,0.1-0.1,0.1-0.2,0.1C15.2,16.4,15.1,16.5,15,16.5z"/>
	<path fill="#E2E3E3" d="M16.7,11.2c-0.3,0-0.6-0.4-0.6-0.6c0-0.2,0.1-0.3,0.3-0.2C16.8,10.6,16.8,10.7,16.7,11.2L16.7,11.2z"/>
	<path fill="#EEEEEF" d="M15.9,11.1C15.9,11.1,15.8,11.1,15.9,11.1c-0.1,0-0.2-0.1-0.1-0.2c0,0,0,0,0-0.1c0-0.1,0-0.1,0-0.2
		c0-0.7,0-1.3,0-2c0-0.1,0-0.2,0.1-0.3c0,0,0,0,0,0c0,0,0,0,0,0c0,0.3,0,0.6,0,0.9c0,0.1,0,0.3,0.1,0.3c0,0,0,0.1,0,0.1
		c0.1,0.4,0,0.8,0,1.2C15.9,11,15.9,11,15.9,11.1z"/>
	<path fill="#C7A336" d="M15.5,12.6C15.5,12.6,15.5,12.6,15.5,12.6c-0.1,0.1-0.2,0.1-0.3,0.1c-0.4,0-0.8,0-1.2,0
		c-0.1,0-0.2,0-0.3,0.1c-0.2,0-0.5,0-0.7,0c-0.1,0-0.2,0-0.3-0.2c0.1-0.1,0.2-0.1,0.3-0.1c0.8,0,1.5,0,2.3,0
		C15.4,12.4,15.4,12.5,15.5,12.6C15.5,12.5,15.5,12.5,15.5,12.6z"/>
	<path fill="#DAA437" d="M15.5,11.9C15.5,11.9,15.5,11.9,15.5,11.9c0,0.1-0.1,0.1-0.2,0.1c-0.8,0-1.7,0-2.5,0
		c-0.1,0-0.1-0.1-0.1-0.1C13.7,11.8,14.5,11.8,15.5,11.9C15.5,11.8,15.5,11.8,15.5,11.9z"/>
	<path fill="#C4A637" d="M12.8,11.9c0.9,0,1.8,0,2.7,0c0,0,0,0,0,0c0,0,0,0,0,0c-0.1,0.1-0.2,0.1-0.3,0.1c-0.7,0-1.3,0-2,0
		c-0.1,0-0.3,0-0.4-0.1C12.8,12,12.8,12,12.8,11.9z"/>
	<path fill="#E2E2E3" d="M15.9,11.1c0-0.1,0-0.1,0.1-0.2c0.1,0,0.1,0.1,0.2,0.1c0.1,0,0.1,0.1,0.1,0.2c0,0.1-0.1,0.1-0.1,0.1
		c-0.1,0-0.1,0.1-0.2,0.2C15.9,11.4,15.9,11.2,15.9,11.1z"/>
	<path fill="#D9A02E" d="M15.8,10.7c0,0.1,0,0.1,0,0.2c-0.1-0.1-0.1-0.2-0.1-0.3c0-0.7,0-1.4,0-2.1c0,0,0.1,0,0.1,0
		c0,0.1,0,0.1,0,0.2C15.8,9.3,15.8,10,15.8,10.7z"/>
	<path fill="#CA952C" d="M15.8,10.9c0,0.1,0,0.1,0.1,0.2c0,0,0,0,0,0c0,0.7,0,1.3,0,2c0,0.1,0,0.1,0,0.1c0,0-0.1-0.1-0.1-0.1
		c0-0.7,0-1.3,0-2C15.7,11,15.7,11,15.8,10.9z"/>
	<path fill="#E6E5E4" d="M15.7,15.8c0-0.1,0-0.2,0.1-0.3c0.1,0.2,0.3,0.1,0.4,0.1c0,0.1-0.1,0.3-0.2,0.4
		C15.9,15.9,15.7,16,15.7,15.8z"/>
	<path fill="#C7A437" d="M15.5,10.7c0-0.7,0-1.3,0-2c0-0.1,0-0.1,0-0.2c0,0,0,0,0.1,0C15.6,9.2,15.6,9.9,15.5,10.7
		C15.6,10.7,15.5,10.7,15.5,10.7z"/>
	<path fill="#D9A939" d="M13.7,12.6c0.6,0,1.2,0,1.9,0c0,0,0,0.1,0,0.1c0,0,0,0,0,0l0,0c-0.6-0.1-1.1,0-1.7,0
		C13.7,12.7,13.7,12.7,13.7,12.6z"/>
	<path fill="#CEA437" d="M13.9,7.9c0.1-0.1,0.2-0.1,0.3-0.1c0.4,0,0.9-0.1,1.3,0.1c0,0,0,0,0,0c0,0-0.1,0-0.1,0
		C14.9,7.9,14.4,7.9,13.9,7.9z"/>
	<path fill="#DFDFDF" d="M15.8,13.2C15.8,13.1,15.8,13.1,15.8,13.2c0-0.1,0-0.1,0.1-0.1c0.1,0.3,0,0.7,0.1,1c0,0.1,0,0.2,0,0.3
		c0,0.1,0,0.1,0,0.2c0,0,0,0-0.1,0c-0.1-0.3,0-0.7-0.1-1c0-0.1,0-0.1,0.1-0.2C15.8,13.3,15.8,13.2,15.8,13.2z"/>
	<path fill="#4D0000" d="M13.9,7.9c0.5,0,1.1,0,1.6,0c0,0,0,0,0,0.1C14.9,7.9,14.4,7.9,13.9,7.9C13.9,7.9,13.9,7.9,13.9,7.9z"/>
	<path fill="#E2E1DF" d="M14.7,7.4c0.2-0.3,0.3-0.3,0.6,0C15.1,7.6,14.9,7.6,14.7,7.4z"/>
	<path fill="#F4F4F2" d="M14.7,7.4c0.2,0,0.4,0,0.6,0c0,0,0.1,0,0,0.1c0,0,0,0,0,0c-0.3,0-0.6,0.1-0.9,0C14.4,7.4,14.6,7.3,14.7,7.4
		z"/>
	<path fill="#D39E34" d="M15.8,13.3c0,0,0,0.1,0,0.1c-0.1,0.3,0,0.5,0,0.8c0,0.1,0.1,0.2-0.1,0.2c0-0.3,0-0.6,0-0.9
		C15.7,13.5,15.7,13.4,15.8,13.3z"/>
	<path fill="#AD9130" d="M15.5,10.7C15.5,10.7,15.6,10.7,15.5,10.7c0,0.4,0.1,0.8,0,1.2c0,0,0,0,0,0c0,0,0-0.1,0-0.1
		c0-0.3,0-0.6,0-0.9C15.5,10.8,15.5,10.7,15.5,10.7z"/>
	<path fill="#D9A12F" d="M15.3,7.5c0,0,0,0.1,0,0.1c-0.3,0-0.7,0.1-1-0.1C14.6,7.5,15,7.6,15.3,7.5L15.3,7.5z"/>
	<path fill="#7C5811" d="M15.7,14.5c0.1-0.2,0-0.4,0-0.7c0-0.1,0-0.3,0.1-0.4c0,0.4,0,0.7,0,1.1C15.8,14.5,15.7,14.5,15.7,14.5z"/>
	<path fill="#33363D" d="M15.3,7.5c-0.3,0.1-0.7,0-1,0.1c0,0,0,0,0.1-0.1C14.7,7.5,15,7.5,15.3,7.5z"/>
	<path fill="#E2E5EB" d="M16.6,15.6c-0.1,0.1-0.1,0.2-0.3,0.3c0.1-0.2,0.1-0.3,0.2-0.4C16.6,15.5,16.6,15.5,16.6,15.6z"/>
	<path fill="#DFDFE0" d="M13.9,7.3C13.9,7.3,13.9,7.3,13.9,7.3c0-0.1,0-0.1,0-0.2c0,0,0-0.1,0.1-0.1c0.1,0.1,0.2,0,0.2,0.1l0,0
		c0.1,0.1-0.1,0.1-0.1,0.1c0,0-0.1,0.1-0.1,0.1C14,7.4,13.9,7.5,13.9,7.3z"/>
	<path fill="#DAA231" d="M13.8,7.8c-0.1-0.2-0.4-0.1-0.6-0.2c0.2-0.1,0.3-0.1,0.5,0c0,0,0,0,0,0C13.8,7.6,13.8,7.7,13.8,7.8z"/>
	<path fill="#E6E9ED" d="M14.2,7.3c0-0.1,0-0.1,0.1-0.1c0.1,0,0.2,0,0.3,0C14.6,7.4,14.4,7.2,14.2,7.3z"/>
	<path fill="#D49E31" d="M13.8,7.5C13.8,7.5,13.8,7.5,13.8,7.5c0.1-0.1,0.2-0.1,0.3-0.1C14.1,7.6,14.1,7.6,13.8,7.5
		C13.8,7.6,13.8,7.5,13.8,7.5C13.8,7.5,13.8,7.5,13.8,7.5C13.8,7.5,13.8,7.5,13.8,7.5z"/>
	<path fill="#D8A437" d="M15.6,8.5C15.6,8.5,15.6,8.5,15.6,8.5C15.5,8.5,15.5,8.5,15.6,8.5c-0.1-0.1,0-0.2-0.1-0.3
		c0-0.1,0-0.2,0-0.4c0,0,0,0,0,0C15.6,8.1,15.6,8.3,15.6,8.5z"/>
	<path fill="#DFDFDF" d="M16,14c0-0.2-0.1-0.5,0.1-0.7c0,0.1,0,0.1,0,0.2c0,0.1,0,0.1,0,0.2C16.1,13.8,16.1,13.9,16,14z"/>
	<path fill="#8A7626" d="M15.5,12.6C15.5,12.6,15.5,12.6,15.5,12.6c-0.2-0.2-0.2-0.4,0-0.6c0,0,0,0,0,0c0,0,0,0,0.1,0
		C15.6,12.2,15.6,12.4,15.5,12.6C15.6,12.6,15.5,12.6,15.5,12.6z"/>
	<path fill="#CC9322" d="M15.7,8.5C15.7,8.5,15.7,8.5,15.7,8.5c0-0.2-0.1-0.4,0-0.6c0,0.1,0,0.2,0,0.3c0,0.1,0,0.1,0,0.2
		C15.8,8.4,15.8,8.4,15.7,8.5z"/>
	<path fill="#D29D34" d="M15.6,12.6c0-0.2,0-0.4,0-0.6C15.7,12.2,15.7,12.4,15.6,12.6z"/>
	<path fill="#D49E33" d="M16.1,13.7c0-0.1,0-0.1,0-0.2c0.1,0.1,0.1,0.1,0.2,0.1c0,0,0,0,0,0c0,0,0,0,0,0
		C16.3,13.7,16.2,13.7,16.1,13.7z"/>
	<path fill="#C99223" d="M16.3,8.7C16.3,8.7,16.3,8.7,16.3,8.7c0.1-0.2,0-0.3,0-0.5C16.4,8.4,16.4,8.6,16.3,8.7z"/>
	<path fill="#D39E35" d="M16.6,9.6c0.1,0.1,0.1,0.2,0.1,0.2c0,0.1-0.1,0.1-0.1,0C16.6,9.7,16.5,9.6,16.6,9.6z"/>
	<path fill="#ECEFF3" d="M15.9,14.5c0-0.1,0-0.1,0-0.2c0,0,0.1,0,0.1,0C15.9,14.4,16.1,14.5,15.9,14.5z"/>
	<path fill="#EEF2F8" d="M14.1,7.4c-0.1,0-0.2,0-0.2,0c0-0.1,0-0.1,0.1-0.2c0,0,0,0,0,0C14,7.4,14.1,7.4,14.1,7.4
		C14.1,7.4,14.1,7.4,14.1,7.4z"/>
	<path fill="#DAE1EE" d="M16.3,8.3c0,0.1,0.1,0.3,0,0.4C16.3,8.5,16.3,8.4,16.3,8.3C16.3,8.3,16.3,8.3,16.3,8.3z"/>
	<path fill="#7D5E1F" d="M16.6,9.6c0,0.1,0,0.2,0,0.2C16.5,9.7,16.5,9.6,16.6,9.6z"/>
	<path fill="#EAE7E1" d="M16.6,13c-0.1,0-0.1,0-0.2,0.1c0-0.1,0-0.2,0.1-0.2C16.6,12.9,16.6,12.9,16.6,13z"/>
	<path fill="#C99223" d="M16.3,13.6C16.3,13.6,16.3,13.6,16.3,13.6c0-0.2,0-0.3,0-0.4C16.4,13.3,16.4,13.5,16.3,13.6
		C16.4,13.6,16.3,13.6,16.3,13.6z"/>
	<path fill="#A57C29" d="M16.7,11.2c0,0,0.1,0,0.2,0.1c0,0,0,0,0,0C16.8,11.3,16.7,11.2,16.7,11.2C16.7,11.2,16.7,11.2,16.7,11.2z"
		/>
	<path fill="#FAFBFD" d="M16,14.3C15.9,14.3,15.9,14.3,16,14.3c-0.1-0.1-0.1-0.2-0.1-0.3c0,0,0,0,0,0C15.9,14.1,15.9,14.2,16,14.3z"
		/>
	<path fill="#E0E3E9" d="M15.8,8.1c0-0.1,0-0.2,0-0.3c0,0,0,0,0,0.1C15.8,8,15.8,8.1,15.8,8.1z"/>
	<path fill="#FE0000" d="M8.8,8.7c0,0,0-0.1,0-0.1c0-0.2,0-0.5,0-0.7c0.2-0.1,0.5,0,0.8,0c0.3,0,0.5,0,0.8,0c0.1,0,0.2,0,0.3,0.2
		c0.1,0.1,0.2,0,0.2-0.1c0-0.1,0.2-0.1,0.2-0.1c0,0,0,0,0.1,0C11.5,7.6,11.7,7.3,12,7c0.2,0,0.1,0.2,0.1,0.2c0,0.5,0,1.1,0,1.6
		c0,0,0,0.1,0,0.1c0,0.1-0.1,0-0.1,0c-0.1-0.1-0.1,0-0.2,0c-0.1,0.1-0.3,0.3-0.5,0.2c-0.1,0-0.1,0-0.1,0.1c-0.1,0.2-0.2,0.2-0.3,0.2
		c-0.1,0-0.2,0-0.2,0.1c0,0,0,0.1-0.1,0.1c-0.1,0.2-0.4,0-0.4,0.2c0,0.2-0.1,0.3-0.3,0.4c-0.1,0-0.1,0.1-0.1,0.2c0,0,0,0.1,0,0.1
		c0,0.2-0.3,0.2-0.3,0.3c0,0.2,0.1,0.3-0.1,0.4c-0.1,0.1-0.1,0.1-0.1,0.2c0.1,0.1,0.1,0.2-0.1,0.3c-0.1,0-0.3,0-0.4-0.1
		c0-0.3,0-0.6,0-0.9c0-0.1,0-0.1,0-0.2c0-0.6,0-1.1,0-1.7C8.8,9,8.7,8.8,8.8,8.7z"/>
	<path fill="#FB0301" d="M12.1,11L12.1,11C12.1,11.1,12.1,11.1,12.1,11c-0.2,0.1-0.3,0-0.4-0.1c-0.1-0.3-0.3-0.6-0.4-1
		c-0.1-0.4,0-0.5,0.5-0.6c0.1,0,0.2,0,0.2,0.1C12.1,10,12,10.5,12.1,11z"/>
	<path fill="#9B250D" d="M12.3,7c0,1.5,0,2.9,0,4.4c-0.1,0-0.1,0-0.1-0.1c0,0,0-0.1,0.1-0.1c0-1.3,0-2.6,0-3.8
		C12.2,7.2,12.2,7.1,12.3,7z"/>
	<path fill="#C6A436" d="M8.8,12.6c-0.1-0.2-0.1-0.4,0-0.6c0,0,0,0,0,0c0,0,0.1,0.1,0.1,0.2c0,0.2,0.1,0.3,0.3,0.3
		c0.5,0,0.9,0,1.4,0c0.3,0,0.6,0,0.9,0c0.1,0.1,0.1,0.1,0,0.2c-0.5,0.1-1,0-1.4,0c-0.4,0-0.7,0-1.1,0C8.9,12.7,8.8,12.7,8.8,12.6z"
		/>
	<path fill="#3A0301" d="M11.6,12.7c-1,0-1.9,0-2.9,0c0,0,0,0,0,0c0.1-0.1,0.2,0,0.3,0c0.9,0,1.7,0,2.6,0c0.1-0.1,0.2,0,0.2,0.1
		C11.7,12.8,11.7,12.8,11.6,12.7z"/>
	<path fill="#D9A938" d="M11.6,12.6c-0.1,0.1-0.2,0-0.3,0c-0.9,0-1.7,0-2.6,0c0,0,0,0,0-0.1C9.7,12.6,10.6,12.6,11.6,12.6
		C11.6,12.6,11.6,12.6,11.6,12.6z"/>
	<path fill="#DAA437" d="M8.8,11.9C8.8,11.9,8.8,11.9,8.8,11.9C8.8,11.8,8.8,11.8,8.8,11.9c0.8-0.2,1.6-0.1,2.4-0.1
		c0.1,0,0.2,0,0.4,0.1c0.1,0.1,0,0.1,0,0.2c-0.8,0-1.6,0-2.3,0C9,12,8.9,12,8.8,11.9z"/>
	<path fill="#C4A638" d="M8.8,11.9c0.8,0,1.6,0,2.4,0c0.1,0,0.2,0,0.3,0.1c0,0.1,0,0.1-0.1,0.1c-0.8,0.1-1.5,0-2.3,0
		C9,12.1,8.9,12.1,8.8,11.9C8.8,12,8.8,12,8.8,11.9C8.8,12,8.8,11.9,8.8,11.9z"/>
	<path fill="#E2E1E0" d="M9.7,7.1C9.7,7.1,9.7,7.1,9.7,7.1c0.2,0,0.4,0,0.5-0.1c0.1,0,0,0.2,0.2,0.2c0.1,0,0.1,0,0.1,0.1
		c0,0.1-0.1,0.1-0.2,0.1C10.1,7.4,10,7.2,9.8,7.3C9.7,7.3,9.7,7.2,9.7,7.1z"/>
	<path fill="#D9A436" d="M8.8,8.7c0.1,0.1,0,0.2,0,0.3c0,0.5,0,0.9,0,1.4c0,0.1,0,0.2,0,0.3c0,0,0,0.1,0,0.1c0,0,0,0,0,0
		c0-0.6,0-1.2,0-1.8C8.7,8.9,8.7,8.8,8.8,8.7z"/>
	<path fill="#D9A02F" d="M8.5,11.2c0-0.1,0-0.2,0-0.3c0-0.5,0-1.1,0-1.6c0,0,0-0.1,0-0.1c0,0,0,0,0.1,0c0,0.6,0,1.2,0,1.8
		C8.6,11,8.6,11.1,8.5,11.2z"/>
	<path fill="#A00000" d="M8.8,15c0-0.6,0-1.3,0-1.9c0-0.1,0-0.1,0-0.2C8.8,13.7,8.8,14.3,8.8,15z"/>
	<path fill="#D53B13" d="M12,8.9c0-0.6,0-1.1,0-1.7C12,7.2,12,7.1,12,7c0.2,0,0.1,0.1,0.1,0.2C12.1,7.8,12.1,8.4,12,8.9
		C12.1,9,12,9,12,8.9z"/>
	<path fill="#B2872C" d="M12,8.9C12,8.9,12.1,8.9,12,8.9c0.1,0.7,0.1,1.4,0.1,2.1c-0.1-0.4,0-0.8,0-1.2c0-0.1,0-0.2,0-0.3
		c0,0,0-0.1-0.1-0.1C11.9,9.2,11.9,9.1,12,8.9L12,8.9z"/>
	<path fill="#4D0100" d="M10.4,7.9c-0.5,0-1.1,0-1.6,0c0,0,0,0,0-0.1l0,0C9.3,7.8,9.9,7.8,10.4,7.9C10.4,7.8,10.4,7.8,10.4,7.9
		C10.5,7.9,10.5,7.9,10.4,7.9C10.4,7.9,10.4,7.9,10.4,7.9z"/>
	<path fill="#CEA437" d="M10.4,7.8c-0.5,0-1.1,0-1.6,0C9,7.7,9.1,7.8,9.3,7.8C9.7,7.8,10,7.7,10.4,7.8z"/>
	<path fill="#F1EFEC" d="M9.6,7.4c0.1,0,0.3,0,0.3,0.1C9.6,7.6,9.3,7.6,9,7.5c0-0.1,0.1-0.1,0.1-0.2C9.3,7.4,9.5,7.3,9.6,7.4z"/>
	<path fill="#E2E1DD" d="M9.6,7.4c-0.2,0-0.3,0.2-0.5,0C9.3,7.2,9.5,7.1,9.6,7.4z"/>
	<path fill="#D39E34" d="M8.5,13.3C8.5,13.3,8.6,13.3,8.5,13.3c0.1,0.5,0.2,0.8,0.1,1.2c-0.1-0.2,0-0.4-0.1-0.6c0-0.1,0-0.3,0-0.4
		C8.4,13.4,8.4,13.3,8.5,13.3L8.5,13.3z"/>
	<path fill="#7B5710" d="M8.5,13.4c0.1,0.3,0,0.7,0.1,1.1c0,0,0,0,0,0.1c0,0,0,0,0,0C8.4,14.1,8.4,13.8,8.5,13.4z"/>
	<path fill="#DAA12F" d="M9.9,7.5c-0.3,0.1-0.7,0.1-1,0C9.3,7.5,9.6,7.5,9.9,7.5z"/>
	<path fill="#34363B" d="M9.9,7.5c-0.3,0-0.7,0-1,0c0,0,0.1,0,0.1-0.1C9.3,7.5,9.6,7.5,9.9,7.5C9.9,7.5,9.9,7.5,9.9,7.5z"/>
	<path fill="#E3E7EF" d="M8.5,8.7c-0.1-0.1,0-0.3,0-0.4c0-0.1,0-0.2-0.1-0.3c0-0.1,0.1-0.1,0.1-0.1C8.6,8.2,8.6,8.5,8.5,8.7z"/>
	<path fill="#C88F1D" d="M8.5,8.7c0-0.3,0-0.5,0-0.8c0.1,0.3,0,0.6,0.1,0.9c0,0,0,0-0.1,0C8.5,8.8,8.5,8.8,8.5,8.7z"/>
	<path fill="#CAA537" d="M8.7,10.9C8.7,10.9,8.7,10.9,8.7,10.9c0.1,0.3,0.1,0.6,0.1,0.9c0,0,0,0,0,0c0,0,0,0,0,0
		C8.6,11.5,8.7,11.2,8.7,10.9z"/>
	<path fill="#C5A336" d="M8.8,7.8C8.8,7.9,8.8,7.9,8.8,7.8c0,0.3,0,0.5,0,0.8C8.7,8.3,8.7,8.1,8.8,7.8z"/>
	<path fill="#F0F3FA" d="M10.2,7.4c0.1,0,0.1-0.1,0.2-0.1c0.1-0.1,0.2-0.1,0.3,0c-0.1,0.1-0.2,0-0.2,0.2C10.4,7.5,10.3,7.4,10.2,7.4
		z"/>
	<path fill="#32353C" d="M13.8,7.5C13.8,7.5,13.8,7.5,13.8,7.5c-0.2,0-0.4,0-0.6,0c0,0,0,0,0-0.1C13.4,7.4,13.6,7.4,13.8,7.5
		L13.8,7.5z"/>
	<path fill="#F7F7F8" d="M13.8,7.5c-0.2,0-0.4,0-0.6,0c0,0,0,0,0-0.1C13.4,7.5,13.6,7.4,13.8,7.5z"/>
	<path fill="#E9EAED" d="M8.1,8.2c0,0.2,0.1,0.4-0.1,0.6C8,8.6,8,8.4,8.1,8.2z"/>
	<path fill="#F6F6F8" d="M10.6,7.5c0.2-0.1,0.3,0,0.5,0c0,0,0,0,0,0.1C10.9,7.6,10.7,7.6,10.6,7.5L10.6,7.5L10.6,7.5z"/>
	<path fill="#D9A02F" d="M11,7.5c-0.2,0.1-0.3,0.1-0.5,0C10.7,7.5,10.9,7.5,11,7.5z"/>
	<path fill="#31343C" d="M11,7.5c-0.2,0-0.3,0-0.5,0c0,0,0,0,0-0.1C10.7,7.5,10.9,7.5,11,7.5C11,7.5,11,7.5,11,7.5z"/>
	<path fill="#CCA436" d="M10.4,7.9C10.4,7.9,10.4,7.9,10.4,7.9C10.5,7.8,10.5,7.8,10.4,7.9c0.1-0.1,0.2,0,0.2,0c0,0,0,0.1,0.1,0.1
		C10.6,8,10.5,8,10.4,7.9z"/>
	<path fill="#D0A637" d="M13.2,7.8c0.2-0.1,0.2-0.1,0.3,0.1c0,0,0,0,0,0C13.3,7.8,13.2,7.9,13.2,7.8L13.2,7.8z"/>
	<path fill="#B4872D" d="M12.2,11.2C12.2,11.2,12.2,11.2,12.2,11.2c-0.1,0.1-0.1,0.2-0.2,0.1c-0.1-0.1,0-0.1,0-0.2c0,0,0,0,0.1,0
		C12.1,11.1,12.1,11.2,12.2,11.2z"/>
	<path fill="#460000" d="M11.1,7.8c-0.1,0.1-0.2,0-0.3,0.1c0,0-0.1-0.1,0-0.1C10.9,7.8,11,7.8,11.1,7.8z"/>
	<path fill="#BF8F2F" d="M10.6,7.9c0,0-0.1,0-0.1-0.1c0,0,0-0.1,0.1-0.1C10.6,7.8,10.6,7.9,10.6,7.9z"/>
	<path fill="#D1A637" d="M11.1,7.8c-0.1,0-0.2,0-0.3,0C10.9,7.8,11,7.8,11.1,7.8C11.1,7.8,11.1,7.8,11.1,7.8z"/>
	<path fill="#D09725" d="M8.5,8.8C8.5,8.8,8.6,8.8,8.5,8.8C8.6,8.9,8.6,9,8.6,9.1c0,0,0,0,0,0C8.5,9.1,8.5,9,8.5,8.8
		C8.5,8.9,8.5,8.9,8.5,8.8z"/>
	<path fill="#D59F34" d="M14.1,7.1C14,7.1,14,7.1,14.1,7.1C14,7.2,14,7.2,13.9,7.1c0,0,0-0.1,0-0.1c0-0.1-0.1-0.1,0-0.2
		C14.1,6.9,14.1,7,14.1,7.1C14.1,7,14.1,7,14.1,7.1C14.1,7.1,14.1,7.1,14.1,7.1z"/>
	<path fill="#C8932A" d="M13.9,7.1C14,7.1,14,7.1,13.9,7.1c0.1,0.1,0.1,0.1,0,0.1c-0.1,0-0.2,0-0.4,0C13.7,7.1,13.9,7.3,13.9,7.1z"
		/>
	<path fill="#D6A036" d="M13.2,6.6c0.1-0.1,0.1-0.1,0.2,0C13.4,6.6,13.3,6.6,13.2,6.6z"/>
	<path fill="#636871" d="M13.3,7.1C13.2,7,13.1,7.1,13,7C13.1,7,13.3,6.8,13.3,7.1z"/>
	<path fill="#E7EAF3" d="M14.1,7.1C14.1,7.1,14.1,7,14.1,7.1c0.1,0,0.2,0,0.2,0.1C14.2,7.1,14.1,7.2,14.1,7.1z"/>
	<path fill="#CB9529" d="M10.7,7.3c-0.1,0-0.2,0-0.3,0c0,0,0,0-0.1-0.1C10.5,7.2,10.6,7.1,10.7,7.3C10.8,7.3,10.7,7.3,10.7,7.3z"/>
	<path fill="#D5A035" d="M10.8,6.7c0.1-0.2,0.2-0.1,0.3-0.1C11,6.7,10.9,6.7,10.8,6.7z"/>
	<path fill="#D7A135" d="M10.8,6.7c0.1,0,0.2,0,0.3-0.1C11,6.8,10.9,6.7,10.8,6.7z"/>
	<path fill="#D39E34" d="M10.4,6.8C10.4,6.9,10.4,6.9,10.4,6.8c-0.1,0.1-0.1,0-0.1,0C10.3,6.8,10.3,6.8,10.4,6.8
		C10.4,6.8,10.4,6.8,10.4,6.8z"/>
	<path fill="#5C626C" d="M11.3,7C11.3,7,11.3,7,11.3,7C11.2,7.1,11.1,7,10.9,7C11,6.9,11.2,7,11.3,7z"/>
	<path fill="#F3F4F5" d="M10.9,7c0.1,0,0.2,0,0.4,0C11.2,7.1,11.1,7.1,10.9,7C10.9,7.1,10.9,7,10.9,7z"/>
	<path fill="#BF8F2E" d="M10.6,6.8C10.6,6.8,10.6,6.8,10.6,6.8C10.6,6.8,10.5,6.8,10.6,6.8C10.5,6.8,10.6,6.7,10.6,6.8
		C10.6,6.7,10.6,6.8,10.6,6.8z"/>
	<path fill="#E1E3E6" d="M15.5,16.4c0.2,0,0,0.1,0,0.2c-0.1,0-0.2,0.2-0.3,0.1c0-0.1,0-0.2,0.1-0.2C15.4,16.4,15.5,16.4,15.5,16.4z"
		/>
	<path fill="#CA9B3C" d="M15.5,16.4c-0.1,0-0.1,0-0.2,0.1c0,0,0,0-0.1-0.1c0-0.1,0.1-0.1,0.1-0.1c0,0,0.1-0.1,0.2-0.1
		c0,0,0.1,0.1,0,0.1C15.6,16.4,15.6,16.4,15.5,16.4z"/>
	<path fill="#E1DCD1" d="M14.5,17.3c-0.1,0-0.1,0.1-0.2,0c-0.1-0.1,0.1-0.2,0.1-0.3C14.5,17.1,14.5,17.2,14.5,17.3z"/>
	<path fill="#E7E8EB" d="M13.7,17.3c0.1,0,0.1,0,0.2,0c0,0.1-0.1,0.1-0.2,0.2C13.7,17.5,13.6,17.5,13.7,17.3
		C13.6,17.4,13.7,17.4,13.7,17.3z"/>
	<path fill="#E2E3E4" d="M15.6,16.2c-0.1,0-0.1,0-0.2,0c0.1-0.2,0.2-0.3,0.3-0.5c0.1,0,0.2,0.1,0.3,0.1c-0.1,0.1-0.1,0.2-0.2,0.2
		C15.7,16.2,15.7,16.3,15.6,16.2z"/>
	<path fill="#B28731" d="M15.6,16.2c0.1,0,0.1-0.1,0.2-0.1c0,0.1,0,0.1-0.1,0.2c0,0-0.1,0-0.1,0C15.6,16.3,15.6,16.3,15.6,16.2z"/>
	<path fill="#F8FBFE" d="M10.4,17.3c0.1,0,0.1,0,0.2,0.1C10.5,17.5,10.5,17.5,10.4,17.3z"/>
	<path fill="#CB9833" d="M12,11.1c0,0.1,0,0.2,0.1,0.2c0,0,0.1,0.1,0.1,0.1c0,0.1,0.1,0.1,0.1,0.1c0.2,0,0.3,0.1,0.3,0.3
		c0,0,0,0,0,0.1c0,0,0.1,0,0.1,0.1c0,0,0,0,0.1,0.1c0,0,0,0,0,0.1c0.1,0,0.2,0.1,0.2,0.2c0,0.2-0.2,0.2-0.3,0.3
		c0.2,0.2,0.4,0.1,0.6,0.1c0.1,0,0.2,0,0.3,0c0,0,0.1,0,0.1,0.1c0,0,0,0,0,0.1c0.3,0.3,0.5,0.6,0.3,1.1c0,0.2,0,0.3,0.2,0.4
		c0.1,0.1,0,0.2,0.1,0.2c0.2,0.1,0.3,0.3,0.4,0.5c0,0,0.1,0.1,0.1,0.1c0.1,0.1,0.3,0,0.2,0.2c-0.1,0.2-0.3,0.4-0.5,0.4
		c0,0-0.1,0-0.1-0.1c0-0.3-0.2-0.5-0.4-0.7c-0.1-0.2-0.4-0.2-0.4-0.5c0-0.1-0.1-0.1-0.2-0.1c-0.1,0-0.1,0.1-0.1,0.2
		c0,0.1-0.1,0.1-0.1,0.2c0.4,0.1,0.8,0.6,0.8,1c0,0.2-0.1,0.3-0.2,0.3c-0.1,0.1-0.3,0.1-0.4,0c-0.2-0.1-0.3-0.3-0.4-0.5
		c0,0-0.1-0.1,0-0.1c0.1,0,0.1,0,0.1,0c0.1,0.1,0.2,0.2,0.3,0.3c0.1,0.1,0.2,0.1,0.2,0.1c0.1-0.1,0.1-0.2,0-0.3
		c-0.1-0.2-0.2-0.4-0.4-0.5c-0.2-0.1-0.2-0.2-0.3-0.4c-0.1-0.3-0.3-0.7-0.7-0.8c-0.2-0.1,0-0.4-0.1-0.5c0,0.1,0,0.1,0,0.1
		c0,0.1,0,0.2,0,0.2c0,0.1,0,0.2-0.1,0.3c-0.1-0.2,0-0.4-0.1-0.6c0-0.1,0-0.3-0.1-0.4c0,0,0,0-0.1,0c0,0,0,0,0,0l0,0
		c-0.1,0-0.1-0.1-0.1-0.2c0-0.1,0-0.1,0.1-0.2c0,0,0,0,0-0.1c0.1-0.1,0-0.2,0-0.3c-0.1-0.1-0.2-0.1-0.3,0c-0.1,0.1-0.1,0.1-0.2,0.1
		c-0.1,0-0.2-0.1-0.2-0.3c0-0.1,0.1-0.2,0.2-0.2c0,0,0,0,0.1-0.1c0,0,0-0.1,0.1-0.1c0,0,0-0.1-0.1-0.1c-0.4-0.1-0.8-0.3-1.2-0.5
		c-0.3-0.1-0.3-0.1-0.4,0.2c0,0.1,0,0.2-0.1,0.2c-0.2,0.1-0.4,0-0.6,0.1c0,0-0.1,0-0.1,0c0-0.1-0.1-0.2-0.1-0.2
		c-0.1-0.1-0.1-0.3,0.1-0.3c0.2,0,0.3-0.1,0.1-0.3c-0.1-0.1,0-0.2,0-0.3c0-0.2,0.1,0,0.2,0c0.2,0,0.2-0.1,0.1-0.3
		c0-0.1-0.1-0.1,0-0.2c0.1-0.1,0.1-0.1,0.2,0c0.2,0,0.3-0.1,0.2-0.3c0-0.1-0.1-0.2,0-0.2c0.1,0,0.1-0.1,0.2,0c0,0.1,0.1,0.1,0.2,0
		c0.1-0.1,0.1-0.1,0.1-0.2c-0.1-0.1,0-0.2,0.1-0.3c0.1-0.1,0.2,0,0.2,0.1c0.1,0.1,0.1,0.1,0.2,0C11,9.3,11,9.2,11,9.1
		c0-0.1,0-0.2,0.1-0.2c0.1,0,0.1,0,0.2,0.1c0.1,0.2,0.3,0.1,0.4-0.2c0.1,0.1,0.2,0,0.3,0.1c0,0,0,0.1,0.1,0.1c0,0.2,0,0.3,0,0.5
		c-0.1,0.1-0.2,0-0.2,0.1c-0.5,0.2-0.5,0.2-0.3,0.7c0.1,0.2,0.2,0.5,0.3,0.7C11.8,11,11.9,11.1,12,11.1z"/>
	<path fill="#CB9833" d="M9.8,15c0.2-0.2,0.4-0.5,0.5-0.7c0.1-0.1,0.2-0.3,0.3-0.5c0,0,0.1-0.1,0-0.1c0,0-0.1,0-0.1,0
		c-0.1,0.1-0.2,0.3-0.3,0.4c-0.2,0.2-0.4,0.4-0.6,0.6c-0.1,0-0.1,0.2-0.2,0c0-0.1,0-0.2,0.1-0.2c0.1-0.1,0.2-0.2,0.3-0.4
		c0.2-0.3,0.4-0.6,0.5-0.9c0.1-0.2,0.2-0.2,0.3-0.1c0.2,0.2,0.5,0.1,0.7,0.2c0.1,0,0.2,0.1,0.2,0.2c0,0.3,0.1,0.5,0.2,0.7
		c0.1,0.1,0.1,0.2,0,0.3c-0.5,0.2-0.9,0.6-1.3,1c0,0-0.1,0-0.1,0c0-0.3,0.2-0.4,0.3-0.6c0.2-0.2,0.4-0.4,0.6-0.6
		c0.1-0.1,0.2-0.1,0.1-0.3c-0.1-0.1-0.2,0-0.3,0.1c-0.3,0.3-0.7,0.6-1,0.9C9.8,15.2,9.8,15.1,9.8,15z"/>
	<path fill="#C89732" d="M11.9,12.9c0,0.1,0,0.2,0.1,0.2c0,0.2-0.1,0.2-0.2,0.2l0,0c0,0-0.1-0.1-0.1-0.1c-0.2-0.2-0.2-0.3,0-0.5
		c0,0,0.1,0,0.1,0C11.9,12.7,11.9,12.8,11.9,12.9z"/>
	<path fill="#CA9732" d="M11.5,13.6c-0.1,0-0.2-0.1-0.2-0.2c-0.1-0.1-0.1-0.2,0-0.3c0.1-0.1,0.2,0,0.2,0.1c0.1,0.1,0.1,0.1,0.2,0.1
		c0,0,0,0,0,0C11.7,13.5,11.7,13.6,11.5,13.6z"/>
	<path fill="#D19D34" d="M9.8,15c0,0.1,0,0.1,0.1,0.2c-0.1,0.1-0.1,0.2-0.3,0.1C9.7,15.2,9.7,15.1,9.8,15z"/>
	<path fill="#380100" d="M13.8,12.7C13.8,12.7,13.8,12.7,13.8,12.7c0.5-0.1,1-0.1,1.4-0.1c0.1,0,0.2,0,0.3,0.1
		C14.9,12.7,14.3,12.7,13.8,12.7z"/>
	<path fill="#D5A035" d="M12.3,13.8c0-0.1,0-0.2,0-0.3c0-0.2,0-0.3,0-0.5c0.1,0.2,0.1,0.3,0.1,0.5c0,0.1,0,0.3,0.1,0.4
		c0,0-0.1,0.1-0.1,0.1C12.2,14,12.2,13.9,12.3,13.8z"/>
	<path fill="#CA9B34" d="M14.4,14.4c0-0.1-0.2-0.1-0.1-0.2C14.5,14.2,14.3,14.4,14.4,14.4z"/>
	<path fill="#806422" d="M12.3,13.8c0,0.1,0,0.2,0,0.2c0,0,0,0,0,0c0,0,0,0,0,0s0,0,0,0C12.2,14,12.2,13.9,12.3,13.8z"/>
	<path fill="#646870" d="M8.5,8.9c0,0.1,0,0.2,0,0.2c0,0,0,0,0,0.1c0,0,0,0,0,0C8.5,9.1,8.5,9,8.5,8.9C8.5,8.9,8.5,8.9,8.5,8.9z"/>
	<path fill="#353942" d="M8.5,9.2C8.5,9.2,8.5,9.2,8.5,9.2c0,0.5,0,1,0,1.5c0,0.1,0,0.1,0,0.2c0-0.1,0-0.2,0-0.2c0-0.4,0-0.7,0-1.1
		C8.5,9.5,8.5,9.3,8.5,9.2z"/>
	<path fill="#9FA3AC" d="M8.5,13.4c0,0.4,0,0.7,0,1.1c0,0,0,0-0.1,0c0-0.1,0-0.2,0-0.2c0-0.3,0-0.7,0.1-1
		C8.5,13.3,8.5,13.4,8.5,13.4z"/>
	<path fill="#CB9833" d="M13.3,10.1c0-0.2-0.2-0.3,0-0.5c0.2-0.1,0.3-0.3,0.5-0.2c0.1,0,0.2,0,0.2,0.1c0,0,0,0.1,0,0.1
		c0.2,0.2,0.5,0.1,0.8,0.1c0.6,0,0.6,0,0.3,0.6c-0.2,0.3-0.4,0.6-0.7,0.9c-0.1,0.1-0.2,0.1-0.3,0C14,11,14,10.7,13.7,10.7
		c0,0,0,0-0.1,0c0-0.1,0-0.2-0.1-0.2C13.4,10.3,13.3,10.3,13.3,10.1z"/>
	<path fill="#CB9833" d="M13.3,10.1c0.1,0,0.2,0.1,0.3,0.2c0,0.1,0,0.1,0,0.2c0,0.2-0.1,0.3-0.2,0.4c-0.2,0.3-0.4,0.6-0.7,0.9
		c-0.2,0-0.2-0.2-0.3-0.3c0.2-0.3,0.3-0.8,0.6-1.1C13,10.2,13.1,10,13.3,10.1z"/>
	<path fill="#2C2C0E" d="M12.8,11.9c0,0-0.1,0-0.1-0.1c0.9,0,1.9,0,2.8,0c0,0,0,0,0.1,0c0,0,0,0,0,0.1
		C14.6,11.9,13.7,11.9,12.8,11.9z"/>
	<path fill="#C59531" d="M14,9.7C14,9.7,14,9.6,14,9.7c-0.1-0.1-0.2-0.2-0.2-0.3c0.2-0.2,0.3,0,0.4,0.1C14.2,9.6,14.1,9.7,14,9.7z"
		/>
	<path fill="#EE0401" d="M13.4,10.8c0.1-0.1,0.1-0.2,0.2-0.3c0.1,0,0.1,0.1,0.1,0.1c0,0,0,0,0,0.1c-0.1,0.1-0.1,0.2-0.2,0.3
		C13.4,11.1,13.4,10.9,13.4,10.8z"/>
	<path fill="#A40000" d="M15.5,11.8C15.5,11.8,15.5,11.8,15.5,11.8c0-0.3-0.1-0.7,0-1C15.5,11.1,15.5,11.5,15.5,11.8z"/>
	<path fill="#CA1406" d="M13.8,9.4c0.1,0.1,0.2,0.1,0.2,0.2c-0.1,0-0.1,0-0.2-0.1C13.8,9.5,13.8,9.4,13.8,9.4z"/>
	<path fill="#2B2B0E" d="M15.5,7.8c0,0.1,0,0.2,0,0.4C15.4,8.1,15.5,8,15.5,7.8C15.5,7.9,15.5,7.9,15.5,7.8
		C15.5,7.8,15.5,7.8,15.5,7.8z"/>
	<path fill="#4B0000" d="M13.2,7.9c0.1,0,0.2-0.1,0.3,0C13.3,7.9,13.2,7.9,13.2,7.9z"/>
	<path fill="#8C2D0F" d="M15.5,8.4C15.5,8.4,15.5,8.5,15.5,8.4c0,0.1,0,0.2,0,0.3C15.5,8.6,15.4,8.5,15.5,8.4z"/>
	<path fill="#60656D" d="M15.7,8.5c0-0.1,0-0.1,0-0.2c0,0,0,0,0,0c0,0.1,0,0.2,0,0.3c0,0,0,0,0,0C15.8,8.6,15.8,8.5,15.7,8.5z"/>
	<path fill="#D1AE67" d="M15.8,13C15.8,13.1,15.8,13.1,15.8,13c-0.1-0.2-0.1-0.4-0.1-0.6c0-0.4-0.1-0.9,0-1.3
		C15.8,11.7,15.8,12.4,15.8,13z"/>
	<path fill="#363942" d="M15.8,8.6C15.8,8.6,15.8,8.6,15.8,8.6c0,0.7,0,1.4,0,2.1c-0.1-0.2,0-0.4,0-0.6C15.8,9.6,15.8,9.1,15.8,8.6z
		"/>
	<path fill="#FD0201" d="M12.7,12.5c0,0,0-0.1,0.1-0.1c0.3-0.1,0.2-0.3,0-0.4c0.9,0,1.8,0,2.7,0c0,0.2,0,0.4,0,0.6
		C14.6,12.5,13.6,12.5,12.7,12.5z"/>
	<path fill="#2D2A0E" d="M11.5,11.8c0.1,0,0.1,0.1,0,0.1c-0.8,0-1.6,0-2.4,0c-0.1,0-0.2,0-0.3,0c0,0,0,0,0,0c0.1,0,0.2,0,0.4,0
		c0,0,0,0,0.1,0c0.2,0,0.3,0,0.5,0c0.5-0.1,1-0.1,1.5,0C11.3,11.7,11.4,11.8,11.5,11.8z"/>
	<path fill="#2A2E0F" d="M8.8,10.8c0-0.5,0-1.1,0-1.6c0,0,0-0.1,0-0.1c0,0.5,0,1.1,0,1.6C8.8,10.7,8.8,10.7,8.8,10.8z"/>
	<path fill="#CFA637" d="M12,8.8c-0.1,0-0.2,0-0.3-0.1C11.7,8.8,11.9,8.7,12,8.8z"/>
	<path fill="#CBA838" d="M11.8,9.5c0-0.1,0.1,0,0.2-0.1c0,0,0,0,0,0.1C12,9.5,11.9,9.5,11.8,9.5z"/>
	<path fill="#FC0502" d="M11.4,12c-0.2,0.2-0.1,0.3,0.1,0.4c0,0,0,0,0,0.1c-0.1,0.1-0.2,0-0.3,0c-0.7,0-1.4,0-2.1,0
		c-0.4,0-0.4,0-0.4-0.4c0-0.1,0-0.1,0-0.2c0.8,0,1.7,0,2.5,0C11.3,12,11.4,12,11.4,12z"/>
	<path fill="#C99933" d="M11.5,12.5C11.5,12.5,11.5,12.5,11.5,12.5c0-0.1,0-0.2,0.1-0.2c0,0,0,0,0,0c0,0,0.1,0,0.1,0
		c0.1,0.1,0.3,0.2,0.3,0.4c0,0,0,0.1-0.1,0.1c-0.1,0-0.1-0.1-0.2-0.1c0,0-0.1-0.1-0.1-0.1c0,0,0,0-0.1,0
		C11.6,12.6,11.5,12.5,11.5,12.5z"/>
	<path fill="#FE0000" d="M11,9.8c0.1,0,0.1,0.1,0.1,0.1c0.2,0.4,0.3,0.8,0.5,1.2c0,0.1,0,0.2-0.1,0.2c-0.1,0.1-0.1,0.1-0.2,0.1
		c-0.4-0.2-0.7-0.4-1.1-0.6c-0.1-0.1-0.1-0.2-0.1-0.3C10.4,10.2,10.7,10,11,9.8C11,9.8,11,9.8,11,9.8z"/>
	<path fill="#FE0000" d="M11.5,11.8c-0.6,0.1-1.2,0-1.8,0c0,0,0-0.1,0-0.1c0-0.1,0-0.2,0-0.3c0-0.4,0.1-0.4,0.4-0.3
		C10.7,11.3,11.1,11.5,11.5,11.8z"/>
	<path fill="#F20301" d="M12.7,12.3c-0.1,0.2-0.2,0.3-0.4,0.5c-0.1-0.2,0-0.3,0-0.5C12.4,12.2,12.6,12.2,12.7,12.3z"/>
	<path fill="#F80F05" d="M12.2,11.6c0.2,0.1,0.3,0.3,0.4,0.4c-0.1,0.1-0.3,0-0.4,0C12.2,11.9,12.1,11.8,12.2,11.6z"/>
	<path fill="#FD0301" d="M12,12.1c-0.1,0-0.2,0-0.4,0c0.1-0.2,0.2-0.4,0.4-0.4C12.1,11.8,12.1,12,12,12.1z"/>
	<path fill="#FD0301" d="M12,12.7c-0.2-0.1-0.2-0.3-0.4-0.4c0.1-0.1,0.3-0.1,0.4,0C12.1,12.4,12.1,12.6,12,12.7
		C12,12.7,12,12.7,12,12.7z"/>
	<path fill="#C8A035" d="M12.2,11.6c0,0.2,0,0.3,0,0.5C12.1,11.9,12.1,11.8,12.2,11.6z"/>
	<path fill="#DAA537" d="M9.8,11.7c0,0,0,0.1,0,0.1c-0.2,0-0.3,0-0.5,0C9.4,11.7,9.6,11.7,9.8,11.7z"/>
	<path fill="#C8A738" d="M12,12.7c0-0.1,0-0.3,0-0.4c0,0,0,0,0,0c0,0,0,0,0,0C12.1,12.4,12.1,12.6,12,12.7z"/>
	<path fill="#CBA637" d="M11.6,12.3c0.2-0.1,0.3-0.1,0.4,0c0,0,0,0,0,0C11.9,12.3,11.7,12.3,11.6,12.3L11.6,12.3z"/>
	<path fill="#CBA737" d="M12.7,12.3c-0.1,0-0.3,0-0.4,0C12.4,12.2,12.6,12.2,12.7,12.3z"/>
	<path fill="#473611" d="M12.2,13c0,0.2,0,0.3,0,0.5C12.2,13.3,12.2,13.2,12.2,13z"/>
	<path fill="#C7A738" d="M12,12.1c0-0.1,0-0.3,0-0.4C12.1,11.8,12.1,12,12,12.1z"/>
	<path fill="#E91005" d="M13.7,10.6c0,0-0.1-0.1-0.1-0.1c0-0.1,0-0.1,0-0.2C13.7,10.4,13.7,10.5,13.7,10.6z"/>
	<path fill="#C11306" d="M11.6,12.3c0.1,0,0.3,0,0.4,0c0,0,0,0,0,0.1C11.9,12.3,11.7,12.3,11.6,12.3C11.6,12.3,11.6,12.3,11.6,12.3z
		"/>
</g>
</svg>
