<?xml version="1.0" encoding="utf-8"?>
<!-- Generator: Adobe Illustrator 17.1.0, SVG Export Plug-In . SVG Version: 6.00 Build 0)  -->
<!DOCTYPE svg PUBLIC "-//W3C//DTD SVG 1.1//EN" "http://www.w3.org/Graphics/SVG/1.1/DTD/svg11.dtd">
<svg version="1.1" id="Слой_1" xmlns="http://www.w3.org/2000/svg" xmlns:xlink="http://www.w3.org/1999/xlink" x="0px" y="0px"
	 viewBox="0 0 1920 1080" enable-background="new 0 0 1920 1080" xml:space="preserve">
<g>
	<g>
		<path fill="#010101" d="M978.7,1082.1c-181.9,0-363.7,0-545.6,0.2c-7.6,0-10.3-0.8-10.3-9.4c0.3-353.6,0.3-707.3,0-1060.9
			c0-7.5,1.5-9.2,9.4-9.2C796.3,3,1160.4,3,1524.4,2.8c8.7,0,9.7,2.5,9.7,9.9c-0.2,353.3-0.2,706.6,0,1059.9c0,7.8-1.7,9.7-9.9,9.7
			C1342.4,1082,1160.5,1082.1,978.7,1082.1z"/>
		<path fill="#F16623" d="M744.5,728.1c2.3-37.8,4.5-75.6,6.9-113.4c1.8-28.4,3.8-56.7,5.7-85.1c2.7-41.7,4.7-83.4,8.4-124.9
			c1.6-17.6-1.1-28.8-19.6-38.1c-39-19.5-76.2-42.4-114.1-63.9c-20.8-11.8-24-25-10.6-44c24.4-34.6,48.9-69.2,73.4-103.8
			c10-14.1,25-17.6,38.2-8.9c12.4,8.2,14.5,23.2,4.9,37.1c-18.6,26.6-37.2,53.3-56.3,79.6c-4.2,5.7-3.4,7.9,2.6,11.3
			c39.3,21.9,78.5,44.2,117.6,66.4c6.5,3.7,13.4,7,15.8,14.9c-0.9,7.7-1.2,15.3,0.1,23c-2.3,35.3-4.5,70.7-6.9,106
			c-1.7,25.5-3.8,51.1-5.6,76.6c-2.9,41.3-5.6,82.6-8.4,123.9c-0.1,2.1,0,4.2,0,7.8c15.7-6.2,30.7-12.2,45.7-18.2
			c39.9-16,79.8-31.7,119.5-48.1c11.8-4.9,22.6-4.8,34.3,0c52,21.2,104.2,42,156.3,62.8c2.6,1,5.2,1.8,8.9,3.1
			c-2-31-3.8-61.1-5.8-91.2c-1.6-23.1-3.5-46.2-5.1-69.3c-2.4-35-4.5-70-6.8-105c0.7-6.8,2.2-13.6-0.7-20.3c-3-15.2-2.9-30.6-3.6-46
			c-0.5-10.4,8.6-15.4,16.8-20.1c38.6-21.8,77-43.7,115.8-65.1c8-4.4,8.4-7.5,3.2-14.7c-18.8-25.6-36.9-51.7-55-77.8
			c-11.3-16.4-6.2-32.1,12.3-40c5,1,10,1.1,15-0.1c8.2,1.6,12.7,7.5,17,13.6c24.4,34.5,48.7,69.2,73,103.8
			c12.5,17.8,9.7,30.9-9.5,41.8c-42.7,24.4-85.6,48.6-128.6,72.5c-6.7,3.7-8.4,7.7-7.6,14.9c1.7,16,2.3,32.1,3.4,48.2
			c-1.9,6.8,0.1,13.8-1,20.7c0,0.1,0.6,0.5,0.9,0.5c0.3,0,0.5-0.4,0.7-0.6c4,12.2,2,25,3.1,37.4c3.1,37.5,4.9,75.2,7.2,112.8
			c-1.9,6.8,0.1,13.8-1,20.7c0,0.1,0.6,0.5,0.8,0.5c0.3,0,0.5-0.4,0.7-0.6c4,13.7,1.9,27.9,3.5,41.8c2.4,20.9,3,42,3.9,63
			c0.8,17.9-18.2,29.3-37.1,21.9c-31.3-12.3-62.3-25.2-93.5-37.9c-31.8-13-63.6-25.8-95.3-39.1c-6.6-2.8-11.9-2.5-18.3,0.2
			C907.9,703.8,845.9,729,784,754.2c-19.2,7.8-33.6,1.9-39.4-15.7C745.7,735,745.7,731.5,744.5,728.1z"/>
		<path fill="#F16623" d="M1091,536.2c-1.5,8.8-7.2,14.1-15.5,17.1c-28.2,10.3-56.4,20.7-84.6,31.1c-8.6,3.2-16.8,2.5-25.2-0.6
			c-26.8-10-53.8-19.5-80.6-29.5c-14.9-5.6-19.1-13.7-17.9-29.5c2.7-36,4.8-72.1,7.3-108.1c1.8-25.2,3.6-50.4,6-75.5
			c0.9-8.6-0.8-13.6-9.3-18.3c-37.7-21.1-74.9-43.1-112.3-64.9c-10.1-5.9-16.1-14.5-14.4-26.1c1.5-10.4,8-17.6,18.7-21.2
			c7.5-2.5,14.3-0.9,20.7,2.8c46.1,26.7,92.1,53.4,138.1,80.2c8.7,5.1,11.6,13,11,22.4c-1.5,23.1-3.2,46.2-4.8,69.3
			c-3,40.9-5.9,81.8-9.1,122.7c-0.4,4.8,1.7,5.9,5.6,7.1c16.4,5.1,32.6,10.6,48.9,15.9c3.9,1.3,7.7,1.1,11.6-0.2
			c15.6-5.2,31.2-10.6,47.1-15.2c5.7-1.7,7.5-4.1,7.1-9.6c-2.5-33.6-4.9-67.2-7.3-100.7c-2.2-30.4-4.3-60.9-6.4-91.3
			c-0.7-9.9,4.3-16.8,12.6-21.7c45-26.3,90.1-52.5,135.3-78.6c14.1-8.1,29.2-4.4,36.6,8.1c7.7,13,3.5,27.5-11,35.9
			c-37.6,22-75.3,43.9-113.1,65.6c-5.8,3.3-8.7,6.7-8,14c2,20.6,2.9,41.3,4.3,61.9c-0.6,6.8-2.2,13.6,0.7,20.3
			c3.8,10.1,1.7,20.7,2.8,31.1c2.5,24.2,3.6,48.6,5.2,72.9C1089.8,527.8,1089.8,532,1091,536.2z"/>
		<path fill="#FEFEFE" d="M904.7,865.6c0-10.9,0.1-21.7,0-32.6c-0.1-7,3.1-10.3,10.3-10.2c9.7,0.1,19.5-0.4,29.2,0.2
			c18.9,1.1,28.3,15.3,21,32.1c-1.3,3-1.5,4.5,0.7,7.1c8,9.2,8.7,19.8,3.6,30.3c-5.6,11.5-15.6,16.7-28.8,16.4
			c-7.6-0.2-15.2-0.3-22.7,0c-9.3,0.4-14.1-2.7-13.5-12.7C905.2,886,904.7,875.8,904.7,865.6z"/>
		<path fill="#FDFDFD" d="M817.8,856.7c0,14.4-0.1,26.8,0,39.3c0.1,6.2-1.4,12-8.5,12.2c-7.4,0.2-8.7-5.7-8.6-11.8
			c0.1-20,0.1-40,0-59.9c0-5.4,0.1-11,6.4-13c6.1-2,8.9,3,12,6.8c12,15.2,24.1,30.3,37.9,47.6c0-15.7,0.2-29.1-0.1-42.5
			c-0.2-6.4,1.3-11.8,8.8-11.6c6.7,0.2,8.1,5.7,8.1,11.4c0,20.3,0,40.7,0,61c0,5.1-0.7,9.9-6.4,12.1c-5.8,2.3-8.6-1.8-11.5-5.3
			C843.6,888.2,831.4,873.3,817.8,856.7z"/>
		<path fill="#FEFEFE" d="M732.2,822.8c24.4,0,44.8,20.5,44.5,44.5c-0.4,23.7-20.7,43.9-44.3,44.1c-24.2,0.2-44.5-20.1-44.5-44.4
			C687.7,841.9,707,822.8,732.2,822.8z"/>
		<path fill="#FEFEFE" d="M1288.9,859c3.6,0,7.2,0,10.8,0c3.4,0,6.3,1,8.3,4c8.2,12.1-0.2,37.3-14.2,42.4
			c-24.2,8.8-46.9,1.1-56.8-19.3c-10.2-21.1-3.1-48.2,15.4-58.6c13.6-7.6,35.2-6.2,48.1,2.9c4.6,3.3,7.7,7.3,4.8,12.3
			c-3,5.2-8.1,4.5-13.1,1.6c-3.1-1.8-6.3-3.5-9.7-4.3c-14.5-3.6-25.7,1-30.7,12.3c-5.6,12.5-1.6,30.5,9,37
			c8.9,5.3,18.6,4.6,27.7,0.2c4.4-2.1,5.3-6.4,4.5-10.8c-1-5.8-5.8-2-8.7-2.9c-1.7-0.5-3.6-0.1-5.4-0.1c-5.8,0-10.2-1.8-10-8.2
			c0.1-6.2,4.6-8.2,10.3-8.3C1282.4,859,1285.7,859,1288.9,859z"/>
		<path fill="#FEFEFE" d="M1000.3,864.8c0-10.5,0.1-21,0-31.5c-0.1-7.1,2.6-11.1,10.8-10.7c9.7,0.4,19.5,0,29.2,0.2
			c12.3,0.2,20.9,6.4,24.2,17c3,9.7-0.7,20.9-10.7,26.2c-6.3,3.4-6.4,5.6-2.6,10.7c4.4,5.9,7.7,12.5,11.7,18.6
			c3.1,4.8,3.7,9-2.1,12.4c-5.6,3.2-9-0.3-11.5-4.1c-6-9.4-11.7-19.1-17.2-28.8c-2.6-4.6-6-6.8-11.3-5.7c-6.2,1.3-2.9,6.2-3.2,9.3
			c-0.5,7-0.2,14-0.1,21c0.1,5.7-2.2,9.7-8.5,9.9c-6.5,0.2-8.4-4.3-8.8-9.7c0-0.3,0-0.7,0-1.1C1000.3,887.2,1000.3,876,1000.3,864.8
			z"/>
		<path fill="#FFFEFE" d="M1138.9,864.7c0-11.6,0.2-23.2-0.1-34.7c-0.2-5.9,2.2-8.3,8.1-8.1c7.6,0.2,15.2,0,22.8,0.1
			c35.1,0.1,47.2,26.3,42.3,53.3c-4.3,23.6-18.2,34.1-42.7,34.1c-6.9,0-13.8-0.4-20.6,0.1c-7.8,0.5-10.1-2.8-9.9-9.9
			C1139.2,887.9,1138.9,876.3,1138.9,864.7z"/>
		<path fill="#FEFEFE" d="M1338.8,864.7c0-10.2,0.1-20.3,0-30.5c-0.1-7.8,3.2-11.6,11.6-11.4c13.4,0.3,26.7,0.2,40.1,0
			c6.3-0.1,11,2,11,8.6c0,6.9-5.2,8.3-11.2,8.3c-9.4-0.1-18.8,0.2-28.2-0.1c-4.7-0.2-6.3,1.2-6.1,5.9c0.2,4.3,0.1,7.3,6.2,6.9
			c7.9-0.5,15.9,0.1,23.8-0.2c6.1-0.2,10.1,1.8,10,7.9c-0.1,6.1-4.5,8.2-10.3,8.1c-7.6-0.1-15.2,0.2-22.7-0.1c-5-0.2-6.7,1-6.9,6.3
			c-0.6,18.1-0.9,18.1,17.3,18.1c6.5,0,13,0,19.5,0c5.6,0,8.7,2.8,8.9,8.3c0.1,5.4-3.8,7.6-8.4,7.7c-15.2,0.3-30.3,0.5-45.5,0
			c-6.3-0.2-9-4.9-8.9-11C1338.9,886.5,1338.8,875.6,1338.8,864.7z"/>
		<path fill="#FCFCFC" d="M555.4,864.2c0-10.2,0.2-20.4-0.1-30.5c-0.2-5.8,2-10.2,7.8-10.5c6.7-0.4,9.1,4.7,9.1,10.6
			c0.1,15.8,0.5,31.6-0.2,47.4c-0.4,8.7,1.2,12.8,11.4,11.6c8.5-1,17.3,0,26-0.3c5.6-0.2,9.3,1.6,9.7,7.2c0.3,5.3-2.9,9.1-8.2,9.3
			c-14.8,0.4-29.6,0.6-44.4-0.2c-7.2-0.4-11.4-5.1-11.2-12.9C555.6,885.2,555.4,874.7,555.4,864.2z"/>
		<path fill="#FAFAF9" d="M644.4,866.1c0-10.8,0.2-21.7-0.1-32.5c-0.1-5.9,2.4-10,8.3-10c5.6,0.1,8.8,4.1,8.8,9.9
			c0,21.7,0.1,43.4,0,65.1c0,5.7-2,11-9,10.5c-6.6-0.5-8.2-5.6-8-11.5C644.5,887.1,644.4,876.6,644.4,866.1z"/>
		<path fill="#FBFAFA" d="M1093.7,864.6c0-10.2,0-20.3,0-30.5c0-5.8,1.6-11.1,8.5-11c6.5,0.1,8.8,4.7,8.7,10.9
			c-0.2,21.4-0.1,42.7,0,64.1c0,5.7-2.2,10.2-8,10.5c-6.4,0.3-9.2-4.4-9.2-10.4C1093.7,887,1093.7,875.8,1093.7,864.6z"/>
		<path fill="#F16D2B" d="M707.8,923.9c18.1,0,36.1,0,54.2,0c5.3,0,10.5-0.1,10.8,7c0.3,7.3-4.5,8.6-10.6,8.6
			c-36.5-0.1-73,0-109.5,0c-6,0-11.1-0.9-10.9-8.4c0.2-7,5.2-7.2,10.7-7.2C670.9,923.9,689.3,923.9,707.8,923.9z"/>
		<path fill="#F36D2A" d="M1195.7,457.8c-0.2,1.4-0.3,2.7-0.5,4.1c-1-8.2-3.8-16.4-0.1-24.6C1195.3,444.1,1195.5,450.9,1195.7,457.8
			z"/>
		<path fill="#F36D2A" d="M1206.5,628.5c-0.2,1.4-0.3,2.7-0.5,4.1c-1-8.2-3.8-16.4-0.1-24.6C1206.2,614.8,1206.3,621.7,1206.5,628.5
			z"/>
		<path fill="#F36D2A" d="M1083,419.7c-0.5,1-2,2.9-2,2.2c-0.1-7.5-2.4-15.2,1.3-22.5C1082.5,406.1,1082.7,412.9,1083,419.7z"/>
		<path fill="#F36D2A" d="M1143.1,406.2c0.5-1,2-2.9,2-2.2c0,7.5,2.4,15.2-1.3,22.5C1143.5,419.8,1143.3,413,1143.1,406.2z"/>
		<path fill="#F36E2B" d="M817.6,378.1c-2.9-7.6-2.8-15.3-0.1-23C818.9,362.8,818,370.4,817.6,378.1z"/>
		<path fill="#F36D2B" d="M1247.5,142.5c-5,2.7-10,2.6-15,0.1C1237.5,141.3,1242.5,141.3,1247.5,142.5z"/>
		<path fill="#F3702B" d="M1091,536.2c-2.7-4.2-2.7-8.3,0-12.5C1091,527.8,1091,532,1091,536.2z"/>
		<path fill="#F3712B" d="M744.5,728.1c2.7,3.5,2.7,6.9,0,10.4C744.6,735,744.5,731.6,744.5,728.1z"/>
		<path fill="#0E0E0E" d="M936.7,869.2c2.5,0,5-0.1,7.5,0c6.5,0.2,12.3,1.5,12.7,9.4c0.4,7.7-3.4,12.9-11.1,14.1
			c-6.7,1-13.6,0.6-20.3,0.8c-3,0.1-4.8-1.1-4.7-4.2c0-1.4,0-2.8,0-4.2C920.4,869.1,920.4,869.1,936.7,869.2z"/>
		<path fill="#171718" d="M935,837.6c6,0.9,16.9-1.4,16.8,8.2c-0.1,10.3-11.1,8.5-18.5,8.3c-5-0.2-12.2,3.6-12.9-7
			C919.5,834.8,927.5,838.1,935,837.6z"/>
		<path fill="#020202" d="M759.6,867c-0.1,15.7-11.7,27.4-27.3,27.5c-15.6,0.1-28.4-12.5-28.3-27.9c0.1-15.9,12.6-27.7,28.7-27.5
			C748,839.4,759.6,851.4,759.6,867z"/>
		<path fill="#050605" d="M1031.3,852.7c-8.2,0.7-16.4,1.5-13.8-10.8c0.2-1-0.1-2.7,0.4-2.9c7.2-2.9,14.7-1,22-1.2
			c3.5-0.1,6.8,1.2,8.5,5c2.3,5.5-1.1,8.1-5.4,9.2C1039.4,853,1035.3,852.5,1031.3,852.7z"/>
		<path fill="#050505" d="M1154.9,865.6c0-3.2-0.9-6.6,0.2-9.4c2.3-6.1-6.5-16.7,5.9-18.3c19.3-2.5,32.1,5.3,34.4,19
			c4.1,24.3-7.9,37.6-33.1,36.8c-5.4-0.2-7.9-1.3-7.5-7.1C1155.3,879.7,1154.9,872.6,1154.9,865.6z"/>
		<path fill="#F26724" d="M650.3,926.5c33.9-0.1,67.8-0.2,101.7-0.3c3.3,0,6.4,0.5,9.4,2.1c1.1,2.2,1.4,4.4-0.5,6.4
			c-2.8,2-5.9,2.1-9.2,2.1c-29.4,0-58.8,0-88.2,0c-3.7,0-7.1-0.3-10.4-2.1C650.4,932.5,649.7,929.7,650.3,926.5z"/>
		<path fill="#2F1200" d="M650.3,926.5c2.4,2.2,4,4.7,2.8,8.2c-2.9,2.1-5.9,2.6-7.7-1C643.1,929,647.5,928.1,650.3,926.5z"/>
		<path fill="#341400" d="M760.9,934.6c-1.3-2.2-0.6-4.3,0.5-6.4c2.8-1.3,5.2-1.4,7.1,1.5c1.2,1.8,0.5,3.2-0.5,4.6
			C765.8,937.3,763.4,936.5,760.9,934.6z"/>
	</g>
</g>
</svg>
