<?xml version="1.0" encoding="utf-8"?>
<!-- Generator: Adobe Illustrator 17.1.0, SVG Export Plug-In . SVG Version: 6.00 Build 0)  -->
<!DOCTYPE svg PUBLIC "-//W3C//DTD SVG 1.1//EN" "http://www.w3.org/Graphics/SVG/1.1/DTD/svg11.dtd">
<svg version="1.1" id="Слой_1" xmlns="http://www.w3.org/2000/svg" xmlns:xlink="http://www.w3.org/1999/xlink" x="0px" y="0px"
	 viewBox="0 0 1920 1080" enable-background="new 0 0 1920 1080" xml:space="preserve">
<path fill="#05054C" d="M1294.5,810.7v18.8h-80.2v-82h24v63.2H1294.5z M946.6,885.4h17.8c0.5,4.7-1,7.1-4.7,7.6
	c-3.9,0.3-7.6,0.8-11.5,0.8c-15.9,0-17.8-1.8-16.7-17.8v-0.8c0.5-6,2.9-8.1,8.6-8.4c4.7-0.3,9.1,0,13.8,0c4.7,0,9.4,0.3,10.4,6h11.8
	c1.6-9.4-1.3-14.6-10.4-15.1c-11.5-0.8-23.2-0.5-35,0c-7.8,0.5-11.8,5-12.3,12.8c-0.5,6.5-0.3,13.3,0,19.9
	c0.5,7.1,3.7,10.7,10.7,12.3c2.6,0.5,5.2,1,7.8,1.8h23.2c1.8-0.5,3.7-0.8,5.5-1.3c5-1,9.9-2.6,11-8.4c1-5.5,1-11.2,1.3-17.2h-31.3
	L946.6,885.4z M854.6,829v-81.2h-23.5v62.2c-16.7-21.7-32.6-42.3-48.3-62.4H746v81.8h23.5v-60.9l1-0.3c15.9,20.4,32.1,41,47.8,60.9
	H854.6z M937.4,807.6c-8.6-1-17.2-0.8-25.6-1h-15.1V829h-23.5v-81.8c1.8,0,3.4-0.3,5-0.3H939c5.2,0,10.7,0.5,15.9,1.6
	c10.4,2.1,14.4,6.3,15.7,16.7c0.5,4.4,0.8,8.9,0.5,13.3c-0.5,8.9-4.2,15.7-14.1,18c1.3,0.8,1.8,1,2.4,1.3c10.2,1.8,11.5,6.3,12,16.7
	c0.3,4.7,0,9.4,0,14.6h-23.5c-0.3-3.7-0.5-7.3-0.8-11C946.6,811.3,944.5,808.4,937.4,807.6L937.4,807.6z M939.2,788.5
	c3.7,0,7.1-2.1,7.3-6.3c1.3-13.1,0-16.7-13.3-17h-36.6v23.5C911.3,788.5,925.1,788.8,939.2,788.5z M1012.1,796.1h61.1v-16.5h-61.4
	V765h64.8v-17.2h-88.8v81.5h89.9v-18h-65.8v-15.1L1012.1,796.1z M728.2,749.9c0-0.8-0.5-1.6-0.8-2.4h-23.5v42.6
	c0,3.9-0.3,7.6-0.8,11.5c-0.5,5.5-4.2,8.9-9.1,9.1c-10.7,0.5-21.7,1-32.4,0.3c-8.6-0.5-11.5-4.4-11.5-13.3
	c-0.3-15.1,0-30.3-0.3-45.4c0-1.6-0.3-3.4-0.5-5h-23.5c0,20.4-0.8,40,0.3,59.8c0.8,13.6,6.3,19.1,20.1,21.4
	c20.1,3.4,40.2,3.1,60.1,0.3c15.1-2.4,20.4-7.8,21.2-23.2C728.5,787,728.2,768.4,728.2,749.9L728.2,749.9z M1159.2,747.3
	c14.6,26.9,29.5,53.8,44.7,82H1178c-2.4-4.7-5-9.1-7.6-14.1h-52.8c-2.4,4.4-5,9.1-7.3,14.1h-25.6c15.1-27.7,29.8-54.9,44.4-82
	H1159.2z M1161.5,797.4c-5.7-11.5-11.5-22.2-17.5-34.2c-6,12-11.8,23-17.2,34.2H1161.5z M893.5,890.9c-0.3,0-0.8,0.3-1,0.3
	c-9.1-11.8-18-23.2-26.6-34.5H845v46.2h12.8v-33.7c0.5-0.3,0.8-0.3,1.3-0.5c9.1,11.5,18,23,26.9,34.2h20.9v-46.2h-13.3V890.9z
	 M1060.7,890.9c-0.3,0-0.8,0.3-1,0.3c-8.9-11.5-17.8-22.7-26.1-34h-20.6v45.4h13.1v-34.7c9.9,12.5,18.8,24,27.4,35h20.4v-45.4h-13.1
	V890.9z M798.2,884.4h34.7V875h-34.7v-8.6h36.6v-9.7h-50.1v46.2h50.9V893h-37.4V884.4z M1099.6,884.4h34.2V875h-34v-8.6h36v-9.1
	h-49.6v45.4h50.4V893h-37.1L1099.6,884.4z M988.1,902.9h12.8v-45.4h-12.8V902.9z M1125,262c44.1,44.1,68.7,103.2,68.7,165.9
	s-24.3,121.5-68.7,165.9c-44.1,44.1-103.2,68.7-165.9,68.7s-121.5-24.3-165.9-68.7c-44.1-44.1-68.7-103.2-68.7-165.9
	s24.3-121.5,68.7-165.9c44.1-44.1,103.2-68.7,165.9-68.7S1080.6,217.8,1125,262z M1119.5,466.7c-26.4,27.7-43.1,34.2-53,34
	c-8.9,0-12.3-5.2-12.3-5.2c-0.5-2.4-1.3-37.1-1.6-71.6c-0.3-35.8,0-71.8,1.8-71.8c10.2-19.1,42.6-57.2,42.6-57.2h-0.3
	c-58.8,11.5-91.7,48.8-93.8,51.2c-7.3-5.7-20.6-6.3-26.6-6.3h-3.4c9.4,5.2,18,19.9,18,32.1v120.9c0,0-19.9,17.8-35.5,17.8
	c-9.1,0-14.1-5-17.2-9.1c-2.1-2.9-2.6-5.2-2.6-5.2V347.1c-3.7,1.3-5.2,2.6-8.1,2.6c-3.4,0-7.1-1.6-9.4-6.5
	c-1.8-3.7-3.1-9.1-3.1-17.2c0-27.7,31.3-45.7,31.3-45.7H946c-40,10.7-76.8,31.1-126.2,87c-49.1,55.9-40,102.4-40,102.4
	s13.6-31.9,46.2-65.3c15.4-15.9,26.9-21.2,34.7-21.2c8.9,0,12.8,6.5,12.8,12.3V509c0,11.2-7.1,13.6-13.8,13.6
	c-5.7,0-10.7-2.1-10.7-2.1h-0.3c33.4,48.3,113.9,55.1,113.9,55.1l35.3-37.4l0.8,0.8l32.4,27.4c49.9-29.3,77.8-79.9,85.4-94.8
	C1118.7,468.3,1119.5,466.7,1119.5,466.7L1119.5,466.7z M1137.5,249.4c47.5,47.5,73.9,111,73.9,178.4s-26.1,130.6-73.9,178.4
	c-47.5,47.5-111,73.9-178.4,73.9S828.5,654,780.7,606.2c-47.5-47.5-73.9-111-73.9-178.4s26.1-130.6,73.9-178.4
	c47.5-47.5,111-73.9,178.4-73.9S1089.7,201.9,1137.5,249.4L1137.5,249.4z M1204.4,427.8c0-135.3-109.7-245.3-245.3-245.3
	S713.8,292.3,713.8,427.8s109.7,245.3,245.3,245.3S1204.4,563.1,1204.4,427.8z"/>
</svg>
