<?xml version="1.0" standalone="no"?>
<!DOCTYPE svg PUBLIC "-//W3C//DTD SVG 20010904//EN"
 "http://www.w3.org/TR/2001/REC-SVG-20010904/DTD/svg10.dtd">
<svg version="1.0" xmlns="http://www.w3.org/2000/svg"
 width="1024.000000pt" height="1024.000000pt" viewBox="0 0 1024.000000 1024.000000"
 preserveAspectRatio="xMidYMid meet">

<g transform="translate(0.000000,1024.000000) scale(0.100000,-0.100000)"
fill="#000000" stroke="none">
<path d="M0 5120 l0 -5120 5120 0 5120 0 0 5120 0 5120 -5120 0 -5120 0 0
-5120z m3989 4283 c31 -20 60 -40 65 -44 5 -5 -5 -24 -22 -43 -24 -27 -32 -48
-37 -93 -9 -79 -13 -92 -25 -73 -8 13 -10 12 -10 -2 0 -17 12 -23 34 -19 5 1
3 -5 -4 -14 -11 -14 -10 -19 10 -38 22 -21 22 -21 16 -2 -5 16 -3 15 13 -5 11
-14 17 -27 15 -30 -3 -2 -9 2 -14 10 -8 12 -10 12 -16 -3 -3 -9 -10 -17 -16
-17 -5 0 -7 4 -3 9 9 15 -13 23 -28 10 -10 -10 -7 -18 16 -40 16 -16 31 -29
33 -29 10 0 33 28 27 33 -3 3 6 9 21 13 17 4 39 -1 66 -15 23 -12 73 -30 112
-41 39 -11 81 -26 94 -35 13 -8 54 -17 91 -21 61 -5 73 -3 118 21 28 15 87 39
133 55 45 16 96 39 114 51 l31 22 29 -34 c55 -64 93 -99 133 -120 l40 -21 -32
4 c-18 3 -30 1 -27 -4 3 -4 0 -8 -6 -8 -6 0 -10 -8 -8 -17 4 -20 48 -26 48 -6
0 7 10 13 22 13 l22 0 -21 -15 c-26 -18 -36 -74 -16 -93 10 -10 12 -27 6 -65
-8 -54 -8 -57 3 -176 6 -69 5 -75 -16 -91 -23 -17 -25 -16 -112 47 -48 36 -88
67 -88 69 0 3 7 16 16 29 12 19 17 57 20 150 2 69 8 134 14 145 6 11 6 21 1
24 -5 4 -8 18 -6 32 4 37 -14 39 -74 9 -64 -33 -77 -29 -15 4 29 16 44 30 42
40 -4 22 -7 21 -141 -23 -76 -25 -113 -42 -105 -48 7 -4 9 -8 3 -9 -5 -1 6 -5
25 -10 41 -10 112 8 89 22 -8 5 -9 9 -4 9 6 0 16 -4 23 -9 10 -6 5 -11 -17
-21 -17 -7 -31 -15 -31 -17 0 -3 9 -17 21 -31 17 -22 20 -39 18 -92 -1 -36 -2
-106 -1 -156 2 -84 4 -93 28 -118 15 -14 36 -26 48 -26 12 0 36 -15 54 -33
l32 -33 -32 -31 c-18 -17 -46 -33 -63 -35 -65 -7 -90 -124 -77 -366 7 -116 13
-156 25 -170 17 -19 17 -19 17 -60 0 -23 9 -35 49 -60 27 -18 53 -32 57 -32
11 0 11 284 -1 369 -5 44 -5 62 3 58 6 -5 12 36 17 120 l8 128 46 -51 c25 -28
71 -68 103 -88 l56 -38 -24 -35 c-23 -34 -24 -43 -24 -191 0 -140 2 -158 22
-193 21 -37 24 -39 70 -39 63 0 93 30 103 100 7 53 -1 110 -16 110 -5 0 -9 11
-9 25 0 14 5 25 10 25 6 0 10 32 9 78 -1 51 -4 67 -8 47 -4 -18 -11 44 -18
155 -6 102 -8 187 -3 190 5 3 11 57 15 120 3 63 7 129 9 146 2 17 -1 62 -6
100 -7 50 -6 74 3 92 11 19 11 25 -1 33 -12 7 -6 17 30 49 62 56 79 70 123
107 l38 33 100 -50 c110 -56 119 -55 159 0 37 53 52 54 127 16 38 -18 97 -46
133 -61 36 -15 81 -34 100 -43 48 -23 110 -19 210 13 47 16 92 29 100 30 8 0
55 25 104 54 l89 53 85 -85 c59 -59 80 -87 72 -92 -8 -5 -11 -4 -7 2 4 5 -5
16 -19 24 -14 7 -37 26 -50 41 -19 23 -28 27 -50 22 -20 -5 -23 -9 -12 -16 10
-7 10 -11 1 -15 -17 -6 9 -33 31 -33 19 0 20 -1 2 -36 -12 -23 -13 -30 -1 -46
18 -27 81 -59 100 -52 12 5 15 -2 15 -32 1 -31 3 -35 11 -22 15 26 5 92 -15
96 -17 4 -23 22 -6 22 6 0 10 7 10 16 0 11 5 14 16 10 9 -3 23 -6 31 -6 14 0
14 -2 0 -18 -13 -14 -17 -39 -17 -108 0 -52 4 -83 9 -76 20 32 33 -418 18
-628 -10 -131 -16 -160 -28 -115 -4 17 -5 -17 -2 -75 5 -104 8 -114 52 -171
l20 -25 -63 -42 c-34 -22 -81 -61 -104 -86 -24 -25 -46 -46 -51 -46 -5 0 -16
11 -24 23 -10 15 -47 36 -99 56 -69 27 -92 42 -135 88 -76 80 -94 125 -103
248 -4 57 -6 156 -4 221 2 82 1 111 -6 94 -7 -20 -8 -15 -6 25 2 28 7 61 11
75 5 20 5 22 -5 10 -10 -12 -11 -12 -4 5 14 38 17 154 4 170 -7 8 -9 22 -5 32
4 10 9 84 11 164 4 138 3 148 -18 174 -19 24 -26 27 -66 22 -24 -3 -51 -12
-60 -20 -17 -18 -34 -117 -22 -132 14 -17 32 -376 22 -420 l-10 -40 -2 35 c-1
19 -5 49 -9 65 -4 17 -7 -178 -6 -432 0 -254 -3 -465 -7 -469 -4 -4 -29 13
-55 37 -27 25 -76 65 -110 89 l-63 44 25 32 c25 32 25 34 25 250 0 216 0 217
20 199 11 -10 20 -15 20 -12 0 3 -10 15 -22 26 -21 20 -21 21 -14 353 3 183 9
343 12 355 5 19 -3 26 -66 58 -72 36 -108 41 -101 14 13 -47 18 -231 8 -289
-14 -83 -11 -132 8 -170 18 -35 23 -296 4 -285 -7 5 -9 -66 -7 -234 2 -155 -1
-242 -7 -244 -5 -2 -34 18 -63 44 -29 27 -80 65 -113 85 l-60 37 27 28 27 29
1 467 c1 258 5 476 10 486 7 14 3 17 -18 17 -15 0 -31 8 -38 20 -7 11 -22 20
-33 20 -17 0 -17 2 -5 10 12 8 11 11 -8 16 -16 5 -21 11 -17 25 4 11 2 20 -4
20 -6 1 -17 2 -23 3 -25 4 -28 -5 -13 -35 9 -16 22 -29 30 -29 10 0 3 -11 -17
-29 l-33 -30 20 -37 c18 -34 20 -53 17 -191 -2 -92 0 -159 6 -166 6 -7 13 -97
16 -202 4 -104 9 -206 12 -225 3 -26 2 -31 -5 -20 -6 8 -11 27 -11 42 0 15 -5
30 -11 34 -8 4 -10 -54 -7 -204 l3 -211 43 -40 c47 -44 50 -51 24 -51 -23 0
-47 -25 -66 -71 -8 -19 -24 -43 -35 -53 -19 -17 -21 -17 -27 -2 -3 9 -40 43
-81 76 -75 59 -76 60 -140 60 -46 0 -83 -7 -131 -26 -103 -41 -177 -80 -213
-114 -18 -16 -39 -30 -45 -30 -7 0 -31 19 -55 43 -24 24 -72 62 -106 85 -35
24 -63 46 -63 51 0 4 11 18 25 31 30 28 31 49 5 125 -11 32 -20 84 -20 115 0
71 -9 121 -21 114 -11 -7 -10 34 1 61 7 17 9 14 10 -15 1 -32 2 -33 12 -13 12
24 3 93 -12 93 -16 0 -12 42 10 105 24 69 33 82 79 103 19 9 36 23 39 30 5 15
-76 94 -88 87 -5 -3 -8 12 -9 33 0 20 -4 108 -8 195 -9 174 -14 187 -76 187
-40 0 -63 -15 -74 -47 -10 -31 -8 -698 2 -883 9 -147 9 -154 5 -220 -1 -30 1
-92 5 -137 8 -82 8 -82 -18 -94 -23 -10 -32 -7 -99 43 -40 31 -92 66 -115 79
-43 24 -54 39 -29 39 8 0 24 9 37 19 l24 19 0 569 c0 312 3 575 8 583 5 11 -5
22 -39 43 -63 38 -96 44 -111 19 -17 -28 -2 -338 17 -369 12 -18 12 -26 1 -50
-10 -21 -15 -116 -18 -383 -7 -468 -7 -445 2 -523 7 -60 6 -69 -11 -82 -10 -8
-24 -15 -30 -15 -6 0 -47 26 -90 59 -43 32 -94 66 -111 75 -34 17 -44 36 -20
36 8 0 24 11 37 25 21 23 25 39 31 133 4 59 2 171 -3 249 -7 100 -7 156 1 193
6 28 11 62 11 75 0 37 -20 30 -21 -7 -1 -32 -2 -32 -9 7 -4 22 -3 110 3 195 6
85 11 192 12 237 0 80 1 82 23 78 14 -2 22 1 22 10 0 9 -6 12 -16 8 -19 -7
-95 17 -88 28 3 5 -7 4 -21 -1 -33 -13 -38 -13 -30 0 3 6 -1 7 -9 4 -9 -3 -16
-10 -16 -16 0 -5 5 -6 10 -3 15 9 12 -2 -7 -31 -15 -24 -17 -71 -15 -508 1
-411 -1 -489 -14 -536 -9 -30 -22 -62 -29 -70 -7 -8 -16 -25 -19 -37 -12 -39
-79 -94 -171 -139 -49 -25 -96 -51 -104 -59 -12 -11 -15 -57 -16 -220 -1 -113
-5 -208 -8 -212 -6 -5 -29 13 -133 107 -17 15 -41 33 -53 39 l-22 12 31 36 31
35 -2 221 c-1 122 -5 224 -9 227 -4 3 -9 25 -12 50 -3 25 -3 37 -1 27 3 -10
10 -16 16 -14 14 5 12 194 -3 322 -15 118 -13 310 3 323 9 8 12 58 11 191 0
156 -3 183 -18 199 -16 18 -16 20 1 24 25 7 44 -2 37 -15 -5 -8 -2 -8 7 1 10
9 10 15 1 24 -9 9 -24 8 -67 -1 -30 -7 -59 -10 -65 -6 -5 3 -22 -2 -37 -11
l-28 -16 25 21 c14 11 33 18 43 15 17 -5 101 22 159 52 16 9 39 17 50 19 12 3
23 7 27 11 3 4 -2 4 -12 1 -15 -6 -17 -3 -11 15 8 27 43 75 58 81 19 7 58 -12
50 -25 -5 -8 -2 -9 9 -5 9 3 53 -11 102 -34 105 -49 189 -79 225 -79 32 0 73
40 95 94 14 32 16 72 14 237 -2 109 0 201 4 205 4 4 7 -19 7 -51 0 -46 3 -56
12 -47 19 19 49 14 55 -8 5 -19 6 -20 19 -3 12 16 13 13 14 -24 0 -29 6 -49
20 -63 19 -19 19 -19 26 16 3 19 4 45 2 59 -3 13 -1 26 4 27 5 2 -13 20 -39
40 -26 20 -66 56 -88 79 l-40 43 54 -48 c30 -26 80 -64 110 -83z m-3090 59
c64 -53 149 -112 161 -112 16 0 11 -16 -11 -36 -12 -10 -27 -31 -35 -46 -16
-32 -19 -141 -4 -169 7 -12 7 -19 1 -19 -18 0 -1 -27 25 -40 l24 -14 -29 -12
c-34 -14 -41 -24 -52 -72 -6 -26 -4 -43 7 -62 13 -22 14 -60 7 -286 -5 -144
-6 -293 -2 -330 5 -38 8 -181 8 -317 1 -151 5 -256 11 -268 8 -14 7 -19 -2
-19 -20 0 4 -17 34 -24 22 -5 30 -1 46 21 32 48 60 145 65 229 3 45 10 91 16
102 14 26 14 102 1 138 -6 15 -13 173 -16 363 -6 335 -6 336 15 361 20 22 21
22 12 3 -17 -34 -13 -51 4 -19 16 30 14 38 -8 42 -7 1 -37 14 -67 28 -37 18
-47 26 -30 25 43 -3 61 1 55 11 -4 7 3 8 22 4 41 -10 53 -23 53 -57 0 -30 1
-30 16 -11 11 13 17 15 20 7 8 -18 27 -16 20 2 -8 22 20 19 44 -5 17 -17 24
-19 43 -8 l22 12 -27 10 c-30 11 -37 26 -13 26 8 0 15 -4 15 -8 0 -11 62 -7
86 6 12 6 25 8 29 4 5 -4 5 -2 2 4 -4 7 0 25 8 40 8 16 15 37 15 47 0 9 5 17
10 17 6 0 8 -12 5 -27 -5 -23 -4 -25 5 -10 12 19 45 22 84 7 21 -8 26 -16 26
-43 0 -37 16 -64 43 -69 17 -3 18 -24 15 -388 -1 -212 -1 -519 1 -682 2 -164
1 -298 -3 -298 -3 0 -25 12 -48 28 -63 41 -129 80 -170 100 -35 17 -35 19 -17
31 44 27 49 63 49 369 0 164 5 314 11 347 8 44 7 89 -2 176 -10 93 -10 129 0
172 10 48 10 59 -8 99 -22 53 -36 60 -86 47 -43 -12 -63 -45 -46 -77 16 -30
14 -39 -4 -16 -13 18 -14 16 -15 -26 0 -28 3 -40 9 -32 17 28 22 -84 6 -159
-10 -45 -15 -111 -13 -169 5 -197 -11 -593 -27 -646 -18 -62 -66 -130 -97
-139 -13 -4 -32 -15 -43 -25 -44 -38 -142 -90 -183 -96 -39 -6 -47 -4 -75 23
-38 34 -144 107 -172 117 -18 7 -17 9 13 21 62 27 67 55 66 355 0 146 2 267 7
270 11 8 12 243 1 600 -12 385 -7 610 15 610 4 0 27 -17 52 -38z m748 -36
l102 -60 -24 -22 c-31 -28 -45 -82 -45 -172 0 -46 -4 -71 -10 -67 -19 12 -11
166 10 214 23 50 23 51 9 51 -13 0 -83 48 -129 90 -46 41 -33 36 87 -34z
m6293 -415 c48 -44 102 -87 119 -95 32 -17 33 -40 1 -49 -31 -8 -39 -99 -25
-302 6 -97 5 -113 -10 -125 -11 -9 -19 -10 -23 -3 -4 5 -29 26 -57 47 -27 20
-72 53 -98 73 l-49 36 27 21 c24 20 27 28 25 76 -5 145 -4 156 18 178 28 28
28 33 -8 67 l-29 28 -63 -33 c-78 -41 -73 -37 -58 -55 8 -9 14 -63 18 -147 l5
-133 37 -35 c79 -75 240 -201 250 -195 5 3 10 -3 10 -13 0 -11 6 -35 14 -53 9
-22 16 -87 19 -179 2 -80 8 -153 12 -162 4 -11 3 -18 -4 -18 -6 0 -11 -11 -11
-24 0 -43 -31 -160 -50 -191 -33 -54 -94 -103 -165 -136 -81 -37 -105 -55
-105 -80 0 -36 -20 -28 -92 34 -40 35 -89 74 -108 87 -19 13 -37 25 -39 27 -3
2 7 16 21 31 l26 27 2 250 c1 138 -1 296 -4 353 l-7 103 33 -17 c18 -9 52 -33
74 -53 69 -60 95 -81 116 -92 20 -11 19 -11 -3 -35 -17 -18 -24 -37 -24 -65 0
-21 -2 -39 -5 -39 -3 0 -5 -65 -4 -145 0 -80 -3 -148 -8 -151 -10 -6 0 -53 15
-72 6 -8 10 -29 9 -47 -3 -45 10 -50 47 -19 22 18 36 44 50 92 23 80 37 263
22 291 -6 11 -14 59 -18 107 l-6 89 -51 53 c-28 30 -90 82 -137 117 -110 81
-113 87 -113 303 -1 144 -3 165 -18 173 -13 7 -28 4 -55 -10 -74 -37 -76 -43
-79 -224 -4 -201 -4 -138 2 -519 7 -425 -1 -461 -134 -598 l-67 -70 -52 33
c-29 17 -55 39 -58 47 -3 8 -22 25 -44 37 -78 45 -98 68 -115 140 -10 38 -22
84 -28 103 -7 20 -13 131 -15 265 -2 127 -5 348 -7 493 -3 170 -1 262 5 262 6
0 8 4 5 8 -3 5 1 9 9 9 8 0 15 -6 15 -14 0 -7 5 -13 10 -13 6 0 10 7 10 16 0
24 19 6 30 -29 l10 -32 -3 38 c-3 36 5 48 18 27 4 -6 10 -8 15 -5 4 3 10 -5
13 -16 4 -15 2 -19 -9 -15 -16 6 -20 -19 -4 -29 6 -3 10 -16 10 -28 0 -12 5
-29 11 -37 8 -12 9 -8 7 15 -1 17 3 39 10 50 9 16 11 5 12 -65 1 -82 24 -458
35 -550 l5 -45 -11 40 c-26 101 -28 98 -24 -35 8 -243 22 -369 50 -426 35 -71
49 -82 70 -51 23 36 34 120 41 327 9 252 9 259 0 568 -7 204 -6 272 2 272 8 0
12 21 12 61 0 66 14 104 33 92 7 -4 -1 11 -17 33 -26 35 -23 33 30 -17 83 -79
101 -89 159 -89 63 0 206 48 328 111 51 26 93 48 95 48 2 1 43 -35 92 -78z
m-6433 47 c-3 -8 -6 -5 -6 6 -1 11 2 17 5 13 3 -3 4 -12 1 -19z m5525 -125
c21 -14 35 -30 31 -36 -3 -5 -1 -7 5 -3 23 14 20 -12 -3 -34 -25 -24 -26 -23
-29 20 -1 8 2 18 7 21 4 3 -10 18 -32 32 l-40 27 -15 -22 c-12 -17 -18 -20
-28 -10 -9 9 -9 12 1 12 7 0 19 6 26 14 12 11 8 19 -25 51 l-38 37 -4 -41 c-3
-32 -1 -40 10 -36 10 4 12 0 8 -11 -3 -8 -6 -20 -6 -26 0 -6 -7 -7 -16 -4 -9
4 -29 -1 -43 -11 -29 -19 -143 -25 -160 -8 -7 7 2 9 29 7 60 -6 109 6 136 33
19 19 24 34 24 78 l0 54 63 -59 c34 -33 79 -71 99 -85z m-4979 116 c23 -12 49
-27 57 -33 8 -7 56 -30 105 -52 84 -37 96 -39 187 -39 110 0 119 -16 13 -23
-94 -6 -92 0 -93 -322 -1 -146 -4 -353 -7 -461 -3 -119 -1 -231 5 -285 7 -49
12 -95 12 -103 2 -23 62 -42 104 -33 32 6 39 13 47 41 4 19 7 175 5 347 -2
173 -1 313 2 312 132 -67 195 -124 185 -168 -3 -16 -1 -31 4 -35 14 -8 15
-165 1 -165 -5 0 -10 -14 -10 -31 0 -17 4 -28 10 -24 6 4 10 -16 10 -52 0 -32
2 -83 5 -113 l5 -55 -15 45 -14 45 2 -97 c2 -54 6 -100 10 -104 12 -13 81 51
104 97 18 35 25 79 37 211 14 158 14 169 -4 217 -24 67 -47 97 -157 208 -69
70 -99 93 -112 88 -10 -3 -24 1 -31 10 -7 8 -9 15 -5 15 4 0 2 7 -5 15 -7 8
-16 12 -21 9 -10 -6 -11 14 -13 211 -1 77 -5 148 -10 158 -5 11 -4 17 3 17 6
0 11 -9 11 -20 0 -12 5 -17 14 -14 18 7 31 -15 17 -29 -6 -6 -10 -29 -10 -52
1 -22 3 -32 6 -22 8 29 38 20 59 -18 6 -11 17 -20 25 -20 8 0 20 -13 27 -28
12 -24 11 -33 -7 -71 -30 -60 -26 -70 5 -13 33 64 30 116 -8 135 -16 8 -29 24
-33 42 -4 17 -15 32 -26 35 -21 7 -20 32 1 27 8 -2 11 4 7 18 -3 11 0 23 5 27
7 3 8 1 4 -5 -4 -8 0 -12 11 -12 19 -1 46 -31 57 -66 5 -15 2 -24 -10 -28 -16
-6 -15 -8 2 -21 17 -12 20 -11 25 17 4 17 3 44 -2 62 -8 29 -7 30 7 11 12 -16
14 -38 8 -110 -6 -86 -5 -92 23 -145 21 -39 56 -78 128 -140 54 -47 103 -96
108 -108 6 -12 16 -22 24 -22 7 0 13 -7 13 -15 0 -7 8 -18 17 -23 15 -9 17
-37 21 -235 4 -222 4 -226 -20 -278 -40 -88 -117 -167 -209 -215 -44 -23 -89
-50 -100 -60 -20 -18 -21 -18 -30 -1 -6 9 -24 23 -42 31 -18 8 -53 35 -78 60
-48 47 -83 66 -125 66 -29 0 -152 -87 -194 -138 l-30 -37 -28 33 c-15 17 -32
32 -38 32 -29 0 -176 85 -209 121 -37 42 -85 131 -85 160 0 9 -7 31 -17 49
-13 27 -16 61 -15 169 1 166 0 153 12 146 6 -4 10 22 10 72 0 56 5 87 18 110
9 17 29 53 44 80 16 30 64 83 125 138 145 131 143 128 143 190 0 43 5 59 26
85 15 17 25 32 23 34 -16 14 -93 46 -102 43 -7 -3 13 -16 43 -31 30 -14 48
-26 39 -26 -10 0 -43 14 -74 30 -45 24 -61 28 -72 19 -11 -10 -12 -9 -7 5 3 9
17 16 33 16 l26 0 -28 19 c-48 31 -11 38 50 8 13 -6 26 -7 30 -4 8 9 10 7 -60
46 l-58 32 -43 -44 c-23 -24 -41 -52 -40 -61 1 -9 -2 -16 -7 -16 -6 0 -8 -4
-5 -9 3 -5 -1 -11 -9 -15 -8 -3 -14 -2 -14 2 3 20 -3 23 -18 11 -10 -8 14 21
52 63 39 42 76 77 83 77 7 1 32 -9 55 -20z m824 -49 c86 -87 79 -92 -9 -6
l-66 63 -28 -22 c-16 -12 -62 -33 -101 -46 -40 -12 -73 -27 -73 -31 0 -4 -10
-8 -22 -8 -17 1 -10 7 26 24 26 14 56 27 65 30 9 4 39 20 66 36 28 16 55 30
62 30 6 0 43 -31 80 -70z m-1702 -28 c-2 -3 -11 1 -19 7 -8 7 -21 9 -27 5 -8
-4 -9 -3 -5 4 4 7 3 12 -1 12 -5 0 -18 7 -29 16 -10 8 5 3 34 -12 28 -15 50
-29 47 -32z m-160 -20 c-3 -3 -11 0 -18 7 -9 10 -8 11 6 5 10 -3 15 -9 12 -12z
m773 -47 c66 1 54 -11 -18 -18 -30 -3 -49 -3 -42 0 9 3 5 12 -13 28 -14 13
-25 32 -25 41 0 11 8 5 23 -17 21 -31 27 -34 75 -34z m4757 55 c3 -5 2 -10 -4
-10 -5 0 -13 5 -16 10 -3 6 -2 10 4 10 5 0 13 -4 16 -10z m-5515 -30 c-21 -30
-40 -39 -40 -19 0 5 4 8 8 5 5 -3 15 6 22 19 7 14 17 25 22 25 5 0 0 -13 -12
-30z m1511 1 c-11 -7 -10 -10 5 -14 12 -3 10 -4 -7 -4 -29 1 -29 27 0 27 13 0
13 -2 2 -9z m199 5 c0 -2 -7 -7 -16 -10 -8 -3 -12 -2 -9 4 6 10 25 14 25 6z
m2090 -11 c7 -9 8 -15 2 -15 -5 0 -12 7 -16 15 -3 8 -4 15 -2 15 2 0 9 -7 16
-15z m-2005 -5 c4 -6 11 -7 17 -4 5 4 23 -3 39 -15 15 -11 33 -21 38 -21 5 0
11 -17 13 -37 2 -24 8 -37 16 -35 15 3 16 -24 2 -33 -8 -5 -7 -12 2 -22 11
-13 9 -18 -10 -31 -17 -11 -22 -24 -22 -56 0 -22 4 -47 8 -54 6 -8 9 -3 9 16
0 31 23 92 35 92 5 0 9 12 10 28 1 15 5 -47 8 -138 3 -91 4 -167 2 -169 -1 -3
-12 5 -25 17 -13 12 -28 22 -34 22 -5 0 -28 13 -50 29 -22 16 -54 36 -71 45
-29 15 -44 46 -23 46 5 0 11 56 13 125 2 90 7 128 17 137 12 11 13 10 8 -5 -4
-11 -3 -16 3 -12 14 9 7 41 -15 65 -10 11 -13 20 -7 20 6 0 14 -5 17 -10z
m199 -22 c-3 -4 -14 -3 -25 2 -11 6 -23 9 -28 6 -4 -3 -8 1 -8 8 0 10 8 11 33
3 18 -6 31 -14 28 -19z m2033 -14 c-3 -3 -12 -4 -19 -1 -8 3 -5 6 6 6 11 1 17
-2 13 -5z m89 -10 c18 -14 18 -14 -6 -3 -31 14 -36 19 -24 19 6 0 19 -7 30
-16z m-3158 -25 c7 -14 11 -51 10 -90 -2 -50 0 -65 10 -62 28 11 8 -7 -59 -53
-40 -27 -80 -55 -89 -62 -9 -7 -24 -10 -34 -6 -14 5 -16 24 -14 138 1 94 3
117 8 81 4 -27 8 -39 9 -25 4 37 12 84 15 88 2 1 17 -5 35 -15 26 -15 33 -16
40 -4 6 9 10 4 13 -18 3 -18 0 -32 -7 -35 -7 -2 -15 -13 -17 -24 -4 -15 -2
-19 9 -15 12 5 14 1 8 -15 -5 -17 -2 -22 13 -22 27 0 49 27 34 42 -8 8 -7 17
4 33 10 15 11 25 5 29 -6 4 -8 13 -4 21 3 8 1 15 -5 15 -6 0 -13 -6 -15 -12
-3 -8 -6 -6 -6 4 -1 9 -9 22 -18 28 -15 8 -13 10 12 7 19 -2 35 -12 43 -28z
m4612 -6 c0 -2 -9 -3 -20 -3 -13 0 -20 7 -20 20 0 19 1 19 20 3 11 -10 20 -19
20 -20z m-3610 -18 c0 -8 -4 -15 -10 -15 -5 0 -10 7 -10 15 0 8 5 15 10 15 6
0 10 -7 10 -15z m5077 -7 c-3 -8 -6 -5 -6 6 -1 11 2 17 5 13 3 -3 4 -12 1 -19z
m-3590 -260 c-2 -13 -4 -5 -4 17 -1 22 1 32 4 23 2 -10 2 -28 0 -40z m2631
-223 c1 -37 -16 17 -22 71 l-5 49 13 -50 c8 -27 14 -59 14 -70z m-941 -207
c-3 -7 -5 -2 -5 12 0 14 2 19 5 13 2 -7 2 -19 0 -25z m-3046 -69 l-9 -34 -1
40 c0 22 3 51 7 65 7 24 7 24 10 -6 2 -18 -1 -47 -7 -65z m1676 -171 c-2 -18
-4 -4 -4 32 0 36 2 50 4 33 2 -18 2 -48 0 -65z m1413 -442 c0 -2 -8 -10 -17
-17 -16 -13 -17 -12 -4 4 13 16 21 21 21 13z m-30 -40 c0 -3 -4 -8 -10 -11 -5
-3 -10 -1 -10 4 0 6 5 11 10 11 6 0 10 -2 10 -4z m-1315 -83 c5 -36 3 -53 -4
-53 -6 0 -11 15 -11 34 0 18 -3 49 -6 67 -4 24 -2 29 4 19 5 -8 13 -39 17 -67z
m66 -315 c0 -7 4 -35 8 -61 11 -68 -4 -68 -18 0 -6 31 -11 60 -11 65 0 13 20
9 21 -4z m358 -117 c13 -8 13 -12 1 -26 -12 -14 -12 -18 1 -26 24 -15 74 -6
64 11 -6 10 1 15 38 24 16 4 27 2 27 -4 0 -5 -7 -10 -16 -10 -9 0 -22 -7 -29
-16 -13 -19 -123 -34 -111 -16 3 6 1 14 -5 18 -8 4 -9 3 -5 -4 5 -8 0 -12 -13
-12 -12 0 -21 -4 -21 -10 0 -5 8 -7 18 -3 14 5 13 3 -3 -10 -23 -19 -50 -22
-39 -5 5 7 3 8 -6 3 -7 -4 -22 -9 -34 -10 -11 -1 -25 -3 -30 -4 -4 0 -6 -7 -3
-15 3 -8 -7 -17 -29 -24 -19 -5 -32 -6 -28 -1 3 5 12 9 20 9 8 0 14 5 14 10 0
7 -7 7 -21 -1 -17 -8 -23 -8 -29 1 -6 9 -11 7 -19 -7 -5 -11 -7 -24 -3 -28 4
-5 -1 -5 -11 -2 -11 4 -25 -1 -36 -12 -17 -17 -20 -17 -25 -4 -4 10 -15 14
-30 11 -14 -3 -31 -1 -38 4 -19 12 38 61 62 53 14 -4 23 2 34 22 8 15 15 24
16 18 0 -5 12 -11 26 -11 17 -1 24 2 20 11 -5 14 20 29 35 19 5 -3 9 2 9 10 0
11 10 16 33 17 17 0 55 7 82 14 64 16 67 16 84 6z m-590 -133 c-23 -9 -24 -21
-4 -38 17 -14 21 -35 5 -25 -5 3 -10 -3 -10 -14 0 -12 -7 -22 -15 -22 -32 -3
-66 -18 -85 -38 -36 -38 -49 -44 -64 -28 -13 12 -7 22 49 76 35 33 69 61 76
61 9 0 8 4 -1 15 -7 8 -16 13 -20 10 -5 -3 -11 -1 -15 4 -8 14 77 29 91 16 9
-7 7 -12 -7 -17z m141 7 c-10 -12 -16 -13 -26 -4 -20 16 -18 19 12 19 22 0 25
-2 14 -15z m34 -36 c10 -14 20 -19 34 -15 12 4 24 2 28 -5 5 -9 2 -10 -9 -6
-10 3 -17 2 -17 -3 0 -6 -7 -10 -15 -10 -8 0 -29 -9 -47 -20 -40 -24 -57 -25
-73 -3 -11 15 -10 20 8 35 15 14 23 15 28 7 5 -9 12 -8 24 4 9 9 13 21 10 27
-12 20 14 10 29 -11z m-334 -34 c-7 -8 -20 -15 -29 -15 -11 1 -8 5 9 15 32 18
35 18 20 0z m510 -30 c0 -8 -9 -15 -20 -15 -11 0 -20 -4 -20 -10 0 -5 8 -10
18 -10 11 0 26 -19 41 -50 23 -49 88 -145 152 -223 18 -21 53 -80 79 -130 74
-143 115 -212 159 -267 21 -26 27 -50 13 -50 -9 0 -51 66 -125 197 -29 50 -78
129 -109 175 -32 45 -58 89 -58 97 0 7 -29 46 -65 86 -47 52 -70 72 -83 68
-34 -8 -62 54 -39 85 7 8 6 17 -1 24 -20 20 -13 29 18 23 17 -3 30 -1 30 5 0
5 2 10 5 10 3 0 5 -7 5 -15z m-563 -102 c0 -24 -16 -43 -36 -43 -12 0 -10 5 9
21 14 11 19 18 13 14 -7 -3 -13 -2 -13 4 0 5 6 12 13 14 6 3 12 6 13 6 0 1 1
-7 1 -16z m-72 -63 c-10 -11 -23 -20 -29 -20 -6 0 0 9 14 20 32 25 38 25 15 0z
m1535 10 c0 -5 -4 -10 -10 -10 -5 0 -10 5 -10 10 0 6 5 10 10 10 6 0 10 -4 10
-10z m-81 -44 c17 -21 -1 -28 -50 -20 l-42 7 29 13 c39 17 49 17 63 0z m-1499
-8 c0 6 4 12 10 12 6 0 5 -10 -2 -25 -6 -14 -15 -25 -19 -25 -4 0 -20 -10 -36
-23 -15 -13 -44 -32 -63 -43 -19 -10 -45 -27 -57 -38 -41 -35 -24 -10 28 43
29 28 56 51 60 51 5 0 9 5 9 11 0 7 9 9 21 6 16 -4 19 -2 14 10 -7 20 16 37
27 20 6 -9 8 -9 8 1z m1235 -63 c-16 -13 -39 -24 -50 -25 -12 0 -27 -6 -33
-12 -10 -10 -15 -10 -22 2 -5 8 -10 18 -10 21 0 7 88 34 120 37 l25 2 -30 -25z
m-135 -22 c-1 -14 -34 -48 -70 -73 -19 -13 -38 -29 -42 -34 -8 -12 -48 21 -48
39 0 12 45 31 63 27 4 -1 7 2 7 7 0 5 13 12 30 16 16 4 32 11 35 16 7 11 25
12 25 2z m-1640 -93 c0 -5 -8 -10 -17 -10 -15 0 -16 2 -3 10 19 12 20 12 20 0z
m1260 -118 c0 -6 7 -18 15 -26 14 -14 13 -16 -10 -22 -14 -3 -25 -10 -25 -14
0 -10 -145 -49 -200 -53 -25 -3 -52 -7 -60 -10 -8 -3 -36 -8 -62 -12 -27 -3
-48 -11 -48 -16 0 -5 18 -7 43 -3 35 4 39 3 23 -7 -11 -6 -47 -13 -81 -14 -34
-1 -67 -5 -73 -9 -6 -3 -21 -2 -35 3 -14 5 -35 7 -48 4 -17 -5 -21 -3 -16 9 8
22 -57 32 -92 13 -15 -7 -46 -16 -69 -18 -39 -4 -44 -2 -65 32 -12 20 -21 40
-19 44 1 4 -2 16 -8 26 -13 26 6 32 58 18 57 -15 77 3 30 26 -29 14 -30 17
-10 17 13 0 21 3 19 8 -6 9 185 8 200 -1 6 -4 39 -11 74 -16 35 -6 75 -13 89
-17 23 -7 24 -6 10 11 -14 17 -9 17 108 13 68 -3 125 -1 128 4 9 14 40 9 62
-12 12 -11 27 -20 34 -20 8 1 7 4 -3 10 -26 15 -44 67 -29 85 10 12 15 10 36
-14 13 -16 24 -34 24 -39z m685 58 c-27 -12 -43 -12 -25 0 8 5 22 9 30 9 10 0
8 -3 -5 -9z m-55 -10 c0 -5 -4 -10 -8 -10 -5 0 -17 -7 -28 -15 -18 -14 -18
-14 4 -10 20 4 22 2 12 -10 -14 -17 -40 -20 -40 -5 0 5 -34 -11 -75 -35 -42
-25 -80 -45 -86 -45 -5 0 -20 -7 -33 -15 -22 -15 -24 -14 -40 9 -27 42 -21 66
17 68 46 2 49 3 74 16 12 7 31 12 42 12 19 0 73 20 111 41 21 11 50 11 50 -1z
m440 0 c0 -6 -9 -18 -20 -27 -14 -12 -16 -19 -8 -25 9 -5 6 -9 -7 -14 -11 -4
-23 -12 -27 -18 -5 -7 -8 -5 -8 4 0 8 15 32 33 52 35 41 37 43 37 28z m53 -17
c26 10 27 -20 1 -32 -44 -20 -47 -15 -35 49 1 3 5 -1 10 -9 5 -8 16 -11 24 -8z
m62 -3 c3 -5 -1 -10 -9 -10 -9 0 -16 5 -16 10 0 6 4 10 9 10 6 0 13 -4 16 -10z
m-1796 -16 c2 -2 -17 -4 -43 -4 -27 0 -45 4 -41 9 5 9 73 4 84 -5z m1891 -4
c0 -4 10 -5 23 -3 28 5 107 -45 107 -69 0 -10 5 -18 11 -18 5 0 7 6 3 13 -5 6
6 -1 23 -18 17 -16 29 -31 28 -33 -4 -4 -216 106 -229 119 -6 5 -18 9 -29 9
-10 0 -16 4 -13 8 6 10 76 3 76 -8z m-336 -22 c-10 -12 -14 -18 -7 -15 6 4 15
3 18 -3 8 -14 -14 -42 -27 -34 -5 3 -32 0 -59 -6 -44 -11 -56 -10 -90 6 -49
22 -32 37 26 24 21 -5 43 -6 47 -4 5 3 14 1 21 -5 9 -7 17 -7 27 0 11 8 12 12
3 16 -20 7 -15 23 10 33 41 16 52 12 31 -12z m45 5 c0 -5 -4 -17 -9 -28 -8
-18 -9 -17 -9 8 -1 15 4 27 9 27 6 0 10 -3 9 -7z m-328 -114 c27 -23 34 -59
12 -59 -8 0 -11 -4 -8 -10 3 -5 15 -10 26 -10 10 0 19 -4 19 -10 0 -5 -6 -10
-14 -10 -12 0 -13 -7 -5 -32 5 -17 14 -35 21 -39 6 -4 13 -15 14 -24 3 -18 28
-49 76 -97 31 -30 73 -106 64 -115 -3 -3 -16 7 -28 23 -12 16 -37 43 -55 61
-19 18 -41 49 -49 69 -11 25 -18 33 -23 25 -6 -9 -19 1 -45 32 -21 25 -50 50
-66 55 -16 6 -33 20 -40 31 -6 12 -18 21 -28 21 -9 0 -24 5 -32 11 -12 8 -9 9
12 7 30 -3 75 38 70 64 -3 15 12 23 44 27 6 0 22 -8 35 -20z m-258 -6 c-7 -2
-19 -2 -25 0 -7 3 -2 5 12 5 14 0 19 -2 13 -5z m336 -13 c-13 -9 -39 -2 -39
10 0 4 12 5 26 2 17 -3 22 -7 13 -12z m-1506 -122 c-3 -18 -17 -47 -30 -66
-12 -19 -23 -42 -23 -50 0 -13 -3 -12 -14 4 -13 17 -17 17 -37 6 -20 -13 -21
-12 -16 10 4 12 7 29 7 36 0 6 7 12 15 12 8 0 15 9 15 20 0 11 4 20 9 20 5 0
13 9 16 21 4 12 12 18 21 15 7 -3 16 -1 19 5 12 19 24 -3 18 -33z m1526 -43
c11 -19 18 -35 15 -35 -10 0 -43 44 -44 58 0 20 7 14 29 -23z m1282 -132 c13
-17 13 -17 -6 -3 -11 8 -22 16 -24 17 -2 2 0 3 6 3 6 0 17 -8 24 -17z m-2957
-129 c-31 -64 -53 -118 -50 -121 3 -3 -2 -12 -12 -20 -9 -8 -11 -11 -3 -7 9 4
12 2 9 -7 -3 -8 -10 -13 -16 -12 -6 2 -9 -3 -7 -10 2 -6 -5 -28 -15 -47 -11
-19 -33 -63 -51 -97 -37 -75 -49 -85 -49 -41 0 22 10 44 31 67 16 19 28 40 25
47 -3 8 -1 16 5 19 9 6 21 31 108 220 35 75 66 125 77 125 1 0 -22 -52 -52
-116z m1790 100 c3 -8 2 -12 -4 -9 -6 3 -10 10 -10 16 0 14 7 11 14 -7z m1226
-16 c0 -6 -6 -5 -15 2 -8 7 -15 14 -15 16 0 2 7 1 15 -2 8 -4 15 -11 15 -16z
m-1174 -66 c42 -73 86 -125 94 -112 4 7 13 2 24 -15 9 -14 14 -31 10 -37 -4
-6 -3 -8 4 -4 6 3 14 -4 18 -16 4 -13 5 -24 3 -25 -2 -1 12 -19 32 -40 42 -44
164 -254 175 -298 7 -33 -2 -20 -96 130 -24 39 -63 93 -87 122 -24 28 -43 58
-43 66 0 8 -13 28 -28 43 -37 39 -60 70 -44 60 22 -13 13 5 -26 53 -52 63 -82
107 -82 121 0 19 17 2 46 -48z m-802 2 c5 -12 15 -14 51 -8 38 5 45 4 45 -11
0 -39 -82 -153 -143 -197 l-29 -21 -28 22 c-16 11 -33 21 -37 21 -10 0 -64 74
-80 109 -7 14 -12 40 -13 58 l0 31 43 -20 c23 -12 53 -29 66 -39 28 -22 77
-25 96 -5 12 12 6 15 -40 21 -63 7 -69 19 -22 39 44 19 83 20 91 0z m295 -41
c20 -15 43 -34 52 -43 18 -16 51 -77 47 -84 -2 -2 12 -20 30 -40 29 -33 31
-36 12 -36 -12 0 -18 -4 -15 -10 4 -6 2 -17 -5 -25 -9 -11 -7 -16 9 -24 11 -6
28 -11 38 -11 14 0 13 -3 -7 -17 -14 -9 -33 -26 -43 -37 -11 -12 -25 -20 -33
-18 -22 5 -16 -19 6 -25 23 -6 27 -28 6 -36 -9 -4 -12 -15 -8 -33 4 -23 2 -26
-13 -20 -14 5 -16 4 -7 -7 9 -11 5 -18 -18 -35 -16 -12 -33 -22 -38 -22 -5 0
-15 -7 -22 -15 -7 -8 -18 -15 -24 -15 -6 0 -1 8 12 18 13 10 20 21 16 24 -3 4
-15 -2 -27 -12 -20 -19 -21 -19 -34 -1 -8 12 -20 17 -33 14 -15 -4 -22 2 -30
21 -5 15 -14 24 -20 21 -5 -3 -10 1 -10 11 0 14 3 14 15 4 13 -11 18 -11 28 0
8 9 8 11 1 7 -7 -4 -15 0 -18 9 -4 9 -13 14 -21 10 -8 -3 -15 -2 -15 3 0 4
-14 8 -31 9 -17 0 -32 2 -34 4 -4 4 60 140 78 163 11 14 25 19 50 17 20 -1 38
2 41 7 4 5 23 7 42 4 35 -6 36 -5 29 18 -11 34 -25 49 -46 49 -11 0 -19 7 -19
15 0 19 -16 20 -23 1 -3 -8 -16 -20 -29 -27 -22 -12 -22 -11 -7 12 9 13 22 42
29 64 16 52 44 115 49 115 2 0 20 -12 40 -27z m-642 -69 c-3 -3 7 -30 24 -58
16 -29 29 -58 29 -65 0 -14 68 -153 78 -161 21 -15 81 -94 77 -101 -3 -4 -1
-10 5 -14 6 -4 5 -12 -5 -21 -8 -9 -13 -20 -10 -25 4 -5 -2 -9 -11 -9 -14 0
-15 -3 -6 -12 22 -22 13 -38 -20 -38 -38 0 -55 9 -60 30 -2 8 -9 21 -17 29
-12 13 -16 12 -36 -12 -31 -35 -23 -66 18 -74 30 -6 30 -6 7 -15 -33 -12 -60
-1 -60 25 0 12 -9 28 -21 35 -27 17 -59 6 -59 -21 0 -17 -2 -19 -9 -8 -8 12
-12 12 -24 2 -19 -15 -57 5 -57 29 0 27 -21 41 -37 24 -19 -18 -67 -18 -83 1
-9 11 -8 18 9 36 12 13 21 27 21 32 0 13 -69 77 -83 77 -7 0 -21 7 -31 15 -19
15 -19 16 18 50 21 19 42 35 47 35 5 0 9 5 9 11 0 5 -5 7 -12 3 -7 -4 -8 -3
-4 5 4 6 11 9 16 6 11 -7 51 26 44 36 -2 4 5 6 16 4 11 -2 20 1 20 8 0 16 38
39 50 32 6 -3 7 1 4 9 -7 18 63 72 106 81 17 4 32 11 35 16 4 5 9 9 12 9 4 0
4 -3 0 -6z m553 -109 c-13 -14 -26 -23 -28 -20 -3 3 5 16 18 30 13 14 26 23
28 20 3 -3 -5 -16 -18 -30z m-947 -214 c6 -24 -10 -41 -31 -34 -10 4 -13 2 -8
-5 3 -6 2 -13 -3 -17 -6 -3 -15 3 -21 14 -8 17 -6 25 10 41 25 25 46 26 53 1z
m27 -51 c10 -18 8 -20 -20 -20 -29 0 -29 1 -13 20 10 11 19 20 20 20 1 0 7 -9
13 -20z m759 -1 c-16 -10 -23 -4 -14 10 3 6 11 8 17 5 6 -4 5 -9 -3 -15z
m-299 -111 c0 -6 -7 -5 -15 2 -8 7 -15 17 -15 22 0 6 7 5 15 -2 8 -7 15 -17
15 -22z m1480 -59 c0 -6 -4 -7 -10 -4 -5 3 -10 11 -10 16 0 6 5 7 10 4 6 -3
10 -11 10 -16z m44 -65 c9 -8 14 -20 10 -25 -7 -12 -21 -3 -34 22 -13 23 2 26
24 3z m-1243 -301 c4 -4 10 -22 14 -40 5 -26 3 -32 -14 -38 -25 -7 -27 -33 -6
-61 11 -15 13 -36 8 -96 -3 -47 -2 -78 4 -78 5 0 9 -17 10 -37 1 -34 0 -36
-10 -15 -6 12 -15 21 -21 19 -14 -4 -20 -54 -9 -70 4 -7 7 -55 6 -107 -3 -161
-2 -157 -14 -140 -8 11 -9 9 -5 -12 4 -16 2 -28 -4 -28 -6 0 -6 -9 0 -25 6
-16 6 -25 0 -25 -6 0 -10 -18 -10 -40 0 -32 3 -38 16 -33 14 5 15 -1 9 -55 -4
-36 -3 -74 4 -94 16 -49 16 -117 1 -170 -12 -42 -12 -49 3 -66 26 -29 19 -112
-9 -112 -8 0 -14 -4 -14 -9 0 -5 -20 -12 -44 -15 -40 -6 -49 -4 -75 20 -28 24
-29 29 -17 53 13 28 10 133 -4 111 -4 -7 -6 9 -3 36 3 27 9 53 14 59 5 5 9 22
9 37 0 29 17 67 35 80 6 4 -3 8 -20 9 -16 1 -22 3 -13 6 13 3 17 12 14 36 -2
17 -9 33 -15 35 -6 2 -11 18 -11 35 0 24 -8 39 -30 57 l-30 25 6 120 c5 89 11
125 23 138 14 17 14 19 -2 28 -11 7 -17 22 -17 44 0 19 -4 36 -9 40 -17 10 -7
69 17 102 20 29 21 70 1 57 -5 -3 -9 1 -9 10 0 8 -5 16 -11 18 -8 3 -8 19 1
61 6 32 15 55 19 52 5 -2 16 4 26 15 10 11 14 20 10 20 -18 0 17 25 58 42 41
17 102 18 118 1z m89 -123 c0 -5 -7 -10 -15 -10 -8 0 -15 5 -15 10 0 6 7 10
15 10 8 0 15 -4 15 -10z m-12 -73 c14 -16 14 -19 0 -33 -15 -15 -16 -14 -16 7
0 13 -3 35 -6 49 -3 14 -3 18 0 10 4 -8 14 -23 22 -33z m-408 19 c0 -3 -4 -8
-10 -11 -5 -3 -10 -1 -10 4 0 6 5 11 10 11 6 0 10 -2 10 -4z m-105 -97 c4 -5
4 -21 1 -34 -4 -17 -11 -22 -26 -18 -23 6 -26 27 -7 48 15 17 24 18 32 4z
m176 -71 c-1 -23 -5 -72 -10 -108 l-8 -65 -1 90 c-2 85 5 141 15 131 3 -2 4
-24 4 -48z m-81 -8 c0 -22 -16 -35 -25 -20 -9 14 4 52 16 45 5 -4 9 -15 9 -25z
m-40 -14 c0 -22 -22 -37 -37 -25 -17 14 -17 46 0 52 15 5 37 -11 37 -27z m-80
3 c0 -5 -4 -9 -10 -9 -5 0 -10 7 -10 16 0 8 5 12 10 9 6 -3 10 -10 10 -16z
m169 -131 c-1 -52 -3 -66 -9 -48 -15 47 -11 120 7 120 2 0 3 -33 2 -72z m-655
-69 c-3 -5 -14 -9 -26 -9 -17 0 -18 3 -8 14 12 15 44 10 34 -5z m-44 -52 c0
-7 -9 -18 -20 -25 -20 -12 -25 -6 -14 22 7 19 34 21 34 3z m1034 -402 c-6 -16
-24 -21 -24 -7 0 11 11 22 21 22 5 0 6 -7 3 -15z m-274 -112 c0 -7 -4 -13 -10
-13 -5 0 -10 12 -10 28 0 21 2 24 10 12 5 -8 10 -21 10 -27z m-24 -27 c23 6
23 5 13 -25 -6 -17 -16 -31 -23 -31 -20 0 -37 38 -29 68 7 25 8 25 11 4 3 -18
8 -21 28 -16z m76 -60 c3 -14 1 -31 -3 -38 -6 -8 -9 1 -9 25 0 42 6 48 12 13z
m235 -2 c-3 -3 -12 -4 -19 -1 -8 3 -5 6 6 6 11 1 17 -2 13 -5z m-1519 -82 c6
-18 -15 -14 -22 4 -4 10 -1 14 6 12 6 -2 14 -10 16 -16z m4647 -119 c-4 -10
-8 -24 -8 -30 0 -9 -4 -10 -13 -2 -16 13 -6 49 13 49 11 0 13 -5 8 -17z
m-2442 -1191 c18 -19 23 -29 13 -29 -7 0 -21 13 -30 29 -10 15 -15 28 -13 28
2 0 15 -13 30 -28z m-217 -48 c-33 -24 -48 -17 -24 11 15 18 25 22 32 14 8 -7
5 -15 -8 -25z m203 -19 c7 -5 26 -22 43 -37 25 -24 28 -32 22 -65 -7 -44 -43
-103 -62 -103 -8 0 -10 -5 -6 -12 4 -7 4 -10 -1 -6 -4 4 -14 0 -22 -10 -12
-15 -13 -14 -1 8 7 14 11 28 10 32 -1 5 6 13 16 19 12 8 17 20 14 35 -6 30
-15 30 -49 -1 -16 -14 -41 -36 -56 -50 -15 -14 -33 -25 -38 -25 -6 0 -8 -4 -5
-9 3 -5 -1 -14 -9 -21 -8 -7 -15 -9 -15 -6 0 9 -48 -43 -53 -57 -3 -9 -8 -9
-19 1 -12 10 -20 9 -40 -7 -18 -15 -28 -17 -36 -9 -8 8 -9 5 -5 -10 4 -17 0
-21 -24 -24 -20 -2 -29 -9 -31 -24 -2 -12 -12 -30 -23 -40 -18 -16 -20 -15
-23 19 -3 32 -68 66 -90 48 -10 -9 -15 -8 -20 4 -7 19 -46 20 -46 0 0 -9 6
-12 15 -9 11 4 15 0 15 -16 0 -13 9 -37 19 -54 26 -42 13 -68 -18 -37 -11 11
-23 32 -27 47 -5 19 -9 22 -15 12 -7 -11 -11 -10 -19 2 -8 12 -15 9 -45 -20
-33 -32 -47 -70 -25 -70 24 0 7 -28 -29 -48 -35 -20 -40 -20 -52 -6 -19 24
-18 57 2 72 25 17 24 46 -2 63 -19 13 -20 19 -11 67 5 28 5 52 1 52 -14 0 -11
20 5 36 8 8 16 14 19 14 9 0 44 -36 50 -52 8 -22 21 -23 41 -3 8 8 21 15 29
15 8 0 21 7 28 17 13 15 12 15 -7 3 -29 -18 -77 -1 -79 28 -1 13 1 25 5 27 4
3 5 15 3 29 -5 22 -1 25 49 35 130 25 194 9 72 -18 -45 -10 -54 -15 -41 -23
10 -5 15 -13 12 -18 -3 -4 11 -6 32 -5 20 2 39 9 43 15 3 5 27 12 53 15 37 4
47 2 47 -10 0 -8 7 -15 15 -15 9 0 15 9 15 21 0 18 2 19 15 9 8 -7 15 -23 15
-36 0 -17 6 -24 20 -24 14 0 20 -7 21 -22 2 -23 2 -23 6 -1 2 12 11 27 19 33
18 16 18 74 0 93 -8 8 -13 25 -10 38 12 75 17 89 31 89 8 0 11 -4 8 -10 -3 -5
-2 -10 4 -10 5 0 12 6 14 13 4 9 8 8 16 -3 10 -13 12 -13 20 0 8 11 12 9 20
-13 13 -33 57 -53 77 -36 8 6 11 16 7 22 -3 6 -1 7 6 3 17 -11 41 17 30 35 -6
12 -3 15 14 15 12 -1 28 -5 36 -11z m96 -15 c3 -5 1 -10 -4 -10 -6 0 -11 5
-11 10 0 6 2 10 4 10 3 0 8 -4 11 -10z m45 -74 c0 -25 -17 -46 -37 -46 -11 0
-11 5 -3 20 6 11 8 25 5 31 -4 5 -4 17 -1 26 9 22 36 -2 36 -31z m-1548 -72
c-5 -23 -10 -29 -18 -21 -4 4 -1 14 7 24 12 15 12 16 -4 10 -11 -4 -16 -3 -12
4 11 16 30 4 27 -17z m191 10 c42 -14 63 -34 37 -34 -5 0 -10 -9 -10 -19 0
-11 -8 -33 -17 -50 -14 -24 -24 -31 -43 -29 -14 2 -25 9 -25 18 0 8 -4 21 -9
28 -9 15 1 102 13 102 4 0 28 -7 54 -16z m687 -34 c0 -5 -2 -10 -4 -10 -3 0
-8 5 -11 10 -3 6 -1 10 4 10 6 0 11 -4 11 -10z m-427 -44 c22 -17 22 -22 -4
-29 -12 -3 -18 -10 -14 -17 11 -18 -28 -7 -42 12 -29 37 19 65 60 34z m-409
-80 c-25 -43 -30 -61 -15 -51 5 3 12 2 15 -3 3 -5 -2 -9 -11 -9 -9 0 -18 9
-21 19 -2 10 -8 15 -13 12 -16 -9 -9 29 8 48 16 18 16 18 -3 12 -19 -7 -19 -7
-1 14 16 17 23 19 42 10 l23 -10 -24 -42z m491 34 c3 -5 1 -10 -4 -10 -6 0
-11 5 -11 10 0 6 2 10 4 10 3 0 8 -4 11 -10z m-315 -84 c0 -12 -5 -16 -15 -12
-10 4 -15 -1 -15 -16 0 -12 -3 -18 -6 -15 -4 4 -15 -3 -26 -15 -20 -24 -46
-31 -65 -20 -8 5 -9 19 -3 47 6 28 5 42 -3 47 -18 12 31 10 53 -2 11 -6 18
-16 16 -23 -1 -6 -1 -9 1 -4 3 4 8 5 13 2 5 -3 14 8 21 24 14 31 29 24 29 -13z
m30 35 c0 -17 -18 -21 -24 -6 -3 9 0 15 9 15 8 0 15 -4 15 -9z m-283 -77 c-3
-3 -12 -4 -19 -1 -8 3 -5 6 6 6 11 1 17 -2 13 -5z m1203 -3 c0 -5 -15 -19 -32
-31 -27 -18 -29 -18 -11 -2 12 11 19 23 15 27 -4 5 -1 5 6 1 6 -4 12 -2 12 3
0 6 2 11 5 11 3 0 5 -4 5 -9z m-1149 -21 c22 -18 22 -20 4 -17 -11 1 -25 6
-32 10 -6 4 -14 3 -17 -2 -6 -9 30 -27 45 -24 3 1 6 -5 6 -13 0 -7 -3 -14 -5
-14 -9 0 -92 51 -92 56 0 3 5 2 10 -1 6 -3 17 1 26 9 20 21 27 20 55 -4z m749
-29 c0 -6 -4 -13 -10 -16 -5 -3 -10 1 -10 9 0 9 5 16 10 16 6 0 10 -4 10 -9z
m323 -20 c-2 -6 2 -11 7 -11 6 0 10 5 10 11 0 5 5 7 10 4 6 -3 10 -1 10 4 0 6
6 11 13 11 6 0 -4 -14 -23 -30 -19 -17 -43 -28 -52 -26 -10 2 -21 0 -24 -6 -4
-6 -22 -16 -40 -24 -19 -8 -34 -19 -34 -25 0 -6 -6 -9 -12 -7 -7 3 -19 -1 -26
-9 -7 -7 -18 -13 -23 -13 -15 0 -10 27 7 34 8 3 13 10 10 14 -3 5 18 14 46 22
29 7 57 17 62 22 6 5 20 15 31 23 l20 15 -20 -6 c-16 -5 -17 -4 -5 5 18 13 36
8 33 -8z m-259 -6 c-4 -9 0 -15 10 -15 25 0 19 -17 -9 -22 -25 -5 -30 10 -12
40 11 17 18 15 11 -3z m-414 -135 c63 -18 70 -30 18 -30 -27 0 -48 4 -48 9 0
5 -9 7 -20 4 -11 -3 -20 0 -20 6 0 5 -6 8 -14 5 -7 -3 -16 1 -19 9 -6 16 39
14 103 -3z m365 0 c-3 -5 -15 -10 -26 -10 -10 0 -19 5 -19 10 0 6 12 10 26 10
14 0 23 -4 19 -10z m-55 -24 c0 -2 -7 -7 -16 -10 -8 -3 -12 -2 -9 4 6 10 25
14 25 6z"/>
<path d="M4002 9345 c2 -21 4 -23 16 -11 8 8 11 19 8 25 -13 20 -26 12 -24
-14z"/>
<path d="M3850 9285 c-5 -139 -18 -254 -32 -282 -9 -18 -13 -33 -8 -33 5 0 11
9 15 19 3 10 15 21 26 24 12 3 18 10 15 16 -3 5 1 16 9 24 17 18 19 39 6 53
-13 13 -21 123 -10 130 14 8 11 38 -6 60 -14 18 -14 18 -15 -11z"/>
<path d="M3885 9300 c3 -5 16 -15 28 -21 l22 -11 -22 21 c-23 22 -39 28 -28
11z"/>
<path d="M3915 9150 c-4 -12 -5 -24 -2 -27 3 -2 8 5 12 17 4 12 5 24 2 27 -3
2 -8 -5 -12 -17z"/>
<path d="M3916 9082 c-13 -12 -5 -22 19 -22 14 0 25 4 25 9 0 10 -36 21 -44
13z"/>
<path d="M6474 9058 c-22 -10 -22 -10 -2 -30 14 -14 27 -18 44 -14 l24 6 -22
25 c-12 14 -22 25 -22 24 -1 0 -11 -5 -22 -11z"/>
<path d="M5380 9036 c0 -2 7 -7 16 -10 8 -3 12 -2 9 4 -6 10 -25 14 -25 6z"/>
<path d="M4809 9013 c-12 -16 -12 -17 2 -6 12 10 18 10 29 0 12 -10 12 -9 1 6
-7 9 -15 17 -16 17 -1 0 -9 -8 -16 -17z"/>
<path d="M3436 9004 c-9 -23 -8 -24 13 -24 25 0 38 20 20 31 -20 12 -26 11
-33 -7z"/>
<path d="M3950 8985 c0 -8 5 -15 10 -15 6 0 10 -4 10 -10 0 -5 -9 -10 -19 -10
-20 0 -35 -25 -25 -41 3 -5 12 -9 21 -9 9 0 13 3 10 6 -4 4 2 19 12 33 16 22
17 29 6 44 -15 21 -25 22 -25 2z"/>
<path d="M3477 8979 c-10 -6 -29 -8 -42 -5 -13 3 -26 2 -30 -4 -3 -5 -13 -6
-22 -3 -12 5 -14 3 -8 -7 6 -10 4 -12 -9 -7 -9 4 -15 3 -12 -2 3 -4 -5 -18
-19 -31 l-24 -22 21 -40 c19 -36 20 -50 14 -206 -4 -92 -7 -174 -7 -182 -1
-49 13 -816 16 -818 2 -2 19 11 40 29 41 36 70 88 80 139 11 64 12 579 0 583
-14 5 -13 261 2 360 7 47 18 86 29 98 9 10 15 21 13 23 -2 2 -33 18 -69 34
l-65 30 42 -3 c29 -2 50 -11 68 -29 25 -25 27 -25 56 -10 17 8 29 18 26 21 -3
2 -15 0 -26 -7 -14 -7 -21 -7 -21 0 0 5 5 10 10 10 6 0 10 5 10 10 0 6 -9 10
-20 10 -28 0 -25 20 3 21 21 0 21 1 2 9 -27 12 -37 11 -58 -1z"/>
<path d="M5223 8943 c-28 -19 -30 -43 -3 -43 13 0 22 9 26 25 8 33 4 36 -23
18z"/>
<path d="M6425 8949 c-11 -6 -37 -23 -57 -36 -35 -24 -36 -26 -23 -47 12 -18
14 -73 12 -306 -1 -157 0 -386 4 -510 5 -205 8 -230 29 -278 26 -61 86 -120
104 -102 8 8 12 158 13 518 2 559 5 679 16 703 11 21 -29 69 -56 69 -12 0 -31
-6 -42 -11z"/>
<path d="M3600 8936 c0 -2 7 -6 15 -10 8 -3 15 -1 15 4 0 6 -7 10 -15 10 -8 0
-15 -2 -15 -4z"/>
<path d="M3975 8929 c-11 -17 1 -21 15 -4 8 9 8 15 2 15 -6 0 -14 -5 -17 -11z"/>
<path d="M3887 8880 c-9 -11 -13 -20 -8 -20 11 0 35 29 29 35 -2 2 -12 -4 -21
-15z"/>
<path d="M3170 8840 c0 -13 18 -22 24 -11 3 5 -1 11 -9 15 -8 3 -15 1 -15 -4z"/>
<path d="M4647 8825 c-4 -8 -2 -17 3 -20 6 -4 10 3 10 14 0 25 -6 27 -13 6z"/>
<path d="M3820 8647 c0 -30 4 -46 10 -42 13 8 13 55 0 75 -7 11 -10 2 -10 -33z"/>
<path d="M3985 8650 c-3 -5 -1 -10 4 -10 6 0 11 5 11 10 0 6 -2 10 -4 10 -3 0
-8 -4 -11 -10z"/>
<path d="M6688 8609 c3 -31 0 -49 -7 -49 -6 0 -11 -4 -11 -10 0 -5 7 -7 15 -4
10 4 15 21 15 54 0 27 -3 51 -7 53 -5 3 -6 -17 -5 -44z"/>
<path d="M5312 8639 c2 -7 10 -15 17 -17 8 -3 12 1 9 9 -2 7 -10 15 -17 17 -8
3 -12 -1 -9 -9z"/>
<path d="M3929 8623 c-13 -16 -12 -17 4 -4 9 7 17 15 17 17 0 8 -8 3 -21 -13z"/>
<path d="M5200 8631 c0 -6 5 -13 11 -17 6 -3 8 -17 4 -32 -4 -16 -1 -28 7 -33
19 -13 28 -11 22 4 -2 7 4 21 15 32 18 15 23 16 38 4 15 -12 16 -12 10 4 -4
10 -7 25 -7 33 0 17 -37 19 -43 2 -3 -10 -9 -10 -26 0 -25 14 -31 15 -31 3z"/>
<path d="M6682 8448 c-1 -35 2 -90 7 -123 8 -54 9 -48 10 63 0 67 -3 122 -7
122 -5 0 -9 -28 -10 -62z"/>
<path d="M5676 8403 c-3 -10 -1 -43 3 -73 l9 -55 1 73 c1 71 -3 88 -13 55z"/>
<path d="M841 9373 c0 -70 3 -101 9 -88 5 11 9 15 9 8 1 -12 55 -43 77 -43 6
0 17 15 23 33 8 21 14 28 19 19 6 -9 16 -4 36 17 l28 29 -46 27 c-25 15 -51
23 -57 19 -7 -4 -9 -3 -6 3 4 6 -10 23 -31 39 -20 15 -38 32 -40 36 -2 4 -8 8
-13 8 -5 0 -9 -48 -8 -107z"/>
<path d="M968 9267 c-12 -29 -10 -73 3 -60 6 6 9 26 7 44 -2 26 -5 30 -10 16z"/>
<path d="M871 9204 c0 -11 3 -14 6 -6 3 7 2 16 -1 19 -3 4 -6 -2 -5 -13z"/>
<path d="M982 9160 c0 -14 2 -19 5 -12 2 6 2 18 0 25 -3 6 -5 1 -5 -13z"/>
<path d="M980 9066 c0 -8 5 -18 10 -21 6 -3 10 1 10 9 0 8 -4 18 -10 21 -5 3
-10 -1 -10 -9z"/>
<path d="M1110 8916 c0 -2 7 -7 16 -10 8 -3 12 -2 9 4 -6 10 -25 14 -25 6z"/>
<path d="M1195 8819 c-4 -6 -5 -12 -2 -15 2 -3 7 2 10 11 7 17 1 20 -8 4z"/>
<path d="M1167 8533 c-6 -30 1 -53 14 -53 5 0 9 18 9 40 0 45 -15 54 -23 13z"/>
<path d="M1662 8420 c0 -14 2 -19 5 -12 2 6 2 18 0 25 -3 6 -5 1 -5 -13z"/>
<path d="M7864 9033 c2 -9 8 -19 15 -21 10 -3 10 0 2 17 -14 25 -20 27 -17 4z"/>
<path d="M7243 8983 c-14 -5 -18 -63 -5 -63 17 0 21 13 11 31 -8 16 -6 21 13
29 13 5 16 9 8 9 -8 -1 -21 -3 -27 -6z"/>
<path d="M7869 8976 c14 -8 32 -11 40 -8 12 5 10 8 -9 13 -42 12 -56 9 -31 -5z"/>
<path d="M7235 8900 c-3 -5 -1 -10 4 -10 6 0 11 5 11 10 0 6 -2 10 -4 10 -3 0
-8 -4 -11 -10z"/>
<path d="M6921 8834 c0 -11 3 -14 6 -6 3 7 2 16 -1 19 -3 4 -6 -2 -5 -13z"/>
<path d="M7230 8830 c0 -5 5 -10 10 -10 6 0 10 5 10 10 0 6 -4 10 -10 10 -5 0
-10 -4 -10 -10z"/>
<path d="M6920 8801 c0 -6 5 -13 10 -16 6 -3 10 1 10 9 0 9 -4 16 -10 16 -5 0
-10 -4 -10 -9z"/>
<path d="M6890 8776 c0 -9 5 -16 10 -16 6 0 10 4 10 9 0 6 -4 13 -10 16 -5 3
-10 -1 -10 -9z"/>
<path d="M6880 8731 c0 -14 5 -19 15 -14 17 6 15 25 -3 31 -7 2 -12 -5 -12
-17z"/>
<path d="M7013 8695 c0 -22 2 -30 4 -17 2 12 2 30 0 40 -3 9 -5 -1 -4 -23z"/>
<path d="M7031 8333 c1 -34 2 -35 9 -13 11 36 11 50 0 50 -5 0 -10 -17 -9 -37z"/>
<path d="M2130 8980 c0 -6 7 -10 15 -10 8 0 15 2 15 4 0 2 -7 6 -15 10 -8 3
-15 1 -15 -4z"/>
<path d="M1889 8953 c-13 -16 -12 -17 4 -4 9 7 17 15 17 17 0 8 -8 3 -21 -13z"/>
<path d="M2170 8962 c0 -6 9 -12 20 -15 11 -3 20 -3 20 -1 0 2 -9 8 -20 14
-11 6 -20 7 -20 2z"/>
<path d="M2291 8907 c2 -1 13 -9 24 -17 19 -14 19 -14 6 3 -7 9 -18 17 -24 17
-6 0 -8 -1 -6 -3z"/>
<path d="M2076 8525 c-15 -19 -39 -61 -54 -93 -24 -51 -27 -71 -30 -197 -2
-77 1 -183 7 -235 7 -61 7 -98 1 -104 -28 -28 12 -140 73 -203 53 -57 57 -50
59 120 3 196 3 211 -6 280 -9 72 -19 66 -27 -16 -5 -56 -6 -53 -7 35 -1 62 2
99 9 104 7 4 9 24 6 52 -3 25 -1 57 5 71 5 15 12 70 14 124 6 111 -4 123 -50
62z"/>
<path d="M2618 8543 c7 -3 16 -2 19 1 4 3 -2 6 -13 5 -11 0 -14 -3 -6 -6z"/>
<path d="M2675 8539 c-4 -6 -5 -12 -2 -15 2 -3 7 2 10 11 7 17 1 20 -8 4z"/>
<path d="M2811 8609 c-1 -19 5 -28 19 -32 11 -3 20 -1 20 4 0 5 -4 9 -8 9 -5
0 -14 10 -20 23 -11 22 -11 22 -11 -4z"/>
<path d="M2850 8611 c0 -9 31 -31 44 -31 3 0 6 7 6 15 0 8 -4 15 -9 15 -5 0
-16 3 -25 6 -9 3 -16 1 -16 -5z"/>
<path d="M1822 8720 c0 -14 2 -19 5 -12 2 6 2 18 0 25 -3 6 -5 1 -5 -13z"/>
<path d="M5235 6880 c-16 -6 -14 -8 13 -7 17 0 32 4 32 9 0 10 -18 9 -45 -2z"/>
<path d="M5072 6818 c-19 -19 -14 -33 6 -16 9 9 24 18 32 21 11 4 9 6 -5 6
-12 1 -26 -4 -33 -11z"/>
<path d="M4992 6768 c-15 -15 -16 -28 -2 -28 6 0 10 6 10 14 0 8 6 17 13 19 6
3 7 6 2 6 -6 1 -16 -4 -23 -11z"/>
<path d="M4895 6750 c-3 -5 -1 -10 4 -10 6 0 11 5 11 10 0 6 -2 10 -4 10 -3 0
-8 -4 -11 -10z"/>
<path d="M4450 6095 c0 -8 9 -15 20 -15 11 0 20 2 20 5 0 2 -9 9 -20 15 -16 9
-20 8 -20 -5z"/>
<path d="M5680 5940 c0 -4 11 -12 23 -17 18 -9 24 -8 24 2 0 7 -11 15 -24 18
-12 2 -23 1 -23 -3z"/>
<path d="M5480 5562 c0 -6 9 -12 20 -15 11 -3 20 -3 20 -1 0 2 -9 8 -20 14
-11 6 -20 7 -20 2z"/>
<path d="M5550 5500 c0 -5 5 -10 11 -10 5 0 7 5 4 10 -3 6 -8 10 -11 10 -2 0
-4 -4 -4 -10z"/>
<path d="M5460 5325 c0 -8 4 -15 9 -15 5 0 11 7 15 15 3 9 0 15 -9 15 -8 0
-15 -7 -15 -15z"/>
<path d="M5450 5080 c-11 -7 -12 -12 -4 -20 8 -8 14 -7 23 4 14 17 1 28 -19
16z"/>
<path d="M4816 5152 c-3 -6 -1 -14 5 -17 14 -9 20 -2 10 14 -6 8 -11 9 -15 3z"/>
<path d="M4640 5125 c0 -8 4 -15 10 -15 5 0 7 7 4 15 -4 8 -8 15 -10 15 -2 0
-4 -7 -4 -15z"/>
<path d="M4858 5103 c5 -27 32 -45 51 -34 23 14 8 45 -25 51 -28 6 -30 5 -26
-17z"/>
<path d="M4665 5090 c3 -5 8 -10 11 -10 2 0 4 5 4 10 0 6 -5 10 -11 10 -5 0
-7 -4 -4 -10z"/>
<path d="M5010 5095 c0 -2 9 -9 20 -15 16 -9 20 -8 20 5 0 8 -9 15 -20 15 -11
0 -20 -2 -20 -5z"/>
<path d="M4745 5049 c-9 -13 26 -40 40 -31 5 4 2 8 -8 10 -11 2 -16 9 -13 18
6 16 -10 19 -19 3z"/>
<path d="M5010 5019 c0 -5 5 -7 10 -4 6 3 10 8 10 11 0 2 -4 4 -10 4 -5 0 -10
-5 -10 -11z"/>
<path d="M5061 3974 c0 -11 3 -14 6 -6 3 7 2 16 -1 19 -3 4 -6 -2 -5 -13z"/>
<path d="M5200 3523 c0 -10 5 -25 10 -33 8 -12 10 -9 10 12 0 15 -4 30 -10 33
-5 3 -10 -2 -10 -12z"/>
<path d="M6006 1867 c3 -10 9 -15 12 -12 3 3 0 11 -7 18 -10 9 -11 8 -5 -6z"/>
<path d="M5857 1794 c6 -16 19 -18 27 -5 3 5 -3 11 -13 14 -14 3 -18 1 -14 -9z"/>
</g>
</svg>
