<?xml version="1.0" encoding="utf-8"?>
<!-- Generator: Adobe Illustrator 17.1.0, SVG Export Plug-In . SVG Version: 6.00 Build 0)  -->
<!DOCTYPE svg PUBLIC "-//W3C//DTD SVG 1.1//EN" "http://www.w3.org/Graphics/SVG/1.1/DTD/svg11.dtd">
<svg version="1.1" id="Слой_1" xmlns="http://www.w3.org/2000/svg" xmlns:xlink="http://www.w3.org/1999/xlink" x="0px" y="0px"
	 viewBox="0 0 1920 1080" enable-background="new 0 0 1920 1080" xml:space="preserve">
<path fill="#D5C3B8" d="M131.3,654.5c-14.4,17.7-32.1,7.3-48.7,5.7c-3.3-2.4-7.1-3.4-11.1-3.1c3.9-0.2,7.6,0.4,10.7,3.2
	c-21.6,8.5-44.4-2.3-66.2,3.7c-3.8,1-8.9-0.6-9.9-5.5c-1.1-5.1,3-7.4,7.2-8.3c18.6-3.8,22.1-17.2,21.9-33.3
	c-0.1-4.9-0.7-10.9,4.4-13.5c17-9,5.8-18.6,1.1-28.1c-4.4-23-0.9-46.3-2-69.4c-0.2-2.8,0.4-5.4,1.7-7.9c3.4-2.3,7.1-2.8,11.1-2.2
	c7,0.7,14,1,21-0.3c17.6-7.4,21,2.4,18.4,16.4c-1.8,9.7-6.1,18.8-1.2,28.6c0.2,1.1,0.4,2.3,0.7,3.4c0.3,2.3,0.2,4.6,0,6.9
	c-2.8,8.3-2.7,17.4-7.1,25.3c-1.2,2.1-2.2,4.2-2,6.7c2.1-1.5,0.8-4.4,2.5-6.3c4.4-4.7,2.8-16.9,14.8-12c5,5.3,5.1,12,5.3,18.7
	c1.5,14.1-2.3,28.1-1.5,42.1c0.7,2.2,1.1,4.4,1.3,6.7c-1.5,4.7-8.9,9.2-0.5,14.3c3.7,4.1,9.5,4.5,13.6,7.8
	C121.4,656.4,126.4,656.9,131.3,654.5z"/>
<path fill="#D9CABF" d="M1568.3,493.6c10.8,15.9,25.9,27.5,39.6,40.4c6.6,4,12,9.6,17.8,14.6c2.5,1.3,4.9,2.8,7.7,1.3
	c6.1-9.9-2-18.3-2.5-27.5c0.4-20.4-2.4-40.9,1.6-61.2c0.6-1.5,0.9-3.5,2.1-4.4c7.8-6.1,8.5-23.5,22-18.8c12,4.2,8.4,17.9,7.9,28.4
	c-3.9,10.8-5.4,21.6-0.4,32.5c1.3,9,2,18,4,27c0.2,2.8-0.2,5.6-0.9,8.3c-3.3,24.6-0.6,49.3-1.6,74c-0.5,11.7-0.4,23.9-16.5,25.5
	c-4.4,0-8.3-1.4-11.8-4.2c-4.2-3.6-6.7-8.1-7.2-13.7c-0.5-6.2,5-9.7,6.9-15.1c-6.5-0.4-12.3,3.6-18.7,2.3
	c-9.1-1.5-13.1-9.6-19.5-14.6c-13.5-16.1-29.9-29.6-42-46.9c-7.5-13.5-26.7-20.9-21.4-41.1C1544.3,488.7,1556.1,490,1568.3,493.6z"
	/>
<path fill="#D4C2B8" d="M1458.3,664.7c0.2,1.7,0.5,3.4,0.7,5.1c1.3,5.2,0.5,9.7-3.7,13.4c-4.2,2.9-8.9,4-14,3.6
	c-6.8-1.6-8.9-7-10.6-12.9c-0.5-4.5-2-8.7-4-12.7c-1.8-4.3-3.1-8.7-3-13.5c0.4-3.7,1-7.3,1-11c0.2-14.5,0-29,0-43.5
	c0.1-35.6-1.1-71.2-2.5-106.7c-0.4-10,1.8-19.8,8.8-27.9c7.2-2.5,10.8,1.5,13.4,7.4c0.9,24.7,0,49.5,0.3,67.2
	c4-33.6-4.1-73.7-4.9-114.2c-0.1-5.8-0.2-11.7,0.3-17.5c0.7-8.3,0.9-18.5,11.6-19.1c11.1-0.6,11.8,9.6,12.6,17.9
	c0.7,6.6,0.4,13.3,0.4,20c0,58.1,0,116.2,0,174.2c0.3,14.4-1.2,28.8,2,43.1C1464.9,646.9,1466.3,657.2,1458.3,664.7z"/>
<path fill="#D2BEB3" d="M210.9,508.8c2.9-5.6,3.8-12.6,10.6-15.6c8.6,0.5,13.8,7.1,20.5,11.2c8.7,5.3,20.5,7,23,19.6
	c-0.7,15.6-10.3,30.5-3.3,46.6c1.9,4.8,2.4,10.3,6.7,13.9c4.5,6.4,11.7,8,18.6,10c4.1,1.5,7.9,3.5,11.3,6.1c2.5,2,4.4,4.5,5.7,7.3
	c3.9,7.6,10.5,3.3,16.1,3.5c15.7-4.9,30.6-2.4,45.1,4.4c2.5,1.8,3.5,4.2,3,7.3c-24.3,14.9-50.4,8.4-76.1,6.6
	c-30.2-4.1-54.7-16.2-66.3-46.9c-1.9-5-6.6-9-10.1-13.5c-4.9-6.9-10.2-13.7-10.9-22.7C202.8,533.4,207,521.2,210.9,508.8z"/>
<path fill="#D8C7BC" d="M1568.3,493.6c-8.9,7.5-22.6,1.5-30.8,10.8c-4.4,2.8-9.3,0.9-13.9,1.8c-7.4,6.9-2.1,15.7-3.6,23.5
	c1.2,24.9-2.4,49.9,2.3,74.6c2.8,6.1,7.2,11.6,6.3,18.9c-14.8,13-30.4,10.4-46.3,2.4c-1.8-2.2-2.8-4.7-3.1-7.5
	c-0.2-4,0.8-7.8,2.4-11.5c5.1-10.6,4-21.6,2.1-32.7c-2.9-10.3-4.7-20.3,5.9-27.6c11.7-2.9,15,2.4,13.5,10.1c0.3-9-0.9-21.2,1.8-30.7
	c-0.6,6.8-0.9,16.5-14.8,12.5c-2.7-3.1-4-6.8-4.5-10.8c-0.8-11.3-0.4-22.6-0.5-33.8c0-11.6,0-23.2,0-34.8
	c2.5-13.3-6.3-31.9,16.8-35.3C1524.1,447,1546.2,470.3,1568.3,493.6z"/>
<path fill="#D6C7BD" d="M1768.7,428c-23.4,20-37.5,45.1-40.6,76c-1.9,2.9-2.7,6.2-3.8,9.5c-2.4,10,2.2,20.8-3.9,30.3
	c-12.2-10.3-27.1,6.5-39.4-3.9c-4.3-4.9-6.2-10.9-8.4-16.8c-3.8-19.1,0.8-36.6,9.6-53.5c2.7-5.6,6.5-10.3,11.3-14.2
	c12-3.9,8.6-15.5,11.7-23.8c2.3-4.3,6-6.4,10.8-6.8c6.3-0.3,13,4,18.5-2.3c4.6-5.1,8.8-10.7,15.9-12.4
	C1762.3,410.1,1770,414.4,1768.7,428z"/>
<path fill="#D4C3B8" d="M895.1,594.4c-1.7,0.3-3.4,0.5-5.2,0.8c-12.4-0.3-26.1,8.5-36.7-5.1c9.4-11.1,8.4-24.5,9.1-37.9
	c1.3-25.7-4.5-51.8,3.5-77.1c6-8.6,15.9-5.2,23.9-7.8c4.7,0.2,7.6,2.8,9.5,6.8c1,13.9-5.5,28.4,3.3,41.7c6.8,12.6,18.8,6.5,28.7,8.1
	c10,1.6,21.5-5.3,30,5.3c0.6,2.9-0.2,5.4-2.4,7.5c-7.1,5.7-15.3,5.1-23.6,4.4c-36.1-3.2-38.6-0.7-35.8,37.2
	C900,584.4,898.8,589.6,895.1,594.4z"/>
<path fill="#D6C6BB" d="M1729.1,574c5.3,22.5,22,37.8,34.6,55.7c-0.8,5.6-7.3,23-9.2,24.4c-29-8.7-56.4-19.4-64.2-53.5
	c2.4-6.4,7.5-9.4,13.7-10.8c4.2-0.9,7.8-2.7,9.8-6.9C1717.6,577.6,1720.1,570.2,1729.1,574z"/>
<path fill="#D5C4B9" d="M156.4,514.4c14.7,3.4,32-17.7,44.7,4.6c-2,8.8-2.1,17.9-4.8,26.5c-3.1,10.2-7.7,18.5-20.8,14.3
	c-3-3.6-5.9-7.3-8.9-10.9c-2.7-2.2-6-1.7-9.1-2.4c-4.4-0.9-8.7-2.3-12.9-4c-12.3-2.5-24.8-0.7-37.1-1.4c-8.1-0.5-18.1,0.8-21.4-8.5
	c-2.8-7.9-0.3-16.3,8.2-21c2.7-0.4,5,0.2,7.2,1.8l-0.3,0.5C119.6,518,138,517.5,156.4,514.4z"/>
<path fill="#D2BFB4" d="M512.8,645.2c5.8,5.3,12.2,9.3,20.6,8.9c4.1,8.4,0.6,13.5-7.9,12.7c-34.2-3.3-68.7,4-102.8-2.2
	c-6.2-3.2-4.9-8.9-4.7-14.2c9.2-1.2,19.5,0.1,24-11.1c0.8-0.9,1.5-1.8,2.3-2.8c3-2.2,6.3-3.4,9.9-3.9c5.6-1.1,12.9,0.2,16.5-3.1
	c18.9-17.3,28.5-4.5,37.9,10.5C510.2,641.5,511.6,643.3,512.8,645.2z"/>
<path fill="#7F5432" d="M855.2,590.5c10.7,8.3,23.5,1.3,34.8,4.8c-29.9,2-33,20.5-31.4,45.8c2.3,36.2,0.9,72.6,1.1,108.9
	c-5.7,1-8.2-2.7-10.3-6.9c-4-17.8-1.3-35.8-2.2-53.8c3.1-30-4.7-59.3-5-89.1c0-18.4,0-36.9,0-55.3c-0.5-9.7,1.5-19.7-2-29.2
	c-1.7-3-4-5.8-5.7-8.8c-1.7-3.2-2.4-6.6-1.4-10.2c5.9-9.5,3.3-21,7-31.1c4.2-12.7,0.5-26.2,3.6-39c2.6-5,4.6-11.1,12.4-7.4
	c2.5,14.7-0.2,29.6,1.6,44.4c1.8,4.3,3.8,8.5,4,13.3c0.9,29.2,0.1,58.5,0.5,87.7C862.4,574,861.2,582.8,855.2,590.5z"/>
<path fill="#D8C8BE" d="M1859.1,404c12.9,2.1,25.4,4.9,30.2,19.5c-1.2,10.6,3.9,22.8-7.7,30.8c-7,2.7-11.3-1.6-15.5-5.9
	c-5.2-5.5-8.5-12.9-16.3-15.8c-12.1-3.7-23.5-10.1-36.7-10c-7.5-2.7-14-6.7-17.1-14.6c-0.9-4.1-0.3-7.8,2.3-11.2
	c7-5,14.9-3,22.5-3.1c3.7,0.4,7.1,1.7,10.2,3.8C1839.3,404.1,1848.3,407.9,1859.1,404z"/>
<path fill="#6F4E56" d="M1834.1,639.4c8.4-20.8,3.6-42.2,2.5-63.3c-0.5-9.8-7.9-15-17.5-18.4c-9.8-3.4-16.4-9.4,0.5-13
	c8.6,6.6,19.2,3.1,28.6,5.9c13.5,7.8,16.4,20.4,16.1,34.6c-5.7,17,0.1,35.2-5.2,52.3c-3.5,6.7-8.7,10.6-16.6,10
	C1838.3,646.2,1835.4,643.6,1834.1,639.4z"/>
<path fill="#663F25" d="M950.9,258.2c43.3-1.5,86.6-2.1,129.9,0.4c1.2,3,0.5,5.4-2.1,7.3c-14.3,7.4-29.7,2.9-44.5,4.2
	c-5.1,0-10.2,0-15.3,0.4c-6,1.2-11.9,3-18.1,2.1c-11.2-3.3-22.8-2.4-34-3.8c0.3,1.5,0.8,2.8,1.7,3.9c4.6,5.4,10.9,8.4,16.3,12.5
	c7.2,8.9,22.5,13.2,17,29.4c-4.7,5.7-10,8.3-16.7,3.3c-7.8-10.1-17.7-17-30.2-20C942.8,285.9,946.3,272.1,950.9,258.2z"/>
<path fill="#DDCEC5" d="M1136.4,399.7c8.2-0.5,16.4-1,24.6-1.5c21.7-3.7,43.5-3.8,65.2,0c3.4-0.1,6.7-0.1,10.1-0.2
	c0.9,1.2,2,1.5,3.4,0.9c9.9,9.5-1.6,12-5.8,16.4c-4.9,5-14.9,3.9-16.2,13.4c-9.3,7-21.1,3-23.9-3.5c-7.7-18-18.5-7.2-28.5-5.8
	c-3.9,0.8-7.7,0.9-11.7,0.9C1142.8,417.8,1130.7,416.2,1136.4,399.7z"/>
<path fill="#744628" d="M680.1,258.1c54.9,0.2,109.8,0.4,164.7,0.7c1.2,2.6,0.7,4.9-1.4,6.8c-2,1.6-4.2,2.7-6.7,3.4
	c-11,1.9-22.1,0.6-33.1,1.5c-10.7,2.7-21.6,3-32.5,1.5c-12.1-3.2-24.4-1.2-36.6-1.8c-7.1,0-14.3,0-21.4-0.1c-4.9,0-9.7-0.4-14.4-0.1
	c-0.5,1.5-0.2,2.7,1.2,3.6c5.6,4.7,11.6,8.9,15.2,15.4c2.6,6.5,3.8,12.6-3.5,17C679.1,301.7,671.7,290.3,680.1,258.1z"/>
<path fill="#754C2E" d="M900.2,805.4c-4.9,8.4-13.2,5.6-20.3,5.6c-60,0.2-120-0.2-180,0.2c-21.4,0.1-27.5-7.7-16.9-26.9
	c3.8,0.7,7.5,1.3,10.8,3.5c15.6,8.9,33.3,1.3,49.4,6.6c30.1,6.9,60.6,1.9,90.9,3.4c18,0.4,36.1-0.9,54.1,1
	C893.1,799.7,896.7,802.5,900.2,805.4z"/>
<path fill="#6A442C" d="M985.2,318c5-1.7,10.1-3.3,15.1-5c3-1.6,5.5-1.2,7.8,1.4c7,10.9,4.9,22.5,2.9,34.2c-6.1,21-2,42.4-3.2,63.7
	c0,8.4,0,16.9,0,25.3c-0.8,11,2,22.6-4.1,32.9c-1.9,2.3-4.3,3.4-7.3,3.2c-3.5-3.3-4.1-6.9-1.2-10.9c-1.4-38.6-3-77.3-4.2-115.9
	C990.5,336.8,989,327.3,985.2,318z"/>
<path fill="#D1BFB4" d="M1422.6,694.7c4.5-7.8-8.5-12.1-4-19.9c3.3-10.1,9.7-11.1,18.1-6.2c0.6,5.8,0.2,11.9,5.6,16
	c1,0.8,2,1.6,3,2.4c8.5,11.7,0.5,25.1,3.8,37.3c0.8,3.7,1.4,7.4-2,10.3l0-0.1c-4.9,4.3,1.1,13.6-7.6,16.1
	c-7.7-3.3-2.8-11.7-6.4-16.7l0.1,0.1c-8.7-5.1-0.5-14.6-5.4-20.7C1426,707.2,1424.3,700.9,1422.6,694.7z"/>
<path fill="#D5C4B8" d="M1708.4,594.3c-5.1,1.7-10.3,3.4-15.4,5.2c-2.7,1.5-5,1-7-1.4c-3.1-4.9-3.4-10.3-2.1-15.8
	c5.8-18.5,16.7-28.8,37.5-23.1c2.4,1.4,4.6,3.1,6.6,5c0.4,3.3,0.7,6.5,1.1,9.8c-6.7,2.9-10.3,7.9-10.6,15.3
	C1716.4,593.5,1712.6,594.2,1708.4,594.3z"/>
<path fill="#825A42" d="M1813.8,417.8c13.9,1.5,27.8,3.3,40.8,8.8c1.6,3.9,7.1,7.1,3.2,12c-2.8,3.5-6.9,2.7-10.5,0.7
	c-22.9-13.7-47.9-13-73.2-10.9C1782.3,406,1798.6,414,1813.8,417.8z"/>
<path fill="#633B1F" d="M900.7,267.3c13.7,31.1-13.4,32.7-30.2,41.7c-5.6-1.4-8.4-5.2-9.2-10.7c0.6-10.9,6.2-18.5,15.3-23.9
	c3.1-1.4,6.4-2.1,9.7-2.6C891.4,271.5,895.7,268.2,900.7,267.3z"/>
<path fill="#7E4A22" d="M854.8,464.2c-0.2-15.5-0.5-31-0.7-46.4c-9.9-9-5.9-21.1-6.7-32c-0.6-8.8,0.8-17.9-3.4-26.2
	c-2.9-4.8-4.3-9.9-3.4-15.5c1-4.1,3.4-7.2,7.4-8.9c4.1-0.9,7.8-0.1,10.9,3c0.2,41.6,0.3,83.3,0.5,124.9
	C858.2,465.1,856.7,465.5,854.8,464.2z"/>
<path fill="#A67847" d="M1080.7,261.7c0.1-1,0.2-2,0.1-3c29.9,0.2,59.8,0.4,89.6,0.6c-0.2,1.3,0.2,2.5,1,3.5
	c3.5,5.7,1.6,11.9,1.8,17.9c-1.5,3.8-4.6,5-8.3,5.3c-2.3-0.3-4.3-1.1-6.2-2.4c-1.7-1.4-3.1-3-4.4-4.7c-3.5-4.6-9.1-5.1-13.9-7.2
	c-9.6-2.7-19.3-1.1-29-1.5C1100.7,269,1088.5,273.3,1080.7,261.7z"/>
<path fill="#D3C3B8" d="M1813.8,417.8c-13.5,2.6-28.1,1.3-39.8,10.7c-1.8-0.2-3.6-0.3-5.4-0.5c-4.6-7.6-10.2-13.9-19.9-14.5
	c4.7-7.6,13.2-6.7,20.3-9c9.6,3.9,21-5.9,29.8,4C1803.9,411.5,1808.8,414.7,1813.8,417.8z"/>
<path fill="#745353" d="M1869.6,442.8c2.9,4.1,5.8,8.2,8.7,12.3c9.2,4,9.2,13.1,11.7,20.9c-18.6,16.3-25.5,12.5-31.4-17
	C1859.3,451.5,1860.7,444.6,1869.6,442.8z"/>
<path fill="#E3D3C9" d="M1890,475.9c-12.6-2.1-11.1-12.1-11.7-20.9c8.2-8.9,2.4-22.7,11-31.5C1895.9,440.9,1895.6,458.4,1890,475.9z
	"/>
<path fill="#D6C6BB" d="M1768.8,630.1c11.6-1.4,18,13,30.2,10c2.8,1.7,6.1,2.8,8.5,5.2c2.8,3.8,4.5,7.9,3,12.7
	c-3.3,4.5-7.3,4.9-11.8,2l0,0.1c-8.1-6.3-17.6-1.4-26.2-3.1c-2.4-0.3-4.2-1.5-5.4-3.6C1769.8,645.7,1763.2,637.5,1768.8,630.1z"/>
<path fill="#CBB6AA" d="M1240.3,662.8c-1.6-0.2-2.9,0.3-3.9,1.6c-30.9,6.1-62.2,1.3-93.2,2.5c-7,0.3-10.3-4-10.7-10.7
	c0.2-2.9,1.4-5.5,3.4-7.6c10.7-2.1,20.5,6.8,31.5,2.6c6.8-0.5,13.5-0.6,20.3,0.3c12.4,1.9,25.1-1.2,37.3,2.8
	c5.6,0.5,11.4,0.4,15.7,5C1240.5,660.5,1240.4,661.6,1240.3,662.8z"/>
<path fill="#D3C3B9" d="M1497,377.2c-11.8,5.3-21.7-11.1-33.8-3.1c-19.8-18.5,8.7-9.1,9.2-15.9
	C1484.8,359.1,1498.6,358.2,1497,377.2z"/>
<path fill="#A08678" d="M202.5,529.4c-3,15.5-0.5,35.2-25.6,34.1c-0.7-1.1-1.1-2.3-1.3-3.6c10.4-3.5,14.4-11.4,15.9-21.8
	c1-7.2-2.5-17.3,9.7-19c0,0,0.5-1.3,0.5-1.3l1.3,0.3C205.2,522,205,525.7,202.5,529.4z"/>
<path fill="#A57544" d="M900.7,267.3c-4.2,3,3,19.3-11.7,10.2c-2.1-2.3-4.2-4.6-7-6.2c-9.6-2.6-19.7-0.1-29.3-2.8
	c-3.4-1.3-6.3-3.2-7.6-6.7c0-1-0.1-2-0.2-3c13.8-0.2,27.7-0.3,41.5-0.6C893.1,258.1,899.6,258.4,900.7,267.3z"/>
<path fill="#E6DBD2" d="M1472.4,358.1c4.9,9.9-19.9,2.6-9.2,15.9c0,0,0.1,0.1,0.1,0.1c-6.1,3.7-12,7.9-19.8,6.3
	c-7.5-6.7-5.7-15.4-4.9-23.9c2.7-5.9,5.8-11.3,13.8-8.4c2.3,2.5-0.4,7.9,5,8.6C1462.4,357.2,1467.4,357.6,1472.4,358.1z"/>
<path fill="#D3C2B7" d="M1536.4,620.1c3.2,7.6,0,10.5-7.5,10.3c-18.8-0.5-37.6-0.9-56.4-1.3c-3-3.1-2.9-6.1,0.3-9l-0.8-1.9
	c3.1-2.6,6.4-2.5,9.8-0.5c14.6,11.4,30.1,8,45.8,2.7c1.8-0.4,3.5-0.8,5.3-1.3C1533.7,620.3,1535,620.6,1536.4,620.1z"/>
<path fill="#785448" d="M1869.6,442.8c-3.7,5.4-7.4,10.8-11,16.2c-3.8-6.5-7.6-13.1-11.3-19.6c9.2-0.3,9.4-5.9,7.4-12.7
	C1862.1,429.7,1866.7,435.5,1869.6,442.8z"/>
<path fill="#8A7B73" d="M854.8,464.2c1.5-0.1,3-0.5,4.5-1.1c16.3,4.5,35.7-8.2,49.6,9.2c-4.4,0.8-8.8,1.6-13.1,2.4
	c-2.1-1.9-4.2-3.7-6.2-5.6c-7.3,5-17.7-1.8-24.1,6.4c-3.8,1.4-7.3,1-10.1-2.1C855.1,470.4,855,467.3,854.8,464.2z"/>
<path fill="#885D37" d="M858.8,338.2c-3.1,0-6.1-0.1-9.2-0.1c-4.9-2-8.4-5.3-9.6-10.7c-1.2-7.9,1.1-15,5.2-21.7
	c2.4-3.1,5.5-5,9.5-5.3c16.4,6.6,1.6,19.3,5.5,28.3C859.8,331.9,859.3,335.1,858.8,338.2z"/>
<path fill="#E2D6CE" d="M1844.1,553.8c-9.6,0.8-19.2,1.4-24.5-9.3c18.2-3.2,36.4-2.4,54.6-0.4c1,2.6,0.5,4.9-1.4,6.9
	C1864,559.6,1853.6,551.8,1844.1,553.8z"/>
<path fill="#806B60" d="M995.1,462.8c-0.1,3.5-0.2,7-0.2,10.5c-0.8,0.9-1.7,1.8-2.5,2.6c-2.2,1-4.5,1.6-6.9,1.7
	c-10.5-0.6-20.9-2.2-31.5-3c-7.1-0.1-9.5-3.9-8.2-10.6C962.2,463.6,978.6,463.2,995.1,462.8z"/>
<path fill="#D6C4B9" d="M1768.8,630.1c2,8.3,13.8,16.7-0.3,24.8c-6.5,2.3-13.2,5.3-16.1-4.8c12-2.3,4.7-15.2,11.4-20.4
	C1765.4,629.8,1767.1,630,1768.8,630.1z"/>
<path fill="#E3D8D1" d="M101.6,634.3c1.2,0.8,2.4,1.4,3.8,1.8c0.4,2.8,0.7,5.6,1.1,8.3c-0.5,3-2.3,4.7-5.3,5.2
	c-9.5-1.3-16.4-5.5-17.9-15.8C89.8,628.4,95.6,635.5,101.6,634.3z"/>
<path fill="#D2C0B7" d="M1728,564.2c-1.5,0-3,0-4.5,0c-1.9-2.2-3.4-4.7-4.6-7.5c2.8-15.6,0.3-31.8,4.3-47.3c1.6-1.8,3.2-3.6,4.8-5.5
	C1728,524,1728,544.1,1728,564.2z"/>
<path fill="#CFB591" d="M860.3,763.6c8.4,5.4,16.7,10.8,25.1,16.1c-1.4,5.6-5.4,8.1-10.8,8.9c-5.4,0.1-10-1.7-14.1-5.1
	c-4-3.8-5.6-8.5-4.7-14C856.5,767.1,858,765.1,860.3,763.6z"/>
<path fill="#754827" d="M860.3,328.8c-9.1-7,2.5-18.7-5.8-25.9c-0.3-8.2,4.3-8,10-5.8c2,4,3.9,8,5.9,11.9
	C867.1,315.6,863.7,322.2,860.3,328.8z"/>
<path fill="#D6C6BC" d="M1487.3,423.4c1.3-1,1.9-2.3,2.1-3.9c4.1,1.6,10.3-3.1,12.5,4.1c-14.7,9-7.3,24.1-10.1,36.4
	C1475,449.7,1483.5,436.3,1487.3,423.4z"/>
<path fill="#966A43" d="M900.2,805.4c-3.4-0.2-6.8-0.4-10.3-0.6c-1.5-1.3-3-2.6-4.4-4c-2.7-3.3-3.6-7-2.6-11.1
	c1.5-3.6,4.4-6.2,6.6-9.4C908.4,782.2,899,796.1,900.2,805.4z"/>
<path fill="#E0D0C6" d="M1788.8,397.5c3.4,0.5,6.7,1.1,10.1,1.6c0,3.1,0,6.2,0,9.3c-10-1.1-20.6,3-29.8-4c3.3-2,6.6-4,9.9-6
	C1782.2,398.1,1785.5,397.8,1788.8,397.5z"/>
<path fill="#F1DAB0" d="M1142.7,775.9c5.9,1.8,11.9,3.7,17.8,5.5c1.8,1.4,3.7,2.8,5.5,4.1c2.3,5.7-1.6,8.3-5.6,10.8
	c-2.2,0.9-4.5,1.3-6.9,1.2c-3.6-0.8-6.6-2.6-9.2-5.1C1141.6,787.2,1131.8,782.6,1142.7,775.9z"/>
<path fill="#DED1C8" d="M1874.2,549c0-1.6,0-3.2,0-4.8c13.4,0.6,27.8-7.3,40,4.5c-2.9,2-5.8,4-8.7,6c-10,2.5-19.8,3.1-29.1-2.7
	C1875.7,551,1875,550,1874.2,549z"/>
<path fill="#BE9461" d="M860.3,763.6c-0.6,2.8-1.2,5.6-1.9,8.5c-14.2-2.8-18.5-12-16.5-25.4c1.2-2.4,3.2-3.8,5.8-4.3
	c2.7-0.1,4.9,0.9,6.6,2.9c1.8,1.5,3.5,3.1,5.3,4.6C859.9,754.5,860.1,759.1,860.3,763.6z"/>
<path fill="#D6C4B9" d="M1804.5,645c-1.8-1.6-3.7-3.3-5.5-4.9c11.7-0.9,23.5,3.2,35.1-0.7c1.9,1.5,3.8,3,5.7,4.5
	c-0.9,1.2-1.8,2.3-2.7,3.5C1825.8,653.8,1814.9,652.7,1804.5,645z"/>
<path fill="#986A3F" d="M1155.1,793.2c2.8-3.8,10.1-1.1,10.9-7.7c1.7-0.2,3.5-0.3,5.2-0.5c-0.3,6.6-0.5,13.2-0.8,19.8
	C1158.3,810.2,1156.1,802.4,1155.1,793.2z"/>
<path fill="#E2D4C9" d="M1859.1,404c-10,6.5-20,6.8-29.9-0.3c6.9-4.6,14.1-3.2,21.3-1C1853.4,403.2,1856.2,403.6,1859.1,404z"/>
<path fill="#DCD2CC" d="M101.2,649.6c1.8-1.7,3.5-3.4,5.3-5.2c5.2,1.5,9.7,3.6,10,10C111.2,653.3,103,661.6,101.2,649.6z"/>
<path fill="#DAC7A5" d="M889.5,780.3c5.7,7,4.5,10.8-5,10.5c-5.6,2.3-10.2,2.7-9.7-5.6c3.5-1.8,7.1-3.6,10.6-5.4
	C886.9,779.3,888.2,779.5,889.5,780.3z"/>
<path fill="#7E5748" d="M1638.7,639.2c-3.5-3.3-6.9-6.5-10.4-9.8c1.7-4.4,4.2-7,9.2-4.7c2.2,1.6,4.3,3.1,6.5,4.7
	c1.5,1.2,1.9,2.4,1.3,3.3c-0.6,0.9-1.2,1.4-1.8,1.4c-0.3,1.7-0.6,3.4-0.9,5.1c0,0-1.9-0.3-1.9-0.3L1638.7,639.2z"/>
<path fill="#D3C1B7" d="M1240.5,659.3c-4.8-0.2-9.6-0.4-14.4-0.6c-2.1-5.2,2.4-6.5,5.2-8.8c1.7-0.4,3.4-0.8,5.1-1.1
	C1238.4,652.1,1246.5,653,1240.5,659.3z"/>
<path fill="#CCBBB1" d="M1850.5,402.8c-7.1,0.3-14.2,0.6-21.3,1c-1.7-1.5-3.4-3.1-5.1-4.6c5-0.3,10-0.7,15.1-1
	C1842.9,399.6,1846.7,401.2,1850.5,402.8z"/>
<path fill="#8C6342" d="M688.8,779.6c3.5,1.8,6.9,3.6,10.4,5.5c0.8,7-3.1,7.7-8.5,6.5c-2.5-2.4-5-4.8-7.5-7.2
	C685,782.8,686.9,781.2,688.8,779.6z"/>
<path fill="#D4C4BA" d="M1899,564.1c0.3,6.7,0.5,13.4,0.8,20.1c-1.1,1.1-1.4,2.4-1,3.8l-2.3,0.3l-2.3-0.3
	c-7.5-6.8-6.9-14.4-2.5-22.5C1893.8,563.1,1896.2,562.7,1899,564.1z"/>
<path fill="#E0D3C8" d="M1452.4,348.2c-3.4,3.4-6.8,6.7-10.2,10.1c-6.4,1.8-8.2-2.5-9.7-7.2c-0.7-5.7-3.5-11-2.4-16.9
	c1.7-9.7,5.7-19.3,2-29.4c-1.8-6.6,0-11.7,6.2-15c5.2-1.6,9.8-0.6,13.6,3.4C1452,311.4,1452.2,329.8,1452.4,348.2z"/>
<path fill="#9D837E" d="M1457.2,262.8c-1.9,6.8-3.7,13.5-5.6,20.3c-4.6,5-10.3,3.6-16,3.1c-2.3-0.7-3.9-2.2-4.9-4.3
	c-3.7-9.3-15.9-17.9-2.5-28.8C1439.2,252.4,1446.8,261.8,1457.2,262.8z"/>
<path fill="#D3C3B9" d="M1437.1,347.9c1.7,3.5,3.5,6.9,5.2,10.4c4.3,6.5,4.7,13,0.2,19.6c2.3,4.2,0,6.4-3.5,8.1
	c-2.3,0.4-4.6,0.3-6.9-0.4c-4.2-2.3-6.9-6.1-9.6-9.9c-2.1-5.9-9.8-10.1-5.5-17.9c1.7-1.6,3.4-3.1,5.1-4.7c1.3,0,2.6-0.2,3.9-0.7
	C1429.8,351,1431.7,345.2,1437.1,347.9z"/>
<path fill="#D8CCC4" d="M1457.2,262.8c-13.9,9.4-23.1,4.8-28.9-9.7C1446.2,238.6,1447.9,239.2,1457.2,262.8z"/>
<path fill="#9D837E" d="M1437.1,347.9c-3.7,1.5-7.4,3-11.1,4.5c2.2-23.5-1.5-47.4,4.8-70.6c0.9,0.6,1.8,1.3,2.8,1.9
	c4.4,1.9,7,4.8,5,9.9c-1.7,3.1-6.6,5.4-2.4,10c3,10.3-2.5,19.8-2.7,29.9C1434.7,338.2,1435.9,343.1,1437.1,347.9z"/>
<path fill="#C4B0A9" d="M1438.5,293.6c-1.7-3.3-3.3-6.6-5-9.9c5.8-7.6,12-1.1,18-0.6c0.1,3.3,0.2,6.7,0.3,10
	C1447.4,293.2,1443,293.4,1438.5,293.6z"/>
<path fill="#D5C4B9" d="M423.3,417c-3.3-4.4-9.9-9.3-9.3-13c1.6-9,10.9-5,16.6-5.4c12.4-0.7,24.8,0.2,37.3,0.5
	c1.1,3.2,0.8-1.4,1.6,1.8c6-1.7-4.9,19.6,9.3,6.8c9.8,9.9,13.7,22.5,15.5,35.7c4.6,2,12.4-4.1,14.1,5.4c4.4,16.3,0.3,33,3.3,49.4
	c0.8,11.6,1,23-4.6,33.7c-2.5,3.7-6.1,5.2-10.4,5c-7.1-0.9-9.4-7.6-13.9-11.5c-12.7-6.5-16.4,0-17,11.5c-0.7,13.2,1.4,26.5-0.9,39.8
	c-2.3,3.8-5.6,5.1-9.9,4.6c-2.8-1.2-4.3-3.3-4.5-6.3c-0.7-30.3,1-60.7-0.9-90.9c-0.6-6.8-1.2-13.6-1.8-20.4
	C446,444.8,447,424.4,423.3,417z"/>
<path fill="#D8C7BD" d="M176.7,453.7c-6.4-13.7-13.8-26.2-30.9-27.8c-8.7-10.4-20.4-2.2-30.4-4.9c-10.1,0.1-21.2-1.3-22.3,13.6
	c-0.6,6.7-0.8,13.4-1.6,19.9c-4.9,39.7-5.4,40-44.2,27.8c-3.1-2.2-4.7-5.4-5.4-8.9c-1.5-12.4-7.8-24.8,0.5-37.2
	c0.4-0.6-4.2-1.2-6.2-2.6c-2.7-7.5-4.4-15.3-15.4-15.1c-9.8,0.2-17.9-3.2-16.5-15.6c46.7-6.2,93.6-1.5,140.5-1.9
	c10.6-0.1,21.4,1.9,31.9-1.7c5.6,5.8,16.4-0.9,20.5,8.4c10.6,15.5,4.5,31.4,1.2,47.2c-1.2,5.9-4.7,10.7-11.4,10.9
	C178.8,465.9,180.1,457.7,176.7,453.7z"/>
<path fill="#D4C2B7" d="M636.4,660.4c-18.4-3.4-32-14.5-42.7-28.7c-15-20-28.6-41.1-42.7-61.7c7.8-14,21.8-18.3,35.6-23
	c3.7-0.2,6.9,0.7,8.7,4.3c0.9,11.3,9.8,16.6,17.3,22.9c2.1,3.1,4.1,6.2,6.2,9.4c3.3,4.7,3.4,10,2.6,15.4c1.8,18,17.3,19.5,29.7,24.7
	c13.1,0.5,15.6,13.1,23.1,20.1c5.7,12.1,2.2,18.6-11.5,18.3C653.9,661.8,645,663.6,636.4,660.4z"/>
<path fill="#D4C2B7" d="M418.2,487.6c4.6,2.4,4.2,6.8,4.6,11c2.6,18.5,15.1,38.7-8.7,52.8c10.5,13.2-2.3,22.6-5.6,33.5l0,0.1
	c-2.1,1.4-4.4,2.3-6.9,2.7c-12-1.6-20.8-7.9-27-18.1c-2.6-7.3-0.4-14.3,1.8-21.2c4.5-9.5,4.7-19.1,0.5-28.9
	c-5.6-21.8-13.5-42.1-34-54.4c-8.3-6.4-21.1-5.4-26.9-16.2c2.8-14.3,13.4-11.8,23.3-10.8c1.2,0,2.5,0,3.7,0
	c20.5-2.2,36.4,6.5,49.6,21.3c5.2,3.9,10.1,8,12,14.6C407.2,480.5,409.6,487.2,418.2,487.6z"/>
<path fill="#D7C7BC" d="M580.8,407.9c10.4-2.8,21.2,2.3,22.9,10c2.7,12.7,15.2,11.8,20.1,19.9c7.8,10.9,8.2,24.9,15.3,36
	c-0.1,1.6-0.3,3.3-0.4,4.9c-3,4.7-6.1,9.4-11.9,11c-12.1,2.1-24.2,3.7-36-1.6c-8.6-5.1-10.3-14.3-12.7-22.8
	c-4.5-15.5-12.9-28-26.8-36.5c-4.2-3.2-8.2-6.6-9.6-12.1c0.6-4.4,3.1-7.5,6.6-10C559.3,400.8,570,406.1,580.8,407.9z"/>
<path fill="#D6C6BB" d="M236.8,508.9c-6.9-3.5-12-8.6-15.3-15.6c8.9-30.1,32-45.2,59.4-55.6c3.7-1.4,7.5-2.5,11.3-3.8
	c6.9,2.2,15.1-2.8,21.3,3.7c2.3,3.4,1.5,7,0.7,10.6c-2.1,5-6.2,8.5-10.9,9.4c-22.1,4.2-33.4,19.7-41.6,38.6
	C256.1,505.7,247.8,510,236.8,508.9z"/>
<path fill="#6C442C" d="M718.8,323.1c-0.2-5.4-0.3-10.8-0.5-16.1c11.5-1.8,17.2,5,21.4,14.2c3.7,45.7,1.4,91.5,1.3,137.3
	c-2.4,11.2-3.9,22.6-8.5,33.3c-1.9,2.6-4.4,3.3-7.4,2.1c-0.3-46.7-0.6-93.3-1.1-140c-0.1-8.9,2.1-18.5-4.6-26.4
	C719.5,326,719.3,324.5,718.8,323.1z"/>
<path fill="#D1BDB2" d="M408.4,584.9c-3.9-10.6,16.1-28.6-10.5-32.8c-4-0.6-0.3-9.3,3.1-8.8c30.5,4.4,19.5-18.3,21.5-32.3
	c0.6-4.1,0.1-8.3,0.2-12.4c1.9,3.4,3.8,6.8,5.6,10.3c1.2,13,2.5,26,3.7,39C426.7,561.8,419.9,574.8,408.4,584.9z"/>
<path fill="#D2C0B5" d="M176.7,453.7c5.8,4.2,12.8,15.8,15.1-2.3c1.9-14.6,3.5-29.2,5.2-43.8c12.8,7.8,17.3,49.8,6.4,59.3
	C193.7,475.2,180.9,468.9,176.7,453.7z"/>
<path fill="#D2C0B5" d="M176.5,399.1c-16.4,8.8-34,3.9-51,4.1c-40.5,0.6-80.9-0.2-121.4-0.5c14.8-10.3,31.6,0.9,46.9-4.3
	c13.4-4.2,26.8-4.1,40.2-0.1C119.6,398.7,148.1,398.9,176.5,399.1z"/>
<path fill="#D0BDB3" d="M449.5,484c8.1,31.6,0.4,63.9,4.2,95.7c9.3,10,5,23,7.5,34.5c0.8,9.6-1.5,18.2-8.4,25.2
	c-3,0.1-6,0.2-9.1,0.3c8.7-15.5,4.5-32.4,4.7-48.6c0.4-34.1-0.3-68.3-0.5-102.4C448.5,487.2,449,485.6,449.5,484z"/>
<path fill="#D8C7BC" d="M651.1,623.6c-24,9.7-33.8-2.7-37.7-24.3c6.5-4.6,13-5,19.6,0C636.6,609.2,650.7,611.3,651.1,623.6z"/>
<path fill="#A78A79" d="M86,429.8c-6.5-7-3-10,4.6-10.6c6.5-0.5,13.1-0.1,19.6-0.2c3.8,0.8,4.2,2.4,1.2,4.9
	c-10.6,2.1-11.2,10-11,18.6c0.5,23.7,0.8,47.3,1.1,71c-1.8,0.2-3.6,0.3-5.4,0.5c-8.6-17-7.9-35-6.3-53.3
	C90.7,450.2,93.8,439.3,86,429.8z"/>
<path fill="#D2BFB4" d="M41.1,498.8c-0.2,25.5-0.4,51.1-0.6,76.6c-7.8-33.6-2.7-67.7-3.9-101.6C49.8,480,47.4,489,41.1,498.8z"/>
<path fill="#CDBDB3" d="M472.9,399c32.1,0.3,64.4-4.2,96.2,4c-6.1,5-14.2,2-20.7,5.2c-19.9,4.7-40,2.4-60.1,2
	c-2.8-0.5-5.5-1.4-8-2.7C476.6,405.8,472,404.8,472.9,399z"/>
<path fill="#D5BFB3" d="M708.9,653.2c2.8,1.2,7.3,1.6,8.2,3.7c2.5,5.3-2,7.4-6.2,7.5c-10.7,0.4-21.4,0.1-32.1,0.1
	c-2.5-7.7,16.3-9.9,5.1-19.8C693.9,642.6,699.7,653,708.9,653.2z"/>
<path fill="#DECCC1" d="M312.2,438.6c-6.9-0.5-14.5,1.7-20-4.7c17.5-5.2,35.1-11.4,50.8,4.2l-1.3,0.7
	C331.8,442.2,322,442.8,312.2,438.6z"/>
<path fill="#D3C3B8" d="M36.1,433.5c4.3-2.2,6.7-10.7,13.7-3.5c4.2,4.3,4.8,11.7,0.8,12.6c-24.1,5.3-1.1,18-4.7,26.1
	c-3,3.1-5.9,2.7-8.9,0C36.8,457,36.4,445.3,36.1,433.5z"/>
<path fill="#CCBBB1" d="M683.9,644.8c5.1,8.3,5.6,15.5-5.1,19.8c-13.4,0-26.7-0.1-40.1-0.1c-1-1.2-1.8-2.6-2.4-4
	c12.4-6,35.1,11.3,37.8-16.7C677.4,644.1,680.6,644.4,683.9,644.8z"/>
<path fill="#D5C2B7" d="M637.9,492.6c-6.2,5.7-12.3,11.4-18.5,17.1c-10-13.3-0.1-19.5,9.3-25.9c3.4-1.7,6.7-3.4,10.1-5
	C638.4,483.4,638.1,488,637.9,492.6z"/>
<path fill="#D2BFB4" d="M156.4,514.4c-18.4,7-36.9,7.6-55.2-0.4C119.6,514.2,138,514.3,156.4,514.4z"/>
<path fill="#DCCEC4" d="M639.1,473.8c-10.8-9.6-12.3-23.1-15.3-36C637.7,446.1,638.5,459.9,639.1,473.8z"/>
<path fill="#DED1C8" d="M633,599.3c-6.5,0-13,0-19.6,0c1.8-5.3,3.6-10.5,5.4-15.8C624.3,588,632.3,590.4,633,599.3z"/>
<path fill="#D8C7BD" d="M37.1,468.8c3,0,5.9,0,8.9,0c0,3.4,0,6.7,0,10.1c5.1,6.7,6.3,13.4,0,20c-1.6,0-3.3,0-4.9-0.1
	c-1-8.4,2.4-17.6-4.5-24.9C36.7,472.1,36.9,470.5,37.1,468.8z"/>
<path fill="#DFD5CE" d="M593.6,553.6c1.5,0.4,3,0.8,4.6,1.1c3.1,7.7,13.5,10,14.4,19.4C600.9,572.3,594.8,565.3,593.6,553.6z"/>
<path fill="#E4D6CC" d="M549,404.3c6.7-0.4,13.4-0.8,20.1-1.3c4.9-0.7,9.2-0.1,11.7,4.9c-10.9,0.9-22.2-0.8-32.3,5.4
	C545.3,410.1,545.3,407.1,549,404.3z"/>
<path fill="#E8DCD3" d="M418.2,487.6c-13.7,5-12.9-6.4-15.6-13.9c1.5-1.7,3.1-1.6,4.6,0C410.9,478.4,414.5,483,418.2,487.6z"/>
<path fill="#D2C0B5" d="M111.3,423.9c-0.4-1.6-0.8-3.3-1.2-4.9c12,1.5,25.9-6.8,35.6,6.8C134.3,425.2,122.8,424.6,111.3,423.9z"/>
<path fill="#DBCDC3" d="M472.9,399c1.6,1.5,3.2,3.1,4.8,4.6c1.3,1,1.8,2.1,1.4,3.2c-0.4,1.1-0.8,1.6-1.3,1.6c-2.4,1.7-6,5.4-7.1,4.8
	c-5.9-3.3-1.6-9.4-2.9-14.2C469.6,399,471.2,399,472.9,399z"/>
<path fill="#DED2CA" d="M397.6,458.5c3.4,3.4,6.9,6.8,10.3,10.1c-0.3,1.7-0.5,3.4-0.8,5.1l-2.3,0c0,0-2.3,0-2.3,0
	c-6.3-2.7-9.7-7.4-10-14.4C394.3,459.1,395.9,458.8,397.6,458.5z"/>
<path fill="#D2BFB4" d="M46,498.9c0-6.7,0-13.4,0-20c11.1,0.6,22.7-2.8,34,6.9c2.2-20.5,4.1-38.2,6-55.9c13.6,1.3,8.9,11.9,9.1,19.2
	c0.8,21.6,0.7,43.3,1,65c-8.2,13.8-7.2,21,11.8,20.4c14.4-0.5,29.6-4,43.6,3.4c-21.2,7.8-43.9,1.2-65.4,6.3
	c-13.7-10.6-6.1-21.7-1.6-33.5c2.4-6.4,5.1-18.1-8.4-6.7c-8.4-6.6-16.7-3-25.1,0C49.3,502.2,47.7,500.5,46,498.9z"/>
<path fill="#D2BFB4" d="M65.8,541.9c6.7-1.5,9.7,1.5,9.6,7.5c-0.2,10.3-6.5,14.3-15.9,14.5c-7.4,0.2-13.6-2-12.6-10.8
	C48.2,541.4,59.6,545.4,65.8,541.9z"/>
<path fill="#87614D" d="M86.1,544.1c20.8-11.9,43.6-4.4,65.4-6.3c3.5,1.8,6.9,3.7,10.4,5.5c-5.8,0-11.6,0.1-17.4,0.1
	C103,543,103,543,100.3,584.5c-1.8,1.9-3,1.8-3.7-0.9c-0.2-6.5-0.3-12.9-0.5-19.4c-8-4.5-3.7-14.9-9.8-20.4L86.1,544.1z"/>
<path fill="#DBCBC0" d="M86.2,579.1c0,4.8,0,9.6,0,17.5c-23.1-18.4-1.2-32.6-0.3-47.4C94.1,559.1,88.4,569.1,86.2,579.1z"/>
<path fill="#C8B5A9" d="M86.2,579.1c-0.1-10-0.2-19.9-0.3-29.9c0.1-1.8,0.2-3.5,0.3-5.3c14,1.6,10.2,11.8,9.8,20.4
	C92.8,569.2,89.5,574.1,86.2,579.1z"/>
<path fill="#C8B5A9" d="M96.5,583.6c1.2,0.4,2.5,0.7,3.7,0.9c0.2,15,0.5,29.9,0.7,44.9C91.8,614.9,97.4,599,96.5,583.6z"/>
<path fill="#CDB8AB" d="M51,503.9c8.4-3.3,16.7-17,25.1,0C67.8,503.9,59.4,503.9,51,503.9z"/>
<path fill="#DAC8BD" d="M82.2,660.4c-6.5-0.5-13-1.1-21-1.7c8.9-7.3,15.2-3.2,21.4,1.5C82.6,660.2,82.2,660.4,82.2,660.4z"/>
<path fill="#6A4B54" d="M1623.1,555c0-30.1-0.3-60.2,0-90.3c0.1-12.3-1.3-22.2-14-29.3c-9.5-5.4-0.3-8.7,4.5-11.3
	c31.5,11.2,31.9,11.8,24.5,34.7c0.1,23.5,0.3,46.9,0.4,70.4c2.3,11.7,5.2,23.5-1.4,34.8C1631.6,562.3,1625.4,561.6,1623.1,555z"/>
<path fill="#DED1C7" d="M1638.1,458.7c3.8-20-13.7-25-24.5-34.7c17.2-7,33.8,5.2,52.4,0.3c14.8-3.9,2.7,8.6,2,14
	c-3.7,16.9-3,33.4,2.1,50.2c2.8,9.1,1.2,19.4-1.6,28.9c-1.3,2.8-3.3,5-6.1,6.5c-6.5-7.5-3.3-16.6-4.2-25.1c-3.9-10-3.8-20-0.1-30
	c0-8.9,0-17.7,0-26.6C1652.9,451.2,1646.1,455.6,1638.1,458.7z"/>
<path fill="#412C2E" d="M1662.4,523.9c0.6-1.7,1.1-3.3,1.7-5c3.7-6.2-1-14.9,9.9-24.4c1.5,25.6,6.5,47,6.7,69.3
	c-0.9,10.5,2.4,22-7.4,30.4c-3.2-1.6-6.4-3.3-9.5-4.9c-5.7-20-3.2-40.2-1.3-60.3C1662.5,527.4,1662.5,525.7,1662.4,523.9z"/>
<path fill="#755143" d="M1598.1,594c-15.9-12.8-27.8-29.2-40.1-45.3c-2.7-5,0.3-7.1,4.4-8.6c13.5,14.7,27,29.5,40.5,44.2
	C1605.5,589.6,1602.6,592.2,1598.1,594z"/>
<path fill="#725043" d="M1562.5,540.1c-1.5,2.9-3,5.7-4.4,8.6c-13.7-9.8-20.1-26.7-35.2-35.1c-1.9-1.5-3.2-3.5-3.8-5.8
	c-0.3-3.8,0.7-7,3.9-9.4c4.9,2,9.7,4,14.6,6C1545.8,516.3,1554.1,528.2,1562.5,540.1z"/>
<path fill="#D5C5BA" d="M1618.1,599.3c5.3-2,10.4-4.7,15.9-5.9c5.9-1.2,11.6-13.7,17.7-2.4c4.5,8.3-3.3,12.8-9.8,16.7
	c-3.4,2-6.1,5.1-9.1,7.7C1622.7,614.7,1612.4,614.3,1618.1,599.3z"/>
<path fill="#D5C5BA" d="M1662.5,529.1c0.4,20.1,0.8,40.2,1.3,60.3c-0.2,9-1.4,18.1-0.5,27c1.6,15.8-4.8,21.2-19.8,17.7
	c0.4-1.6,0.6-3.1,0.6-4.7c15,0.5,13.6-10.1,14.3-20.2C1660.1,582.5,1653.6,555.4,1662.5,529.1z"/>
<path fill="#7E5A4C" d="M1618.1,599.3c1.5,8.4,8.9,11.5,14.6,16.1c1.6,3.1,3.2,6.2,4.8,9.3c-3.1,1.6-6.2,3.1-9.2,4.7
	c-10.1-11.8-20.1-23.6-30.2-35.4c1.6-3.2,3.2-6.4,4.8-9.7C1608,589.3,1613.1,594.3,1618.1,599.3z"/>
<path fill="#D5C5BA" d="M1637.1,563.9c0.5-11.6,0.9-23.2,1.4-34.8C1645.2,541,1647.1,552.7,1637.1,563.9z"/>
<path fill="#D5C5BA" d="M1658.1,468.9c0,10,0.1,20,0.1,30C1650.8,488.9,1650.8,478.9,1658.1,468.9z"/>
<path fill="#C7B2A8" d="M1432.3,458.7c0,45.2-0.1,90.3-0.1,135.5c-7.7,1.9-12.1-2.2-15.2-8.6c-4.7-63.3-2.4-126.7,0.6-190
	c2-5.5,0.6-13.7,10.4-13C1446.6,407,1443.1,432.6,1432.3,458.7z"/>
<path fill="#CCB9AF" d="M1437.2,383.3c1.8-1.8,3.5-3.7,5.3-5.5c7-1.2,13.9-2.5,20.9-3.7c-0.3,4.8-0.5,9.5-0.8,14.3
	c4.5,9.1,1.6,18.6,1.9,28c-1.1,2.9-3.2,4.1-6.3,3.7c-2.9-10.7,1.9-22.7-3.8-32.9c-2.4,0-4.8,0-7.2,0.1c0,29.8,0,59.7,0,89.5
	c0,30.3,0,60.7,0,91c-1.7,0-3.4,0-5.1,0c0-34.7,0-69.4,0-104.1C1432.1,437.4,1439.4,410.1,1437.2,383.3z"/>
<path fill="#D9C8BE" d="M1437.2,383.3c10.3,26.2,2.8,53.6,5,80.3c-3.3-1.7-6.6-3.3-9.9-5c-2.4-25,4.8-50.7-4.9-75.3
	c1.6-1.9,3.3-1.9,4.9,0C1434,383.4,1435.6,383.4,1437.2,383.3z"/>
<path fill="#D3BEB2" d="M1422.8,589.3c3.1,1.6,6.3,3.2,9.4,4.9c0,16.8,0,33.6,0,50.4c-11.8,5-14.6-3.2-16.4-11.7
	c-1.6-7.3-0.9-14.9-0.9-22.4C1415.3,602.6,1415,594.5,1422.8,589.3z"/>
<path fill="#BEB4AD" d="M1421.7,608.4c4.8,11.7-8,28.5,10.5,36.2c-1.7,1.7-3.4,3.4-5.1,5.1c-7.5,5.3-12.8,1.6-17.7-4.1
	c-5.3-12.6-2.2-24.2,4.8-35.1C1416.3,608.2,1418.8,607.6,1421.7,608.4z"/>
<path fill="#CBBDB3" d="M1458.1,597c1.1,1.4,2.3,2.7,3.4,4.1c2.3,7.2-8,21.9,11.3,19.1c-0.1,3-0.2,6-0.3,9
	c-7.4-0.5-10.1,3.8-10.6,10.4C1453.4,625.9,1458.3,611.2,1458.1,597z"/>
<path fill="#DED0C6" d="M1411.3,644.1c5.3,1.9,10.5,3.7,15.8,5.6c1.7,3.4,3.5,6.9,5.2,10.3c-1.9,2.1-4.3,3.4-7,3.9
	c-11.5-2-26.4,0.5-24.7-18.7C1403.9,641.9,1407.4,641.5,1411.3,644.1z"/>
<path fill="#AE9183" d="M1428.1,660.1c1.4,0.1,2.8,0,4.2-0.1c1.5,2.9,2.9,5.8,4.4,8.7c-6.1,2.1-12.1,4.1-18.1,6.2
	c-0.9-1.7-1.8-3.3-2.6-5c-1.1-2-1.1-4,0.1-6C1419.6,661.2,1424.5,662.7,1428.1,660.1z"/>
<path fill="#E1D2C6" d="M1453.3,680c-0.3,6.6-0.6,13.2-1,19.8c-13.2,1.6-3.6-12.1-10-15.1c0,0,0,0,0,0
	C1444.9,680.7,1448.9,680,1453.3,680z"/>
<path fill="#D4C2B7" d="M337.3,604.3c20.7-3.4,29.7-19.9,39.6-35.3c8.6,5.1,17.1,10.2,25.7,15.3c3.7,9.4-7.2,10.4-9.5,16.5
	c-0.4,5.4-3.1,8.8-8.7,9.4c-7.4,2.4-14.1,6.7-21.7,8.6c-15.1,2-30.4-7.4-45.4,0.7c-3-3.1-3.2-6.6-1.4-10.4
	C322.3,604.1,331,609.9,337.3,604.3z"/>
<path fill="#CFBCB1" d="M267.1,498.9c-3.3,20.1-1.6,40.2-0.6,60.3c-2.8,1.4-5.2,0.9-7.1-1.6c-5.1-10.8,0.4-21.3,1.2-31.9
	c-3.4-12-17.6-8.8-23.8-16.8c6.6-5,13.2-10,19.8-15.1C261.1,493.4,264.9,494.5,267.1,498.9z"/>
<path fill="#D1BDB1" d="M230.7,558.2c-5-0.7-8.9-2.9-7.3-8c2.5-7.8,9.7-11.5,16.7-13.5c4.8-1.4,6.6,3.8,6.1,8.4
	C245.2,554.5,237.7,556.3,230.7,558.2z"/>
<path fill="#DACBC1" d="M260.6,525.7c0.4,11.2,0.9,22.3,1.3,33.5c-0.4,5.6,0.9,11.6-5.2,15.3C246.9,557.3,252.1,541.3,260.6,525.7z"
	/>
<path fill="#ECE3DD" d="M267.9,578.8c6.3,6.8,12.5,13.6,18.8,20.4c-10.3,1.8-18.3-1.9-24.4-10.2C258.4,582.5,258.5,578,267.9,578.8z
	"/>
<path fill="#DBD0C9" d="M267.9,578.8c-3.9,2.3-5.5,5.9-5.7,10.3c-5.6-3.5-5.2-9.2-5.4-14.7c0.2-5.6-0.2-11.4,5.2-15.3
	c1.5,0,3,0.1,4.5,0.1C267,565.7,267.4,572.2,267.9,578.8z"/>
<path fill="#C9B3A5" d="M337.3,604.3c-5.1,7.3-13.5,3.4-20,5.8c-5.4,3.1-10.4,4-14.7-1.9c-1.6-1.4-3.2-2.8-4.8-4.2
	C310.9,604.1,324.1,604.2,337.3,604.3z"/>
<path fill="#C9B3A5" d="M302.6,608.2c4.9,0.6,9.8,1.3,14.7,1.9c0,3.1,0,6.2,0,9.3C313.4,614.4,293.2,630.7,302.6,608.2z"/>
<path fill="#D1C0B4" d="M362.7,618.7c6-6.1,13.1-9.3,21.7-8.6c-3.8,6.6-10.1,8.6-17,9.5C365.8,619.4,364.3,619.1,362.7,618.7z"/>
<path fill="#6D4D5B" d="M1487.3,423.4c2.7,12.1-1.6,25,4.5,36.7c0,10.7,0.1,21.5,0.1,32.2c-3,12.6-3.2,25.2,0.1,37.9
	c0.1,3,0.2,6,0.3,8.9c2.5,3.8,3.9,7.4-2.1,9.2c-4.9,8.4-4.9,16.5,1.6,24.2c-5.2,11.8,1.6,25.1-4.4,36.8c-2,1.7-4,3.3-6.1,5
	c-1-1.3-2.1-2.5-3.1-3.8c0.2-61.2,1-122.4,3.5-183.5C1483.7,425.8,1485.5,424.6,1487.3,423.4z"/>
<path fill="#D6C6BC" d="M1490.4,548.3c0.7-3.1,1.4-6.2,2.1-9.2c20.8-9.9,0.5-28.7,12-41.5c0,28.8,0,57.6,0,86.7
	C1486.6,577.1,1510.5,554.2,1490.4,548.3z"/>
<path fill="#D3C2B7" d="M1517.6,539c-0.2,23.4-0.3,46.8-0.5,70.3c-9.2-28.6-3.4-57.9-3.6-86.9c2.6-0.4,4.6,0.6,6.1,2.7
	C1520,529.9,1521.3,534.8,1517.6,539z"/>
<path fill="#513025" d="M1516.8,524.6c-1.2-0.5-2.3-1.2-3.3-2.2c0.3-7.4,0.2-14.9,1-22.3c0.9-7.8,4.1-8.5,8.4-1.7
	c-0.1,3.6-0.3,7.2-0.4,10.8C1517.5,513.2,1523.2,521.1,1516.8,524.6z"/>
<path fill="#D3C2B7" d="M1492.1,530.1c-5.7-12.6-4.5-25.2-0.1-37.8C1492,504.9,1492.1,517.5,1492.1,530.1z"/>
<path fill="#D3C2B7" d="M1487.6,609.3c0-12.4-2.6-25.2,4.4-36.8C1491.3,584.9,1496.6,598,1487.6,609.3z"/>
<path fill="#DED1C7" d="M1516,457.8c-2.5,1.3-5.2,2.7-8,4.1c-0.4-1.4-1.5-3.5-1.1-4c2.3-2.1,5-3.8,7.5-5.6
	C1514.8,453.7,1515.2,455.2,1516,457.8z"/>
<path fill="#DACAC0" d="M1723.2,558.8c0.1,1.8,0.2,3.6,0.3,5.4c-17.9-3.6-29,4.7-36,20.4c-10.5,0.3-8-9.1-10.8-14.6
	c-0.5-2.2-0.8-4.4-0.8-6.7c0-4.5-0.2-8.9,0.4-13.4c1.6-4.1,2.4-8.8,7.1-10.9c11.8-0.3,23.5-0.8,22.6-18.2
	c12.1,5.4,3.8,18.4,12.5,23.2C1723.4,547.9,1718.8,554.8,1723.2,558.8z"/>
<path fill="#624952" d="M1678.5,549.1c-0.3,5-0.5,10.1-0.8,15.1c-1.5,2.6-3,2.5-4.5,0c0-19.7,0-39.4,0-64.4
	c-4.6,9.7-6.9,14.4-9.1,19.2c-0.1-27-2.8-54,3.9-80.7c0,11.4,0,22.7,0,37.6c6.7-5.3,11.1-8.7,15.5-12.2c2.3,1,3.9,2.7,4.8,5.1
	c-5.7,17.9-12.9,35.6-10,55.1C1682.5,532.2,1681.9,540.6,1678.5,549.1z"/>
<path fill="#BDA9A6" d="M1688.2,468.8c-1.6-1.7-3.2-3.4-4.8-5.1c1.8-12.3,12.8-17.3,19.9-25.4c6.3,8.8,3.6,15.2-5,20.3
	C1694.9,462,1691.6,465.4,1688.2,468.8z"/>
<path fill="#E2D1C6" d="M1723.2,558.8c-5.2-3.7-4.5-9.4-4.7-14.7c1.8-11.5-4-24.1,4.8-34.7C1723.2,525.8,1723.2,542.3,1723.2,558.8z
	"/>
<path fill="#D2C0B7" d="M1698.3,458.6c3.4-6.3,6-12.9,5-20.3c0.4-3,2.1-4.6,5.2-4.5C1710.3,444.2,1717.7,456.9,1698.3,458.6z"/>
<path fill="#E5D7CF" d="M1718.6,428.9c6.5-0.8,13-1.5,19.4-2.3C1733.7,444.9,1725.5,431.7,1718.6,428.9z"/>
<path fill="#DFD0C3" d="M1678.5,549.1c-2.3-8.4-2.4-16.8-0.3-25.2c5.5,3.8,5.2,9.5,5.2,15.1C1681.7,542.4,1680.1,545.7,1678.5,549.1
	z"/>
<path fill="#D6C4B9" d="M1798.7,660c3.4-1.9,6.8-3.8,10.2-5.6c5.7-15.8,20.8-1.7,29.1-9.1c0,0,1.8-1.3,1.8-1.3
	c4-1.6,8.1-3.1,12.1-4.7c7.9-3.3,3-11.2,5.8-16.3c0.9-3.2,1-6.6,1.4-9.8c0.9-6.9-2.5-16.7,7.5-18.7c10.4-2,7.9,10.7,13.5,14.8
	c4.7,3.9,9.3,7.9,14,11.8c4,9.1,4,18.2,0,27.3c-5.3,6.4-12.6,6.6-20,6.3c-1.8-1.8-4.1-2.3-6.6-2.5c0.9,1.2,2.6,1.7,3.1,3.3
	C1847,661.8,1823.2,666.1,1798.7,660z"/>
<path fill="#DDCEC3" d="M1880.2,609.1c-4.2-3.7-8.3-7.3-12.7-11.1c-6.8,8.2,0.6,19.4-7.8,26.1c-5.3-13.6-3.6-27.5-1.1-41.3
	c-2.3-10.9-3.8-22.2-14.4-28.9c9-8.2,20-3.4,30.1-4.9c0,0,0.1,0.1,0.1,0.1c6.7,5,21.3-0.5,20.1,15.1c0,8,0,15.9-0.1,23.9
	C1888.3,594.2,1877.6,597.2,1880.2,609.1z"/>
<path fill="#735143" d="M1752.3,650.2c4.6,4.3,10.3,4.8,16.1,4.8c0,0-0.1-0.1-0.1-0.1c1.9,0.7,2.6,1.6,2.3,2.7
	c-0.4,1.3-0.8,1.9-1.4,1.9c-38.7,0.8-66.1-18.1-86.3-49.6c-2.5-6.2,0.9-9.4,6-11.7c1.3,0.3,2.7,0.8,3.9,1.3
	C1705,625.5,1725.8,641.1,1752.3,650.2z"/>
<path fill="#694842" d="M1689.1,598.2c-2,3.9-4,7.8-6,11.7c-1.7-3.2-3.4-6.4-5.1-9.7c-3-10.6-3.8-21.1,0.6-31.6
	c3,5.3,5.9,10.6,8.9,15.9C1688,589.1,1688.6,593.6,1689.1,598.2z"/>
<path fill="#5F4346" d="M1678.6,568.6c-0.2,10.5-0.4,21-0.6,31.6c-1.5-2-3.1-3.9-4.6-5.9c0-10-0.1-20.1-0.1-30.1c1.5,0,3,0,4.5,0
	C1678.6,565.5,1678.9,567,1678.6,568.6z"/>
<path fill="#D6C4B9" d="M1769.3,659.4c0-1.6-0.3-3.1-0.9-4.6c10.2,1.1,21.5-4.2,30.3,5.2C1788.8,662.7,1779.1,660.6,1769.3,659.4z"
	/>
<path fill="#C7B6AC" d="M1894.2,648.2c0-9.1,0-18.2,0-27.3C1900.5,630,1901.3,639.1,1894.2,648.2z"/>
<path fill="#DFD0C6" d="M1870.7,655.3c-5.2-0.7-10.5-1.4-17.8-2.4c9.2-5.1,15.5-4,21.3,1.6c0,0-1.5,1.2-1.5,1.2L1870.7,655.3z"/>
<path fill="#DCCDC3" d="M1276.6,523.8c-0.9,9.2,8.5,12.7,10.9,20c-5.8,6.4-12.6,11.7-15.9,20.6c-4.4,11.8-13.7,15.1-25.4,9
	c-10.4-8.9-19.4-19.4-29.8-28.5c-2.6-3.6-5.8-6.9-6.9-11.4c6.8-4.5,3.8-9-0.1-13.6c1.5-6.9,6.4-11,11.8-14.7c1.6-1,3.3-2.1,4.9-3.1
	c10-9.7,19.9-19.5,29.9-29.2c9.6,1.9,20.2,1.4,26.9,10.7c2.1,8.1-4.1,12.2-8.4,17.3C1266,509.3,1271.1,516.6,1276.6,523.8z"/>
<path fill="#D3C1B7" d="M1387.1,402.3c7.8,3.8,5.2,7.6,0,11.4c-7.1,7.9-17.9,8.6-26.5,13.6c-5.6,3.4-11.5,6.1-17,9.7
	c-6.7,3.4-12.4,9.3-20.7,9c-5.7-0.8-10.2-4-14.3-7.7c-1.4-1.7-2.3-3.7-2.7-5.9c-1.8-8.6,3.3-15.7,5.2-23.4c6.7-4.1,13.8-0.2,20.7-1
	c-7-1-14.1-3-20.9,0.9c-4.6-9.4-4.5-10.6,3.6-10.5C1338.7,399,1363.2,395.4,1387.1,402.3z"/>
<path fill="#D6C4B8" d="M1282.1,484c-7.5-6.3-23,6-25.9-11c18.1-11.5,25.9-35.7,49.6-40.3l1.6,1.7c11.3,7.1,5.9,17,4.5,26.3
	C1304.8,471.9,1298.1,483.8,1282.1,484z"/>
<path fill="#C7B2A8" d="M1417,357.7c3.2,5.4,10.4,8,10.6,15.4c-5.2,3.3-10.5,2.7-15.8,0.3c-9.5-4.4-25.1,14.6-28-3.4
	c-1.5-9.5,16.9-12.1,28.4-13.1C1413.8,356.8,1415.4,357.4,1417,357.7z"/>
<path fill="#C3AFA5" d="M1411.8,373.5c5.2-3.1,10.4-3,15.8-0.3c1.6,3.4,3.2,6.8,4.8,10.3c0,0-2.5,0-2.5,0s-2.5,0-2.5,0
	c-2,3.8-3.9,7.6-5.9,11.3c-2.1,0.4-3.3-0.4-3.5-2.6c0.6-1.4,0.4-2.7-0.6-3.8C1420.4,381.5,1415.4,377.7,1411.8,373.5z"/>
<path fill="#D5C3B9" d="M953.9,474.7c10.4-10.7,21-10,31.8-0.6c0.3,1.3,0.6,2.7,0.9,4c4,34.2-3.4,69,4.4,103.1
	c1.4,5.5,3.9,11.3-2.9,15.2c-11.6-2.6-26.1,8.2-35-7.3c11.4-16.7,2.7-35.8,6.2-53.4c0.2-2.3,0.4-4.6,0.7-6.8c-1.6-1.7-4.8-1.8-5-4.9
	C961,507.3,960.1,491,953.9,474.7z"/>
<path fill="#281F1E" d="M855.3,473.5c3.3,0,6.5-0.1,9.8-0.1c1.8-2,2.9-1.6,3.5,0.9c0.3,31.5,0.5,63,1,94.5
	c0.2,10.7-0.7,20.3-14.4,21.6C855.2,551.5,855.2,512.5,855.3,473.5z"/>
<path fill="#D8CCC5" d="M954.9,523.9c1.7,1.6,3.4,3.3,5,4.9c-21.3-0.4-42.6-0.7-63.9-1.2c-0.4,0-1-1.2-1.1-1.9
	c0-0.8,0.5-1.5,0.8-2.3C915.5,523.6,935.2,523.7,954.9,523.9z"/>
<path fill="#DECBC0" d="M868.5,474.3c-1.3,0.1-2.4-0.2-3.5-0.9c7-8,16.1-4.1,24.5-4.2C883.7,475.6,875.6,473.2,868.5,474.3z"/>
<path fill="#D3C1B7" d="M1187.4,658.4c-7.5,0-15,0.1-22.4,0.1c-4.5-2.2-10.8-1.7-12.1-8.6c-0.2-2.2-0.1-4.3,0.5-6.5
	c0.9-3.2,2.3-6.1,4-9c7.7-10.7-0.1-26.6,11.9-35.8c12-5.5-0.3-16.8,5.5-23.8c9-9.7,20-10.7,32.1-7.8c3.7,2.2,5.6,5.6,6.8,9.7
	c1.3,17.5-1.9,35.2,1.9,52.7c0,1.7,0.1,3.5,0.1,5.2C1215,653,1204,659.1,1187.4,658.4z"/>
<path fill="#C1AEA7" d="M1220.7,540.3c-5.5,3.4-5.2,8.5-4.2,13.8c-0.4,25.1-0.7,50.2-1.1,75.3c-8.9-18-1.7-37.5-5.1-56
	c-5.6-10.3-8.2-21-4.5-32.6c1.2-2.7,3-4.8,5.4-6.4C1215.5,534.7,1219.2,535.7,1220.7,540.3z"/>
<path fill="#DDCEC3" d="M1187.4,658.4c13.7-2.8,21.5-12.6,28.2-23.8c1.3,9.1,5.6,15.2,15.7,15.3c-1.7,2.9-3.5,5.9-5.2,8.8
	C1213.2,658.6,1200.3,658.5,1187.4,658.4z"/>
<path fill="#6A4C59" d="M1482.1,614.3c-10.2-21.1-1.2-43.6-5-65.2c0.4-31.7,0.6-63.5,1.1-95.2c0.1-9-2-18.5,3.7-26.8
	C1482,489.4,1482,551.8,1482.1,614.3z"/>
<path fill="#6A4228" d="M725.1,493.8c1.1,0,2.2,0,3.3,0c2.7,1.7,4.7,4.1,6,7.1c4.5,35.6,1,71.3,2.1,107c0,17.8,0,35.6,0,53.4
	c0.8,15.1-2.3,30.5,2.8,45.4c0.9,2.6,1.5,5.3,1.8,8c0.4,6.8,0.2,13.6,0.7,20.4c-0.2,8.4-1.1,16.5-9.7,21c-7.3-0.5-7.8-6.1-8.6-11.5
	C724,661,724.5,577.4,725.1,493.8z"/>
<path fill="#69442E" d="M723.4,744.6c4.2,2.5,5.5,6.5,5.9,11c5.4,10.4-0.9,14.9-9.3,18.3c-4.3,0.4-8.1-0.5-11.1-3.9
	c1.6-3.3,3.2-6.7,4.8-10c1.9-4.7,3.8-9.3,5.7-14C720.7,745.5,722.1,745,723.4,744.6z"/>
<path fill="#D0BDB3" d="M503.8,567.8c1.2,1,2.3,2,3.4,3c0.3,9.5,0.5,19,0.8,28.6c4.1,13.6,4,27.2,0.2,40.8
	c-16.3-15.8-15.6-35.4-12.7-55.6C496.5,578,497.5,571.6,503.8,567.8z"/>
<path fill="#784E32" d="M1155.1,793.2c5.1,4,7.4,11.5,15.3,11.7c-5.5,9.7-14.9,5.7-22.5,5.8c-56.8,0.4-113.7-1-170.5,0.8
	c-25.1,0.8-31.3-8.7-26.7-30.7c5.7-1.3,10.3,1.4,14.7,4.5c0.7,0.6,1.4,1.3,2.1,1.9c2,3.1,3.5,6.6,6.7,8.8c11.8,4.2,23.9,1,35.8,1.9
	c12.1,0,24.1,0,36.1,0c32.6-0.2,65.1,0.6,97.7-0.5c4-0.6,8.2-0.6,11.9-2.7L1155.1,793.2z"/>
<path fill="#725043" d="M1515.9,524.5c1.9-5.1,3.8-10.2,5.7-15.3c0.2,1.5,0.3,2.9,0.3,4.4c-1.3,8.5,2.7,18.2-5.2,25.4
	C1516.5,534.1,1516.2,529.3,1515.9,524.5z"/>
<path fill="#DED1C6" d="M1708.4,594.3c3.4-1.7,6.7-3.3,10.1-5c2.6,2.1,4.4,5.1,1.6,7.5C1715.7,600.7,1711.7,598.1,1708.4,594.3z"/>
<path fill="#D5C4B9" d="M507.3,639.4c0.5,1.6,1,3.2,1.6,4.8c-19.4,6.4-11.3-13.4-18.4-18.6c-5.6,22.1-25.1,8.6-37.6,13.9
	c0.3-8.7,0.5-17.5,0.8-26.2c4.9-10.9-2-23.3,4.2-34c1.7-1.7,3.4-3.4,5-5c3.8-10.7,12.4-11.2,21.7-10.2c11.6,1.7,14.1,11.3,17.3,20.2
	C505.9,602.4,497.8,621.7,507.3,639.4z"/>
<path fill="#161111" d="M835.6,498.2c1.3,2.1,2.6,4.2,3.9,6.3c5.9,9.9,7,20.1,1.7,30.6c-9.8,7.7-20.2,7-30.9,2.2
	c-2.6-1.8-4.5-4.2-5.8-7c-3.4-14.7-3.7-29.5,0.3-44.2c2.8-5.6,7.5-8.9,13.3-10.7c9.7-1.6,16.5,1.9,20.2,11.2
	C839,490.8,838,494.6,835.6,498.2z"/>
<path fill="#221818" d="M839.5,534c0-9.8-0.1-19.6-0.1-29.5c2,1.7,4,3.4,6,5c3.3,10.2,0.9,20.8,1.7,31.2c0,19.8,0,39.5,0,59.3
	c0.3,30.8,4.1,61.5,2.5,92.3c-0.6,14.8,1.5,29.7-1.5,44.5c-7.7,9.1-11.9,2.3-16.3-3.6c-2.3-5.5-0.9-11,0-16.4
	c0.6-8.1,0.3-16.2,0.4-24.4c0-8.5,0-17-0.1-25.4c-4.8-37.5-0.7-74.9,0.2-112.3c0.1-3,0.3-6,0.8-9C833.9,541,836.5,537.4,839.5,534z"
	/>
<path fill="#956439" d="M845.4,694.6c0-31.8-0.1-63.5-0.1-95.3c1.4-2.5,2.9-2.6,4.3,0c0.9,30.3,8,60.2,4.5,90.7
	C851.9,692.9,850.5,697.3,845.4,694.6z"/>
<path fill="#A57747" d="M849,353.2c11.3,20.8,2.5,43.1,5.1,64.6c-1.4,3.6-2.9,7.2-4.3,10.8c-3.2,1.5-5.9,0.9-8.1-1.8
	C838.6,401.7,825.3,375.6,849,353.2z"/>
<path fill="#97683D" d="M845.4,694.6c2.9-1.5,5.8-3.1,8.7-4.6c0.1,18.4,0.2,36.9,0.3,55.3c-1.8-0.2-3.6-0.5-5.3-0.7
	c-2.1-0.9-3.4-2.5-3.7-4.8C845.3,724.8,845.4,709.7,845.4,694.6z"/>
<path fill="#956639" d="M849.6,599.3c-1.4,0-2.9,0-4.3,0c-0.1-20.1-0.1-40.2-0.2-60.3c1.5-2.6,2.9-2.6,4.4,0
	C849.5,559.1,849.5,579.2,849.6,599.3z"/>
<path fill="#9D6F41" d="M845.2,428.5c1.5,0,3,0.1,4.5,0.1c-2.2,13.4,5.5,28.4-6.4,40.3c-0.9-1-1.8-2-2.7-3c-2.1-3.6-3-7.5-3.1-11.6
	C837.9,445.1,835.5,435,845.2,428.5z"/>
<path fill="#D3C2B7" d="M835.6,498.2c-0.2-3.2-0.4-6.3-0.6-9.5c2.3-6.4-3.2-13.9,2.8-19.8c2-1.5,4.1-1.7,6.3-0.4
	c0,0-0.7,0.4-0.7,0.4C842.3,479.1,850.6,491.7,835.6,498.2z"/>
<path fill="#95683A" d="M849.5,539c-1.5,0-2.9,0-4.4,0c0.1-9.8,0.2-19.7,0.3-29.5C852.7,518.5,848.4,529.2,849.5,539z"/>
<path fill="#D5C4B9" d="M488,569.2c-8.8-0.5-17.3,0.4-25.1,5c-9.8-15.4-6.6-33.2-3.9-48.6c2.6-15.1,16.9-14.2,29-6.7
	c-3,6.6,1.7,10.6,5.1,15.1c3.8-0.2,7.6-0.4,11.4-0.6c20.6-12.6,45.5-4.2,66.6-13.9c5.2-0.1,9.9,1.4,14.1,4.6c2.9,2.7,5,5.7,3.3,9.9
	c0.2,4.6,0.5,9.2,0.7,13.8c-9.3,13.3-24.2,16.9-38.1,22.2c-4.4-5.1-8.7-10.2-13.1-15.3c-14.2-2.3-29.5-11.2-39.9,7.3
	C496.4,566.8,494.7,571.5,488,569.2z"/>
<path fill="#D0BDB3" d="M493,559.1c13.5-16,29-12.7,44.9-4.5c-10.9,5.2-27.1-8.6-34.4,9.5C497.4,567.8,495.9,562.2,493,559.1z"/>
<path fill="#D5C4B9" d="M493,559.1c3.5,1.7,7,3.4,10.5,5.1c1.4,1.1,1.5,2.3,0.3,3.6c-0.6,5.5-1.3,10.9-1.9,16.4
	c-9.2-0.8-6.7-12.4-13.9-15C489.6,565.8,491.3,562.5,493,559.1z"/>
<path fill="#5E3C26" d="M953,589c11.5,11.1,25.3,4.9,38.2,5.3c1.3-4.9,4.2-7.4,9.5-6c2.3,1.9,4,4.2,5.2,7
	c6.7,42.8-3.1,85.2-3.2,127.8c-0.2,8.9,0.3,17.9-1,26.7c-2.5,7.6-5.2,14.8-15.7,10.5c7.6-21.7,3.7-44.3,4.9-66.6
	c1.2-22.3,1.7-44.6,3.9-66.8c1.9-19.5-3.1-30.3-25.1-27.3c-8.1,1.1-16.5-0.1-24.8-0.3C945.4,594.2,948.9,591.3,953,589z"/>
<path fill="#825634" d="M986.1,760.4c6-0.8,8.7-4.6,9.3-10.3c2.1-1.7,4.2-1.8,6.5-0.3c1.5,2,2.5,4.3,3,6.8c0.5,6.9-2.3,12.4-7,17.2
	c-4,3.6-8.6,5.8-14.1,6c-4.1-0.3-7.6-1.6-9.8-5.4C978,769.6,982,765,986.1,760.4z"/>
<path fill="#976D47" d="M974,774.3c4.5,0.4,9.1,0.8,13.6,1.1c-3.1,13.4-10.4,17-22.4,9.5c0,0,0.2,0.3,0.2,0.3
	C964.7,778.8,968,775.5,974,774.3z"/>
<path fill="#683B1D" d="M1161.4,282.4c2.9-0.1,5.7-0.3,8.6-0.4c3.3,1.4,3.7,3.4,1.1,5.9c-9.8,13.8-29.1,13.1-39.5,26
	c-6.4-5.3-4.3-11.5-2-17.8c2.3-4.8,5.6-8.6,10-11.6C1146.6,280.8,1153.7,278.6,1161.4,282.4z"/>
<path fill="#875C37" d="M1135.8,297.4c-1.4,5.5-2.8,11-4.2,16.4c-0.4,2.7-0.8,5.3-1.3,8c-1.7,0.4-3.5,0.7-5.2,1.1
	c-3.1,1.4-5.5,0.6-7.2-2.2C1114.6,305.8,1114.7,293.6,1135.8,297.4z"/>
<path fill="#D4C4BA" d="M1858.6,582.7c0.4,13.8,0.7,27.6,1.1,41.3c-0.8,5.9-0.2,12.6-7.7,15.1C1860,621,1850.3,600.8,1858.6,582.7z"
	/>
<path fill="#1E191B" d="M1004.6,313.9c-1.5-0.2-2.9-0.5-4.3-0.9c-1.1-12.8-16.4-14.3-20.1-25.1c-0.2-14.4,8.4-12.9,17.5-9.2
	c9.7,3.9,18.7,10,29.9,6.9c13.9,7.5,27,16.8,43.6,17.7c15.5,7.4,29.4,16.4,33.2,35c-0.3,8.1-2.3,16.2,2.3,24.1
	c5.6,9.7,5.3,19.3-4.4,26.3c-9,6.6-19,6.1-27.8-0.1c-12.1-8.6-25.6-15.2-36.7-25.1C1028.3,346,1029.2,321.4,1004.6,313.9z"/>
<path fill="#181419" d="M1025.4,287.9c-7,18.8-15.5,1.4-23.2,0.7c-7.4-0.7-14.1-16-22-0.7c-7.6-3.6-17.1-4.6-19.6-14.8
	c15.8-11.6,33.2-1.5,49.6-3.7c3.7-1,7.4-1.3,11.2-0.4C1030.5,273.6,1023.9,281.6,1025.4,287.9z"/>
<path fill="#412B1E" d="M1025.3,273c-3.3-0.1-6.6-0.2-9.9-0.3c-3.2-2.8-2.7-5.8-0.3-8.8c5-0.4,9.9-0.8,14.9-1.2
	c23.6,6.1,47.6,0.8,71.3,2.8c3.3,0.2,5.2,1.9,5.9,5.1c-0.8,2.9-2.6,5.2-5.2,6.7c-23.2,5.1-46.4,3.5-69.7,1
	C1029.5,277.1,1027.1,275.3,1025.3,273z"/>
<path fill="#EBD0A3" d="M1105.7,268.6c-25-4.6-51.3,5.8-75.7-6c16.9-0.3,33.8-0.7,50.7-1c11.7,0.9,23.4,1.9,35.1,2.8
	c1,2.1,0.6,3.9-1.2,5.3C1111.4,271.1,1108.4,270.7,1105.7,268.6z"/>
<path fill="#392318" d="M1015.1,263.8c0.1,2.9,0.2,5.9,0.3,8.8c-18.3,0.1-36.5,0.3-54.8,0.4c-0.3-1.6-0.4-3.1-0.4-4.7
	c13.2-5.3,26.6-4.1,40-0.7C1005.2,266.4,1010.1,265.1,1015.1,263.8z"/>
<path fill="#E0C090" d="M1000.3,267.6c-13.3,0.2-26.7,0.5-40,0.7C973.4,256.8,986.7,258.8,1000.3,267.6z"/>
<path fill="#D7C7BE" d="M1215.8,428.5c-0.1,6.7-0.2,13.5-0.3,20.2c-4.4,6.9,1.3,16.2-5.3,22.6c-13.6,6.8-24.3,1.4-34.2-7.8
	c-12.3-14.8-16.4-31.4-10.1-49.9c8.2-8.3,19.7-7.1,28-4.4c16.2,5.3-8.5,3.6-2.1,7.5C1199.4,421.3,1207.8,424.6,1215.8,428.5z"/>
<path fill="#C5AEA4" d="M1166,413.6c-0.9,16.9,1.8,32.6,14.9,44.9c-9.7,18.3,1.8,37.5-2.3,56.1c-0.3,3.8-0.6,7.5-1.5,11.2
	c-2.2,4.9-4.2,10.2-11.3,8.2c-1.1-29.8-2.3-59.7-3.4-89.5c-0.4-10.7,1.1-21.9-8.3-30.2C1158.1,414.1,1162.1,413.8,1166,413.6z"/>
<path fill="#241E21" d="M734.1,318.1c-5.3-3.7-10.5-7.4-15.8-11.1c-1.4-1.3-2.8-2.6-4.2-3.9c-1.8-4.7-3.7-9.4-5.5-14.1
	c-5.6-11.4,1.4-16.4,10.4-20.3c17-1.3,34.1-1.7,51.1,0.2c7.5,3.2,15.8,3.2,23.6,5.1c10.9,9,21,18.7,21.7,34.3
	c-6.6,6.2-14,2.6-21.2,1.6c-11.1-2.5-22.2-10.4-33.1,0.3c-2.5,6,1,11.9,0.6,17.8c-0.7,4.6-2.7,8.4-6.6,11.2
	c-6.6,1.9-10.8-1.4-14.4-6.3C738.5,328,738.1,322.3,734.1,318.1z"/>
<path fill="#372216" d="M774.5,273c-18.6,0-37.2,0-55.8,0c-9.7,4.8-19.3,4.9-29.1,0.1c-0.3-1.5-0.6-3.1-0.6-4.7
	c6.1-5.8,13.6-2.1,20.4-3.2c8.6,0,17.3,0,25.9,0c13,1.2,26.2-2.5,39,2.3c7.8-3.6,17.6,2.6,24.6-4.9c13.6,4.3,27.2,4.3,40.9,0
	c1.7-0.3,3.4-0.6,5.1-0.9c3.4,0.3,6.8,0.6,10.3,0.9c10.7,7.1,23.9-1.9,34.5,5.5c-0.3,3.1-0.5,6.3-0.8,9.4c-3,0.1-6.1,0.2-9.1,0.4
	C844.2,287.4,809.4,280,774.5,273z"/>
<path fill="#15141C" d="M689.7,273.2c9.7,0,19.4-0.1,29.1-0.1c-3.8,5.1-10.3,8.4-10.1,15.9C702.3,283.7,696,278.4,689.7,273.2z"/>
<path fill="#E5C48F" d="M774.4,267.6c-13.4-0.2-26.9-0.4-40.3-0.6c-1.9-0.8-2.5-1.6-1.9-2.4c0.6-0.8,1.2-1.2,1.9-1.2
	C747.6,264.5,761.9,257,774.4,267.6z"/>
<path fill="#DEB982" d="M839.9,262.7c-13.6,8-27.2,8.5-40.9,0C812.6,262.7,826.2,262.7,839.9,262.7z"/>
<path fill="#E7C692" d="M734.1,263.5c0,1.2,0,2.4,0,3.6c-8.3,0-16.7,0-25,0.1c-1.9-0.8-2.6-1.6-1.9-2.5c0.6-0.8,1.2-1.3,1.9-1.3
	C717.4,263.4,725.7,263.4,734.1,263.5z"/>
<path fill="#DBB67F" d="M709,263.3c0,1.2,0,2.5,0.1,3.7c-6.7,0.5-13.3,0.9-20,1.4C692.7,255.2,702.3,264.8,709,263.3z"/>
<path fill="#171112" d="M720.7,770.4c5.2-3.6,8-8.5,8.6-14.8c5.8-5.9,4.3-13.8,5.5-21c1.7-17.2,8.6-20.9,20.3-6.9
	c9.6,11.5,20.8,21.3,30.7,32.5c7.7,15.7,8.8,30.3-7.3,41.9c-13,0.4-26,2.2-38.8-1.1c-12.4-0.3-24.9-0.6-37.3-0.9
	c-5.8-0.2-12.3,0.6-11.6-8.5c2.9-2.2,5.7-4.3,8.5-6.5c0,0-0.4,0.2-0.4,0.2C704.9,778.5,712.1,773.3,720.7,770.4z"/>
<path fill="#7A5435" d="M739.6,801c13.3-0.5,26.5-1,39.8-1.4c17.2-11.9,35-10.4,53.2-2.6c2.8,2.2,3.5,4.9,2.2,8.1
	C803,803,770.9,810.1,739.6,801z"/>
<path fill="#815C3D" d="M834.7,805c-0.1-1.4-0.1-2.8-0.1-4.2c4.7-7.6,12.5-7.5,20.1-8c12.2-1.2,23.6,1.4,34.6,6.6
	c0.2,1.8,0.5,3.6,0.7,5.3C871.5,804.9,853.1,805,834.7,805z"/>
<path fill="#1C1619" d="M1004.6,313.9c0.6-0.5,1.2-1.1,1.9-1.6c9.6,17.6,34.3-9.5,34.2,6c-0.1,12.7-5.6,26.2-0.2,39.9
	c-11.7,10.4-19.1-1.5-28.1-5.3c-1.9-0.6-3.7-1.3-5.4-2.2c-0.7-0.6-1.5-1.3-2.2-1.9C1004.6,337.2,1004.6,325.6,1004.6,313.9z"/>
<path fill="#502B1A" d="M999.9,589c-1.5,0.1-2.9,0.3-4.4,0.5c-8.3-8.7-8.5-19.7-7.5-30.3c2.6-28.3-7.6-57.7,7.1-84.9
	c0,0-0.3-0.9-0.3-0.9c1.8,0.1,3.6,0.3,5.5,0.4c1,0.9,2.1,1.8,3.1,2.6c8.5,16.6,1,35.1,6.4,52c0.3,2.8,0.1,5.6-0.5,8.3
	C1003.3,553.6,1014.9,573.7,999.9,589z"/>
<path fill="#865C38" d="M1000.7,413.6c1.9-21.6-5.4-43.7,4-64.8c0,0,1-0.8,1-0.8c11.6,20.5,8.6,41.7,3.1,63.1
	C1006.7,414.1,1004,414.9,1000.7,413.6z"/>
<path fill="#825836" d="M1000.3,473.7c0.1-11.8,0.3-23.6,0.4-35.4c2.1-1.4,4.2-1.2,6.2,0.1c6,6.5,4.9,15,6.5,22.7
	c0.2,2.3,0.1,4.6-0.4,6.8c-1.3,3.4-3.5,5.8-6.7,7.4C1004,476,1002,475.5,1000.3,473.7L1000.3,473.7z"/>
<path fill="#8F6540" d="M1004.8,438.5c-1.4,0-2.8,0-4.1-0.1c0-8.2,0-16.5,0-24.7c1.4-0.1,2.9-0.1,4.3-0.1
	C1013.2,421.9,1013.2,430.2,1004.8,438.5z"/>
<path fill="#1B1414" d="M1142.7,775.9c-2.7,7.5,6.4,8.8,7.5,14.3c-7.1,9.9-16.1,11.8-25.3,4c-8.7-7.4-10.7-16.4-1.2-25.4
	c4-2.1,7.9-2.3,11.8,0.2C1137.8,771.3,1140.2,773.6,1142.7,775.9z"/>
<path fill="#B6834E" d="M1135.4,769.1c-3.2,0.5-6.4,0.9-9.6,1.4c-10.2-0.3-10.1-7.9-10.6-15c1.4-5.6,2.7-11.4,10.6-10.4
	c1.5,2,3,4.1,4.5,6.1C1132,757.1,1133.7,763.1,1135.4,769.1z"/>
<path fill="#D1BDB2" d="M393.1,600.7c3.2-5.5,6.3-11,9.5-16.5c1.9,0.2,3.9,0.5,5.8,0.7C406.5,593.3,402,599.1,393.1,600.7z"/>
<path fill="#D4C2B8" d="M1442.3,684.7c3.3,5,6.7,10,10,15.1c-1.8,8.3-3.6,16.7-5.4,25C1438,712.3,1444.1,698,1442.3,684.7z"/>
<path fill="#D3C1B6" d="M1211.2,468.6c0.5-6.8-1.5-14.2,4.4-19.9c4.6,18.6-6.7,38.7,5.8,56.5c0.6,7.5-1.5,13-10.1,13.7
	c-2.5-1.8-4.4-4.2-5.8-7C1201.2,496.7,1200,481.9,1211.2,468.6z"/>
<path fill="#1D1719" d="M774.5,273c27.3-0.1,54.6-0.3,82-0.1c8,0,16.8-2.1,23.4,5c-5.1,6.4-10.2,12.8-15.3,19.2
	c-4.1,0.7-8.2,1.2-10,5.8c-1.7,1.7-3.4,3.4-5.1,5c-10.1,4.4-17.2-3.5-25.6-6.1c-7.6-4.3-9.9-14.2-18.4-17.6
	c-3.6-2.3-7.9-3.4-11.1-6.3C787.5,277.4,779.9,279.6,774.5,273z"/>
<path fill="#1F1A1C" d="M759.2,328.1c-6-5.6-11.7-11.2-5-19.9c18.8-10.9,34.1-3.1,48.5,9.2c12.7,10.3,29.6,13.9,41.1,25.9
	c0.7,3.8,1,7.9,5.2,10c-8.9,24.7-3.7,50.1-3.8,75.3c-0.5,10-1.1,19.9-1.6,29.9c-16.9-4.9-9.2-19.4-11.6-29.9
	c-3.3-19.5-13.2-32.6-33.7-37.1c-11.3-2.4-21.4-8.2-28.7-17.8c-3.8-5.9-7.9-11.7-8.8-19C761.9,345.7,761.4,336.9,759.2,328.1z"/>
<path fill="#261F22" d="M843.8,343.2c-18.5,1.5-30.8-10.9-44.5-20.1c-1.2-6.8-10.5-11.6-5-20.1c6.7,1.7,13.4,3.3,20.1,5
	c21.8-11.2,25.2,5.1,29.6,19.8c1.9,3.4,3.7,6.9,5.6,10.3C847.7,339.8,845.8,341.5,843.8,343.2z"/>
<path fill="#4A3325" d="M1105.7,268.6c3.4-0.6,6.7-1.2,10.1-1.9c9.9-2.2,19.7-2.4,29.6,0.2c5.6,0.5,12.3-1.5,14.8,6.2
	c-13,11-28.5,6.1-43.1,6.5c-4.7-0.9-8.6-2.9-11.2-7C1105.8,271.3,1105.7,270,1105.7,268.6z"/>
<path fill="#1F1B20" d="M1116.2,273.3c14.6,0,29.3-0.1,43.9-0.1c0.5,1.3,0.6,2.7,0.3,4.1c-5.5,5.8-12.1,8.8-20.2,8
	C1130.5,284.7,1118.8,288.1,1116.2,273.3z"/>
<path fill="#EDD0A0" d="M1145.3,266.9c-9.9-0.1-19.7-0.1-29.6-0.2c0,0,0-2.3,0-2.3C1125.7,264.8,1136,259.6,1145.3,266.9z"/>
<path fill="#755335" d="M1141.3,283.5c6.4-2.1,12.7-4.2,19.1-6.3c0.3,1.7,0.6,3.4,0.9,5.1c-6,3.8-12.4,6.2-19.7,5.3
	c-1.2-0.9-1.6-1.8-1.3-2.7C1140.7,284,1141,283.5,1141.3,283.5z"/>
<path fill="#E5D6CC" d="M1838,645.2c-7.8,9.2-21.4-0.3-29.1,9.1c-3.5-2.2-4.7-5.4-4.4-9.3C1815.7,645.1,1826.8,645.1,1838,645.2z"/>
<path fill="#DECFC7" d="M1141,650.4c4.8-0.8,9.6-1.6,14.4-2.4c3.2,3.5,6.3,7,9.5,10.6C1156.2,657.9,1145.1,664.5,1141,650.4z"/>
<path fill="#DEBB88" d="M889.7,268.1c-11.3-3.2-24.4,5.5-34.5-5.5C866.6,265.3,879.6,258,889.7,268.1z"/>
<path fill="#D6C5B9" d="M1894.3,564.2c-6.7-5-13.4-10-20.1-15.1c10.8-0.3,21.6-0.4,31.3,5.6c-2.2,3.1-4.4,6.3-6.6,9.4
	C1897.4,564.1,1895.9,564.2,1894.3,564.2z"/>
<path fill="#1F191C" d="M844,327.8c-8.1-9.2-13.8-22-29.6-19.8c-8-9.2-17-17.7-20.1-30.1c5,0,10.1,0,15.1,0
	c6,5.9,5.9,16.5,15.1,20.1c10.3-1.7,17.2,5.3,25,10C847.6,314.6,845.8,321.2,844,327.8z"/>
<path fill="#281D1A" d="M995.1,474.2c0.1,38.4,0.3,76.8,0.4,115.2c-1.4,1.6-2.9,3.2-4.3,4.9c-2.2-3.3-4.4-6.6-6.5-9.9
	c-2.8-36.8-4.5-73.6,0.9-110.3c0,0,0.1-0.1,0.1-0.1C988.8,474.1,992,474.2,995.1,474.2z"/>
<path fill="#84593B" d="M720.7,770.4c-6.4,6.3-10.7,15.7-22,14.9c-0.8-7.9,3.4-12.4,10.2-15.2C712.9,770.1,716.8,770.3,720.7,770.4z
	"/>
<path fill="#1A1416" d="M779.3,760c-15.7-4.1-22.6-18.1-31.1-29.5c-10.5-14-8.9,3.4-13.5,4.1c0-6.7,0-13.3-0.1-20
	c2.3-11.2-3.8-22.8,1.6-33.9c13.5-10.8,27.9-9.6,40.6,0c12.3,9.3,26.3,16.7,36.8,28.5c3.5,5.4,8.2,11.1,8.1,17.4
	c-0.3,17.4,10.6,18.8,23.5,18.4c-0.2,11.2,5.4,19.6,13.1,26.9c1.9,3.1,3.9,6.2,5.8,9.4c-2.4,11.2-10.8,8.8-17.4,6.5
	c-8.2-2.7-15.9-3.8-24.1-0.9C807.8,778.8,794.7,767.6,779.3,760z"/>
<path fill="#1E181A" d="M824.5,785.2c2.4-12.5,9.9-9.6,17.9-6.1c7,3,13.8,9.3,21.9,2.4c3.5,1.3,7,2.5,10.5,3.8
	c3.2,1.9,6.5,3.7,9.7,5.6c1.6,2.9,3.2,5.8,4.8,8.6c-11.7,0-23.3,0-35,0C845.9,791.6,829.3,800.7,824.5,785.2z"/>
<path fill="#171213" d="M1121,754.7c2,5.1-0.7,11.7,4.8,15.7c-8.2,26.8,7.9,23.5,24.4,19.7c1.9,1.5,3.7,3,5.6,4.4
	c-1.7,2.1-3.4,4.2-5,6.3c-27,4-54.1,0.7-81.1,1.8c-3.2-0.1-7.3,0.9-9.5-1.4c-17.3-18.5-40.6-29.4-59.2-46.2
	c-0.3-1.7-0.5-3.4-0.8-5.2c0.6-7.1-0.8-14.4,2.1-21.2c1.9-3.2,4.5-5.6,7.9-7.2c14.1-4.8,22.7,6.5,33.6,11.4
	c9.5,4.3,16.9,13.3,29.7,13c2.9-12-8.8-24.1,0-35.5c11.3-6,15.8,3.8,21.3,9.8c7.1,7.6,13.5,15.9,21.5,22.7
	C1119.4,746.2,1116.9,751.8,1121,754.7z"/>
<path fill="#1C1618" d="M845.4,745.2c-5.9,7.1-14.6,6-22.3,7.7c-7.1,1.5-13.6-1.7-9-8.6c8.2-12.4-1.5-20-4.6-29.4
	c17.4-10,21.7,1.7,25.1,15.1c2.1,4.9,5.6,8.3,10.7,9.9c1.2,1.6,2.5,3.2,3.7,4.8C847.8,744.9,846.6,745.1,845.4,745.2z"/>
<path fill="#C4B0A9" d="M1433.5,333.4c-1.2-10.1-1.5-20.2,2.7-29.9C1447.5,314.6,1437,323.7,1433.5,333.4z"/>
<path fill="#A07F6B" d="M553.3,424.1c-46.9-2.6-46.8-2.6-47.1,45.7c-0.1,9.9,2.2,20-2.6,29.5c-0.8-18.3-1.6-36.6-2.4-54.9
	c-5.8-6.5-6.4-14.7-7.6-22.8c0.3-4.4,1.7-8.3,5.5-10.9c15.6-3,31.2-5.5,44.4,6.9C546.8,419.7,550,421.9,553.3,424.1z"/>
<path fill="#D4C2B8" d="M498.6,413.8c-0.1,3.2-0.2,6.4-0.3,9.6c-0.6,8.6,1,17.8-5.2,25.2c-7.1-12.6-14.7-25.1-15.1-40.2
	c0-1.6-0.1-3.2-0.2-4.8c1.8,0,3.5,0,5.3-0.1C487.7,407.7,496.8,405.2,498.6,413.8z"/>
<path fill="#D6C4B9" d="M493,448.6c0.9-8.6-2.8-18.1,5.2-25.2c6.4,6.2,3.1,13.8,3,20.9c-5,3.2,0.1,11.3-6.6,13.7
	C494.1,454.9,493.5,451.8,493,448.6z"/>
<path fill="#CFBBAF" d="M493,534c-4.4-3.9-12.6-2.2-14.5-9c-0.3-1.1,6.1-4,9.4-6.1C493.3,522.7,493,528.5,493,534z"/>
<path fill="#E0D0C5" d="M457.8,579.2c-1.7,11.3,3.9,23.5-4.2,34c0-11.2,0-22.4,0.1-33.5C455.1,579.4,456.4,579.3,457.8,579.2z"/>
<path fill="#D3C3B8" d="M119.3,412.5c-27,0-54,0-81,0c0-0.8-0.1-1.6-0.1-2.3c26.9,0,53.8,0,80.7,0
	C119.1,411,119.2,411.7,119.3,412.5z"/>
<path fill="#D3C3B8" d="M162.2,413.3c-1.9,3.3-5,4.6-8.2,2.8c-1.5-0.8-2-3.6-2.9-5.5c2.3-0.6,4.6-1.7,6.9-1.7
	C160.5,408.8,162.8,409.8,162.2,413.3z"/>
<path fill="#7C5B52" d="M267.1,498.9c-3.5-1.7-7-3.4-10.5-5.1c7.9-28.1,28.2-40.9,55.5-45c1.6-2.6,3.3-2.6,5-0.1
	c9.5,5.1,22,1.1,30.2,10C310.5,452,283.4,464.7,267.1,498.9z"/>
<path fill="#D2C0B5" d="M317.1,448.8l-2.5,0.4c0,0-2.5-0.4-2.5-0.4c0-3.4,0-6.8,0-10.2c9.8,0.1,19.6,0.1,29.5,0.2
	C335.7,447.5,323,439.8,317.1,448.8z"/>
<path fill="#D1BDB2" d="M382.5,549.1c0.1-10,0.2-20.1,0.4-30.1C389.7,529.1,390.1,539.1,382.5,549.1z"/>
<path fill="#DDCDC3" d="M583.9,503.9c-2.4-7.6,3.5-13.3,4.6-20.1c13.4,0,26.8,0,40.1,0c-3.3,8.5-10.3,15.8-9.3,25.9
	c0,0-0.2,0.1-0.2,0.1C607.3,508.5,594.2,514.5,583.9,503.9z"/>
<path fill="#D5C4B9" d="M498.6,413.8c-5.2-3.4-10.4-6.8-15.5-10.3c22,0.2,44,0.5,66,0.7c-0.1,3-0.3,6-0.4,9
	c-1.7,1.4-3.4,2.8-5.1,4.2C528.5,416.3,513.6,415,498.6,413.8z"/>
<path fill="#1C1618" d="M734.1,318.1c3.3,3.3,6.7,6.7,10,10c-1.1,10.9,4.7,21.3,2.4,32.3c1.6,34.5-3.4,69.5,7.2,103.3
	c-6.7,5.6-13.2,5.9-19.3-0.9C734.3,414.6,734.2,366.3,734.1,318.1z"/>
<path fill="#D3C2B7" d="M734.4,462.8c6.6,0,13.3,0.1,19.9,0.1c1.1,0.4,2.2,0.9,3.3,1.3c1.8,1.6,3,3.5,3.7,5.7c0,2.3-0.6,4.5-1.9,6.4
	c-6.1,6.1-14.9,9.6-18.2,18.6c-3.4,3.3-6.7,6.6-11.9,3.2c-0.1-1.5-0.4-3-1-4.4C731.5,483.7,724.2,471.6,734.4,462.8z"/>
<path fill="#D5C2B7" d="M583.9,503.9c11.6,2.7,25.4-7.4,35.3,6c-0.4,5.4-4.3,7.5-8.7,9.1c-6.7,9.6-17.8,7.4-27,10.1
	c-3.7-1.9-7.5-3.7-11.2-5.6C576.1,516.9,580,510.4,583.9,503.9z"/>
<path fill="#C9B5AA" d="M583.4,529c5.5-12.8,19.4-3.1,27-10.1c-3.5,10.6-12.2,13.6-22,15C586.8,532.3,585.1,530.6,583.4,529z"/>
<path fill="#C7B2A8" d="M1418,392.2c1.3,0.7,2.5,1.6,3.5,2.6c0.4,64.9,0.9,129.7,1.3,194.6c-0.4,6.4-0.8,12.7-1.1,19.1
	c-1.2,0.8-2.4,1.6-3.7,2.3C1418,537.8,1418,465,1418,392.2z"/>
<path fill="#D7C7BC" d="M1416,665.7c-49.4,6.1-89.6-10.1-120.2-49.6c3.5-24.7,22.4-17.2,37.4-18c2.7-0.5,5.3-0.1,7.7,1.2
	c18,18.4,33.5,40.4,61.2,45.8c3.8,13.4,16.8,11,26,15C1424.1,662,1420,663.8,1416,665.7z"/>
<path fill="#D7C6BC" d="M1280.9,601c-15.5-6.3-24.1-20.1-34.6-31.8c10.5,2.8,20.3,3.4,21-11.2c0.7-14.1,9.9-14.7,20.3-14.2
	c11.4,12.9,31.4,20.9,24.8,43.9c1.3,1.2,1.9,2.4,1.8,3.8c-0.1,1.5-0.4,2.2-0.7,2.2C1303.5,600.5,1288.1,582.5,1280.9,601z"/>
<path fill="#D2C7C0" d="M1311.7,594.3c0.2-2.2,0.4-4.4,0.6-6.6c9.5,4,22.6-0.7,28.6,11.7c-1.4,0-2.8,0-4.1,0
	C1327.7,601.3,1317.8,607.4,1311.7,594.3z"/>
<path fill="#DACBC0" d="M1211,514.4c0.1,1.5,0.2,3.1,0.3,4.6c7.3,5.1,6.3,10.3,0,15.4c-0.2,1.7-0.3,3.4-0.5,5.1
	c-4.5,4.3,1.2,12.7-6.3,15.9c-13-5.7-13-16.5-10.9-28.1C1201.4,525.8,1201.4,513.6,1211,514.4z"/>
<path fill="#DECFC4" d="M1310.9,409.1c10.7-9.6,23-4.3,35.3-5.2c-9.8,22.2-22.8,11-35.2,5.3C1311,409.1,1310.9,409.1,1310.9,409.1z"
	/>
<path fill="#DCCCC1" d="M1317.5,453.7c-1.6,5.7-6.6,4.7-10.6,5.5c0.2-8.3,0.4-16.7,0.6-25c7.2-0.6,11.4,3.3,14.3,9.3
	C1322,447.6,1319.9,450.7,1317.5,453.7z"/>
<path fill="#806B60" d="M985.6,474.2c-0.3,36.8-0.6,73.5-0.9,110.3C978.5,547.6,976.9,510.9,985.6,474.2z"/>
<path fill="#DCCCC3" d="M1196.2,524c3.5,10,2.9,21.3,10,30.1c3.5,5,3.5,10.1,0,15.1c-8.7,7.3-21.8,1.5-30.1,10
	c-2.5,1.5-4.8,1.2-6.8-1c-2.6-11.2,2-23.1-2.9-34.1c-0.2-3.3-0.4-6.7-0.7-10c1.8-3.3,3.6-6.6,5.4-10c8.4,9,14.6-5.1,22.4-2.1
	C1194.5,522.6,1195.3,523.3,1196.2,524z"/>
<path fill="#C1AEA7" d="M1166.5,544c10,10.3,2.5,23.4,5.4,34.8c4.4,7,5,13.9-0.6,20.6c-7.3,12.4,4.4,29.2-9.4,40
	C1163.4,607.6,1164.9,575.8,1166.5,544z"/>
<path fill="#D3C0B5" d="M1171.3,599.4c0.2-6.9,0.4-13.7,0.6-20.6c1.4,0.2,2.8,0.3,4.2,0.4c6.3,4.8,4.7,12,5.4,18.4
	c0.3,2.9,3.1,7.7-0.7,8.2C1177.9,606.3,1174.4,601.7,1171.3,599.4z"/>
<path fill="#E4D4C9" d="M1206.2,569.2c0-5,0-10.1,0-15.1c0.2-5.3-0.5-10.9,4.6-14.6c-0.1,11.3-0.3,22.6-0.4,33.9
	C1209,572,1207.6,570.6,1206.2,569.2z"/>
<path fill="#D7C6BA" d="M1311.7,594.3c7.1,7.8,16.6,4.1,25.1,5.1c-11.8,10.1-31.9-0.1-41,16.7c-6.8-3.2-12-8-14.9-15.1
	c-1.5-6.6-2.9-13.3-4.7-21.3C1289.9,582.4,1302.7,583.4,1311.7,594.3z"/>
<path fill="#281F1C" d="M739.2,679.7c-1.6,11.6,3.7,24.2-4.5,35c-0.4-1.8-0.8-3.6-1.2-5.5c-4-14.7-0.9-29.7-1.9-44.5
	c0-17.7,0-35.5,0-53.2c0.3-8.8-0.8-17.6,0.9-26.3c2.4-2.3,5-2.6,7.9-1.1c8,8.5,5.4,19.2,6.1,29.1c0.1,7.1-0.4,14.3,1,21.3
	c1.1,10,0.3,20-1.1,29.9C746.2,670.6,744.3,676,739.2,679.7z"/>
<path fill="#744A2B" d="M734.8,584.1c-0.4,8.4-0.8,16.9-1.3,25.3c-1.3,2.6-2.7,2.5-4.1,0.1c0-37.1,0-74.1,0-111.2
	c3.2-1.5,6.3-3,9.5-4.4c2.2,1.9,3.7,4.3,4.4,7.1c0.5,2.8,0.6,5.7,0.3,8.5c-3.4,15.4-1.5,31.1-2,46.7
	C741.1,566,742.6,576.2,734.8,584.1z"/>
<path fill="#794E30" d="M729.4,609.5c1.4-0.1,2.8-0.1,4.1-0.1c0,18.4-0.1,36.8-0.1,55.2c-1.3,2.5-2.6,2.5-3.9,0.1
	C729.4,646.3,729.4,627.9,729.4,609.5z"/>
<path fill="#7E5333" d="M729.5,664.7c1.3-0.1,2.6-0.1,3.9-0.1c0,14.9,0.1,29.7,0.1,44.6C725.1,695,730.7,679.6,729.5,664.7z"/>
<path fill="#1E181A" d="M965.2,784.9c8.9,0.1,17.7,0.1,22.4-9.5c2.5-1.8,5.1-3.6,7.6-5.5c11.3-1.5,22.7-1.3,24.4,13
	c2.3,18.9-14.3,15.9-25.1,19.3c-11.5-0.9-23.4,4-34.4-2.8C961.8,794.6,963.5,789.8,965.2,784.9z"/>
<path fill="#745131" d="M1060.4,799.6c30.1,0.4,60.2,0.9,90.3,1.3c-34.8,9.4-70.3,2.1-105.4,4.2c-1.6-2.4-1.3-4.7,0.8-6.6
	C1051.2,795.4,1055.8,797,1060.4,799.6z"/>
<path fill="#805F40" d="M960.1,799.5c11.8,0,23.6,0,35.5,0.1c3.2-2.1,6.5-1.9,9.9-0.5c1.5,2.1,1.4,4.1-0.3,6
	C990.2,803.1,974,810.4,960.1,799.5z"/>
<path fill="#7B593A" d="M1005.2,805c0-1.3,0.1-2.7,0.1-4.1c13.4-6.1,26.8-14.4,40.1,0c0,1.4,0,2.7-0.1,4.1
	C1032,805.1,1018.6,805,1005.2,805z"/>
<path fill="#D7C6BB" d="M758.3,476c0.3-2.4,0.6-4.8,0.9-7.1c17.5-15.2,40-2.3,58.7-10.8c9.4-0.4,18.2,0.3,21.6,11.4
	c-0.4,6.7,1.6,13.9-4.6,19.2c-3.6-5.7-8-10.1-15.5-9.6c-10-1.8-16.2,1.7-17.3,12.4c-1,20.5-0.2,41-0.4,61.5
	c-0.2,12.2,0,24.4,0.9,36.7c-0.5,2.9-1.9,5.3-4,7.3c-11.9,6.5-24.2,5.7-36.6,1.5c-2.4-1.4-3.9-3.5-4.7-6.2c0-7,7.2-10.5,8.4-16.9
	C765.6,542,773,508.2,758.3,476z"/>
<path fill="#4F4440" d="M798.6,484c3.1-18,12.8-8.2,20.9-5c-3.3,1.5-6.6,2.9-9.9,4.4c-5.8,14.6-1.2,29.8-2.7,44.6
	c-0.3,4.1,1.1,8.6-2.8,11.9c-3.3,0.8-5.5-0.4-6.8-3.5C797.3,519,795.3,501.5,798.6,484z"/>
<path fill="#1C1819" d="M839.5,534c0,3.4,0,6.8,0,10.1c-7.1,7.4-17,8.6-26.1,11.8c-2.6-0.4-4.7-1.7-6.4-3.8
	c-3.4-6.6-1.6-12.5,2.4-18C819.5,534,829.5,534,839.5,534z"/>
<path fill="#070406" d="M805.2,528.9c0.8-15.2-5.8-31.1,4.4-45.4c-0.1,15.2-0.1,30.3-0.2,45.5C807.9,531.6,806.5,531.5,805.2,528.9z
	"/>
<path fill="#0F0B0D" d="M805.2,528.9c1.4,0.1,2.8,0.1,4.2,0.1c0,1.7,0,3.4,0.1,5.1c0,6.7,0.1,13.4,0.1,20c-1,0.5-2,1-3,1.5
	c-2.3-0.4-4.1-1.7-5.3-3.8c-2-4.8-0.5-8.9,2.5-12.6C804.2,535.8,804.7,532.3,805.2,528.9z"/>
<path fill="#171213" d="M809.5,554.1c1.6,0,3.3,0,4.9,0c8.7-2.5,11,4.3,14.7,10.1c-6.9-12.6-9.8-22.4,10.4-15.2
	c0,40.2,0,80.4,0,120.5c-1,0.7-1.9,1.4-2.8,2.1c-1.2,0.1-2.3,0.2-3.5,0.3c-16-3.9-25.8-17.2-38.6-25.9c-8.2-5.6-15.8-11.9-26.4-11.7
	c-2.4-0.5-4.7-1.4-7-2.5c-12.6-8.8-20.2-19.6-13.3-35.7c2.6-4.5,5.1-9.2,11.7-6.9c-0.8,1.5-0.7,3,0.2,4.5c8.2,6.4,17.8,1.4,26.6,3.1
	c6.3,0.8,12.7,4.8,18.4-1.1c-0.3-3.3-2.1-6-3.1-8.9c-0.6-2.2-0.7-4.4-0.4-6.7c1.6-9.1-0.2-19.1,8.1-26.1L809.5,554.1z"/>
<path fill="#1A1517" d="M764.2,629.4c1.7,0,3.3,0,5,0c22.5,12.2,38.9,34.4,65.3,40.2c6.1,7.5-1.2,17.6,5,25.1c0,8.4,0,16.7,0,25.1
	c-9.6,2-9.4-7.5-13.7-11.7c-19.5-18.5-39-37-68.7-36.2c-7,0.2-13-2.3-18-7.4c0-10.1,0-20.1,0-30.2
	C742.8,608.8,754.1,622,764.2,629.4z"/>
<path fill="#1E181A" d="M739.1,664.6c32.7-4.1,59.8,5.6,84.4,28.5c9,8.3,8.4,19.5,16.1,26.8c-1.7,3.4-3.4,6.7-5,10.1
	c-6.9-7.4-12.3-17.4-25.1-15.1c-22.5-13.6-38.7-39.8-70.3-35.1C739.1,674.7,739.1,669.6,739.1,664.6z"/>
<path fill="#171314" d="M839.5,549.1c-27,1.5,7.3,18.9-10,23.7c-5.3-3.3-5.3-15.9-15.1-18.7c3.6-15.2,16-8.3,25.1-10
	C839.5,545.8,839.5,547.4,839.5,549.1z"/>
<path fill="#171214" d="M839.6,694.7c-7.8-7.2-4.1-16.6-5-25.1c1.7,0,3.3,0,5,0C839.5,678,839.5,686.4,839.6,694.7z"/>
<path fill="#171214" d="M839.5,469.5c-6-4.5-12.3-7.8-20.1-5c-3.4,2-7,1.8-10.7,0.9c-10.4-3.9-22,1.2-32.1-4.5
	c-14-11-17.5-25-13.2-41.4c-4,15.7,0,29.3,12.1,40.7c0.3,2.7-0.8,4.6-3.2,5.8c-6.2,0.2-12.4,1.3-18.4-1.3c0,0,0.4-1.6,0.4-1.6
	c-10.8-4.8-16.1-11.8-15.6-24.8c1.2-26.6,0.3-53.3,0.4-79.9c2.4-0.9,4.5-0.6,6.6,0.9c23.5,32.8,50.4,60.6,93.8,64.5
	c1.5,11.6-3.4,23.9,4.1,34.8c0.1,3.4,0.3,6.8,0.4,10.1c0,0-2.4,0-2.4,0L839.5,469.5z"/>
<path fill="#6E4527" d="M999.9,589c2.8-18.1-4.7-37.1,4.9-54.6c1.2,1.1,2.4,2.1,3.6,3.2c6.2,10.8,4.1,22.6,4.2,34.1
	c0.3,40.7,0.2,81.3,0,122c0,9.8,1.4,20.1-4.8,28.9c-3.1,5.3-7.2,5.5-12.1,2.6C995.5,679.6,1003.9,634.5,999.9,589z"/>
<path fill="#754D35" d="M995.8,725.1c3.1-0.1,6.2-0.1,9.3-0.2c1.6,0.8,2.3,1.8,2.1,3c-0.3,1.3-0.6,1.9-1.1,1.9
	c-1.8,6.8,0.9,14.9-5.9,20.2c-1.6,0-3.2,0-4.8,0.1C995.5,741.7,995.6,733.4,995.8,725.1z"/>
<path fill="#1A1415" d="M1045.4,801c-13.4,0-26.8,0-40.1,0c-3.2-0.5-6.4-1-9.7-1.4c4.8-6.9,19.4-1.3,19-14.8
	c-0.4-12.9-15.1-7-19.4-14.8c1.9-4.9,3.8-9.9,5.7-14.8c26.2,6.3,48.4,18,59.5,44.5C1055.4,800.1,1050.4,800.5,1045.4,801z"/>
<path fill="#8B5C32" d="M1125.9,634.5c-0.1,35.1-0.3,70.3-0.4,105.4c-8.1,0.6-9.5-5.5-11.2-11.2c-3.2-24.2,2.9-48.9-4.3-72.8
	c-3.6-20.5,0.8-41.5-3.2-62c-0.8-2.5-1.4-5.1-1.8-7.7c-0.3-3.9,0.3-7.6,1.7-11.2c7.7-10.3,8-21.5,4-33.3c-0.5-3.9-0.3-7.7,0.6-11.5
	c3.5-21.8,4-43.4-2.2-64.8c-1.7-33-0.5-65.9,1.3-98.8c5.1-11.1-2.9-28.2,15.2-33.3C1125.7,433.6,1125.8,534,1125.9,634.5z"/>
<path fill="#9F7247" d="M1125.6,333.2c-9.3,8.1-0.2,21.6-8.9,29.9c-2.7-1.6-4.7-3.8-6-6.7c-0.3-12.3-10.1-27.6,10.7-33.1
	c1.3,0.1,2.6,0,3.8-0.3C1125.3,326.4,1125.4,329.8,1125.6,333.2z"/>
<path fill="#272023" d="M1121.3,323.3c-10.4,10.1-2.8,23.6-6.4,35c-2,1.4-4.1,1.7-6.4,0.8c-7.4-5.2-10.1-12.1-7.8-20.9
	c-7.1-13-19.7-20.5-30.1-30.1c-6.9-9.1-5.6-18.2-0.1-27.4c10.5-8.3,24-2.3,35.2-7.6c0,0,0.1-0.4,0.1-0.4c3.5,0.2,6.9,0.4,10.4,0.6
	c6.4,8.3,19.3,0.8,25.2,10.3c-0.1,1.4,0,2.8,0.3,4.2c-1.9,3.3-3.9,6.5-5.8,9.8C1119.2,299.4,1121.2,311.9,1121.3,323.3z"/>
<path fill="#191416" d="M1100.7,338.1c3.4,6.7,6.7,13.4,10.1,20.1c4.9,8.7,1.4,18.1,2.3,27.1c-6.9,26.3,0.9,53.3-3.5,79.8
	c-1.1,2.2-2.8,3.9-5.1,5c-2.5,0-4.8-0.7-6.9-1.8c-2-1.3-3.9-2.8-5.7-4.3c-14.3-7.1-31,1.3-45.1-6.9c-7.3-6.5-4.3-13.2-0.3-19.8
	c9.8-16.1,3.4-27.7-9.9-37.9c-10.9-8.4-23.5-15.3-28.7-29.4c0.8-7.3-2.3-15,2.4-21.9c1.2-7.2,5-8.6,8.5-2.3
	c5,8.9,11.6,13.1,21.6,12.3c12.4,8.1,27.4,11.9,37.3,24.2c6.4,8,14.8,6.1,22.4,0.5c7.4-5.5,4.4-11.3,0.5-17.3
	C1094.8,356.5,1092.7,347.3,1100.7,338.1z"/>
<path fill="#231D1F" d="M1070.6,282.9c6.5,8.4,1.1,16.8,0,25.1c-19.5,3.2-35.3-1.8-45.2-20.1c-6.7-4.9-7.1-9.9-0.1-14.9
	c1.7,0,3.5,0,5.2-0.1c10,5.1,20.7,1.2,31.1,2.5C1066.2,276,1071.9,275.2,1070.6,282.9z"/>
<path fill="#1E1A20" d="M1070.6,282.9c-11.4-11.4-28.7,1.4-40.1-9.9c25.1,0,50.1,0.1,75.2,0.1
	C1095.2,280.6,1081.8,277.9,1070.6,282.9z"/>
<path fill="#D3C1B7" d="M1211,514.4c-5.7,2-3.5,16.2-14.8,9.6c0,0,0,0,0,0c-7.4-5.3-20.3,3.6-24.6-9.6c-0.7-14.8,0.8-29.8-3.9-44.4
	c-4.2-13.1,3.6-13.6,13.2-11.5c8,9.6,18.8,10.7,30.2,10.1C1211.1,483.9,1211,499.1,1211,514.4z"/>
<path fill="#DACBC0" d="M1171.6,514.3c7.3,5.5,18.1,2.2,24.6,9.6c-10.1,0.2-11.3,10.7-17.3,16.2c-2.9-6-5.3-11.1-7.7-16.1
	C1171.3,520.8,1171.5,517.6,1171.6,514.3z"/>
<path fill="#292326" d="M794.4,303c1.2,6.8,10.5,11.6,5,20.1c-11.7-15-28.9-13.5-45.1-15c-4.4-13.6,6.1-9.6,12.2-10.1
	C776.1,297.4,785.7,297.8,794.4,303z"/>
<path fill="#1A1417" d="M744.1,358.2c-1.7,0-3.3,0-5,0c1.3-10.1-3.6-21.2,5-30.1c3.3,3.4,6.7,6.7,10,10.1c3.7,0.8,6.1,2.9,7,6.7
	c-0.8,8.2-5.8,12.3-13.6,13.6C746.5,358.4,745.3,358.3,744.1,358.2z"/>
<path fill="#282224" d="M759.2,343.2c-1.7-1.7-3.3-3.4-5-5.1c1.7-3.4,3.4-6.7,5-10.1c10.4,6.6,14,14.6,5,25.1
	C760,351.1,761.9,346,759.2,343.2z"/>
<path fill="#181214" d="M824.5,785.2c8.9,7,23.7,1.7,29.8,14.3c-6.6,0.5-13.2,0.9-19.7,1.4c-18.4-0.4-36.9-0.9-55.3-1.3
	c3.7-13.2,8.6-26.3,0-39.5C799.9,758.4,814.5,767.6,824.5,785.2z"/>
<path fill="#251E20" d="M1010.3,348.2c0,8.3,0.1,16.7,0.1,25c11.1,8.4,3.4,23,11,32.6c5.8,6,7.9,12.9,2.9,20
	c-6.7,9.3-6.2,20.1-7.7,30.6c-0.6,2.3-1.6,4.4-2.9,6.4c-0.9,0.8-1.8,1.5-2.7,2.3c-9-7.3-3.9-17.8-6.1-26.6c0-8.3,0.1-16.6,0.1-25
	c0.2-21.8,0.4-43.7,0.7-65.5C1007.2,348.1,1008.8,348.2,1010.3,348.2z"/>
<path fill="#151113" d="M1004.9,534.3c0-2,0-3.9,0-5.9c-1.2-2.5-1.4-5.1-0.4-7.7c3.4-15.7-3.9-32.7,5.5-47.7
	c6.5-2.2,11.4,0.9,15.8,5.2c13.5,33.9,5.2,69,5.5,103.7c-1.5,4.6-4.1,8.1-8.6,10.1c-2.9,0.8-5.9,0.8-8.8-0.1
	c-11.2-8.8-4.2-21.1-5.9-31.7c-1.4-8.7,2.1-17.8-2.4-26.2L1004.9,534.3z"/>
<path fill="#6D4527" d="M1005.9,523.8c-0.3,1.6-0.6,3.1-1,4.7c-9.6-17.6-2.3-36.6-4.6-54.7c1.4-0.1,2.9-0.1,4.3-0.2
	C1010.5,490.1,1008.2,507,1005.9,523.8z"/>
<path fill="#1F1613" d="M1005.9,523.8c-0.4-16.7-0.8-33.5-1.2-50.2c1.9-1.5,3.7-3.1,5.6-4.6c0,0,1.6,1.9,1.6,1.9l-1.2,2.2
	C1008.1,489.8,1014.9,507.5,1005.9,523.8z"/>
<path fill="#9C877D" d="M1010.7,473c0-1.4-0.2-2.7-0.5-4.1c0.5-1.2,0.7-2.5,0.7-3.8c0,0-0.6-1.5-0.6-1.5c6.4-5.9,13.6-7.7,21.8-4.1
	c2.3,1.2,4,3.1,5,5.5c0.5,7.3-4.5,11.1-9.4,15.1c-2.3,0.9-4.7,1.2-7.1,1C1017.4,478.3,1014.1,475.6,1010.7,473z"/>
<path fill="#94673D" d="M1120.8,729.9c1.5,3.3,3.1,6.6,4.6,10c0.1,1.7,0.2,3.5,0.3,5.2c-1.6,3.2-3.1,6.5-4.7,9.7
	c-1.9-3.2-3.8-6.4-5.8-9.6c-3.9-4.5-4.2-9.4-1.3-14.5C1116,728.4,1118.3,728.2,1120.8,729.9z"/>
<path fill="#1F191B" d="M824.5,297.9c-12.6-1-15.4-9.3-15.1-20.1C821.7,279.1,819.3,291.4,824.5,297.9z"/>
<path fill="#1A1417" d="M839.5,423.6c-5.6,1.8-3,11.3-15.8,8.9c-31.9-5.9-44.9-38.1-74.2-46.7c-10.3-3-3.8-18.1-5.3-27.6
	c0,0,0,0,0,0c12.5-4.1,19.2,9.4,30.1,10.1c6.1,11.5,17.9,15.6,28.9,16.5C828.1,386.8,833.2,405.2,839.5,423.6z"/>
<path fill="#1C1618" d="M774.3,368.3c-14.6,10.2-20.3-6.1-30.1-10.1c5-5,10-10,15-15c1.7,3.3,3.4,6.6,5.1,9.9
	C767.6,358.2,770.9,363.2,774.3,368.3z"/>
<path fill="#1A1416" d="M1075.6,709.8c-0.5,9.3,1,18.1,5.6,26.4c2.8,5.1,11,10.3,2.4,16.8c-6.9,5.1-13.5,7.3-22.3,0.7
	c-15.7-11.6-31.2-24-50.9-28.8c-1.8-2.1-2.2-4.4-1-7c4.1-33-2-66.2,2.3-99.2c4.8-8.8,12.4-6,19.6-4.9c16.3,2.6,32.7,4.5,49,6.6
	c29.8,3.8,32.2,7.3,28.6,38.3c-8.7,10.5-21.2,7.4-32.4,9.1c-5.6,0.9-12.6-0.1-14.9,6.6c-1.9,5.6,3.9,8.4,7,12.1
	C1074.2,693.3,1083.2,699,1075.6,709.8z"/>
<path fill="#1D1719" d="M1075.6,709.8c-0.9-11.6-9.2-16.9-18.2-21.7c-5.7-3.1-13.1-5.8-10.3-14.5c2.5-7.6,8.3-12.9,16.4-13.4
	c14-0.8,28.2-0.5,42.2-0.7c4.7-11,3.6-22.2,0.1-33c-4-12.2-4.4-23.8,1.5-35.3c1-0.9,2-1.8,3-2.6c11.9,21.2,1.5,44.6,6.4,66.5
	c2.4,24.9,3,49.8-0.2,74.7c-0.4,5.1-0.8,10.2-1.2,15.3C1092.9,743.6,1091.7,718.3,1075.6,709.8z"/>
<path fill="#1F1613" d="M1010.4,719.8c0,1.7,0,3.4,0,5.1c-1.5,1.6-2.9,3.2-4.4,4.9c-0.4-1.6-0.7-3.2-1-4.9
	c0.1-63.6,0.3-127.3,0.4-190.9c12.8,16.8-3.8,39.3,10.9,55.8c2.3,5,1.4,10.3,1.2,15.6c-1.9,6.6-5.9,12.7-4.7,20
	C1010.9,656.9,1016.5,688.5,1010.4,719.8z"/>
<path fill="#1D1617" d="M758.3,476c9.2,3.2,16.4,6.1,15.6,19.5c-1.7,29.5-0.9,59.2-1.2,88.8c-2.9,1-5.2,0.3-6.9-2.2
	c-5.3-8.2-3.2-17.7-4.5-26.6c-1.1-12.9-0.8-26-0.1-38.9c0.9-16.2-5.3-22.2-21-18c-0.3-1.6-0.8-3.1-1.4-4.6
	C731.1,472.4,748.8,478.6,758.3,476z"/>
<path fill="#CABAB0" d="M753.9,464.6c6.8-0.5,13.6-1,20.3-1.5c11.6-3,23.3-2.6,35-0.2c3.4,0.5,6.8,1,10.2,1.6
	c-19.5,8.8-40.2,2.2-60.2,4.4C757.5,467.4,755.7,466,753.9,464.6z"/>
<path fill="#171113" d="M768.3,583.2c1.5,0.4,3,0.7,4.5,0.9c-1.7,8.7-8.9,3.2-13.2,5.2c-3.9,2.2-5.1,5.8-5.4,9.9
	c-11-1-2.5,17.5-15,15c0-10-0.1-20-0.1-30c-4-26.9-3.5-53.8,0-80.6c0.4-1.7,0.8-3.5,1.3-5.2c4.8-7.5,7.6-17.5,20.1-14
	c11.7,3.3,8.5,13,8.6,20.7c0.3,16.7-0.3,33.4-0.5,50.1C765.4,564.6,765.9,573.9,768.3,583.2z"/>
<path fill="#1D1617" d="M739,503.7c0,26.9,0,53.8,0,80.6c-1.4-0.1-2.9-0.1-4.3-0.2C736.1,557.3,728.8,530,739,503.7z"/>
<path fill="#171214" d="M739.2,614.3c4.4-3.4,4.7-8.3,5-13.3c0.9-14.5,6.4-2.4,10-1.7c-10.2,14.6,6.1,20.3,10.1,30.1
	c-9.2-2.5-19.4-10.4-25.1,5C739.2,627.7,739.2,621,739.2,614.3z"/>
<path fill="#E0CFC3" d="M798.6,484c0.6,18.3,1.1,36.6,1.7,54.9c2.4,4.8,1.8,9.7,0.7,14.6c-2,1.9-4.2,2-6.5,0.5
	C796.4,530.8,789.7,507,798.6,484z"/>
<path fill="#907362" d="M804.9,587.6c5.9,1.7,11.9,3.2,9.4,11.6c-8.2,4.2-16.5,3.3-24.8,0.5c-9.5-4.2-21.5,3.9-29.8-6
	c13.4,0.1,26.8,0.2,40.1,0.3C801.6,592,801.7,588.6,804.9,587.6z"/>
<path fill="#5B514D" d="M804.9,587.6c-1.7,2.2-3.4,4.3-5.1,6.5c0.7-1.6,0.7-3.1-0.1-4.7c-5.3-11.6-3-23.5-1.2-35.3
	c0.6-5.1,1.1-10.1,1.7-15.2c1.2,0.1,2.3,0.1,3.5,0.2c0.5,5,0.9,10,1.4,15c3,9.8,2.4,19.6,0.3,29.4
	C805.3,585,805.1,586.3,804.9,587.6z"/>
<path fill="#E6D6CA" d="M798.6,554.2c0.4,11.8,0.8,23.5,1.2,35.3c-9.8-10.6-3.6-23.6-5.4-35.3C795.8,554.1,797.2,554.1,798.6,554.2z
	"/>
<path fill="#030002" d="M805.4,583.6c-0.1-9.8-0.2-19.6-0.3-29.4c1.4-0.1,2.8-0.1,4.2-0.1C808.3,564,812.6,574.6,805.4,583.6z"/>
<path fill="#171214" d="M834.5,669.6c-31.3,2.1-50.6-15.4-65.3-40.2c20.2-7.1,27.7,13,41.4,19.8
	C819.7,653.8,826.6,662.7,834.5,669.6z"/>
<path fill="#110A0B" d="M789.6,599.8c8.3-0.2,16.5-0.4,24.8-0.5C806.3,608.1,798,605.4,789.6,599.8z"/>
<path fill="#1A1417" d="M774.3,458.7c-20.9-2.9-13.8-27.6-28.2-36.8c-4.4-2.8,4.5-8.8,9.4-11.5c5.8-3.2,11.8-6.7,17.8-0.1
	c3.4,3.7,8.2,10.5,4.3,12.5C756.7,433.6,774.4,446.8,774.3,458.7L774.3,458.7z"/>
<path fill="#0F0C0E" d="M809.3,462.9c-11.7,0.1-23.3,0.1-35,0.2c0-1.5,0-2.9,0-4.4c0,0,0,0,0,0C785.9,460.1,798.4,455.1,809.3,462.9
	z"/>
<path fill="#2A1F1B" d="M1110.7,388.4c0-10.1,0.1-20.1,0.1-30.2c1.4,0,2.7,0,4.1,0c0.6,1.6,1.1,3.2,1.7,4.8
	c0,35.4-0.1,70.7-0.1,106.1c2.8,16.8,3.1,33.5-0.2,50.3c-3.4,1.1-6.2,0.3-8.4-2.4c-1.2-2.2-3.1-4.2-2.9-6.7
	C1107.3,469.7,1107,428.9,1110.7,388.4z"/>
<path fill="#1C1616" d="M1110.9,518.9c1.4,0,2.8,0.1,4.2,0.1c4.2,5-0.5,10.2,0.2,15.3c0.4,3.4,0.8,6.8,1.3,10.2
	c-0.2,1.1-0.4,2.2-0.6,3.4c-2.3,9.3-8.1,16.4-14.5,23.1c-2.2,1-4.5,1.5-7,1.5c-13.3-6.9-26.6-13.9-14.8-32.3c1.9-1.1,4-1.8,6.1-2.4
	c1.9-0.5,4-0.9,6-1.2c1.8-0.6,3.5-1.5,5-2.8c3.3-5.1,3.2-12.1,8.5-16.1C1107.3,516.8,1109.2,517.2,1110.9,518.9z"/>
<path fill="#DDD1C9" d="M1109.8,584.4c0.7,1.4,0.8,2.8,0.5,4.3c0,0,0.4,0.7,0.4,0.7c-2.9,4.6-5.9,9.1-11.6,10.8
	c-9.4,1.9-18.9,1.6-28.3,0c-5.9-6.1-24.7-0.1-17.6-18.6c9.6-7.1,21.8-2.5,31.9-7.3c3.3-1.1,6.9-0.9,10.3-1.6
	C1104.4,571.2,1105.6,579.6,1109.8,584.4z"/>
<path fill="#9E6E3D" d="M1116.4,729.8c0.1-24.9,0.2-49.8,0.2-74.7c8.9,24.5,2,49.9,4.2,74.8C1119.4,729.9,1117.9,729.9,1116.4,729.8
	z"/>
<path fill="#986838" d="M1115.3,534.3c-8.3-5-0.4-10.2-0.2-15.3c0.5-16.6,0.9-33.3,1.4-49.9C1122.7,491,1124.6,512.8,1115.3,534.3z"
	/>
<path fill="#8D5D31" d="M1116.6,544.5c4.8,11,10.5,22.1-5,29.7c-5.1-3.3-5.5-8.1-4.3-13.4c3.9-4.9,6.1-10.7,7.7-16.7L1116.6,544.5z"
	/>
<path fill="#D3C2BB" d="M1110.7,559.5c0.3,4.9,0.6,9.8,0.8,14.7c-0.6,3.4-1.2,6.8-1.8,10.2c-6.9-0.1-8.8-6.5-13-10.1
	c-1.6-1-2.2-2-1.7-3.1c0.5-1.1,1-1.6,1.5-1.6c1.7,0.2,3-0.4,4.1-1.7C1105.2,566.5,1101.5,555.1,1110.7,559.5z"/>
<path fill="#201A1C" d="M1010.4,458.8c1.5-12.8-5.3-27.2,10-37.3c5.9-3.9,0.9-10.2-5.1-13c-5.3-11.8,2.3-12.6,10.5-11.8
	c14.4,1.5,23.3,16,22,33.6c-0.6,7.8-8.6,14.9-2.4,23.4c18.3,2.4,37.6-5.3,55.2,5c-15.1,12.4-33,5.8-49.8,7.2
	C1037.8,461.8,1023.7,462.2,1010.4,458.8z"/>
<path fill="#1E181B" d="M1045.5,453.6c-13.5-9.3-2.3-22.2-4.8-33.3c-3.7-16.3-10.1-20.1-25.4-11.8c-10.7-10.5-2.4-23.6-4.9-35.2
	c17.1,5.1,28.6,18.5,40.9,29.8C1070.9,421.2,1057.1,437.8,1045.5,453.6z"/>
<path fill="#131013" d="M1110.9,518.9c-1.7,0-3.5,0-5.2,0c-1.6,1.8-3.4,2.1-5.5,1c-1.4-1.7-2.3-3.7-2.8-5.8
	c-0.7-6.6-0.9-13.2,0-19.8c2.1-8.8-0.4-19.1,8.4-25.7c-3.1-22.3,5.9-45.3-6-67.2c-4.5-8.3,6.2-9.4,11-12.9
	C1110.8,431.9,1110.8,475.4,1110.9,518.9z"/>
<path fill="#88807C" d="M1035.5,467.8c-0.1-1.1-0.1-2.2-0.2-3.3c4.8-5.4,11.2-2.5,16.9-3.3c16,2.3,32.6-4.7,48.1,3.8
	c0.4,1.6,1.2,2.8,2.4,3.9c-1.3,1.9-3,3.4-5,4.4c-3.3,1.4-6.7,2-10.2,2.3c-2.4,0.2-4.8,0.3-7.3,0.4c-2.5,0.1-5.1,0.1-7.6,0.1
	C1060.1,474.2,1045.6,481,1035.5,467.8z"/>
<path fill="#0D080A" d="M1100.4,465c-16.6-0.7-33.2-1.5-49.8-2.2c-1.9-0.9-2.5-1.8-1.9-2.7c0.6-0.9,1.2-1.3,1.9-1.3
	c16.7,0,33.4-0.1,50.2-0.1C1100.6,460.8,1100.5,462.9,1100.4,465z"/>
<path fill="#2A1F1B" d="M1105.8,468.5c-0.8,10.4,3.4,21.5-4.9,30.7c-2.4-1.6-4.2-3.8-5.4-6.4c-2.7-8.7-1.8-16.8,4.2-24l1.5,1.1
	c0,0,1.5-1.1,1.5-1.1C1103.8,468.7,1104.8,468.6,1105.8,468.5z"/>
<path fill="#130F11" d="M1050.6,458.8c0,1.3,0,2.7,0,4c-5.1,0.6-10.2,1.1-15.2,1.7c-8.3-0.3-16.7-0.6-25-0.9c0-1.6,0-3.2,0.1-4.8
	C1023.8,458.8,1037.2,458.8,1050.6,458.8z"/>
<path fill="#CFBCB4" d="M1056.4,583.8c-0.3,11.7,12.4,1.9,14.9,8.9c-20.1,13.3-35.9,12.6-50.6-2.3c1.6-2,3.2-4,4.8-6
	c5.6-34.7,1-69.6,2.4-104.4c2-11.1,9.9-8.9,17.4-7.7c14.6,15.7,2.6,37.1,11.5,53.9c2,16.5,0.5,33,1.4,49.6
	C1058.1,578.6,1057.5,581.2,1056.4,583.8z"/>
<path fill="#231A1C" d="M1029.9,480.3c-1.5,34.7,6.2,69.8-4.4,104.1c-2.7-34.4,5-69.3-4.8-103.4c1.8,0.1,3.3-0.5,4.4-1.9
	C1027.6,475.8,1029.2,476.2,1029.9,480.3z"/>
<path fill="#C2AC9F" d="M1020.7,590.4c16.6,6.9,33.7,2.7,50.6,2.3c10,0.6,20,1.2,30,1.8c-0.1,3.6-1.3,7.4-4.5,8.3
	c-29.1,8.2-58.3,14.1-85.9-4.8c1.8-2.7,3.7-5.5,5.5-8.2C1017.8,589.8,1019.3,590,1020.7,590.4z"/>
<path fill="#E5D4C9" d="M1029.9,480.3c-1.6-0.3-3.2-0.6-4.7-1.2c-0.2-7.1,3.9-10.3,10.4-11.3c15,0.4,30,0.7,45,1.1
	c-4.4,17.2-17.2,10.9-28,9.9c-2.5-1.4-4.9-3.1-7.1-5C1039.3,474,1033.3,473.8,1029.9,480.3z"/>
<path fill="#191414" d="M1010.9,598c30.1-1.9,60.5,2.9,90.4-3.5c3.1-1.7,6.3-3.4,9.4-5.1c-2.9,23.3,6.6,47.5-4.9,70.2
	c6.6-25-9.2-31.2-28.5-31.8c-21-0.6-41.4-4.9-61.9-8.4c-1.6,2.5-3.3,2.6-4.9,0C1010.6,612.3,1010.7,605.2,1010.9,598z"/>
<path fill="#161214" d="M1010.4,619.4c1.6,0,3.3,0,4.9,0c1.5,25.8-2.3,51.7,2.4,77.5c1.2,6.8,4.8,18.5-7.4,22.9
	C1010.4,686.4,1010.4,652.9,1010.4,619.4z"/>
<path fill="#010000" d="M768.3,583.2c-5.9-9.4-6.4-18.7,0.3-28C768.5,564.6,768.4,573.9,768.3,583.2z"/>
<path fill="#100B0C" d="M1096.6,569.5c-0.6,1.6-0.5,3.2,0.2,4.8c-1.9,1.7-3.7,3.5-5.6,5.2c-10.5,3.5-21.1,3.4-31.7,0
	c-6.1-13.6-5.6-27.4-0.7-41.2c10.6-6.1,20.7-9.8,26.6,5.8C1076,558.3,1089.7,562.5,1096.6,569.5z"/>
<path fill="#E5D7CE" d="M1093.4,543.3l-0.5,0c-4-0.6-5.3-4.4-7.7-6.8c-9.5-6.3-22.8,2.6-31.2-8c-0.5-2.9,0.3-5.3,2.5-7.3
	c11.9-6.6,24.7-4.9,37.4-3.7C1102.2,526.2,1104.8,534.9,1093.4,543.3z"/>
<path fill="#221A19" d="M1090.4,534.8c0.9,2.8,1.7,5.6,2.6,8.5c-2.5,0.3-5,0.5-7.5,0.8c-7.3-7.6-16.6-3.9-25.2-4.5
	c-3.4,1.3-5.3,0.1-5.9-3.4C1066.1,528.3,1078.2,530.2,1090.4,534.8z"/>
<path fill="#221A19" d="M1110.7,559.5c-7.1-1.8-4.8,7.8-10,8.3c-1.4-11.6,9.1-16.1,14.3-23.8
	C1115.5,549.7,1116.9,555.6,1110.7,559.5z"/>
<path fill="#221A19" d="M1093.4,543.3c2.5-8.3,10.1-17.2-2.6-23.9c-0.4-0.9-0.9-1.8-1.3-2.6c0.5-2,1.6-3.5,3.2-4.7
	c3.1-1,5.8-0.6,8,1.9c0.4,1.9,0.8,3.8,1.3,5.8c1.6,8,2.4,16-0.6,23.9C1098.7,543.5,1096.1,543.4,1093.4,543.3z"/>
<path fill="#040101" d="M1101.4,543.5c0.2-8,0.4-15.9,0.6-23.9c1.2-0.4,2.4-0.6,3.6-0.7C1105,527.3,1108.5,536.3,1101.4,543.5z"/>
<path fill="#292424" d="M1060.4,578.7c10.3,0.2,20.6,0.5,30.9,0.7c-10.6,9.9-23.2,3-34.8,4.3c-0.8-1.7-1.7-3.4-2.5-5.1
	c0.7-0.5,1.3-1.1,2-1.6C1057.7,576.8,1059.2,577.3,1060.4,578.7z"/>
<path fill="#1C1616" d="M1100.8,513.9c-3.3,0-6.7,0-10,0c-1.2,0.3-2.4,0.5-3.6,0.8c-13.8,2.4-24.7-0.7-29.9-15.2
	c-0.4-18.7,12.9-15.8,24.5-15.7c2.2,0.1,4.3,0.5,6.4,1c3.1,0.8,5.8,2.2,8.1,4.5c1.4,1.5,2.8,2.9,4.3,4.3c0.1,1.9,0.2,3.8,0.3,5.8
	C1102.7,504.2,1107.6,509.1,1100.8,513.9z"/>
<path fill="#8C624A" d="M1050.9,473.9c9.8-2.2,21,4.2,29.6-5c2,0,4,0.1,5.9,0.1c2.4,3.7,2.3,7.5,0,11.2c-7,5.5-15.3,2.9-23.1,3.7
	c-2.7,0.2-5.3-0.1-7.8-0.8C1051.8,481,1049,478.6,1050.9,473.9z"/>
<path fill="#F2E5DB" d="M1100.6,493.5c-1.6,0.3-3,0-4.3-1c-6.6-6.6-7-14.6-4.8-23c2.8-0.2,5.5-0.4,8.3-0.6
	C1103.1,477,1101,485.3,1100.6,493.5z"/>
<path fill="#C2ACA3" d="M1091.5,469.5c2.9,7.4,6.7,14.6,4.8,23c-1.9-1.2-3.8-2.4-5.7-3.6c-3.1-2.8-5.4-5.9-4.5-10.4
	c0.1-3.2,0.2-6.4,0.3-9.5C1088.1,469.1,1089.8,469.3,1091.5,469.5z"/>
<path fill="#C2AC9F" d="M1090.4,534.8c-11.7,0.3-24.2-6.5-34.6,4.3c3.9,13.4,2.8,26.8,0.8,40.3l-1.1-1c0,0-1.5,0.2-1.5,0.2
	c-7.2-16-2.2-32.8-3.3-49.2c1.1-2.7,2.8-3.3,5.1-1.4C1067.1,531,1080.7,522.8,1090.4,534.8z"/>
<path fill="#E2D2C7" d="M1055.7,528.1c-1.7,0.5-3.4,0.9-5.1,1.4c-9.2-17.8-3.6-37.1-5.3-55.6c1.8,0,3.7,0,5.5,0
	c1.6,1.7,3.1,3.5,4.7,5.2c1.6,1.6,2.4,3.5,2.4,5.8c-5.2,10.9,0.6,21.6,0.5,32.4c-0.2,1.1-0.5,2.2-0.7,3.3c-0.7,0.9-1.3,1.8-2,2.7
	C1055.7,524.8,1055.7,526.5,1055.7,528.1z"/>
<path fill="#050203" d="M1056.5,579.4c-3.1-13.4-3.2-26.8-0.8-40.3c1.5,0,3.1,0.2,4.6,0.4c0,13.1,0,26.1,0,39.2
	C1059.1,578.9,1057.8,579.2,1056.5,579.4z"/>
<path fill="#2E2929" d="M1055.8,523.2c-0.4-1.5-0.4-3,0-4.4c11.1-8.2,22.7-5.4,34.3-1.5c0,0,0.8,2,0.8,2
	C1079.8,526.5,1067.5,521.6,1055.8,523.2z"/>
<path fill="#110E10" d="M1090.1,517.3c-11.4,0.5-22.9,1-34.3,1.5l-1,0.5c-2.7-12-2.8-23.9,0.1-35.8c0.8-1.4,1-2.8,0.7-4.4
	c1.6,0.1,3.2,0.2,4.8,0.5c7,7,21.9-7.4,25.2,9.4c-7.5,5.3-22.4-7.7-25,9.9c3.1,18.8,20.6,9,30.1,15c0,0,0.1,0,0.1,0
	C1090.7,515.1,1090.5,516.2,1090.1,517.3z"/>
<path fill="#1C1718" d="M1090.7,513.9c-11.1-2.9-29.3,8.5-30.1-15C1066.9,511.3,1082.2,505.8,1090.7,513.9z"/>
<path fill="#452D21" d="M1085.6,488.9c-6.2-9.1-18.5-1.8-25.2-9.4c8.6-0.4,17.2-0.7,25.8-1.1c3.8,2.5,5.4,5.9,4.5,10.4
	c0,0-2.5,0.1-2.5,0.1L1085.6,488.9z"/>
<path fill="#90857F" d="M1054.9,483.5c0,11.9,0,23.9-0.1,35.8C1048.3,507.4,1048.1,495.4,1054.9,483.5z"/>
</svg>
