<?xml version="1.0" encoding="utf-8"?>
<!-- Generator: Adobe Illustrator 17.1.0, SVG Export Plug-In . SVG Version: 6.00 Build 0)  -->
<!DOCTYPE svg PUBLIC "-//W3C//DTD SVG 1.1//EN" "http://www.w3.org/Graphics/SVG/1.1/DTD/svg11.dtd">
<svg version="1.1" id="Слой_1" xmlns="http://www.w3.org/2000/svg" xmlns:xlink="http://www.w3.org/1999/xlink" x="0px" y="0px"
	 viewBox="0 0 1920 1080" enable-background="new 0 0 1920 1080" xml:space="preserve">
<path fill="#00965B" d="M434.4,396.3c1.5,0.6,2.2,1.7,3.1,2.5c12.6,12.7,25.2,25.4,37.8,38.2c0.6,0.6,1.2,1.1,1.7,1.7
	c0.9,1,1.7,1.1,2.6,0.1c0.6-0.7,1.3-1.3,2-2c33-33.1,65.9-66.2,98.9-99.2c1.2-1.2,2.2-2.7,3.9-3.4c0.9,1.2,0.6,2.4,0.6,3.5
	c0,26.3,0,52.7,0.1,79c0,2.4-0.7,4.1-2.4,5.8C548.8,456.3,515,490.2,481.1,524c-0.3,0.3-0.7,0.7-1,1c-1.9,1.8-2,1.8-3.9-0.1
	c-13.5-13.5-27-27-40.5-40.4c-1.6-1.5-1.6-3.2-1.6-5.1c0-26.6,0-53.1,0-79.7C434.1,398.7,433.9,397.6,434.4,396.3z"/>
<path fill="#FDC937" d="M622.6,496.8c-14.6,14.9-28.9,29.6-43.6,44.6c35.2,35.1,70.6,70.3,106,105.6c-1,1.1-2.2,0.7-3.1,0.7
	c-26.7,0-53.4,0-80.1,0.1c-2.2,0-3.7-0.7-5.2-2.2c-24-24-48-48-72-72c-10-10-20-20-30.1-30c-0.8-0.8-1.9-1.4-2.9-2.1
	c1.2-1.3,1.8-2,2.4-2.6c13.3-13.3,26.7-26.6,39.9-40c1.4-1.4,2.9-2.1,4.9-2.1c27.2,0.1,54.3,0,81.5,0
	C621.1,496.7,621.8,496.7,622.6,496.8z"/>
<path fill="#E2061E" d="M271.5,434.5c1-0.8,2.1-0.5,3.1-0.5c26.6,0,53.1,0,79.7-0.1c2.3,0,3.9,0.7,5.5,2.3
	c34,34.1,68,68.1,102,102.1c0.4,0.4,0.8,0.9,1.2,1.2c1,0.9,1.1,1.7,0,2.6c-0.3,0.2-0.5,0.5-0.7,0.7c-13.3,13.3-26.7,26.6-40,40
	c-1.5,1.5-3.1,2.2-5.2,2.2c-26.8-0.1-53.6,0-80.4,0c-1,0-2,0.2-3.4-0.4c1-1.1,1.8-2,2.7-2.9c12.9-12.8,25.8-25.5,38.7-38.3
	c3.1-3.1,3.1-2.4-0.1-5.5c-33.5-33.4-67-66.8-100.5-100.1C273.3,436.7,272.1,435.8,271.5,434.5z"/>
<path fill="#029DDB" d="M478.6,554.3c1.4,1.6,2.6,3.1,3.9,4.4c12.6,12.6,25.1,25.2,37.7,37.7c1.4,1.4,2.1,2.8,2.1,4.9
	c-0.1,27,0,54.1,0,81.1c0,0.8-0.1,1.6-0.1,2.6c-1.8-0.2-2.5-1.7-3.5-2.7c-12.7-12.8-25.4-25.6-38.1-38.4c-0.3-0.3-0.7-0.6-1-1
	c-1-1.5-2.1-1.7-3.3-0.2c-0.3,0.4-0.7,0.7-1,1c-12.7,12.8-25.4,25.5-38.1,38.3c-21,21.1-42,42.1-63,63.1c-0.7,0.7-1.3,1.7-2.4,2
	c-1-0.7-0.5-1.7-0.5-2.6c0-26.8,0-53.6-0.1-80.4c0-2,0.5-3.5,2-4.9c34.5-34.4,68.9-68.8,103.3-103.2
	C477,555.7,477.5,555.3,478.6,554.3z"/>
<path fill="#1D1D1B" d="M925.3,558.4c0-8.2-1.4-16.3-3.6-24.2c-2.4-8.8-6.4-16.9-12.3-23.8c-11.2-13-25.9-18.7-42.7-19.7
	c-6.3-0.4-12.6,0.1-18.8,1.3c-20.6,3.8-34.9,15.5-43.3,34.6c-4.8,11.1-6.8,22.8-6.5,34.9c0.2,10,1.9,19.7,5.9,29
	c6.5,15.1,17.8,24.9,32.9,30.6c8.6,3.2,17.5,4,26.6,3.9c10.6-0.1,20.6-2.5,30.1-7.1c8.9-4.3,16.3-10.5,22.5-18
	c2.4-2.9,4.5-6,6.6-9.1c1.3-1.9,1.1-2.4-0.8-3.6c-0.5-0.3-1-0.6-1.6-0.8c-7-3.5-14-7-21-10.5c-3.1-1.5-3.1-1.5-4.7,1.5
	c-0.2,0.4-0.4,0.8-0.6,1.3c-2.7,4.9-6.2,9.2-10.7,12.4c-7.7,5.6-16.6,6.3-25.5,4.7c-12-2.2-18.2-10.6-21-21.9
	c-0.5-1.9-0.9-3.9-0.8-5.9c0.1-1.7,0.6-2.7,2.5-2.6c0.9,0,1.9,0,2.8,0c13.2,0,26.4,0,39.7,0c11.6,0,23.2,0,34.8,0
	c2.5,0,4.9,0.1,7.4,0c2.5-0.1,3-0.7,2.7-3.3C925.6,560.7,925.3,559.5,925.3,558.4z M884.5,541.9c-7.6,0.1-15.2,0-22.8,0
	c-7.4,0-14.7,0-22.1,0c-3.3,0-3.3-0.1-2.6-3.4c2.6-10.8,9-18.2,20-20.7c8.2-1.8,15.8,0,22.4,5.4c3.7,3.1,5.6,7.4,6.7,12
	c0.3,1.2,0.6,2.5,0.8,3.8C887.3,541.5,887,541.9,884.5,541.9z"/>
<path fill="#1D1D1B" d="M1352.9,557.4c0-2.9,0.3-5.9-0.1-8.8c-1.3-9.8-4.1-19.2-9-27.9c-6-10.5-14.5-18.3-25.3-23.4
	c-8.9-4.2-18.4-6.1-28.2-6.6c-12.1-0.7-24,0.8-35.4,5.5c-11.1,4.6-19.9,12.1-26.4,22.2c-6.6,10.2-9.5,21.6-10.2,33.5
	c-0.8,12.1,0.8,24,5.5,35.4c3.2,7.6,7.6,14.3,13.7,19.7c12.9,11.6,28.7,16.2,45.7,17c7.3,0.3,14.5-0.5,21.6-2
	c18.3-4,32.2-14.1,40.8-30.8C1350.9,580.6,1353.4,569.3,1352.9,557.4z M1311.6,578.4c-6.6,14.3-21.7,18.8-34.8,14.8
	c-9.7-3-15.5-9.8-18.6-19.1c-4.2-12.6-4.1-25.3,1.3-37.6c4.7-10.6,13.1-15.8,24.5-16.4c4.8-0.2,9.6,0.3,14,2.4
	c6.8,3.2,11.4,8.5,14,15.4c2.4,6.4,3.4,13.1,3.6,20.5C1315.3,564.9,1314.7,571.9,1311.6,578.4z"/>
<path fill="#1D1D1B" d="M1438,539.9c0,25.4,0,50.8,0,76.2c0,4.4,0.2,4.5,4.6,4.5c9.2,0,18.5,0,27.7,0c4.9,0,4.9,0,4.9-4.8
	c0-28,0-55.9,0-83.9c0-4.9-0.4-9.8-1.5-14.6c-1.2-5.3-2.9-10.3-6.9-14.4c-9.3-9.5-21-11.5-33.5-11.4c-3,0-6,0.7-9,1.2
	c-5.4,1-10.6,2.7-15.4,5.7c-2.8,1.7-4.9,4.3-8.2,6.9c0-2.8,0-4.7,0-6.7c0-3.6-0.1-3.8-3.7-3.8c-9.9,0-19.9,0-29.8,0
	c-0.4,0-0.7,0-1.1,0c-1.7-0.1-2.7,0.6-2.6,2.5c0,0.9,0,1.9,0,2.8c0,15,0,30,0,44.9c0,23.9,0,47.7,0,71.6c0,3.7,0.1,3.8,3.7,3.9
	c9.8,0,19.7,0,29.5,0c3.7,0,4-0.4,4.1-4c0-0.7,0-1.4,0-2.1c0-23.5,0-47,0-70.6c0-3.7,0.6-7.2,1.5-10.7c1.9-7.1,7.6-11.4,14.9-11.6
	c1.8,0,3.5,0,5.3,0c7,0.2,13.7,5.2,14.9,12.1C1437.7,535.7,1438,537.7,1438,539.9z"/>
<path fill="#1D1D1B" d="M815,479.4c0-8.3,0-16.6,0-24.9c0-4.5,0-4.6-4.7-4.6c-26.8,0-53.6,0-80.4,0c-13.9,0-27.8,0-41.8,0
	c-3.6,0-3.8,0.1-3.8,3.7c0,6.8,0,13.6,0,20.4c0,2.2,0,4.4,0,6.7c0.1,2.6,0.3,2.8,2.8,2.9c1.4,0.1,2.8,0,4.2,0c11.1,0,22.2,0,33.3,0
	c3.5,0,3.8,0.4,3.9,3.8c0,0.8,0,1.6,0,2.5c0,19.9,0,39.8,0,59.7c0,22.1,0,44.2,0,66.3c0,4.6,0,4.6,4.7,4.6c11.3,0,22.7,0,34,0
	c3.7,0,4-0.3,4.1-4c0-0.8,0-1.6,0-2.5c0-20.7,0-41.4,0-62.1c0-21.1,0-42.1,0-63.2c0-1.1,0-2.1,0-3.2c0-1.3,0.7-1.9,2-2
	c0.9,0,1.9,0,2.8,0c11.5,0,22.9,0,34.4,0C814.9,483.7,815,483.6,815,479.4z"/>
<path fill="#1D1D1B" d="M1041.4,597c3.3-6.5,4.2-13.3,4-20.4c-0.3-7.7-3-14.4-8.2-20c-5.5-6-12.7-9.4-20.3-12.1
	c-8.2-2.9-16.7-4.4-25.2-6.1c-5-1-10.1-1.8-15-3.6c-2.3-0.8-4.1-2.2-5.1-4.5c-1.7-4,0.3-8.1,5-10.1c4.8-2,9.9-2.7,15.1-2.1
	c9.7,1.2,18.5,5,26.3,10.8c2.2,1.7,2.3,1.6,4.4-0.4c4.2-3.9,8.3-7.9,12.6-11.7c2.7-2.3,5.1-4.8,7.8-7.5c-0.5-0.5-0.7-0.8-0.9-1
	c-14.5-10.6-30.8-16.7-48.7-17.8c-11.3-0.7-22.4,0.4-33,5c-14.7,6.3-26.8,21.2-25.9,38.2c0.7,13.8,7,23.6,19.3,29.4
	c8.2,3.9,17,5.9,25.9,7.5c6.2,1.1,12.5,1.7,18.6,3.4c1.9,0.6,3.8,1.3,5.4,2.4c4.7,3,5.3,8.5,1.5,12.6c-1.2,1.3-2.6,2.4-4.2,3.1
	c-6.5,2.9-13.3,3.7-20.2,2.8c-8-1-15.3-4.2-21.9-8.8c-2.7-1.9-5.3-3.9-7.6-6.1c-1.9-1.8-2.4-1.6-4.5-0.1c-4.1,3-7.4,6.8-11.2,10
	c-2.9,2.4-5.5,5.1-8.3,7.5c-1.4,1.2-1.3,2.2,0,3.4c1.6,1.6,3.4,2.9,5.1,4.3c8,6.7,17.1,11.5,27,14.5c9.1,2.7,18.5,3.9,28,3.8
	c13.2-0.2,25.8-2.8,37.4-9.3C1031.7,610.1,1037.5,604.6,1041.4,597z"/>
<path fill="#1D1D1B" d="M1649.1,589.6c-7.5-3.9-15-7.7-22.4-11.6c-3.9-2-3.5-1.3-4.7,1.8c-0.3,0.9-0.8,1.7-1.3,2.5
	c-5,8.5-12.7,13-22.3,12.8c-9.8-0.2-16.9-5.4-21.5-14c-4-7.4-5.8-15.3-5.6-21.4c0-12.2,2.1-21.7,7.9-30.1
	c6.4-9.4,18.2-12.6,28.5-7.8c6,2.8,10.2,7.3,13.4,12.9c1.4,2.4,1.4,2.4,3.7,1.2c7.6-4.4,15.2-8.7,22.8-13.1c2.2-1.3,2.2-1.3,0.9-3.4
	c-3.7-6.1-8.6-11.1-14.1-15.5c-9.9-8-21.5-11.7-34.1-12.4c-10-0.6-19.8,0.8-29.3,4.3c-9.8,3.6-17.7,9.7-24,17.7
	c-10.7,13.6-14.2,29.8-14.3,46.7c0,4.1,0.4,8.4,1.1,12.5c2.3,13.4,7.4,25.2,17.4,34.8c8.2,7.9,17.9,12.6,28.8,15.2
	c6.6,1.6,13.3,2,20.1,1.6c9.2-0.6,17.7-3.2,25.7-7.6c10.2-5.6,17.8-13.9,23.9-23.7C1651.4,590.8,1651.4,590.7,1649.1,589.6z"/>
<path fill="#1D1D1B" d="M1126.3,620c3.1-0.6,3.3-0.6,3.3-3.8c0-7.5,0-15,0-22.5c0-3-0.3-3.2-3.2-3.3c-1,0-2.1-0.1-3.1,0.2
	c-2.4,0.6-4.9,0.5-7.3,0.4c-6-0.2-8.8-3-8.8-9c0-19.4,0-38.9,0-58.3c0-3.4,0.2-3.6,3.6-3.6c6,0,11.9,0,17.9,0c2.8,0,3.1-0.3,3.1-3
	c0.1-5.4,0.1-10.8,0-16.2c0-3.1-0.2-3.3-3.5-3.3c-5.4,0-10.8,0-16.2,0c-4.9,0-4.9,0-4.9-4.8c0-10.4,0-20.8,0-31.3
	c0-2.9-0.3-3.3-2.8-3.3c-10.4,0-20.8,0-31.3,0c-2.6,0-3,0.5-3.1,3.2c0,0.9,0,1.9,0,2.8c0,9.9,0,19.9,0,29.8c0,3.2-0.3,3.4-3.4,3.4
	c-3.9,0-7.7,0-11.6,0c-3,0-3.2,0.3-3.3,3.2c-0.1,5.4-0.1,10.8,0,16.2c0,2.9,0.3,3.1,3.3,3.1c3.6,0,7.3,0,10.9,0c4,0,4,0.1,4,4.2
	c0,9.9,0,19.9,0,29.8c0,9.6-0.2,19.2,0.1,28.8c0.1,5.2,0.3,10.5,1.3,15.7c1.9,9.2,6.8,16,15.8,19.6c4.5,1.8,9.2,2.8,14,2.9
	C1109.6,621.5,1118,621.6,1126.3,620z"/>
<path fill="#1D1D1B" d="M1213.9,522.6c0-8,0-15.9,0-23.9c0-5.5,0-5.5-5.3-4.7c-0.3,0.1-0.7,0.1-1,0.1c-9.9,1.5-19,4.8-26.9,11.1
	c-0.8,0.6-1.6,1.4-3.2,1.5c0-3.4,0.1-6.5,0-9.7c-0.1-2.5-0.3-2.7-2.9-2.9c-0.7,0-1.4,0-2.1,0c-8.5,0-17.1,0-25.6,0
	c-5.2,0-5.2,0-5.2,5.1c0,38.7,0,77.5,0,116.2c0,0.7,0,1.4,0,2.1c0.1,2.6,0.3,2.9,2.8,2.9c10.4,0,20.8,0,31.2,0c2.6,0,3-0.6,3.1-3.1
	c0-0.9,0-1.9,0-2.8c0-18.4,0-36.7,0-55.1c0-4.6-0.1-9.1,0.1-13.7c0.4-8.1,3.8-12.7,10.9-14.9c6.8-2.1,13.9-3,20.9-4.3
	C1213.9,526,1213.9,526.1,1213.9,522.6z"/>
<path fill="#1D1D1B" d="M1518.7,620.6c3.4,0,3.5-0.2,3.5-3.6c0-0.8,0-1.6,0-2.5c0-19,0-37.9,0-56.9c0-19.9,0-39.8,0-59.7
	c0-3.6-0.2-3.7-3.8-3.8c-9.1,0-18.2,0-27.4,0c-5.4,0-5.4,0-5.4,5.5c0,38.6,0,77.2,0,115.8c0,0.2,0,0.5,0,0.7c0,4.3,0,4.4,4.2,4.4
	c3.5,0,7,0,10.5,0C1506.6,620.6,1512.7,620.6,1518.7,620.6z"/>
<path fill="#1D1D1B" d="M1488.9,478.7c5,0.1,10.1,0,15.1,0c5.1,0,10.3,0,15.4,0c2.6,0,2.9-0.3,2.9-2.8c0.1-7.6,0.1-15.2,0-22.8
	c0-2.8-0.3-3.1-3-3.1c-10.1,0-20.1,0-30.2,0c-2.8,0-3.3,0.5-3.3,3.3c-0.1,7.5-0.1,15,0,22.5C1485.8,478.4,1486.1,478.7,1488.9,478.7
	z"/>
<path fill="#1D1D1B" d="M1485.6,665.8c-0.1-2.7-0.3-5.6-2.3-7.9c-3.2-3.6-7.3-4.5-11.8-4c-3.9,0.5-7.2,2.4-9.8,5.5
	c-4.8-7.3-15-7.4-21.8-0.7c-0.7-0.7-0.6-1.3-0.6-1.8c-0.1-1.8-1.1-2.4-2.7-2.5c-2.7-0.1-3.5,0.6-3.5,3.5c0,10.2,0,20.4,0,30.5
	c0,0.6,0,1.2,0.1,1.7c0.1,0.4,0.4,0.9,0.8,1.1c2.3,1.5,5.3,0,5.4-2.8c0-1.1,0-2.1,0-3.2c0-5-0.1-10.1,0-15.1
	c0.1-5.7,3.3-9.7,8.2-10.8c4.8-1,8.4,1.8,8.6,6.6c0.1,1.8,0,3.5,0,5.3c0,5.7,0,11.5,0,17.2c0,1-0.2,2.2,1,2.8c2.6,1.4,5.2-0.1,5.3-3
	c0-1.1,0-2.1,0-3.2c0-5.6,0-11.2,0-16.8c0.1-4,2-6.9,5.8-8.4c5.6-2.3,10.2,0.3,11,6.3c0.2,1.4,0.1,2.8,0.1,4.2c0,6,0,11.9,0,17.9
	c0,1-0.3,2.3,0.8,2.9c1.4,0.7,3,0.6,4.4,0.1c1.3-0.4,1.1-1.7,1.1-2.7C1485.7,681,1485.8,673.4,1485.6,665.8z"/>
<path fill="#1D1D1B" d="M1380,672.6c-2,0.3-2.2,1.8-2.5,3.3c-1.5,6.8-6,10.5-12.7,11.2c-5.7,0.6-11-1.1-14.4-6.1
	c-5.4-8-5.8-16.7-2.5-25.4c2.8-7.5,9.3-11.2,17.3-10.2c4.8,0.6,9,2.5,11.2,7.3c1.5,3.3,1.9,3.4,5.7,3.2c2.1-0.2,2.3-0.4,1.8-2.3
	c-1.4-5-4.1-8.8-8.8-11.3c-3.7-2-7.6-2.9-11.1-2.7c-10.9-0.2-18.4,4.2-22.4,13.6c-3.1,7.3-3.8,14.9-1.4,22.6c1.1,3.6,2.5,7.1,5,9.9
	c3.7,4.1,8.3,6.4,13.7,7c10.9,1.2,21.7-2.4,25-15.5C1385.2,673.1,1384.2,671.9,1380,672.6z"/>
<path fill="#1D1D1B" d="M1144.2,672.5c-3.8-0.3-4.1-0.1-5.3,3.7c-0.2,0.7-0.4,1.4-0.7,2c-1.8,4.2-4.7,7.2-9.3,8.4
	c-8.9,2.3-17.7-2.8-20.2-11.7c-1.5-5.1-1.8-10.4-0.6-15.6c2.7-11.4,11.5-16.4,22.1-13.4c3.4,1,6,3.1,7.6,6.4
	c1.6,3.3,2.6,3.9,6.2,3.3c1.4-0.2,1.9-0.8,1.5-2.1c-0.8-2.7-1.9-5.3-3.9-7.4c-4.5-4.9-10.2-6.8-15-6.7c-12.2-0.1-19.7,4.7-23.6,14.3
	c-3.5,8.5-3.1,17.1,0,25.6c1.3,3.4,3.3,6.4,6.4,8.6c7.7,5.6,16,6.3,24.6,3c7.4-2.8,10.9-8.8,12.1-16.4
	C1146.2,673.1,1145.6,672.7,1144.2,672.5z"/>
<path fill="#1D1D1B" d="M1076.8,688c-5.9-15-11.7-30-17.6-45.1c-0.4-1-0.8-2-1.9-2.4c-3.3-1.3-6.6,0-7.9,3.3
	c-5,12.7-10.1,25.4-15,38.2c-1.2,3-2.7,5.9-3.2,9.1c0.6,0.5,1.2,0.5,1.8,0.5c4.6,0.2,4.8,0,6.3-4.3c1.1-3,2.3-5.9,3.3-8.9
	c0.6-1.7,1.6-2.4,3.4-2.4c5.4,0.1,10.8,0.1,16.1,0c2,0,3,0.8,3.6,2.6c1.1,3.3,2.4,6.6,3.7,9.9c1.1,2.7,4.4,4,7.1,2.8
	c0.6-0.3,0.9-0.7,0.8-1.4C1077.3,689.3,1077.1,688.6,1076.8,688z M1060.3,670.5c-4,0.1-7.9,0.1-11.9,0c-2,0-2.5-0.5-1.8-2.3
	c2.4-6.6,4.8-13.1,7.3-19.7c0.1-0.2,0.3-0.2,0.8-0.6c0.8,2.3,1.7,4.6,2.5,6.8c1.6,4.4,3.2,8.8,4.8,13.2
	C1062.7,670.1,1062.5,670.4,1060.3,670.5z"/>
<path fill="#1D1D1B" d="M1502.4,657.6c-0.2,0.2-0.6,0.3-0.9,0.1c-0.1-0.2-0.2-0.4-0.3-0.6c-0.7-2.5-1.6-2.9-4.3-2.6
	c-2.3,0.3-1.9,1.9-2,3.4c0,0.4,0,0.7,0,1.1c0,14.2,0,28.3,0,42.5c0,0.8,0,1.6,0.1,2.5c0,0.6,0.2,1.3,0.7,1.5c1.4,0.6,3,0.6,4.5,0.1
	c1.3-0.4,1-1.7,1.1-2.7c0-3,0-6.1,0-9.1c0-1.7,0-3.4,0-6c4.3,4.6,9.2,5.2,14.3,4.8c5-0.4,8.9-2.8,11.4-7.2
	c3.4-6.1,3.9-12.6,1.9-19.3C1525,652.5,1509.2,650.7,1502.4,657.6z M1523,674.1c-0.1,1.2,0.1,3.1-0.4,4.9c-1.4,4.9-5.5,8.3-10.1,8.2
	c-5.3-0.1-9.3-3-10.7-7.9c-1.5-5.1-1.6-10.1,1.2-14.9c2.2-3.8,5.6-5.6,10-5.1c4.4,0.4,7.5,2.8,9.3,6.9
	C1523.1,668.6,1523,671,1523,674.1z"/>
<path fill="#1D1D1B" d="M1185.2,687.2c-1.9,0-2.2-1.4-2.2-2.9c0-3.4,0-6.8,0-10.2c0,0,0,0,0,0c0-3.3,0.1-6.6,0-9.8
	c-0.2-4.3-1.7-7.8-6.1-9.3c-5.6-1.9-11.3-1.8-16.8,0.4c-3.2,1.3-5.3,3.9-6.3,7.2c-0.8,2.7,0,3.7,2.8,3.7c1.6,0,2.7-0.5,3.2-2.1
	c0.6-1.9,1.8-3.3,3.7-4c2.4-0.9,5-1.2,7.6-0.7c1.8,0.3,3.3,1,4.5,2.5c2,2.4,1.5,5.4-1.2,6.8c-1.2,0.7-2.6,0.9-4,1.1
	c-4,0.7-8.1,1-12,2.5c-5.1,2-7.3,6.3-6.6,11.1c0.8,5.6,4.4,8.5,10,8.9c4.8,0.3,9.3-0.3,13.3-3.3c0.9-0.7,1.7-0.8,2.5,0.5
	c1.5,2.6,4.8,3.6,7.5,2.6c1.4-0.5,1.5-1.7,1.5-2.9C1186.5,688.3,1186.7,687.2,1185.2,687.2z M1176.7,677.4c0.1,4.3-2,7.1-5.8,8.6
	c-3.1,1.3-6.2,1.8-9.5,0.3c-3.1-1.5-4.1-5.6-1.8-8.2c1.2-1.5,2.8-2.4,4.7-2.7c3.2-0.5,6.4-1,9.6-1.6c2.4-0.4,2.6-0.3,2.7,2.2
	C1176.7,676.4,1176.7,676.9,1176.7,677.4z"/>
<path fill="#1D1D1B" d="M1246.5,687.5c-2.5-0.6-2.4-2.5-2.4-4.4c0-5.5,0-11,0-16.5c0-2-0.2-4-0.8-5.9c-0.9-2.8-2.8-4.9-5.6-5.8
	c-5.4-1.8-10.9-1.7-16.1,0.3c-3.9,1.6-6.4,4.5-7.1,8.9c-0.3,1.6,0.3,2.1,1.8,2.1c3,0.2,3.3,0.1,4.7-2.9c0.9-1.8,2.2-2.9,4.1-3.5
	c2.6-0.8,5.3-0.9,7.9-0.2c2.9,0.8,4.9,3.3,4.7,5.7c-0.1,2.1-1.9,3.6-5,4.2c-1.9,0.4-3.9,0.5-5.9,0.9c-3,0.5-6,0.9-8.7,2.4
	c-3.8,2-6,6-5.6,10.1c0.5,4.5,3.2,7.9,7.8,8.8c4.6,0.9,9.3,0.9,13.6-1.5c1.2-0.7,2-2,3.4-2.4c2.5,4,4.4,5,8.1,4.2
	c1.2-0.2,1.9-0.8,2-2.1C1247.6,689.1,1247.8,687.8,1246.5,687.5z M1233.2,685.4c-3.8,2-7.8,2.7-11.7,0.4c-2.9-1.8-2.7-7,0.3-9
	c2-1.4,4.4-1.6,6.7-1.9c2.2-0.3,4.4-0.7,6.6-1c2.5-0.4,2.6-0.3,2.8,2.1c0,0.3,0,0.7,0,1.1C1237.8,680.7,1236.5,683.6,1233.2,685.4z"
	/>
<path fill="#1D1D1B" d="M1568.9,687.5c-3-0.8-3.1-3.1-3.1-5.5c0-6.1,0-12.2,0-18.2c0-4.6-2.3-7.9-6.7-9.1
	c-5.1-1.4-10.2-1.3-15.1,0.5c-4.1,1.5-6.4,4.5-7.4,8.7c-0.2,0.8-0.3,1.7,0.6,2.2c1.8,1.1,5,0,5.8-1.9c0.5-1.2,0.9-2.5,2.1-3.1
	c3.8-2.1,7.8-2.4,11.8-0.7c2.1,0.9,3,2.9,3.1,5.1c0,1.9-1.5,3.3-3.8,4c-0.8,0.2-1.6,0.3-2.4,0.5c-4.2,0.8-8.6,1.1-12.6,2.7
	c-4.4,1.8-6.7,5.9-6.1,11.1c0.5,4.4,3.6,7.9,8.1,8.4c5.9,0.7,11.8,0.7,16.6-4.4c2.4,4.4,4.2,5.4,8.3,4.5c1.2-0.2,2-0.8,2.1-2
	C1570,689.1,1570.2,687.8,1568.9,687.5z M1559.5,677.8c0,5-2.2,7.7-7.2,8.8c-2.4,0.5-4.8,0.8-7.2,0c-2.3-0.8-3.4-2.5-3.6-4.7
	c-0.2-2.1,0.6-3.9,2.5-5c1.2-0.7,2.5-1.3,3.9-1.5c3.1-0.5,6.2-0.9,9.3-1.5c1.8-0.3,2.4,0.2,2.3,1.9
	C1559.5,676.4,1559.5,677.1,1559.5,677.8z"/>
<path fill="#1D1D1B" d="M1410.8,653.9c-6.4-0.8-11.9,1.1-16.3,6.1c-2.7,3.1-3.7,6.8-4.1,10.6c-1.4,11.8,5.8,22.7,18,21.7
	c8.8,0.7,13.9-4.5,16.3-10.2c1.5-3.6,1.7-7.4,1.4-11.3C1425.6,662.6,1420.6,655,1410.8,653.9z M1419,678.7c-0.8,2.9-2.6,5-4.8,6.7
	c-4.5,3.3-11.8,1.8-14.8-3c-1.8-2.9-2.5-6-2.1-9.2c-0.2-2.9,0.1-5.4,1.5-7.9c2.3-4.2,6-6.5,10.6-6c4.5,0.5,7.9,3,9.4,7.4
	C1420.1,670.6,1420.1,674.6,1419,678.7z"/>
<path fill="#1D1D1B" d="M1307.8,672.1c-1-0.4-2-0.7-3-1c-2.9-0.8-5.9-1.4-8.8-2.2c-1.7-0.5-3.4-0.9-4.7-2.2
	c-1.8-1.7-1.9-3.8-0.1-5.5c3.6-3.4,12-2.5,14.3,2c1.2,2.3,2.8,2.5,4.8,2.4c1.5-0.1,2.1-1,1.8-2.4c-0.6-2.8-1.9-5.2-4.4-6.9
	c-3-1.9-6.4-2.4-9.7-2.5c-3.8-0.2-7.4,0.9-10.7,2.9c-4.5,2.9-5.4,10.6-1.3,14.1c2.6,2.3,5.7,3.1,8.9,3.9c3.2,0.8,6.5,1.1,9.4,2.7
	c2,1.1,3.3,2.5,3,5c-0.3,2.3-1.8,3.4-3.8,4.1c-3.2,1.1-6.5,1-9.6-0.1c-2.5-0.9-4.1-2.5-5-5c-0.4-1.1-3.8-1.6-5.1-0.9
	c-1.5,0.9-0.9,2.2-0.5,3.4c1.2,3.7,3.6,6.1,7.4,7.4c2.6,0.9,5.3,1,8.2,0.9c3.2,0.3,6.5-0.2,9.6-1.9c3.6-2.1,5.8-5.2,5.8-9.4
	C1314.1,676.7,1311.9,673.6,1307.8,672.1z"/>
<path fill="#1D1D1B" d="M1643.3,654.4c-3.2-0.3-3.9,0.1-4.9,3.1c-1.8,5.3-3.5,10.7-5.4,16c-1.1,3.3-2.4,6.6-3.7,10
	c-1.6-0.8-1.6-1.9-2-2.9c-2.7-7.6-5.4-15.2-8.1-22.8c-1.1-3.2-1.6-3.5-4.8-3.5c-3.1,0-3.3,0.4-2.1,3.3c3.8,9.6,7.5,19.2,11.5,28.6
	c1.6,3.7,1.6,6.8-0.1,10.3c-1.8,3.6-2.6,4.4-6.6,4.2c-1.3,0-2.1,0.2-2.1,1.6c0,1.3-0.6,2.9,1.2,3.7c3.1,1.3,8.2-0.2,10.2-2.9
	c1.5-2,2.5-4.2,3.4-6.5c3.9-10.3,7.9-20.5,11.9-30.8c1.1-2.9,2.3-5.9,3.4-8.8C1645.8,655,1645.4,654.6,1643.3,654.4z"/>
<path fill="#1D1D1B" d="M1597.7,654.3c-6.3-1.4-11.5-0.1-16.2,5.4c-0.1-1.4-0.1-2.2-0.3-3c-0.3-1.9-1.1-2.4-3.2-2.3
	c-1.9,0.1-2.4,0.5-2.4,2.6c0,10.6,0,21.3,0,31.9c0,2.3,0.4,2.5,2.8,2.6c3,0.1,3.5-0.3,3.5-3.3c0-6.3,0.1-12.6,0-18.9
	c0-4.7,2.4-7.7,6.6-9.4c4.4-1.8,10.6-0.8,11.5,6.2c0.2,1.3,0.2,2.6,0.2,3.8c0,6.3,0,12.6,0,18.9c0,2.2,0.6,2.6,2.8,2.6
	c2.2,0,2.8-0.4,2.8-2.5c0.1-8.3,0.1-16.6,0-24.9C1605.7,659.5,1602.3,655.3,1597.7,654.3z"/>
<path fill="#1D1D1B" d="M1205.9,686.5c-0.7-0.2-1.4-0.3-2.1-0.5c-3-0.6-3.2-0.8-3.2-3.9c0-5.5-0.1-11,0-16.5c0-1.7-0.7-3.7,0.6-5.1
	c1.2-1.3,3.1-0.6,4.7-0.6c1.6-0.1,2.3-0.7,2.4-2.3c0.1-2.4-0.6-3.1-3-3.3c-0.7,0-1.4,0-2.1,0c-1.7,0.1-2.6-0.7-2.6-2.5
	c0-1.8,0-3.5,0-5.3c-0.1-2.5-0.6-2.9-3.3-2.8c-2.5,0-2.9,0.3-3,2.8c-0.1,1.3,0,2.6,0,3.9c0,3.5,0,3.6-3.6,4
	c-1.4,0.2-2.5,0.5-2.7,2.1c-0.4,2.5,0.3,3.2,3,3.5c3.2,0.3,3.3,0.3,3.3,3.5c0,3.3,0,6.5,0,9.8c0,0.9,0,1.9,0,2.8
	c0.2,3.6-0.5,7.2,0.6,10.8c0.8,2.8,2.5,4.4,5.4,4.6c1.7,0.1,3.5,0,5.3,0.1c1.4,0,2.6-0.2,2.7-2C1208.4,687.6,1208,687,1205.9,686.5z
	"/>
<path fill="#1D1D1B" d="M1259.6,644.9c0-0.9,0-1.9-0.1-2.8c0-0.6-0.3-1.1-0.8-1.5c-2.3-1.4-5.2,0.1-5.4,2.6c-0.1,0.7,0,1.4,0,2.1
	c0,13.9,0,27.8,0,41.7c0,0.9,0,1.9,0.1,2.8c0.1,0.8,0.5,1.3,1.2,1.5c3,1.1,5-0.2,5-3.4c0-7.2,0-14.5,0-21.7
	C1259.6,659.1,1259.6,652,1259.6,644.9z"/>
<path fill="#1D1D1B" d="M1275.7,673.1c0-5.2,0.1-10.5,0-15.7c0-2.5-0.8-3.1-3.2-3c-2.3,0-2.9,0.6-3,2.9c-0.1,0.7,0,1.4,0,2.1
	c0,9.2,0,18.4,0,27.6c0,0.9,0,1.9,0.1,2.8c0,0.7,0.4,1.3,1.1,1.6c2.9,1.2,5.1-0.1,5.1-3.2C1275.7,683.1,1275.7,678.1,1275.7,673.1
	C1275.7,673.1,1275.7,673.1,1275.7,673.1z"/>
<path fill="#1B1C1A" d="M1272.3,648c3,0.1,3.4-0.3,3.4-3.4c0-0.6,0-1.2,0-1.7c0-1.7-0.9-2.5-2.6-2.6c-3.1-0.2-3.7,0.3-3.7,3.8
	C1269.4,647.6,1269.6,647.9,1272.3,648z"/>
</svg>
